<svg xmlns="http://www.w3.org/2000/svg" xmlns:xlink="http://www.w3.org/1999/xlink" width="108" height="108" viewBox="0 0 108 108">
  <defs>
    <filter id="Trazado_904820" x="0" y="0" width="108" height="108" filterUnits="userSpaceOnUse">
      <feOffset dy="3" input="SourceAlpha"/>
      <feGaussianBlur stdDeviation="3" result="blur"/>
      <feFlood flood-opacity="0.161"/>
      <feComposite operator="in" in2="blur"/>
      <feComposite in="SourceGraphic"/>
    </filter>
  </defs>
  <g id="Grupo_1207552" data-name="Grupo 1207552" transform="translate(-200 -297)">
    <g id="Grupo_1206256" data-name="Grupo 1206256" transform="translate(0 -379)">
      <g id="Grupo_1182739" data-name="Grupo 1182739" transform="translate(-0.227 -102.67)">
        <g id="Grupo_1179560" data-name="Grupo 1179560" transform="translate(-0.227 23)">
          <g id="Grupo_1173787" data-name="Grupo 1173787" transform="translate(209.455 761.67)">
            <g id="Grupo_1171910" data-name="Grupo 1171910" transform="translate(0)">
              <g id="Grupo_1167341" data-name="Grupo 1167341">
                <g id="Grupo_1166792" data-name="Grupo 1166792">
                  <g transform="matrix(1, 0, 0, 1, -9, -6)" filter="url(#Trazado_904820)">
                    <g id="Trazado_904820-2" data-name="Trazado 904820" transform="translate(9 6)" fill="#fff9e9">
                      <path d="M 44.99999618530273 88.50003051757812 C 39.12687301635742 88.50003051757812 33.43022155761719 87.35010528564453 28.06829643249512 85.08219909667969 C 22.88852119445801 82.89134216308594 18.23629570007324 79.75461578369141 14.24084663391113 75.75916290283203 C 10.24540901184082 71.76371765136719 7.108683586120605 67.11150360107422 4.917821407318115 61.93172836303711 C 2.649921178817749 56.56978988647461 1.499996185302734 50.87313842773438 1.499996185302734 45.00001525878906 C 1.499996185302734 39.12689208984375 2.649921178817749 33.43024063110352 4.917821407318115 28.06831550598145 C 7.108683586120605 22.88854026794434 10.24540901184082 18.23631477355957 14.24084663391113 14.24086570739746 C 18.23629570007324 10.24541568756104 22.88852119445801 7.10869026184082 28.06829643249512 4.917840480804443 C 33.43022155761719 2.649927854537964 39.12687301635742 1.50000274181366 44.99999618530273 1.50000274181366 C 50.87311935424805 1.50000274181366 56.56977081298828 2.649927854537964 61.93169784545898 4.917840480804443 C 67.11147308349609 7.10869026184082 71.76369476318359 10.24541568756104 75.75914764404297 14.24086570739746 C 79.75458526611328 18.23631477355957 82.89131164550781 22.88854026794434 85.08216857910156 28.06831550598145 C 87.35007476806641 33.43024063110352 88.5 39.12689208984375 88.5 45.00001525878906 C 88.5 50.87313842773438 87.35007476806641 56.56978988647461 85.08216857910156 61.93172836303711 C 82.89131164550781 67.11150360107422 79.75458526611328 71.76371765136719 75.75914764404297 75.75916290283203 C 71.76369476318359 79.75461578369141 67.11147308349609 82.89134216308594 61.93169784545898 85.08219909667969 C 56.56977081298828 87.35010528564453 50.87311935424805 88.50003051757812 44.99999618530273 88.50003051757812 Z" stroke="none"/>
                      <path d="M 44.99999618530273 3 C 39.32870864868164 3 33.82865142822266 4.110061645507812 28.65262603759766 6.299346923828125 C 23.65165710449219 8.414573669433594 19.15968322753906 11.44334411621094 15.301513671875 15.301513671875 C 11.44333648681641 19.15968322753906 8.414566040039062 23.65165710449219 6.299339294433594 28.65262985229492 C 4.110054016113281 33.82867050170898 2.999992370605469 39.32872772216797 2.999992370605469 45.00001525878906 C 2.999992370605469 50.67130279541016 4.110054016113281 56.17136001586914 6.299339294433594 61.34738922119141 C 8.414566040039062 66.34837341308594 11.44333648681641 70.84033203125 15.301513671875 74.69850158691406 C 19.15968322753906 78.55668640136719 23.65165710449219 81.58545684814453 28.65262603759766 83.70068359375 C 33.82865142822266 85.88996887207031 39.32870864868164 87.00003051757812 44.99999618530273 87.00003051757812 C 50.67128372192383 87.00003051757812 56.17134094238281 85.88996887207031 61.34736633300781 83.70068359375 C 66.34834289550781 81.58545684814453 70.84030914306641 78.55668640136719 74.69847869873047 74.69850158691406 C 78.55665588378906 70.84033203125 81.58542633056641 66.34837341308594 83.70065307617188 61.34738922119141 C 85.88993835449219 56.17136001586914 87 50.67130279541016 87 45.00001525878906 C 87 39.32872772216797 85.88993835449219 33.82867050170898 83.70065307617188 28.65262985229492 C 81.58542633056641 23.65165710449219 78.55665588378906 19.15968322753906 74.69847869873047 15.301513671875 C 70.84030914306641 11.44334411621094 66.34834289550781 8.414573669433594 61.34736633300781 6.299346923828125 C 56.17134094238281 4.110061645507812 50.67128372192383 3 44.99999618530273 3 M 44.99999618530273 0 C 69.85281372070312 0 90 20.14718627929688 90 45.00001525878906 C 90 69.85282897949219 69.85281372070312 90.00003051757812 44.99999618530273 90.00003051757812 C 20.14717864990234 90.00003051757812 -7.62939453125e-06 69.85282897949219 -7.62939453125e-06 45.00001525878906 C -7.62939453125e-06 20.14718627929688 20.14717864990234 0 44.99999618530273 0 Z" stroke="none" fill="#8b701c"/>
                    </g>
                  </g>
                </g>
              </g>
            </g>
          </g>
        </g>
      </g>
    </g>
    <g id="meta" transform="translate(225.584 310.011)">
      <g id="Grupo_1207550" data-name="Grupo 1207550" transform="translate(0.833 8.348)">
        <path id="Trazado_1078077" data-name="Trazado 1078077" d="M432.838,219.653a4.6,4.6,0,0,1,6.85,6.129Z" transform="translate(-385.621 -195.625)" fill="#c8866a"/>
        <path id="Trazado_1078078" data-name="Trazado 1078078" d="M77.811,425.14q-2.081.208-4.174.267a2,2,0,0,0-2.168.021,7.358,7.358,0,0,1-1.558.007c-5.617-2.365-2.718-5.664,2.437-8.915a8.274,8.274,0,0,1,7.478,5.462A2.376,2.376,0,0,1,77.811,425.14Z" transform="translate(-60.265 -371.928)" fill="#efedff"/>
        <path id="Trazado_1078079" data-name="Trazado 1078079" d="M45.346,421.772a2.973,2.973,0,0,0,1.444,3.6c-.971-.047-2.311-.148-3.79-.3a2.375,2.375,0,0,1-2.014-3.158,8.32,8.32,0,0,1,8.24-5.462A9.413,9.413,0,0,0,45.346,421.772Z" transform="translate(-37.143 -371.862)" fill="#d9d9f9"/>
        <path id="Trazado_1078080" data-name="Trazado 1078080" d="M98.586,431.164l-.672,3.478a3.21,3.21,0,0,0,.58,2.553l.534.691q1.084.009,2.168-.021c0-.025-.056.055.505-.67a3.209,3.209,0,0,0,.58-2.553l-.7-3.621A2.3,2.3,0,0,0,98.586,431.164Z" transform="translate(-87.823 -384.384)" fill="#7a8fa5"/>
        <path id="Trazado_1078081" data-name="Trazado 1078081" d="M357.826,422.222a5.7,5.7,0,0,0-9.237-4.373c-4.374,3.1-7.012,5.128-2.1,7.719.6.037,1.205.062,1.808.08a2,2,0,0,1,2.168.021,34,34,0,0,0,5.348-.289A2.376,2.376,0,0,0,357.826,422.222Z" transform="translate(-306.503 -372.168)" fill="#f8ea69"/>
        <path id="Trazado_1078082" data-name="Trazado 1078082" d="M335.743,416.485a8.589,8.589,0,0,0-5.466,5.587,2.668,2.668,0,0,0,1.2,3.19q-1.184-.07-2.366-.188a2.376,2.376,0,0,1-2.015-3.158A8.3,8.3,0,0,1,335.743,416.485Z" transform="translate(-291.495 -371.863)" fill="#ffcf6b"/>
        <path id="Trazado_1078083" data-name="Trazado 1078083" d="M377.417,431.164l.672,3.478a3.21,3.21,0,0,1-.58,2.553l-.534.691q-1.084.009-2.168-.021c0-.025.055.055-.505-.67a3.209,3.209,0,0,1-.58-2.553l.7-3.621A2.3,2.3,0,0,1,377.417,431.164Z" transform="translate(-333.013 -384.384)" fill="#7a8fa5"/>
        <path id="Trazado_1078084" data-name="Trazado 1078084" d="M58.3,260.821a11.7,11.7,0,0,1-8.924,11.37c-11.354.508-15.39-14.676-5.275-19.86a13.893,13.893,0,0,1,13.748,5.262A11.55,11.55,0,0,1,58.3,260.821Z" transform="translate(-34.892 -225.707)" fill="#ffded0"/>
        <path id="Trazado_1078085" data-name="Trazado 1078085" d="M21.983,274.519A11.71,11.71,0,0,1,7.61,261.566a14.222,14.222,0,0,1,9.1-6.907A11.712,11.712,0,0,0,21.983,274.519Z" transform="translate(-7.5 -228.035)" fill="#ffccbf"/>
        <ellipse id="Elipse_12647" data-name="Elipse 12647" cx="1.672" cy="2.09" rx="1.672" ry="2.09" transform="translate(12.538 35.95)" fill="#495560"/>
        <path id="Trazado_1078086" data-name="Trazado 1078086" d="M77.492,236.86a6.613,6.613,0,0,1-2.91-1.654,1.684,1.684,0,0,0-1.949-.3,10.348,10.348,0,0,1-9.306.038,1.663,1.663,0,0,0-2.034.473c-.131.167-.276.34-.44.516-1.992-4.512,3.153-7.235,8.166-7.218A11.719,11.719,0,0,1,77.492,236.86Z" transform="translate(-54.541 -204.974)" fill="#7a8fa5"/>
        <path id="Trazado_1078087" data-name="Trazado 1078087" d="M22.834,226.013a11.723,11.723,0,0,0-8.166,7.218A8,8,0,0,1,8.461,235.8,11.711,11.711,0,0,1,22.834,226.013Z" transform="translate(-8.354 -202.269)" fill="#5b778f"/>
        <path id="Trazado_1078088" data-name="Trazado 1078088" d="M325.794,270.148c-12.879,1.9-17.375-16.09-4.868-20.225a12.408,12.408,0,0,1,13.788,8.576A11.706,11.706,0,0,1,325.794,270.148Z" transform="translate(-279.55 -223.664)" fill="#ffded0"/>
        <path id="Trazado_1078089" data-name="Trazado 1078089" d="M308.069,271.594a11.71,11.71,0,0,1-14.394-12.8,13.064,13.064,0,0,1,9.526-7.43,11.7,11.7,0,0,0,4.868,20.225Z" transform="translate(-261.826 -225.11)" fill="#ffccbf"/>
        <path id="Trazado_1078090" data-name="Trazado 1078090" d="M359.641,237.54a19.633,19.633,0,0,1-8.271-3.943,1.671,1.671,0,0,0-1.907-.122c-2.637,1.569-4.954,1.214-7.212,1.123-2.641-5.657,2.791-9.54,8.471-8.147A11.716,11.716,0,0,1,359.641,237.54Z" transform="translate(-304.478 -202.706)" fill="#db9e82"/>
        <path id="Trazado_1078091" data-name="Trazado 1078091" d="M308.795,226.016a11.721,11.721,0,0,0-8.471,8.147,7.659,7.659,0,0,0-5.922,1.8A11.708,11.708,0,0,1,308.795,226.016Z" transform="translate(-262.552 -202.27)" fill="#c8866a"/>
        <ellipse id="Elipse_12648" data-name="Elipse 12648" cx="1.672" cy="2.09" rx="1.672" ry="2.09" transform="translate(39.285 35.95)" fill="#495560"/>
        <path id="Trazado_1078092" data-name="Trazado 1078092" d="M300.769,184.607a9.842,9.842,0,0,0,4.718,3.732,1.665,1.665,0,0,0,1.986-2.45,16.467,16.467,0,0,1-2.1-5.157,4.219,4.219,0,0,0-4.608,3.875Z" transform="translate(-268.213 -162.301)" fill="#d9d9f9"/>
        <path id="Trazado_1078093" data-name="Trazado 1078093" d="M198.166,31.16a11.746,11.746,0,0,1-8,11c-16.512,1.113-16.506-23.408,0-22.2A11.705,11.705,0,0,1,198.166,31.16Z" transform="translate(-158.881 -19.347)" fill="#edebfc"/>
        <path id="Trazado_1078094" data-name="Trazado 1078094" d="M164.057,37.638a11.528,11.528,0,0,1-7.578-.052,1.656,1.656,0,0,0-1.8.476,9.952,9.952,0,0,1-3.993,2.8,1.666,1.666,0,0,1-2.008-2.44,16.515,16.515,0,0,0,1.916-4.409,1.663,1.663,0,0,0-.184-1.31,11.7,11.7,0,0,1,13.651-17.267,11.7,11.7,0,0,0,0,22.2Z" transform="translate(-132.772 -14.829)" fill="#d9d9f9"/>
        <path id="Trazado_1078095" data-name="Trazado 1078095" d="M212.662,66.724a6.694,6.694,0,0,1-9.2,6.2,7.016,7.016,0,0,1-.016-12.392A6.693,6.693,0,0,1,212.662,66.724Z" transform="translate(-178.391 -55.014)" fill="#d9d9f9"/>
        <path id="Trazado_1078096" data-name="Trazado 1078096" d="M199.967,76.931a6.694,6.694,0,0,1-.016-12.392A11.676,11.676,0,0,0,199.967,76.931Z" transform="translate(-174.895 -59.021)" fill="#c2c2f0"/>
        <circle id="Elipse_12649" data-name="Elipse 12649" cx="3.343" cy="3.343" r="3.343" transform="translate(24.24 8.367)" fill="#55d47b"/>
      </g>
      <g id="Grupo_1207551" data-name="Grupo 1207551" transform="translate(0 7.538)">
        <path id="Trazado_1078097" data-name="Trazado 1078097" d="M68.6,323.773a.833.833,0,0,0-.833.833v1.332a.833.833,0,1,0,1.665,0v-1.332A.833.833,0,0,0,68.6,323.773Z" transform="translate(-60.243 -288.667)"/>
        <path id="Trazado_1078098" data-name="Trazado 1078098" d="M181.54,323.773a.833.833,0,0,0-.833.833v1.332a.833.833,0,1,0,1.665,0v-1.332A.833.833,0,0,0,181.54,323.773Z" transform="translate(-160.646 -288.667)"/>
        <path id="Trazado_1078099" data-name="Trazado 1078099" d="M115.446,331.3a2.957,2.957,0,1,0,2.5,2.922A2.741,2.741,0,0,0,115.446,331.3Zm0,4.179c-.447,0-.839-.587-.839-1.257s.392-1.257.839-1.257.839.587.839,1.257S115.893,335.482,115.446,335.482Z" transform="translate(-100.404 -295.361)"/>
        <path id="Trazado_1078100" data-name="Trazado 1078100" d="M430.011,323.773a.833.833,0,0,0-.833.833v1.332a.833.833,0,1,0,1.665,0v-1.332A.833.833,0,0,0,430.011,323.773Z" transform="translate(-381.534 -288.667)"/>
        <path id="Trazado_1078101" data-name="Trazado 1078101" d="M317.069,323.773a.833.833,0,0,0-.833.833v1.332a.833.833,0,1,0,1.665,0v-1.332A.833.833,0,0,0,317.069,323.773Z" transform="translate(-281.13 -288.667)"/>
        <path id="Trazado_1078102" data-name="Trazado 1078102" d="M356.387,331.3a2.957,2.957,0,1,0,2.5,2.922A2.741,2.741,0,0,0,356.387,331.3Zm0,4.179c-.447,0-.839-.587-.839-1.257s.392-1.257.839-1.257.839.587.839,1.257S356.834,335.482,356.387,335.482Z" transform="translate(-314.598 -295.361)"/>
        <path id="Trazado_1078103" data-name="Trazado 1078103" d="M55.859,38.636a5.429,5.429,0,0,0-8.031-7.187,12.54,12.54,0,0,0-7.064,0,15.593,15.593,0,0,1-1.879-4.51,12.525,12.525,0,1,0-21.126-.265.832.832,0,0,1,.088.654,15.691,15.691,0,0,1-1.78,4.121A12.533,12.533,0,0,0,6.416,54.413a9.252,9.252,0,0,0-2.523,3.719A3.208,3.208,0,0,0,6.607,62.4a60,60,0,0,0,11.855,0,3.208,3.208,0,0,0,2.714-4.271,9.255,9.255,0,0,0-2.523-3.719,12.538,12.538,0,0,0,2.316-20.206,10.614,10.614,0,0,0,2.4-2.07.827.827,0,0,1,.9-.233,12.508,12.508,0,0,0,8.836-.212,10.508,10.508,0,0,0,2.762,2.515,12.533,12.533,0,0,0,2.315,20.206,9.255,9.255,0,0,0-2.523,3.719A3.208,3.208,0,0,0,38.369,62.4a60.378,60.378,0,0,0,11.855,0,3.207,3.207,0,0,0,2.714-4.271,9.253,9.253,0,0,0-2.523-3.719,12.54,12.54,0,0,0,5.444-15.777Zm-.928-1.788a12.622,12.622,0,0,0-5.223-4.676A3.771,3.771,0,0,1,54.93,36.847ZM5.458,58.7A7.586,7.586,0,0,1,8.09,55.2a12.426,12.426,0,0,0,2.518.667c-.482,2.492-.9,3.615-.183,5.131q-1.831-.066-3.652-.248A1.543,1.543,0,0,1,5.458,58.7Zm8.466-2.766c.674,3.487.942,3.677-.147,5.084q-.665.014-1.331.014c-1.1-1.419-.843-1.548-.171-5.024A12.426,12.426,0,0,0,13.924,55.934ZM19.611,58.7A1.543,1.543,0,0,1,18.3,60.746q-1.238.124-2.482.193c.683-1.5.28-2.544-.252-5.3a12.424,12.424,0,0,0,1.416-.444,7.585,7.585,0,0,1,2.632,3.5Zm-7.076-4.354A10.88,10.88,0,0,1,1.692,42.719a8.815,8.815,0,0,0,6.549-3.4.826.826,0,0,1,1.017-.236,11.2,11.2,0,0,0,10.048-.047.855.855,0,0,1,.988.152,7.457,7.457,0,0,0,2.8,1.717,10.875,10.875,0,0,1-10.557,13.44Zm9.734-15.691A5.747,5.747,0,0,1,21.456,38a2.518,2.518,0,0,0-2.911-.442,9.548,9.548,0,0,1-8.565.029,2.512,2.512,0,0,0-3.051.71,7.146,7.146,0,0,1-4.987,2.736,10.883,10.883,0,0,1,13.712-7.968,2.515,2.515,0,0,0,2.474,2.282,2.951,2.951,0,0,0,1.253-.31,10.908,10.908,0,0,1,2.887,3.619Zm2.548-8.323a2.5,2.5,0,0,0-2.711.719,9.07,9.07,0,0,1-3.662,2.567.833.833,0,0,1-1-1.224,17.361,17.361,0,0,0,2.012-4.632,2.5,2.5,0,0,0-.281-1.965,10.869,10.869,0,1,1,5.642,4.535Zm9.818.611a12.684,12.684,0,0,0,2.98-2.381,17.291,17.291,0,0,0,1.771,3.827.832.832,0,0,1-.983,1.233,9,9,0,0,1-3.768-2.679ZM37.221,58.7a7.587,7.587,0,0,1,2.632-3.5,12.4,12.4,0,0,0,1.416.444c-.53,2.744-.935,3.8-.252,5.3q-1.243-.07-2.482-.193A1.543,1.543,0,0,1,37.221,58.7Zm7.336-2.692c.666,3.447.926,3.6-.172,5.024q-.665,0-1.33-.014c-1.073-1.387-.845-1.472-.147-5.084a12.4,12.4,0,0,0,1.649.074ZM51.373,58.7a1.543,1.543,0,0,1-1.314,2.046q-1.82.182-3.652.248c.721-1.518.3-2.646-.183-5.131a12.423,12.423,0,0,0,2.518-.667,7.586,7.586,0,0,1,2.632,3.5ZM44.3,54.346A10.879,10.879,0,0,1,33.475,42.476c3.956-3.137,7.666.406,12.768-2.63a.842.842,0,0,1,.957.054,20.515,20.515,0,0,0,2.6,1.788.833.833,0,1,0,.836-1.44,18.854,18.854,0,0,1-2.385-1.643,2.514,2.514,0,0,0-2.856-.191c-4.051,2.41-7.448-.184-11.457,1.8a10.936,10.936,0,0,1,3.519-5.182c.119.05.237.1.358.145a2.492,2.492,0,0,0,3.363-2.114,10.883,10.883,0,0,1,13.907,9.05c-.442-.122-.881-.258-1.311-.411a.833.833,0,0,0-.558,1.569c.637.227,1.289.423,1.947.585A10.882,10.882,0,0,1,44.3,54.346Z" transform="translate(0 -7.538)"/>
        <path id="Trazado_1078104" data-name="Trazado 1078104" d="M202.5,60.244a.834.834,0,0,0-.929.723,5.845,5.845,0,1,1-2.3-5.422l-1.209,1.209a4.175,4.175,0,1,0,1.177,1.178l1.208-1.208a5.9,5.9,0,0,1,.74,1.316.833.833,0,0,0,1.544-.625,7.6,7.6,0,0,0-.773-1.44.833.833,0,0,0-.349-1.588l0,0a.833.833,0,0,0-1.586-.352,7.524,7.524,0,1,0,3.2,7.142.833.833,0,0,0-.723-.929Zm-6.738,2.5a2.511,2.511,0,1,1,1.086-4.774l-1.675,1.675a.833.833,0,0,0,1.178,1.177l1.675-1.675A2.514,2.514,0,0,1,195.757,62.745Z" transform="translate(-167.341 -47.7)"/>
        <path id="Trazado_1078105" data-name="Trazado 1078105" d="M99.6,141.647a.833.833,0,1,0,1.58-.527L99.5,136.105a.833.833,0,1,0-1.58.527Z" transform="translate(-87.015 -121.326)"/>
        <path id="Trazado_1078106" data-name="Trazado 1078106" d="M55.458,169.585a.833.833,0,1,0,1.178-1.177L54.128,165.9a.833.833,0,1,0-1.178,1.177Z" transform="translate(-46.855 -148.103)"/>
        <path id="Trazado_1078107" data-name="Trazado 1078107" d="M384.569,142.172a.833.833,0,0,0,1.053-.527l1.672-5.015a.833.833,0,1,0-1.58-.527l-1.672,5.015A.833.833,0,0,0,384.569,142.172Z" transform="translate(-341.371 -121.325)"/>
        <path id="Trazado_1078108" data-name="Trazado 1078108" d="M422.473,169.829c.461,0,.359-.014,3.1-2.751a.833.833,0,0,0-1.178-1.177l-2.508,2.508A.834.834,0,0,0,422.473,169.829Z" transform="translate(-374.833 -148.103)"/>
      </g>
    </g>
  </g>
</svg>
