<svg xmlns="http://www.w3.org/2000/svg" width="181.695" height="197.599" viewBox="0 0 181.695 197.599">
  <g id="Grupo_1207763" data-name="Grupo 1207763" transform="translate(-920.222 -7652.364)">
    <g id="Grupo_1207760" data-name="Grupo 1207760" transform="translate(957.177 7652.364)">
      <path id="Trazado_1078552" data-name="Trazado 1078552" d="M249.329,197.6h9.154V0h-130.7L114.413,20.862s-5.5,14.143,15.007,16.163c0,0,11.505,2.02,12.505,8.585s1,9.091-2.5,16.666c0,0-6.5,10.607,6,14.648,0,0,26.589,5.459,25.851,17.075a31.188,31.188,0,0,1-23.247,10.975s-8.5,10.1,5.505,13.636c0,0,11.506-1.127,6.5,30.438,0,0-15.009,44.69,84.936,20.807A194.791,194.791,0,0,1,249.329,197.6Z" transform="translate(-113.742 0.001)" fill="#f9af8e"/>
      <path id="Trazado_1078553" data-name="Trazado 1078553" d="M193.608,160.867a41.013,41.013,0,0,0-8.164-9.315c-4.957-4.175-12.973-8.966-19.366-5.242.145,3,1.832,6.325,7.662,8.214,0,0,13.947,2.872,21.331,8.882C194.619,162.527,194.123,161.677,193.608,160.867Z" transform="translate(-141.756 -77.599)" fill="#f6a576"/>
      <path id="Trazado_1078554" data-name="Trazado 1078554" d="M204.821,215.263a13.6,13.6,0,0,0,2.214-6.005,25.944,25.944,0,0,0,.054-3.748,31.675,31.675,0,0,1-21.87,9.47s-7.744,9.226,3.766,13.128a37.816,37.816,0,0,0,6.9-3.791A32.4,32.4,0,0,0,204.821,215.263Z" transform="translate(-150.638 -110.004)" fill="#f6a576"/>
      <path id="Trazado_1078555" data-name="Trazado 1078555" d="M166.735,86.81" transform="translate(-142.108 -46.467)" fill="none" stroke="#c88963" stroke-miterlimit="10" stroke-width="1"/>
      <path id="Trazado_1078556" data-name="Trazado 1078556" d="M159.95,82.259s0-7.9-9.053-3.52A43.289,43.289,0,0,1,159.95,82.259Z" transform="translate(-133.63 -41.439)" fill="#f6a576"/>
      <g id="Grupo_1207759" data-name="Grupo 1207759" transform="translate(17.266 23.392)">
        <g id="Grupo_1207758" data-name="Grupo 1207758">
          <path id="Trazado_1078557" data-name="Trazado 1078557" d="M150.9,64.243a9.22,9.22,0,0,1,2.693-1.556,6.422,6.422,0,0,1,1.572-.361,4.532,4.532,0,0,1,1.675.134,4.311,4.311,0,0,1,1.537.805,5.435,5.435,0,0,1,1.13,1.292,10.154,10.154,0,0,1,1.192,3.06L159.933,67c.492-.048,1.038-.107,1.557-.191s1.047-.183,1.562-.3,1.027-.255,1.534-.4,1-.319,1.492-.5a12.857,12.857,0,0,0,5.1-3.294,8.549,8.549,0,0,0,.9-1.2,9.781,9.781,0,0,0,.683-1.344,10.322,10.322,0,0,0,.724-2.993,12.315,12.315,0,0,0,.066-1.586c-.007-.534-.032-1.073-.086-1.611s-.127-1.079-.21-1.621l-.142-.813-.158-.815c.245.5.475,1,.675,1.525a16.5,16.5,0,0,1,.527,1.595,14.329,14.329,0,0,1,.363,1.657,13.372,13.372,0,0,1,.156,1.711,10.772,10.772,0,0,1-.474,3.471,9.684,9.684,0,0,1-1.7,3.142,11.16,11.16,0,0,1-2.655,2.365,15.189,15.189,0,0,1-3.136,1.536c-.542.2-1.094.363-1.649.509s-1.114.266-1.677.36-1.127.171-1.694.227a15.542,15.542,0,0,1-1.731.09l-.669-.01-.093-.605a8.782,8.782,0,0,0-.811-2.7,4.507,4.507,0,0,0-.77-1.1,3.255,3.255,0,0,0-1.091-.731,4.021,4.021,0,0,0-1.345-.283,6.267,6.267,0,0,0-1.447.126A10.856,10.856,0,0,0,150.9,64.243Z" transform="translate(-150.896 -50.335)" fill="#dc9c7f"/>
        </g>
      </g>
    </g>
    <g id="Grupo_1207761" data-name="Grupo 1207761" transform="translate(920.222 7698.933)">
      <path id="Trazado_1078558" data-name="Trazado 1078558" d="M112.073,129.75c2.1-3.339,5.867-4.341,7.389-2.659h0c1.541,1.684,1.044,4.7-.394,7.03a23.135,23.135,0,0,0,8.233,32.347c2.378,1.36,4.257,3.77,3.708,5.987h0c-.533,2.205-4.317,3.125-7.76,1.2A31.4,31.4,0,0,1,112.073,129.75Z" transform="translate(-73.35 -114.168)" fill="#414042"/>
      <path id="Trazado_1078559" data-name="Trazado 1078559" d="M79.8,115.931c2.162-2.944,5.688-3.757,7.237-2.1h0c1.562,1.662,1.084,4.678-.572,6.954a33.857,33.857,0,0,0,12.852,50.495c2.542,1.208,4.405,3.628,3.827,5.835h0c-.566,2.2-4.054,3.168-7.359,1.617C72.019,167.616,64.241,137.057,79.8,115.931Z" transform="translate(-54.295 -107.046)" fill="#414042"/>
      <path id="Trazado_1078560" data-name="Trazado 1078560" d="M45.558,102.894c2.175-2.742,5.579-3.46,7.14-1.812h0c1.573,1.651,1.107,4.67-.666,6.913-18.16,22.846-9.428,57.156,17.445,68.538,2.629,1.124,4.483,3.552,3.891,5.754h0c-.585,2.194-3.919,3.191-7.139,1.822C34.385,170.62,24.037,129.965,45.558,102.894Z" transform="translate(-34.222 -100.206)" fill="#414042"/>
    </g>
    <g id="Grupo_1207762" data-name="Grupo 1207762" transform="translate(921.858 7795.409)">
      <path id="Trazado_1078561" data-name="Trazado 1078561" d="M51.308,308.711,48.659,328.73H40.751l-3.008-20.019h5.491q.956,8.272,1.366,14,.4-5.786.856-10.275l.362-3.723Z" transform="translate(-37.743 -308.29)" fill="#be1e2d"/>
      <path id="Trazado_1078562" data-name="Trazado 1078562" d="M80.546,319.949q0,3.018-.142,4.272a4.786,4.786,0,0,1-2.912,3.889,7.362,7.362,0,0,1-2.968.556,7.548,7.548,0,0,1-2.887-.526,4.812,4.812,0,0,1-2.986-3.864,42.265,42.265,0,0,1-.148-4.328v-3.425q0-3.017.142-4.272a4.785,4.785,0,0,1,2.912-3.889,7.359,7.359,0,0,1,2.968-.556,7.54,7.54,0,0,1,2.887.526A4.814,4.814,0,0,1,80.4,312.2a42.262,42.262,0,0,1,.148,4.328v3.425Zm-5.206-6.579a6.222,6.222,0,0,0-.154-1.787.616.616,0,0,0-.637-.389.711.711,0,0,0-.625.316,4.464,4.464,0,0,0-.216,1.861v9.348a9.184,9.184,0,0,0,.142,2.151.62.62,0,0,0,.662.408.64.64,0,0,0,.68-.47,9.9,9.9,0,0,0,.148-2.238Z" transform="translate(-54.208 -307.806)" fill="#be1e2d"/>
      <path id="Trazado_1078563" data-name="Trazado 1078563" d="M103.8,308.711V328.73H98.6V308.711Z" transform="translate(-70.316 -308.29)" fill="#be1e2d"/>
      <path id="Trazado_1078564" data-name="Trazado 1078564" d="M126.279,316.943h-5.206v-3.479a6.223,6.223,0,0,0-.167-1.894.717.717,0,0,0-.736-.376.77.77,0,0,0-.816.457,6.955,6.955,0,0,0-.173,1.978v9.3a6.484,6.484,0,0,0,.173,1.9.74.74,0,0,0,.779.445.732.732,0,0,0,.76-.446,7.285,7.285,0,0,0,.179-2.095V320.22h5.206V321a15.4,15.4,0,0,1-.439,4.408,4.5,4.5,0,0,1-1.942,2.279,6.647,6.647,0,0,1-3.7.978,7.672,7.672,0,0,1-3.771-.829,4.029,4.029,0,0,1-1.966-2.294,15.069,15.069,0,0,1-.482-4.408v-5.849a26,26,0,0,1,.148-3.246,4.544,4.544,0,0,1,.884-2.083,4.928,4.928,0,0,1,2.041-1.577,8.35,8.35,0,0,1,6.794.314,4.267,4.267,0,0,1,1.966,2.217,13.327,13.327,0,0,1,.47,4.13v1.9Z" transform="translate(-78.549 -307.805)" fill="#be1e2d"/>
      <path id="Trazado_1078565" data-name="Trazado 1078565" d="M144.468,308.711h8.681v4.006h-3.475v3.8h3.252v3.808h-3.252v4.4h3.821v4.006h-9.027Z" transform="translate(-94.87 -308.29)" fill="#be1e2d"/>
    </g>
  </g>
</svg>
