<svg xmlns="http://www.w3.org/2000/svg" xmlns:xlink="http://www.w3.org/1999/xlink" width="110" height="110" viewBox="0 0 110 110">
  <defs>
    <filter id="Trazado_982547" x="0" y="0" width="110" height="110" filterUnits="userSpaceOnUse">
      <feOffset dy="3" input="SourceAlpha"/>
      <feGaussianBlur stdDeviation="3" result="blur"/>
      <feFlood flood-opacity="0.161"/>
      <feComposite operator="in" in2="blur"/>
      <feComposite in="SourceGraphic"/>
    </filter>
    <linearGradient id="linear-gradient" x1="0.146" y1="0.858" x2="0.854" y2="0.15" gradientUnits="objectBoundingBox">
      <stop offset="0" stop-color="#b8f7fe"/>
      <stop offset="1" stop-color="#6ad2cb"/>
    </linearGradient>
    <linearGradient id="linear-gradient-2" x1="0.501" y1="0.707" x2="0.501" y2="-0.292" gradientUnits="objectBoundingBox">
      <stop offset="0" stop-color="#fdd0a6"/>
      <stop offset="1" stop-color="#edba94"/>
    </linearGradient>
    <linearGradient id="linear-gradient-3" x1="0.5" y1="4.764" x2="0.5" y2="3.764" xlink:href="#linear-gradient-2"/>
    <linearGradient id="linear-gradient-4" x1="0.5" y1="-1.383" x2="0.5" y2="-0.383" gradientUnits="objectBoundingBox">
      <stop offset="0" stop-color="#aeea4c"/>
      <stop offset="1" stop-color="#60a71b"/>
    </linearGradient>
    <linearGradient id="linear-gradient-5" x1="0.499" y1="0.595" x2="0.499" y2="1.595" gradientUnits="objectBoundingBox">
      <stop offset="0" stop-color="#f146a4"/>
      <stop offset="1" stop-color="#c8266f"/>
    </linearGradient>
  </defs>
  <g id="Grupo_1207877" data-name="Grupo 1207877" transform="translate(-3062 -5218.852)">
    <g id="Grupo_1207115" data-name="Grupo 1207115" transform="translate(2265 2406.721)">
      <g id="Grupo_1185076" data-name="Grupo 1185076" transform="translate(806 2818.131)">
        <g id="Grupo_1183626" data-name="Grupo 1183626" transform="translate(0 0)">
          <g id="Grupo_1179602" data-name="Grupo 1179602">
            <g id="Grupo_1171898" data-name="Grupo 1171898" transform="translate(0 0)">
              <g id="Grupo_1164700" data-name="Grupo 1164700">
                <g id="Grupo_1160931" data-name="Grupo 1160931">
                  <g id="Grupo_1160749" data-name="Grupo 1160749">
                    <g id="Grupo_1158891" data-name="Grupo 1158891">
                      <g id="Grupo_1157406" data-name="Grupo 1157406">
                        <g id="Grupo_1155793" data-name="Grupo 1155793">
                          <g id="Grupo_1154704" data-name="Grupo 1154704">
                            <g id="Grupo_1150790" data-name="Grupo 1150790">
                              <g id="Grupo_1154214" data-name="Grupo 1154214">
                                <g id="Grupo_1152583" data-name="Grupo 1152583">
                                  <g id="Grupo_1146973" data-name="Grupo 1146973">
                                    <g id="Grupo_1146954" data-name="Grupo 1146954">
                                      <g transform="matrix(1, 0, 0, 1, -9, -6)" filter="url(#Trazado_982547)">
                                        <g id="Trazado_982547-2" data-name="Trazado 982547" transform="translate(9 6)" fill="#eaf9f8">
                                          <path d="M 46.00000381469727 90.49986267089844 C 39.99188232421875 90.49986267089844 34.16428375244141 89.32350158691406 28.67905807495117 87.00344848632812 C 23.38021659851074 84.76223754882812 18.62104415893555 81.55341339111328 14.53376388549805 77.46613311767578 C 10.44647026062012 73.37885284423828 7.237643718719482 68.61968994140625 4.996417045593262 63.32085037231445 C 2.676363706588745 57.83565139770508 1.500003814697266 52.00805282592773 1.500003814697266 45.99993133544922 C 1.500003814697266 39.99182510375977 2.676363706588745 34.16422653198242 4.996417045593262 28.67901039123535 C 7.237643718719482 23.38017082214355 10.44647026062012 18.62101173400879 14.53376388549805 14.53373146057129 C 18.62104415893555 10.44645118713379 23.38021659851074 7.237624645233154 28.67905807495117 4.996411323547363 C 34.16428375244141 2.676357984542847 39.99188232421875 1.499997973442078 46.00000381469727 1.499997973442078 C 52.00812530517578 1.499997973442078 57.83573532104492 2.676357984542847 63.32094955444336 4.996411323547363 C 68.61980438232422 7.237624645233154 73.37896728515625 10.44645118713379 77.46625518798828 14.53373146057129 C 81.55353546142578 18.62101173400879 84.76236724853516 23.38017082214355 87.00359344482422 28.67901039123535 C 89.32364654541016 34.16422653198242 90.5 39.99182510375977 90.5 45.99993133544922 C 90.5 52.00805282592773 89.32364654541016 57.83565139770508 87.00359344482422 63.32085037231445 C 84.76236724853516 68.61968994140625 81.55353546142578 73.37885284423828 77.46625518798828 77.46613311767578 C 73.37896728515625 81.55341339111328 68.61980438232422 84.76223754882812 63.32094955444336 87.00344848632812 C 57.83573532104492 89.32350158691406 52.00812530517578 90.49986267089844 46.00000381469727 90.49986267089844 Z" stroke="none"/>
                                          <path d="M 46.00000381469727 3 C 40.19371795654297 3 34.56270217895508 4.136505126953125 29.26338958740234 6.377914428710938 C 24.14333343505859 8.54351806640625 19.54443359375 11.64438629150391 15.59442138671875 15.59439086914062 C 11.64440155029297 19.54440307617188 8.543533325195312 24.14330291748047 6.3779296875 29.26334381103516 C 4.136505126953125 34.56266021728516 3.000007629394531 40.19366073608398 3.000007629394531 45.99993133544922 C 3.000007629394531 51.80620193481445 4.136505126953125 57.43720245361328 6.3779296875 62.73651885986328 C 8.543533325195312 67.85655975341797 11.64440155029297 72.45545959472656 15.59442138671875 76.40547180175781 C 19.54443359375 80.35547637939453 24.14333343505859 83.45634460449219 29.26338958740234 85.6219482421875 C 34.56270217895508 87.86335754394531 40.19371795654297 88.99986267089844 46.00000381469727 88.99986267089844 C 51.80628967285156 88.99986267089844 57.43730545043945 87.86335754394531 62.73663330078125 85.6219482421875 C 67.85667419433594 83.45634460449219 72.45558929443359 80.35547637939453 76.40560150146484 76.40547180175781 C 80.35560607910156 72.45545959472656 83.45648956298828 67.85655975341797 85.62208557128906 62.73651885986328 C 87.86350250244141 57.43720245361328 89 51.80620193481445 89 45.99993133544922 C 89 40.19366073608398 87.86350250244141 34.56266021728516 85.62208557128906 29.26334381103516 C 83.45648956298828 24.14330291748047 80.35560607910156 19.54440307617188 76.40560150146484 15.59439086914062 C 72.45558929443359 11.64438629150391 67.85667419433594 8.54351806640625 62.73663330078125 6.377914428710938 C 57.43730545043945 4.136505126953125 51.80628967285156 3 46.00000381469727 3 M 46.00000381469727 0 C 71.40510559082031 0 92 20.59487152099609 92 45.99993133544922 C 92 71.40499114990234 71.40510559082031 91.99986267089844 46.00000381469727 91.99986267089844 C 20.59491729736328 91.99986267089844 7.62939453125e-06 71.40499114990234 7.62939453125e-06 45.99993133544922 C 7.62939453125e-06 20.59487152099609 20.59491729736328 0 46.00000381469727 0 Z" stroke="none" fill="#1f7069"/>
                                        </g>
                                      </g>
                                    </g>
                                  </g>
                                </g>
                              </g>
                            </g>
                          </g>
                        </g>
                      </g>
                    </g>
                  </g>
                </g>
              </g>
            </g>
          </g>
        </g>
      </g>
    </g>
    <g id="workout_14989817" transform="translate(3079 5232)">
      <path id="Trazado_1079186" data-name="Trazado 1079186" d="M38.5,0A38.5,38.5,0,1,1,0,38.5,38.5,38.5,0,0,1,38.5,0Z" fill="none"/>
      <g id="Layer_2_00000026874293166674081310000017299574793192274870_" transform="translate(0.971 0.971)">
        <g id="Layer_2_copy_5" transform="translate(0 0)">
          <g id="_50" transform="translate(0 0)">
            <circle id="background" cx="37.5" cy="37.5" r="37.5" transform="translate(0.029 0.029)" fill="url(#linear-gradient)"/>
            <path id="Trazado_1079180" data-name="Trazado 1079180" d="M188.867,203.275a3.232,3.232,0,0,1-3.075-2.175,3.258,3.258,0,0,1-6.331-1.185l.54-15.9v.03a3.279,3.279,0,0,1-3.27,3.12h-.06a3.278,3.278,0,0,1-3.27-3.27c0-.135.015-.27.03-.42a48.528,48.528,0,0,1,4.936-16.322c.15-.27,1.365-2.25,6.9-2.55H186.3c5.536.3,6.766,2.28,6.9,2.55a49.24,49.24,0,0,1,4.936,16.322,3.275,3.275,0,0,1-2.835,3.661,3.679,3.679,0,0,1-.405.03h-.06a3.29,3.29,0,0,1-3.27-3.12v-.03l.54,15.9a3.254,3.254,0,0,1-3.15,3.36Z" transform="translate(-148.357 -140.878)"/>
            <path id="Trazado_1079181" data-name="Trazado 1079181" d="M189.672,168.6c5.431.285,6.406,2.235,6.406,2.235a47.836,47.836,0,0,1,4.861,16.112,2.66,2.66,0,0,1-2.31,2.985,2.543,2.543,0,0,1-.345.015h-.06a2.683,2.683,0,0,1-2.67-2.55,17.231,17.231,0,0,0-1.44-6.781l.78,22.7a2.652,2.652,0,0,1-2.565,2.745h-.09a2.658,2.658,0,0,1-2.655-2.6l-.39-17.192-.42,17.222a2.656,2.656,0,0,1-5.311-.06v-.09l.78-22.713a17.231,17.231,0,0,0-1.44,6.781,2.673,2.673,0,0,1-2.67,2.55h-.06a2.725,2.725,0,0,1-2.655-3.015,47.836,47.836,0,0,1,4.861-16.112s.975-1.935,6.406-2.235Z" transform="translate(-151.757 -144.278)" fill="url(#linear-gradient-2)"/>
            <ellipse id="Elipse_12800" data-name="Elipse 12800" cx="5.071" cy="5.746" rx="5.071" ry="5.746" transform="translate(32.364 12.471)"/>
            <ellipse id="Elipse_12801" data-name="Elipse 12801" cx="4.471" cy="5.146" rx="4.471" ry="5.146" transform="translate(32.964 13.071)" fill="url(#linear-gradient-3)"/>
            <path id="Trazado_1079182" data-name="Trazado 1079182" d="M213.8,294.168l.645-18.768h11.372l.645,18.768Z" transform="translate(-182.696 -235.055)"/>
            <path id="Trazado_1079183" data-name="Trazado 1079183" d="M229.332,296.967h-5.311l-.405-16.517-.405,16.517H217.9l.6-17.567h10.231Z" transform="translate(-186.181 -238.455)" fill="url(#linear-gradient-4)"/>
            <path id="Trazado_1079184" data-name="Trazado 1079184" d="M174.6,182.508l.105-.69a47.233,47.233,0,0,1,4.681-14.567c.15-.285,1.365-2.25,6.9-2.55h1.035c5.536.3,6.766,2.28,6.9,2.55a47.357,47.357,0,0,1,4.681,14.567l.105.69Z" transform="translate(-149.377 -140.963)"/>
            <path id="Trazado_1079185" data-name="Trazado 1079185" d="M197.073,185.222a14.876,14.876,0,0,0-1.23-4.606l.165,4.606H185.791l.165-4.606a14.191,14.191,0,0,0-1.23,4.606H179.4a46.529,46.529,0,0,1,4.621-14.387s.975-1.935,6.406-2.235h.975c5.431.285,6.406,2.235,6.406,2.235a46.935,46.935,0,0,1,4.621,14.387Z" transform="translate(-153.457 -144.278)" fill="url(#linear-gradient-5)"/>
          </g>
        </g>
      </g>
    </g>
  </g>
</svg>
