<svg xmlns="http://www.w3.org/2000/svg" xmlns:xlink="http://www.w3.org/1999/xlink" width="103" height="103" viewBox="0 0 103 103">
  <defs>
    <filter id="Trazado_978624" x="0" y="0" width="103" height="103" filterUnits="userSpaceOnUse">
      <feOffset dy="3" input="SourceAlpha"/>
      <feGaussianBlur stdDeviation="3" result="blur"/>
      <feFlood flood-opacity="0.161"/>
      <feComposite operator="in" in2="blur"/>
      <feComposite in="SourceGraphic"/>
    </filter>
  </defs>
  <g id="Grupo_1207977" data-name="Grupo 1207977" transform="translate(-160 -5888)">
    <g id="Grupo_1206641" data-name="Grupo 1206641" transform="translate(0 -7254)">
      <g id="Grupo_1185491" data-name="Grupo 1185491" transform="translate(0 9912)">
        <g id="Grupo_1183826" data-name="Grupo 1183826" transform="translate(-11 -401)">
          <g id="Grupo_1164359" data-name="Grupo 1164359" transform="translate(180 3637)">
            <g id="Grupo_1144531" data-name="Grupo 1144531">
              <g transform="matrix(1, 0, 0, 1, -9, -6)" filter="url(#Trazado_978624)">
                <g id="Trazado_978624-2" data-name="Trazado 978624" transform="translate(9 6)" fill="#f9ecff">
                  <path d="M 42.5 83.5 C 36.96437835693359 83.5 31.59512901306152 82.41617584228516 26.54141235351562 80.27863311767578 C 21.65934181213379 78.21369171142578 17.27447128295898 75.25723266601562 13.50862312316895 71.49137878417969 C 9.742764472961426 67.72553253173828 6.786305904388428 63.34066009521484 4.721364498138428 58.45858764648438 C 2.583823442459106 53.40486907958984 1.5 48.03562164306641 1.5 42.5 C 1.5 36.96437835693359 2.583823442459106 31.59512901306152 4.721364498138428 26.54141235351562 C 6.786305904388428 21.65934181213379 9.742764472961426 17.27447128295898 13.50862312316895 13.50862312316895 C 17.27447128295898 9.742764472961426 21.65934181213379 6.786305904388428 26.54141235351562 4.721364498138428 C 31.59512901306152 2.583823442459106 36.96437835693359 1.5 42.5 1.5 C 48.03562164306641 1.5 53.40486907958984 2.583823442459106 58.45858764648438 4.721364498138428 C 63.34066009521484 6.786305904388428 67.72553253173828 9.742764472961426 71.49137878417969 13.50862312316895 C 75.25723266601562 17.27447128295898 78.21369171142578 21.65934181213379 80.27863311767578 26.54141235351562 C 82.41617584228516 31.59512901306152 83.5 36.96437835693359 83.5 42.5 C 83.5 48.03562164306641 82.41617584228516 53.40486907958984 80.27863311767578 58.45858764648438 C 78.21369171142578 63.34066009521484 75.25723266601562 67.72553253173828 71.49137878417969 71.49137878417969 C 67.72553253173828 75.25723266601562 63.34066009521484 78.21369171142578 58.45858764648438 80.27863311767578 C 53.40486907958984 82.41617584228516 48.03562164306641 83.5 42.5 83.5 Z" stroke="none"/>
                  <path d="M 42.5 3 C 37.16621398925781 3 31.99356079101562 4.043960571289062 27.125732421875 6.102882385253906 C 22.42246627807617 8.092185974121094 18.19785308837891 10.94070434570312 14.56928253173828 14.56928253173828 C 10.94070434570312 18.19785308837891 8.092185974121094 22.42246627807617 6.102882385253906 27.125732421875 C 4.043960571289062 31.99356079101562 3 37.16621398925781 3 42.5 C 3 47.83378601074219 4.043960571289062 53.00643920898438 6.102882385253906 57.87425231933594 C 8.092185974121094 62.57753372192383 10.94070434570312 66.80213165283203 14.56928253173828 70.43071746826172 C 18.19786834716797 74.05929565429688 22.42246627807617 76.90781402587891 27.125732421875 78.89711761474609 C 31.99356079101562 80.95603942871094 37.16621398925781 82 42.5 82 C 47.83378601074219 82 53.00642395019531 80.95603942871094 57.87425231933594 78.89711761474609 C 62.57753372192383 76.90781402587891 66.80213165283203 74.05929565429688 70.43071746826172 70.43071746826172 C 74.05929565429688 66.80213165283203 76.90781402587891 62.57753372192383 78.89711761474609 57.87425231933594 C 80.95603942871094 53.00642395019531 82 47.83378601074219 82 42.5 C 82 37.16621398925781 80.95603942871094 31.99356079101562 78.89711761474609 27.125732421875 C 76.90781402587891 22.42246627807617 74.05929565429688 18.19786834716797 70.43071746826172 14.56928253173828 C 66.80213165283203 10.94070434570312 62.57753372192383 8.092185974121094 57.87425231933594 6.102882385253906 C 53.00643920898438 4.043960571289062 47.83378601074219 3 42.5 3 M 42.5 0 C 65.97209167480469 0 85 19.02789306640625 85 42.5 C 85 65.97209167480469 65.97209167480469 85 42.5 85 C 19.02789306640625 85 0 65.97209167480469 0 42.5 C 0 19.02789306640625 19.02789306640625 0 42.5 0 Z" stroke="none" fill="#ebb8ff"/>
                </g>
              </g>
            </g>
          </g>
        </g>
      </g>
    </g>
    <g id="expresion-facial" transform="translate(154.997 5884.478)">
      <g id="Grupo_1207971" data-name="Grupo 1207971" transform="translate(19.752 12.914)">
        <g id="Grupo_1207970" data-name="Grupo 1207970" transform="translate(0 0)">
          <g id="Grupo_1207892" data-name="Grupo 1207892">
            <g id="Grupo_1207888" data-name="Grupo 1207888">
              <g id="Grupo_1207887" data-name="Grupo 1207887">
                <g id="Grupo_1207880" data-name="Grupo 1207880" transform="translate(0 19.902)">
                  <g id="Grupo_1207878" data-name="Grupo 1207878">
                    <circle id="Elipse_12802" data-name="Elipse 12802" cx="4.084" cy="4.084" r="4.084" fill="#fedbb0"/>
                  </g>
                  <g id="Grupo_1207879" data-name="Grupo 1207879" transform="translate(1.737 1.737)">
                    <circle id="Elipse_12803" data-name="Elipse 12803" cx="2.347" cy="2.347" r="2.347" fill="#e8c197"/>
                  </g>
                </g>
                <g id="Grupo_1207883" data-name="Grupo 1207883" transform="translate(25.357 19.902)">
                  <g id="Grupo_1207881" data-name="Grupo 1207881">
                    <circle id="Elipse_12804" data-name="Elipse 12804" cx="4.084" cy="4.084" r="4.084" fill="#fedbb0"/>
                  </g>
                  <g id="Grupo_1207882" data-name="Grupo 1207882" transform="translate(1.737 1.737)">
                    <circle id="Elipse_12805" data-name="Elipse 12805" cx="2.347" cy="2.347" r="2.347" fill="#e8c197"/>
                  </g>
                </g>
                <g id="Grupo_1207884" data-name="Grupo 1207884" transform="translate(4.084 4.604)">
                  <path id="Trazado_1079187" data-name="Trazado 1079187" d="M59.457,41.437v6.581a12.679,12.679,0,0,1-25.357,0V41.437a12.679,12.679,0,0,1,25.357,0Z" transform="translate(-34.099 -28.758)" fill="#fedbb0"/>
                </g>
                <g id="Grupo_1207885" data-name="Grupo 1207885" transform="translate(0.102 0.737)">
                  <path id="Trazado_1079188" data-name="Trazado 1079188" d="M34.718,18.976a18.145,18.145,0,0,1-9.476,15.937,1.748,1.748,0,0,1-2.58-1.665A18.459,18.459,0,0,1,28.413,21.29a16.557,16.557,0,0,1,6.252-3.649c.034.441.053.885.053,1.335Z" transform="translate(-22.655 -17.641)" fill="#5e3e2f"/>
                </g>
                <g id="Grupo_1207886" data-name="Grupo 1207886" transform="translate(5.861)">
                  <path id="Trazado_1079189" data-name="Trazado 1079189" d="M65.732,32.422A18.634,18.634,0,0,1,39.208,19.909a16.557,16.557,0,0,1,6.212-3.636c9.881-3.208,19.727,4.312,21.228,14.362A1.733,1.733,0,0,1,65.732,32.422Z" transform="translate(-39.208 -15.524)" fill="#725246"/>
                </g>
              </g>
            </g>
            <g id="Grupo_1207889" data-name="Grupo 1207889" transform="translate(8.486 25.527)">
              <path id="Trazado_1079190" data-name="Trazado 1079190" d="M61.691,88.9a1.609,1.609,0,0,1,1.572,1.965,8.465,8.465,0,0,1-16.466,0A1.608,1.608,0,0,1,48.37,88.9Z" transform="translate(-46.754 -88.901)" fill="#d1ab86"/>
            </g>
            <g id="Grupo_1207890" data-name="Grupo 1207890" transform="translate(8.863 19.293)">
              <path id="Trazado_1079191" data-name="Trazado 1079191" d="M51.181,72.981a.273.273,0,0,0,0-.5,2.742,2.742,0,0,1-1.344-1.344.273.273,0,0,0-.5,0A2.742,2.742,0,0,1,48,72.484a.273.273,0,0,0,0,.5,2.742,2.742,0,0,1,1.344,1.344.273.273,0,0,0,.5,0A2.742,2.742,0,0,1,51.181,72.981Z" transform="translate(-47.836 -70.98)" fill="#725246"/>
            </g>
            <g id="Grupo_1207891" data-name="Grupo 1207891" transform="translate(21.158 19.293)">
              <path id="Trazado_1079192" data-name="Trazado 1079192" d="M86.523,72.981a.273.273,0,0,0,0-.5,2.742,2.742,0,0,1-1.344-1.344.273.273,0,0,0-.5,0,2.742,2.742,0,0,1-1.344,1.344.273.273,0,0,0,0,.5,2.742,2.742,0,0,1,1.344,1.344.273.273,0,0,0,.5,0A2.741,2.741,0,0,1,86.523,72.981Z" transform="translate(-83.178 -70.98)" fill="#725246"/>
            </g>
          </g>
          <g id="Grupo_1207922" data-name="Grupo 1207922" transform="translate(39.977)">
            <g id="Grupo_1207917" data-name="Grupo 1207917">
              <g id="Grupo_1207911" data-name="Grupo 1207911">
                <g id="Grupo_1207897" data-name="Grupo 1207897" transform="translate(0 19.902)">
                  <g id="Grupo_1207894" data-name="Grupo 1207894">
                    <g id="Grupo_1207893" data-name="Grupo 1207893">
                      <circle id="Elipse_12806" data-name="Elipse 12806" cx="4.084" cy="4.084" r="4.084" fill="#fedbb0"/>
                    </g>
                  </g>
                  <g id="Grupo_1207896" data-name="Grupo 1207896" transform="translate(1.737 1.737)">
                    <g id="Grupo_1207895" data-name="Grupo 1207895">
                      <circle id="Elipse_12807" data-name="Elipse 12807" cx="2.347" cy="2.347" r="2.347" fill="#e8c197"/>
                    </g>
                  </g>
                </g>
                <g id="Grupo_1207902" data-name="Grupo 1207902" transform="translate(25.357 19.902)">
                  <g id="Grupo_1207899" data-name="Grupo 1207899">
                    <g id="Grupo_1207898" data-name="Grupo 1207898">
                      <circle id="Elipse_12808" data-name="Elipse 12808" cx="4.084" cy="4.084" r="4.084" fill="#fedbb0"/>
                    </g>
                  </g>
                  <g id="Grupo_1207901" data-name="Grupo 1207901" transform="translate(1.737 1.737)">
                    <g id="Grupo_1207900" data-name="Grupo 1207900">
                      <circle id="Elipse_12809" data-name="Elipse 12809" cx="2.347" cy="2.347" r="2.347" fill="#e8c197"/>
                    </g>
                  </g>
                </g>
                <g id="Grupo_1207904" data-name="Grupo 1207904" transform="translate(4.084 4.604)">
                  <g id="Grupo_1207903" data-name="Grupo 1207903">
                    <path id="Trazado_1079193" data-name="Trazado 1079193" d="M174.369,41.437v6.581a12.679,12.679,0,0,1-25.357,0V41.437a12.679,12.679,0,0,1,25.357,0Z" transform="translate(-149.011 -28.758)" fill="#fedbb0"/>
                  </g>
                </g>
                <g id="Grupo_1207906" data-name="Grupo 1207906" transform="translate(9.469 25.772)">
                  <g id="Grupo_1207905" data-name="Grupo 1207905">
                    <path id="Trazado_1079194" data-name="Trazado 1079194" d="M165.953,96.163a1,1,0,0,1-1.416-1.174,7.572,7.572,0,0,1,14.5,0,1,1,0,0,1-1.416,1.174A12.258,12.258,0,0,0,165.953,96.163Z" transform="translate(-164.493 -89.604)" fill="#d1ab86"/>
                  </g>
                </g>
                <g id="Grupo_1207908" data-name="Grupo 1207908" transform="translate(0.103 0.737)">
                  <g id="Grupo_1207907" data-name="Grupo 1207907">
                    <path id="Trazado_1079195" data-name="Trazado 1079195" d="M149.631,18.976a18.145,18.145,0,0,1-9.476,15.937,1.748,1.748,0,0,1-2.58-1.665,18.459,18.459,0,0,1,5.751-11.958,16.557,16.557,0,0,1,6.252-3.649c.034.441.053.885.053,1.335Z" transform="translate(-137.568 -17.641)" fill="#5e3e2f"/>
                  </g>
                </g>
                <g id="Grupo_1207910" data-name="Grupo 1207910" transform="translate(5.861)">
                  <g id="Grupo_1207909" data-name="Grupo 1207909">
                    <path id="Trazado_1079196" data-name="Trazado 1079196" d="M180.644,32.422A18.634,18.634,0,0,1,154.12,19.909a16.557,16.557,0,0,1,6.212-3.636c9.881-3.208,19.727,4.312,21.228,14.362A1.732,1.732,0,0,1,180.644,32.422Z" transform="translate(-154.12 -15.524)" fill="#725246"/>
                  </g>
                </g>
              </g>
              <g id="Grupo_1207916" data-name="Grupo 1207916" transform="translate(8.609 19.965)">
                <g id="Grupo_1207913" data-name="Grupo 1207913" transform="translate(0 0.001)">
                  <g id="Grupo_1207912" data-name="Grupo 1207912">
                    <path id="Trazado_1079197" data-name="Trazado 1079197" d="M162.52,77.389a.5.5,0,0,1-.256-.929l2.193-1.308-2.193-1.308a.5.5,0,0,1,.512-.858l2.913,1.737a.5.5,0,0,1,0,.859l-2.913,1.737A.5.5,0,0,1,162.52,77.389Z" transform="translate(-162.02 -72.916)" fill="#725246"/>
                  </g>
                </g>
                <g id="Grupo_1207915" data-name="Grupo 1207915" transform="translate(12.394)">
                  <g id="Grupo_1207914" data-name="Grupo 1207914">
                    <path id="Trazado_1079198" data-name="Trazado 1079198" d="M201.057,77.388a.5.5,0,0,1-.255-.071l-2.913-1.737a.5.5,0,0,1,0-.859l2.913-1.737a.5.5,0,0,1,.512.858l-2.193,1.308,2.193,1.308a.5.5,0,0,1-.256.93Z" transform="translate(-197.645 -72.914)" fill="#725246"/>
                  </g>
                </g>
              </g>
            </g>
            <g id="Grupo_1207919" data-name="Grupo 1207919" transform="translate(14.54 29.703)">
              <g id="Grupo_1207918" data-name="Grupo 1207918">
                <path id="Trazado_1079199" data-name="Trazado 1079199" d="M181.291,106.459a2.222,2.222,0,0,1-2.222-2.222V101.9a1,1,0,0,1,1-1h2.445a1,1,0,0,1,1,1v2.334a2.223,2.223,0,0,1-2.222,2.222Z" transform="translate(-179.069 -100.904)" fill="#f47da5"/>
              </g>
            </g>
            <g id="Grupo_1207921" data-name="Grupo 1207921" transform="translate(16.492 29.703)">
              <g id="Grupo_1207920" data-name="Grupo 1207920">
                <path id="Trazado_1079200" data-name="Trazado 1079200" d="M184.949,104.841a.271.271,0,0,1-.271-.271V100.9h.541v3.668A.271.271,0,0,1,184.949,104.841Z" transform="translate(-184.678 -100.903)" fill="#e06e9a"/>
              </g>
            </g>
          </g>
          <g id="Grupo_1207943" data-name="Grupo 1207943" transform="translate(0 41.716)">
            <g id="Grupo_1207933" data-name="Grupo 1207933">
              <g id="Grupo_1207932" data-name="Grupo 1207932">
                <g id="Grupo_1207925" data-name="Grupo 1207925" transform="translate(0 19.902)">
                  <g id="Grupo_1207923" data-name="Grupo 1207923">
                    <circle id="Elipse_12810" data-name="Elipse 12810" cx="4.084" cy="4.084" r="4.084" fill="#fedbb0"/>
                  </g>
                  <g id="Grupo_1207924" data-name="Grupo 1207924" transform="translate(1.737 1.737)">
                    <circle id="Elipse_12811" data-name="Elipse 12811" cx="2.347" cy="2.347" r="2.347" fill="#e8c197"/>
                  </g>
                </g>
                <g id="Grupo_1207928" data-name="Grupo 1207928" transform="translate(25.357 19.902)">
                  <g id="Grupo_1207926" data-name="Grupo 1207926">
                    <circle id="Elipse_12812" data-name="Elipse 12812" cx="4.084" cy="4.084" r="4.084" fill="#fedbb0"/>
                  </g>
                  <g id="Grupo_1207927" data-name="Grupo 1207927" transform="translate(1.737 1.737)">
                    <circle id="Elipse_12813" data-name="Elipse 12813" cx="2.347" cy="2.347" r="2.347" fill="#e8c197"/>
                  </g>
                </g>
                <g id="Grupo_1207929" data-name="Grupo 1207929" transform="translate(4.084 4.604)">
                  <path id="Trazado_1079201" data-name="Trazado 1079201" d="M59.457,161.35v6.581a12.679,12.679,0,0,1-25.357,0V161.35a12.679,12.679,0,1,1,25.357,0Z" transform="translate(-34.099 -148.671)" fill="#fedbb0"/>
                </g>
                <g id="Grupo_1207930" data-name="Grupo 1207930" transform="translate(0.102 0.737)">
                  <path id="Trazado_1079202" data-name="Trazado 1079202" d="M34.718,138.889a18.146,18.146,0,0,1-9.476,15.937,1.748,1.748,0,0,1-2.58-1.665A18.459,18.459,0,0,1,28.413,141.2a16.557,16.557,0,0,1,6.252-3.649C34.7,137.994,34.718,138.438,34.718,138.889Z" transform="translate(-22.655 -137.554)" fill="#5e3e2f"/>
                </g>
                <g id="Grupo_1207931" data-name="Grupo 1207931" transform="translate(5.861)">
                  <path id="Trazado_1079203" data-name="Trazado 1079203" d="M65.732,152.334a18.634,18.634,0,0,1-26.524-12.513,16.557,16.557,0,0,1,6.212-3.636c9.881-3.208,19.727,4.312,21.228,14.362A1.732,1.732,0,0,1,65.732,152.334Z" transform="translate(-39.208 -135.436)" fill="#725246"/>
                </g>
              </g>
            </g>
            <g id="Grupo_1207936" data-name="Grupo 1207936" transform="translate(7.674 18.104)">
              <g id="Grupo_1207934" data-name="Grupo 1207934">
                <circle id="Elipse_12814" data-name="Elipse 12814" cx="2.941" cy="2.941" r="2.941" fill="#725246"/>
              </g>
              <g id="Grupo_1207935" data-name="Grupo 1207935" transform="translate(12.295)">
                <circle id="Elipse_12815" data-name="Elipse 12815" cx="2.941" cy="2.941" r="2.941" fill="#725246"/>
              </g>
            </g>
            <g id="Grupo_1207938" data-name="Grupo 1207938" transform="translate(12.401 27.233)">
              <g id="Grupo_1207937" data-name="Grupo 1207937">
                <path id="Trazado_1079204" data-name="Trazado 1079204" d="M62.509,218.815a4.482,4.482,0,0,1,2.318.642,1.451,1.451,0,0,0,2.183-1.262c0-.13-.007-.261-.019-.393a4.5,4.5,0,0,0-8.983.415v.029a1.445,1.445,0,0,0,2.181,1.214A4.478,4.478,0,0,1,62.509,218.815Z" transform="translate(-58.008 -213.715)" fill="#d1ab86"/>
              </g>
            </g>
            <g id="Grupo_1207939" data-name="Grupo 1207939" transform="translate(8.508 18.877)">
              <circle id="Elipse_12816" data-name="Elipse 12816" cx="1.377" cy="1.377" r="1.377" fill="#fcc171"/>
            </g>
            <g id="Grupo_1207940" data-name="Grupo 1207940" transform="translate(11.051 21.42)">
              <circle id="Elipse_12817" data-name="Elipse 12817" cx="0.796" cy="0.796" r="0.796" fill="#fcc171"/>
            </g>
            <g id="Grupo_1207941" data-name="Grupo 1207941" transform="translate(20.843 18.877)">
              <circle id="Elipse_12818" data-name="Elipse 12818" cx="1.377" cy="1.377" r="1.377" fill="#fcc171"/>
            </g>
            <g id="Grupo_1207942" data-name="Grupo 1207942" transform="translate(23.385 21.42)">
              <circle id="Elipse_12819" data-name="Elipse 12819" cx="0.796" cy="0.796" r="0.796" fill="#fcc171"/>
            </g>
          </g>
          <g id="Grupo_1207969" data-name="Grupo 1207969" transform="translate(39.977 41.716)">
            <g id="Grupo_1207961" data-name="Grupo 1207961">
              <g id="Grupo_1207960" data-name="Grupo 1207960">
                <g id="Grupo_1207948" data-name="Grupo 1207948" transform="translate(0 19.902)">
                  <g id="Grupo_1207945" data-name="Grupo 1207945">
                    <g id="Grupo_1207944" data-name="Grupo 1207944">
                      <circle id="Elipse_12820" data-name="Elipse 12820" cx="4.084" cy="4.084" r="4.084" fill="#fedbb0"/>
                    </g>
                  </g>
                  <g id="Grupo_1207947" data-name="Grupo 1207947" transform="translate(1.737 1.737)">
                    <g id="Grupo_1207946" data-name="Grupo 1207946">
                      <circle id="Elipse_12821" data-name="Elipse 12821" cx="2.347" cy="2.347" r="2.347" fill="#e8c197"/>
                    </g>
                  </g>
                </g>
                <g id="Grupo_1207953" data-name="Grupo 1207953" transform="translate(25.357 19.902)">
                  <g id="Grupo_1207950" data-name="Grupo 1207950">
                    <g id="Grupo_1207949" data-name="Grupo 1207949">
                      <circle id="Elipse_12822" data-name="Elipse 12822" cx="4.084" cy="4.084" r="4.084" fill="#fedbb0"/>
                    </g>
                  </g>
                  <g id="Grupo_1207952" data-name="Grupo 1207952" transform="translate(1.737 1.737)">
                    <g id="Grupo_1207951" data-name="Grupo 1207951">
                      <circle id="Elipse_12823" data-name="Elipse 12823" cx="2.347" cy="2.347" r="2.347" fill="#e8c197"/>
                    </g>
                  </g>
                </g>
                <g id="Grupo_1207955" data-name="Grupo 1207955" transform="translate(4.084 4.604)">
                  <g id="Grupo_1207954" data-name="Grupo 1207954">
                    <path id="Trazado_1079205" data-name="Trazado 1079205" d="M174.369,161.35v6.581a12.679,12.679,0,0,1-25.357,0V161.35a12.679,12.679,0,1,1,25.357,0Z" transform="translate(-149.011 -148.671)" fill="#fedbb0"/>
                  </g>
                </g>
                <g id="Grupo_1207957" data-name="Grupo 1207957" transform="translate(0.103 0.737)">
                  <g id="Grupo_1207956" data-name="Grupo 1207956">
                    <path id="Trazado_1079206" data-name="Trazado 1079206" d="M149.631,138.889a18.145,18.145,0,0,1-9.476,15.937,1.748,1.748,0,0,1-2.58-1.665,18.459,18.459,0,0,1,5.751-11.958,16.557,16.557,0,0,1,6.252-3.649C149.612,137.994,149.631,138.438,149.631,138.889Z" transform="translate(-137.568 -137.554)" fill="#5e3e2f"/>
                  </g>
                </g>
                <g id="Grupo_1207959" data-name="Grupo 1207959" transform="translate(5.861)">
                  <g id="Grupo_1207958" data-name="Grupo 1207958">
                    <path id="Trazado_1079207" data-name="Trazado 1079207" d="M180.644,152.334a18.634,18.634,0,0,1-26.524-12.513,16.556,16.556,0,0,1,6.212-3.636c9.881-3.208,19.727,4.312,21.228,14.362A1.732,1.732,0,0,1,180.644,152.334Z" transform="translate(-154.12 -135.436)" fill="#725246"/>
                  </g>
                </g>
              </g>
            </g>
            <g id="Grupo_1207966" data-name="Grupo 1207966" transform="translate(7.826 20.063)">
              <g id="Grupo_1207963" data-name="Grupo 1207963" transform="translate(12.785)">
                <g id="Grupo_1207962" data-name="Grupo 1207962">
                  <path id="Trazado_1079208" data-name="Trazado 1079208" d="M200.857,195.348a.746.746,0,0,1-.53-.219,1.79,1.79,0,0,0-2.529,0,.75.75,0,1,1-1.06-1.06,3.29,3.29,0,0,1,4.649,0,.749.749,0,0,1-.53,1.28Z" transform="translate(-196.519 -193.107)" fill="#725246"/>
                </g>
              </g>
              <g id="Grupo_1207965" data-name="Grupo 1207965">
                <g id="Grupo_1207964" data-name="Grupo 1207964">
                  <path id="Trazado_1079209" data-name="Trazado 1079209" d="M164.106,195.348a.746.746,0,0,1-.53-.219,1.79,1.79,0,0,0-2.529,0,.75.75,0,1,1-1.06-1.06,3.29,3.29,0,0,1,4.649,0,.749.749,0,0,1-.53,1.28Z" transform="translate(-159.767 -193.107)" fill="#725246"/>
                </g>
              </g>
            </g>
            <g id="Grupo_1207968" data-name="Grupo 1207968" transform="translate(10.114 26.534)">
              <g id="Grupo_1207967" data-name="Grupo 1207967">
                <path id="Trazado_1079210" data-name="Trazado 1079210" d="M172.993,219.106a6.657,6.657,0,0,1-6.649-6.649.75.75,0,1,1,1.5,0,5.15,5.15,0,0,0,10.3,0,.75.75,0,1,1,1.5,0A6.657,6.657,0,0,1,172.993,219.106Z" transform="translate(-166.344 -211.707)" fill="#d1ab86"/>
              </g>
            </g>
          </g>
        </g>
      </g>
      <g id="Grupo_1207976" data-name="Grupo 1207976" transform="translate(18.36 11.522)">
        <g id="Grupo_1207972" data-name="Grupo 1207972" transform="translate(0)">
          <path id="Trazado_1079211" data-name="Trazado 1079211" d="M53.065,33.028a5.466,5.466,0,0,0-1.9-1.239c.547-.222,1.085-.47,1.609-.741a3.116,3.116,0,0,0,1.653-3.229,19.671,19.671,0,0,0-6.135-11.544,17.475,17.475,0,0,0-11.786-4.754,16.538,16.538,0,0,0-5.112.818,18.129,18.129,0,0,0-8.962,6.409,20.028,20.028,0,0,0-3.958,10.39,3.06,3.06,0,0,0,.8,2.359,3.183,3.183,0,0,0,1.446.9,5.473,5.473,0,0,0-2.359,4.5,5.362,5.362,0,0,0,1.578,3.839A5.529,5.529,0,0,0,23.6,42.375a14.1,14.1,0,0,0,25.824,0,5.53,5.53,0,0,0,3.664-1.636,5.368,5.368,0,0,0,1.578-3.853A5.431,5.431,0,0,0,53.065,33.028ZM49.2,40.988a3.941,3.941,0,0,1-.7-.062,12.712,12.712,0,0,1-23.98,0,3.945,3.945,0,0,1-.7.062,4.086,4.086,0,0,1,.009-8.172c0-1.523,0-2.582,0-2.737q-.676.451-1.4.843a1.746,1.746,0,0,1-2.58-1.665A17.77,17.77,0,0,1,31.825,13.664a15.12,15.12,0,0,1,4.683-.749c8.121,0,15.284,6.661,16.545,15.111a1.732,1.732,0,0,1-.915,1.787,18.076,18.076,0,0,1-2.944,1.206v1.8a4.086,4.086,0,0,1,.009,8.172Z" transform="translate(-18.36 -11.522)" fill="#422618"/>
        </g>
        <g id="Grupo_1207973" data-name="Grupo 1207973" transform="translate(39.976 0)">
          <path id="Trazado_1079212" data-name="Trazado 1079212" d="M138.513,42.375a14.1,14.1,0,0,0,25.824,0A5.53,5.53,0,0,0,168,40.739a5.367,5.367,0,0,0,1.578-3.853,5.488,5.488,0,0,0-3.5-5.1c.547-.222,1.085-.47,1.609-.74a3.116,3.116,0,0,0,1.653-3.229A19.671,19.671,0,0,0,163.2,16.277a17.478,17.478,0,0,0-11.786-4.754h0a16.533,16.533,0,0,0-5.111.818,18.13,18.13,0,0,0-8.962,6.409,20.024,20.024,0,0,0-3.958,10.39,3.06,3.06,0,0,0,.8,2.359,3.183,3.183,0,0,0,1.446.9,5.473,5.473,0,0,0-2.359,4.5,5.362,5.362,0,0,0,1.578,3.839,5.532,5.532,0,0,0,3.664,1.636Zm.233-9.559c0-1.523,0-2.582,0-2.737q-.676.451-1.4.843a1.746,1.746,0,0,1-2.58-1.665,17.77,17.77,0,0,1,11.963-15.594,15.11,15.11,0,0,1,4.683-.749c8.121,0,15.284,6.661,16.545,15.111a1.732,1.732,0,0,1-.915,1.787,18.075,18.075,0,0,1-2.944,1.206v1.8a4.086,4.086,0,0,1,.009,8.172,3.941,3.941,0,0,1-.7-.062,12.712,12.712,0,0,1-23.98,0,3.945,3.945,0,0,1-.7.062,4.086,4.086,0,0,1,.01-8.172Z" transform="translate(-133.27 -11.523)" fill="#422618"/>
        </g>
        <g id="Grupo_1207974" data-name="Grupo 1207974" transform="translate(0 41.717)">
          <path id="Trazado_1079213" data-name="Trazado 1079213" d="M53.065,152.941a5.467,5.467,0,0,0-1.9-1.239q.82-.333,1.61-.741a3.116,3.116,0,0,0,1.653-3.229,19.671,19.671,0,0,0-6.135-11.544,17.477,17.477,0,0,0-11.786-4.754,16.537,16.537,0,0,0-5.112.818,18.127,18.127,0,0,0-8.962,6.409,20.023,20.023,0,0,0-3.958,10.39,3.06,3.06,0,0,0,.8,2.359,3.183,3.183,0,0,0,1.446.9,5.473,5.473,0,0,0-2.359,4.5,5.362,5.362,0,0,0,1.578,3.839,5.529,5.529,0,0,0,3.664,1.636,14.1,14.1,0,0,0,25.824,0,5.53,5.53,0,0,0,3.664-1.636,5.368,5.368,0,0,0,1.578-3.853,5.432,5.432,0,0,0-1.6-3.857ZM49.2,160.9a3.941,3.941,0,0,1-.7-.062,12.712,12.712,0,0,1-23.98,0,3.945,3.945,0,0,1-.7.062,4.086,4.086,0,0,1,.009-8.172c0-1.522,0-2.583,0-2.737q-.676.451-1.4.843a1.747,1.747,0,0,1-2.58-1.665,17.77,17.77,0,0,1,11.963-15.594,15.12,15.12,0,0,1,4.683-.749c8.121,0,15.284,6.661,16.545,15.111a1.731,1.731,0,0,1-.915,1.786,18.077,18.077,0,0,1-2.944,1.206v1.8A4.086,4.086,0,0,1,49.2,160.9Z" transform="translate(-18.361 -131.435)" fill="#422618"/>
        </g>
        <g id="Grupo_1207975" data-name="Grupo 1207975" transform="translate(39.977 41.717)">
          <path id="Trazado_1079214" data-name="Trazado 1079214" d="M167.977,152.941a5.467,5.467,0,0,0-1.9-1.239q.82-.333,1.61-.741a3.116,3.116,0,0,0,1.653-3.229,19.671,19.671,0,0,0-6.135-11.544,17.477,17.477,0,0,0-11.786-4.754,16.537,16.537,0,0,0-5.112.818,18.127,18.127,0,0,0-8.962,6.409,20.023,20.023,0,0,0-3.958,10.39,3.06,3.06,0,0,0,.8,2.359,3.183,3.183,0,0,0,1.446.9,5.473,5.473,0,0,0-2.359,4.5,5.362,5.362,0,0,0,1.578,3.839,5.529,5.529,0,0,0,3.664,1.636,14.1,14.1,0,0,0,25.824,0A5.53,5.53,0,0,0,168,160.651a5.367,5.367,0,0,0,1.578-3.853,5.431,5.431,0,0,0-1.6-3.858Zm-3.863,7.96a3.941,3.941,0,0,1-.7-.062,12.712,12.712,0,0,1-23.98,0,3.944,3.944,0,0,1-.7.062,4.086,4.086,0,0,1,.009-8.172c0-1.522,0-2.583,0-2.737q-.676.451-1.4.843a1.747,1.747,0,0,1-2.58-1.665,17.77,17.77,0,0,1,11.963-15.594,15.12,15.12,0,0,1,4.683-.749c8.121,0,15.284,6.661,16.545,15.111a1.731,1.731,0,0,1-.915,1.786,18.079,18.079,0,0,1-2.944,1.206v1.8a4.086,4.086,0,0,1,.009,8.172Z" transform="translate(-133.273 -131.435)" fill="#422618"/>
        </g>
      </g>
    </g>
  </g>
</svg>
