<svg xmlns="http://www.w3.org/2000/svg" xmlns:xlink="http://www.w3.org/1999/xlink" width="190" height="201.189" viewBox="0 0 190 201.189">
  <defs>
    <clipPath id="clip-path">
      <rect id="Rectángulo_417832" data-name="Rectángulo 417832" width="190" height="194" transform="translate(1230 6448)" fill="#fff" stroke="#707070" stroke-width="1"/>
    </clipPath>
  </defs>
  <g id="Grupo_1207979" data-name="Grupo 1207979" transform="translate(-1230 -6448)">
    <g id="Enmascarar_grupo_1098872" data-name="Enmascarar grupo 1098872" clip-path="url(#clip-path)">
      <g id="Grupo_1207978" data-name="Grupo 1207978" transform="translate(2201.982 2388.795)">
        <g id="Grupo_1207826" data-name="Grupo 1207826" transform="translate(-956 4058.792)">
          <g id="Grupo_1207687" data-name="Grupo 1207687" transform="translate(0 0)">
            <path id="Trazado_1078304" data-name="Trazado 1078304" d="M5270.307,1286.476s-9.156-36.33-28.752-48.136c-10.157-6.12-31.051-7.256-40.393-7.256s-30.235,1.136-40.393,7.256c-19.595,11.806-28.752,48.136-28.752,48.136L5159.1,1299.5l6.672-29.72-5.672,90.8,2.563.417a198.638,198.638,0,0,0,76.506-2.477l2.88-.663-5.5-88.076,8.028,28.3Z" transform="translate(-5119.289 -1077.068)" fill="#97c443"/>
            <path id="Trazado_1078305" data-name="Trazado 1078305" d="M5262.269,1774.682c.121-8.382.214-11.9.532-17.428l72.679,7.964c.016.452.028.864.043,1.253.056,1.844.105,3.784.148,5.813,0,0-23.3,3.479-41.4,3.508S5262.269,1774.682,5262.269,1774.682Z" transform="translate(-5219.311 -1481.124)" fill="#486970"/>
            <ellipse id="Elipse_12661" data-name="Elipse 12661" cx="11.045" cy="15.624" rx="11.045" ry="15.624" transform="matrix(0.818, -0.575, 0.575, 0.818, 0, 106.581)" fill="#d08158"/>
            <ellipse id="Elipse_12662" data-name="Elipse 12662" cx="15.624" cy="11.045" rx="15.624" ry="11.045" transform="translate(115.085 108.761) rotate(-70.391)" fill="#d08158"/>
            <path id="Trazado_1078306" data-name="Trazado 1078306" d="M5146.645,1038.65a2.684,2.684,0,0,0,1.213-.451c1.264-.888,1.408-2.9,1.409-3.726a13.9,13.9,0,0,0-2.694-7.706c-2.854-4.065-6.74-5.866-9.1-5.546a2.687,2.687,0,0,0-1.212.452c-1.266.888-1.407,2.9-1.41,3.725a13.894,13.894,0,0,0,2.7,7.707C5140.4,1037.17,5144.282,1038.971,5146.645,1038.65Z" transform="translate(-5121.462 -915.882)" fill="#c16f4a"/>
            <path id="Trazado_1078307" data-name="Trazado 1078307" d="M5608.375,973.484c2.363-.321,5.628-3.093,7.295-7.771a13.907,13.907,0,0,0,.544-8.146c-.222-.794-.9-2.7-2.352-3.214a2.691,2.691,0,0,0-1.289-.112c-2.364.321-5.629,3.093-7.295,7.771a13.891,13.891,0,0,0-.544,8.146c.222.794.9,2.7,2.353,3.214a2.678,2.678,0,0,0,1.288.112Z" transform="translate(-5482.002 -864.45)" fill="#c16f4a"/>
            <path id="Trazado_1078308" data-name="Trazado 1078308" d="M5378.85,1127.56h0a23.045,23.045,0,0,0,17.145,0h0v-39.388H5378.85Z" transform="translate(-5308.836 -967.323)" fill="#c16f4a"/>
            <ellipse id="Elipse_12663" data-name="Elipse 12663" cx="52.932" cy="48.013" rx="52.932" ry="48.013" transform="translate(14.8 60.304) rotate(-7.73)" fill="#d08158"/>
            <g id="Grupo_1207683" data-name="Grupo 1207683" transform="translate(22.808 100.788)">
              <path id="Trazado_1078309" data-name="Trazado 1078309" d="M5232.3,1045.427c26.324-3.573,45.956-22.445,46.9-43.7-.648,23.438-20.053,43.985-46.377,47.558s-50.5-11.059-57.375-33.476C5182.021,1036.044,5205.972,1049,5232.3,1045.427Z" transform="translate(-5175.445 -1001.729)" fill="#c16f4a"/>
            </g>
            <g id="Grupo_1207684" data-name="Grupo 1207684" transform="translate(38.115 85.604)">
              <ellipse id="Elipse_12664" data-name="Elipse 12664" cx="11.438" cy="9.117" rx="11.438" ry="9.117" transform="translate(45.663 3.077) rotate(-7.73)" fill="#fff"/>
              <ellipse id="Elipse_12665" data-name="Elipse 12665" cx="11.438" cy="9.117" rx="11.438" ry="9.117" transform="translate(0 9.277) rotate(-7.73)" fill="#fff"/>
            </g>
            <circle id="Elipse_12666" data-name="Elipse 12666" cx="7.371" cy="7.371" r="7.371" transform="translate(85.921 96.194) rotate(-45)" fill="#414042"/>
            <circle id="Elipse_12667" data-name="Elipse 12667" cx="2.398" cy="2.398" r="2.398" transform="translate(96.691 90.998)" fill="#fff"/>
            <circle id="Elipse_12668" data-name="Elipse 12668" cx="7.371" cy="7.371" r="7.371" transform="translate(41.588 107.373) rotate(-73.896)" fill="#414042"/>
            <circle id="Elipse_12669" data-name="Elipse 12669" cx="2.398" cy="2.398" r="2.398" transform="translate(51.171 97.176)" fill="#fff"/>
            <path id="Trazado_1078310" data-name="Trazado 1078310" d="M5383.29,1026.682a6.581,6.581,0,0,1,5.017-.144,3.76,3.76,0,0,1,2.306,3.159,4.633,4.633,0,0,1-2.051,3.613,12.647,12.647,0,0,1-4.982,1.83,7.873,7.873,0,0,0,5.983-.018,6.357,6.357,0,0,0,2.6-2.112,5.649,5.649,0,0,0,1.083-3.372,5.189,5.189,0,0,0-1.362-3.349,5.551,5.551,0,0,0-8.591.392Z" transform="translate(-5312.245 -918.389)" fill="#bd6a48"/>
            <path id="Trazado_1078311" data-name="Trazado 1078311" d="M5347.509,1083.691c5.791,15.815,25.46,13.145,27.408-3.72a54.557,54.557,0,0,1-27.408,3.72Z" transform="translate(-5284.768 -961.025)" fill="#414042"/>
            <path id="Trazado_1078312" data-name="Trazado 1078312" d="M5382.152,1085.47c-4.675,7.823-14.678,9.161-21,2.791a57.635,57.635,0,0,0,21-2.791Z" transform="translate(-5295.248 -965.248)" fill="#fff"/>
            <path id="Trazado_1078313" data-name="Trazado 1078313" d="M5467.448,895.538a11.429,11.429,0,0,0-4.931-3.043,13.954,13.954,0,0,0-5.89-.585,14.633,14.633,0,0,0-2.943.66,12.959,12.959,0,0,0-2.678,1.366,10.789,10.789,0,0,0-3.858,4.358c.971-.295,1.757-.734,2.613-1.025.423-.15.835-.3,1.232-.464s.827-.247,1.221-.387c.787-.294,1.614-.423,2.4-.65.814-.115,1.6-.319,2.417-.372a33.683,33.683,0,0,1,4.992-.2C5463.745,895.253,5465.5,895.388,5467.448,895.538Z" transform="translate(-5361.284 -816.538)" fill="#3c2415"/>
            <path id="Trazado_1078314" data-name="Trazado 1078314" d="M5242.75,925.813c1.834-.662,3.5-1.262,5.143-1.773a33.633,33.633,0,0,1,4.863-1.142c.8-.168,1.614-.18,2.43-.286.813.01,1.645-.085,2.481-.012.417.031.857-.016,1.279.048s.864.088,1.313.12c.9.052,1.777.266,2.792.291a10.789,10.789,0,0,0-4.88-3.172,12.992,12.992,0,0,0-2.944-.6,14.633,14.633,0,0,0-3.014.149,13.959,13.959,0,0,0-5.521,2.134A11.445,11.445,0,0,0,5242.75,925.813Z" transform="translate(-5204.322 -837.62)" fill="#3c2415"/>
            <g id="Grupo_1207685" data-name="Grupo 1207685" transform="translate(40.808 105.456)">
              <ellipse id="Elipse_12670" data-name="Elipse 12670" cx="7.914" cy="4.111" rx="7.914" ry="4.111" transform="translate(52.646 2.129) rotate(-7.73)" fill="#e29d81"/>
              <ellipse id="Elipse_12671" data-name="Elipse 12671" cx="7.914" cy="4.111" rx="7.914" ry="4.111" transform="translate(0 9.273) rotate(-7.73)" fill="#e29d81"/>
            </g>
            <g id="Grupo_1207686" data-name="Grupo 1207686" transform="translate(2.317 0)">
              <circle id="Elipse_12672" data-name="Elipse 12672" cx="15.697" cy="15.697" r="15.697" transform="translate(67.851 26.785)" fill="#3c1800"/>
              <circle id="Elipse_12673" data-name="Elipse 12673" cx="15.697" cy="15.697" r="15.697" transform="translate(84.454 36.798) rotate(-45)" fill="#3c1800"/>
              <circle id="Elipse_12674" data-name="Elipse 12674" cx="15.697" cy="15.697" r="15.697" transform="translate(40.869 17.684)" fill="#3c1800"/>
              <circle id="Elipse_12675" data-name="Elipse 12675" cx="15.697" cy="15.697" r="15.697" transform="translate(6.421 30.529) rotate(-9.218)" fill="#3c1800"/>
              <circle id="Elipse_12676" data-name="Elipse 12676" cx="15.697" cy="15.697" r="15.697" transform="translate(13.979 33.25) rotate(-45)" fill="#3c1800"/>
              <circle id="Elipse_12677" data-name="Elipse 12677" cx="15.697" cy="15.697" r="15.697" transform="translate(51.88 22.199) rotate(-45)" fill="#3c1800"/>
              <circle id="Elipse_12678" data-name="Elipse 12678" cx="15.697" cy="15.697" r="15.697" transform="translate(73.725 26.792) rotate(-45)" fill="#3c1800"/>
              <circle id="Elipse_12679" data-name="Elipse 12679" cx="15.697" cy="15.697" r="15.697" transform="translate(0 42.482)" fill="#3c1800"/>
              <circle id="Elipse_12680" data-name="Elipse 12680" cx="15.697" cy="15.697" r="15.697" transform="translate(46.558 37.973)" fill="#3c1800"/>
              <circle id="Elipse_12681" data-name="Elipse 12681" cx="12.148" cy="12.148" r="12.148" transform="translate(28.855 36.791)" fill="#3c1800"/>
              <circle id="Elipse_12682" data-name="Elipse 12682" cx="12.148" cy="12.148" r="12.148" transform="translate(4.361 62.371) rotate(-9.218)" fill="#3c1800"/>
              <circle id="Elipse_12683" data-name="Elipse 12683" cx="12.148" cy="12.148" r="12.148" transform="translate(103.986 44.763)" fill="#3c1800"/>
              <circle id="Elipse_12684" data-name="Elipse 12684" cx="12.148" cy="12.148" r="12.148" transform="translate(107.885 33.882)" fill="#3c1800"/>
              <circle id="Elipse_12685" data-name="Elipse 12685" cx="9.684" cy="9.684" r="9.684" transform="translate(114.71 50.603)" fill="#3c1800"/>
              <circle id="Elipse_12686" data-name="Elipse 12686" cx="12.148" cy="12.148" r="12.148" transform="translate(87.493 42.779) rotate(-9.218)" fill="#3c1800"/>
              <circle id="Elipse_12687" data-name="Elipse 12687" cx="12.148" cy="12.148" r="12.148" transform="translate(16.304 46.03)" fill="#3c1800"/>
              <circle id="Elipse_12688" data-name="Elipse 12688" cx="4.186" cy="4.186" r="4.186" transform="translate(13.496 93.847) rotate(-9.218)" fill="#3c1800"/>
              <circle id="Elipse_12689" data-name="Elipse 12689" cx="4.186" cy="4.186" r="4.186" transform="translate(2.264 80.551) rotate(-45)" fill="#3c1800"/>
              <circle id="Elipse_12690" data-name="Elipse 12690" cx="5.159" cy="5.159" r="5.159" transform="translate(41.743 12.525)" fill="#3c1800"/>
              <circle id="Elipse_12691" data-name="Elipse 12691" cx="5.159" cy="5.159" r="5.159" transform="translate(15.33 22.671)" fill="#3c1800"/>
              <circle id="Elipse_12692" data-name="Elipse 12692" cx="5.159" cy="5.159" r="5.159" transform="translate(84.102 6.557)" fill="#3c1800"/>
              <circle id="Elipse_12693" data-name="Elipse 12693" cx="8.109" cy="8.109" r="8.109" transform="translate(8.194 80.705)" fill="#3c1800"/>
              <circle id="Elipse_12694" data-name="Elipse 12694" cx="8.109" cy="8.109" r="8.109" transform="translate(46.916 17.553) rotate(-45)" fill="#3c1800"/>
              <circle id="Elipse_12695" data-name="Elipse 12695" cx="8.109" cy="8.109" r="8.109" transform="translate(114.432 66.335) rotate(-13.286)" fill="#3c1800"/>
              <circle id="Elipse_12696" data-name="Elipse 12696" cx="8.109" cy="8.109" r="8.109" transform="translate(0.085 62.218)" fill="#3c1800"/>
              <circle id="Elipse_12697" data-name="Elipse 12697" cx="4.186" cy="4.186" r="4.186" transform="translate(116.879 78.572) rotate(-13.286)" fill="#3c1800"/>
            </g>
          </g>
          <g id="Grupo_1207706" data-name="Grupo 1207706" transform="translate(3.967 180.685)">
            <path id="Trazado_1078395" data-name="Trazado 1078395" d="M5095.813,1367.543c-1.764.694-1.574,3.03-1.519,5.652.063,2.921.2,6.114,2.288,6.1C5100.55,1379.274,5100.352,1365.758,5095.813,1367.543Z" transform="translate(-5094.261 -1362.417)" fill="#d08158"/>
            <path id="Trazado_1078396" data-name="Trazado 1078396" d="M5162.442,1354.906c-2.354.759-2.363,3.792-2.579,7.181-.239,3.777-.415,7.912,2.287,8.059C5167.277,1370.428,5168.5,1352.955,5162.442,1354.906Z" transform="translate(-5144.543 -1352.722)" fill="#d08158"/>
            <path id="Trazado_1078397" data-name="Trazado 1078397" d="M5111.91,1355.241c-2.317.183-2.542,3.241-2.553,7.267-.014,4.357-.059,10.088,2.575,10.1,2.716.017,3.561-5.187,3.5-9.887C5115.385,1358.659,5116.789,1354.855,5111.91,1355.241Z" transform="translate(-5105.852 -1353.074)" fill="#d08158"/>
            <path id="Trazado_1078398" data-name="Trazado 1078398" d="M5135.154,1346.117c-2.712.494-2.29,3.958-2.3,8.755-.017,5.191-.069,12.02,3.067,12.04s4.048-6.274,4.091-11.939C5140.048,1349.733,5140.259,1345.187,5135.154,1346.117Z" transform="translate(-5123.882 -1345.996)" fill="#d08158"/>
          </g>
          <g id="Grupo_1207707" data-name="Grupo 1207707" transform="translate(125.413 180.685)">
            <path id="Trazado_1078399" data-name="Trazado 1078399" d="M5693.653,1367.543c1.763.694,1.573,3.03,1.517,5.652-.062,2.921-.2,6.114-2.287,6.1C5688.916,1379.274,5689.118,1365.758,5693.653,1367.543Z" transform="translate(-5673.241 -1362.417)" fill="#d08158"/>
            <path id="Trazado_1078400" data-name="Trazado 1078400" d="M5621.624,1354.906c2.354.759,2.363,3.792,2.579,7.181.239,3.777.415,7.912-2.287,8.059C5616.787,1370.428,5615.569,1352.955,5621.624,1354.906Z" transform="translate(-5617.557 -1352.722)" fill="#d08158"/>
            <path id="Trazado_1078401" data-name="Trazado 1078401" d="M5673.933,1355.241c2.318.183,2.541,3.241,2.554,7.267.014,4.357.059,10.088-2.574,10.1-2.716.017-3.561-5.187-3.5-9.887C5670.459,1358.659,5669.057,1354.855,5673.933,1355.241Z" transform="translate(-5658.028 -1353.074)" fill="#d08158"/>
            <path id="Trazado_1078402" data-name="Trazado 1078402" d="M5647.527,1346.117c2.713.494,2.29,3.958,2.3,8.755.017,5.191.068,12.02-3.067,12.04s-4.047-6.274-4.091-11.939C5642.632,1349.733,5642.421,1345.187,5647.527,1346.117Z" transform="translate(-5636.834 -1345.996)" fill="#d08158"/>
          </g>
        </g>
      </g>
    </g>
    <g id="Grupo_1207706-2" data-name="Grupo 1207706" transform="translate(1249.949 6628.272)">
      <path id="Trazado_1078395-2" data-name="Trazado 1078395" d="M5095.813,1367.543c-1.764.694-1.574,3.03-1.519,5.652.063,2.921.2,6.114,2.288,6.1C5100.55,1379.274,5100.352,1365.758,5095.813,1367.543Z" transform="translate(-5094.261 -1362.417)" fill="#d08158"/>
      <path id="Trazado_1078396-2" data-name="Trazado 1078396" d="M5162.442,1354.906c-2.354.759-2.363,3.792-2.579,7.181-.239,3.777-.415,7.912,2.287,8.059C5167.277,1370.428,5168.5,1352.955,5162.442,1354.906Z" transform="translate(-5144.543 -1352.722)" fill="#d08158"/>
      <path id="Trazado_1078397-2" data-name="Trazado 1078397" d="M5111.91,1355.241c-2.317.183-2.542,3.241-2.553,7.267-.014,4.357-.059,10.088,2.575,10.1,2.716.017,3.561-5.187,3.5-9.887C5115.385,1358.659,5116.789,1354.855,5111.91,1355.241Z" transform="translate(-5105.852 -1353.074)" fill="#d08158"/>
      <path id="Trazado_1078398-2" data-name="Trazado 1078398" d="M5135.154,1346.117c-2.712.494-2.29,3.958-2.3,8.755-.017,5.191-.069,12.02,3.067,12.04s4.048-6.274,4.091-11.939C5140.048,1349.733,5140.259,1345.187,5135.154,1346.117Z" transform="translate(-5123.882 -1345.996)" fill="#d08158"/>
    </g>
    <g id="Grupo_1207707-2" data-name="Grupo 1207707" transform="translate(1371.395 6628.272)">
      <path id="Trazado_1078399-2" data-name="Trazado 1078399" d="M5693.653,1367.543c1.763.694,1.573,3.03,1.517,5.652-.062,2.921-.2,6.114-2.287,6.1C5688.916,1379.274,5689.118,1365.758,5693.653,1367.543Z" transform="translate(-5673.241 -1362.417)" fill="#d08158"/>
      <path id="Trazado_1078400-2" data-name="Trazado 1078400" d="M5621.624,1354.906c2.354.759,2.363,3.792,2.579,7.181.239,3.777.415,7.912-2.287,8.059C5616.787,1370.428,5615.569,1352.955,5621.624,1354.906Z" transform="translate(-5617.557 -1352.722)" fill="#d08158"/>
      <path id="Trazado_1078401-2" data-name="Trazado 1078401" d="M5673.933,1355.241c2.318.183,2.541,3.241,2.554,7.267.014,4.357.059,10.088-2.574,10.1-2.716.017-3.561-5.187-3.5-9.887C5670.459,1358.659,5669.057,1354.855,5673.933,1355.241Z" transform="translate(-5658.028 -1353.074)" fill="#d08158"/>
      <path id="Trazado_1078402-2" data-name="Trazado 1078402" d="M5647.527,1346.117c2.713.494,2.29,3.958,2.3,8.755.017,5.191.068,12.02-3.067,12.04s-4.047-6.274-4.091-11.939C5642.632,1349.733,5642.421,1345.187,5647.527,1346.117Z" transform="translate(-5636.834 -1345.996)" fill="#d08158"/>
    </g>
  </g>
</svg>
