<svg xmlns="http://www.w3.org/2000/svg" xmlns:xlink="http://www.w3.org/1999/xlink" width="93.934" height="93.934" viewBox="0 0 93.934 93.934">
  <defs>
    <filter id="Trazado_982547" x="0" y="0" width="93.934" height="93.934" filterUnits="userSpaceOnUse">
      <feOffset dy="3" input="SourceAlpha"/>
      <feGaussianBlur stdDeviation="3" result="blur"/>
      <feFlood flood-opacity="0.161"/>
      <feComposite operator="in" in2="blur"/>
      <feComposite in="SourceGraphic"/>
    </filter>
  </defs>
  <g id="Grupo_1207827" data-name="Grupo 1207827" transform="translate(-189 -2789.8)">
    <g id="Grupo_1206454" data-name="Grupo 1206454" transform="translate(0 -5753.2)">
      <g id="Grupo_1185087" data-name="Grupo 1185087" transform="translate(0 8196.939)">
        <g id="Grupo_1181939" data-name="Grupo 1181939" transform="translate(0 -388.939)">
          <g id="Grupo_1175133" data-name="Grupo 1175133" transform="translate(-0.033 -1251)">
            <g id="Grupo_1167337" data-name="Grupo 1167337" transform="translate(198.033 1992)">
              <g id="Grupo_1166720" data-name="Grupo 1166720">
                <g id="Grupo_1164305" data-name="Grupo 1164305">
                  <g id="Grupo_1163948" data-name="Grupo 1163948">
                    <g id="Grupo_1158168" data-name="Grupo 1158168">
                      <g id="Grupo_1152576" data-name="Grupo 1152576">
                        <g id="Grupo_1148633" data-name="Grupo 1148633">
                          <g id="Grupo_1148525" data-name="Grupo 1148525">
                            <g transform="matrix(1, 0, 0, 1, -9, -6)" filter="url(#Trazado_982547)">
                              <g id="Trazado_982547-2" data-name="Trazado 982547" transform="translate(9 6)" fill="#eaf9f8">
                                <path d="M 37.966796875 74.43359375 C 33.04315185546875 74.43359375 28.26757431030273 73.46962738037109 23.77274131774902 71.56847381591797 C 19.43047523498535 69.73184967041016 15.53040790557861 67.10224914550781 12.18087482452393 63.75271987915039 C 8.831341743469238 60.4031867980957 6.201741218566895 56.50312042236328 4.365118980407715 52.16086196899414 C 2.463963508605957 47.66601943969727 1.499996900558472 42.89044189453125 1.499996900558472 37.966796875 C 1.499996900558472 33.04315185546875 2.463963508605957 28.26757431030273 4.365118980407715 23.77274131774902 C 6.201741218566895 19.43047523498535 8.831341743469238 15.53040790557861 12.18087482452393 12.18087482452393 C 15.53040790557861 8.831341743469238 19.43047523498535 6.201741218566895 23.77274131774902 4.365118980407715 C 28.26757431030273 2.463963508605957 33.04315185546875 1.499996900558472 37.966796875 1.499996900558472 C 42.89044189453125 1.499996900558472 47.66601943969727 2.463963508605957 52.16086196899414 4.365118980407715 C 56.50312042236328 6.201741218566895 60.4031867980957 8.831341743469238 63.75271987915039 12.18087482452393 C 67.10224914550781 15.53040790557861 69.73184967041016 19.43047523498535 71.56847381591797 23.77274131774902 C 73.46962738037109 28.26757431030273 74.43359375 33.04315185546875 74.43359375 37.966796875 C 74.43359375 42.89044189453125 73.46962738037109 47.66601943969727 71.56847381591797 52.16086196899414 C 69.73184967041016 56.50313186645508 67.10224914550781 60.4031867980957 63.75271987915039 63.75271987915039 C 60.4031867980957 67.10224914550781 56.50313186645508 69.73184967041016 52.16086196899414 71.56847381591797 C 47.66601943969727 73.46962738037109 42.89044189453125 74.43359375 37.966796875 74.43359375 Z" stroke="none"/>
                                <path d="M 37.966796875 3 C 33.2449836730957 3 28.66600799560547 3.924095153808594 24.35705947875977 5.746635437011719 C 20.19359588623047 7.507637023925781 16.45379638671875 10.02928161621094 13.24153518676758 13.24153518676758 C 10.02927398681641 16.45379638671875 7.507621765136719 20.19359588623047 5.746635437011719 24.35705947875977 C 3.924095153808594 28.66600799560547 3 33.2449836730957 3 37.966796875 C 3 42.6886100769043 3.924095153808594 47.26758575439453 5.746635437011719 51.57653427124023 C 7.507621765136719 55.73999786376953 10.02927398681641 59.47979736328125 13.24153518676758 62.69205856323242 C 16.45379638671875 65.90431976318359 20.19359588623047 68.42597198486328 24.35705947875977 70.18695831298828 C 28.66600799560547 72.00949859619141 33.2449836730957 72.93359375 37.966796875 72.93359375 C 42.6886100769043 72.93359375 47.26758575439453 72.00949859619141 51.57653427124023 70.18695831298828 C 55.73999786376953 68.42597198486328 59.47979736328125 65.90431976318359 62.69205856323242 62.69205856323242 C 65.90431976318359 59.47979736328125 68.42597198486328 55.73999786376953 70.18695831298828 51.57653427124023 C 72.00949859619141 47.26758575439453 72.93359375 42.6886100769043 72.93359375 37.966796875 C 72.93359375 33.2449836730957 72.00949859619141 28.66600799560547 70.18695831298828 24.35705947875977 C 68.42597198486328 20.19359588623047 65.90431976318359 16.45379638671875 62.69205856323242 13.24153518676758 C 59.47979736328125 10.02928161621094 55.73999786376953 7.507637023925781 51.57653427124023 5.746635437011719 C 47.26758575439453 3.924095153808594 42.6886100769043 3 37.966796875 3 M 37.966796875 0 C 58.93528366088867 0 75.93359375 16.99832153320312 75.93359375 37.966796875 C 75.93359375 58.93528366088867 58.93528366088867 75.93359375 37.966796875 75.93359375 C 16.99831008911133 75.93359375 0 58.93528366088867 0 37.966796875 C 0 16.99832153320312 16.99831008911133 0 37.966796875 0 Z" stroke="none" fill="#1f7069"/>
                              </g>
                            </g>
                          </g>
                        </g>
                      </g>
                    </g>
                  </g>
                </g>
              </g>
            </g>
          </g>
        </g>
      </g>
    </g>
    <g id="palabra-clave" transform="translate(212.265 2810.1)">
      <g id="Lineal_Color" transform="translate(2.266 2.266)">
        <path id="Trazado_1078835" data-name="Trazado 1078835" d="M2,6H38.744V36.62H2Z" transform="translate(-2 0.124)" fill="#f2f3f3"/>
        <path id="Trazado_1078836" data-name="Trazado 1078836" d="M2,2H38.744V8.124H2Z" transform="translate(-2 -2)" fill="#f15f60"/>
        <path id="Trazado_1078837" data-name="Trazado 1078837" d="M25.655,21.062a4.593,4.593,0,1,1-4.593,4.593A4.587,4.587,0,0,1,25.655,21.062Zm4.226,10.977a7.652,7.652,0,1,1,2.159-2.159l4.333,4.333-2.159,2.159Z" transform="translate(6.496 6.496)" fill="#65cef6" fill-rule="evenodd"/>
      </g>
      <g id="Outline" transform="translate(1.5 1.5)">
        <path id="Trazado_1078838" data-name="Trazado 1078838" d="M32.886,4.562a.766.766,0,1,1-.766.766A.758.758,0,0,1,32.886,4.562Zm3.062,0a.766.766,0,1,1-.766.766A.758.758,0,0,1,35.948,4.562ZM8.39,6.093H5.328a.766.766,0,0,1,0-1.531H8.39a.766.766,0,0,1,0,1.531ZM3.031,7.624H38.244V3.031H3.031Zm-.766,6.124a.766.766,0,1,1-.766.766A.758.758,0,0,1,2.266,13.748ZM18.341,16.81H21.4a1.531,1.531,0,1,0,0-3.062H18.341ZM9.278,18.341h2.8l-1.409-3.368L9.262,18.341ZM18.341,21.4h4.593a1.531,1.531,0,1,0,0-3.062H18.341Zm4.593,1.531H17.576a.758.758,0,0,1-.766-.766V12.983a.758.758,0,0,1,.766-.766H21.4a3.086,3.086,0,0,1,2.159.888,3.032,3.032,0,0,1,.383,3.858,3.232,3.232,0,0,1,1.148.72,3.045,3.045,0,0,1,.9,2.174,2.984,2.984,0,0,1-.9,2.159,3.036,3.036,0,0,1-2.159.9Zm11.483,0H32.886a5.358,5.358,0,0,1-5.359-5.359A5.267,5.267,0,0,1,29.1,13.794a5.33,5.33,0,0,1,3.782-1.577h1.531a.766.766,0,0,1,0,1.531H32.886a3.828,3.828,0,1,0,0,7.655h1.531a.766.766,0,0,1,0,1.531ZM7.624,18.341l2.358-5.649a.8.8,0,0,1,1.409,0l2.358,5.649h.766a.766.766,0,0,1,0,1.531h-.122l.842,2.006a.743.743,0,0,1-.413,1,.663.663,0,0,1-.291.061.764.764,0,0,1-.7-.475l-1.087-2.587H8.65L7.563,22.46a.762.762,0,0,1-1.409-.582L7,19.872H6.874a.766.766,0,0,1,0-1.531h.766ZM1.5,2.266A.758.758,0,0,1,2.266,1.5H39.01a.758.758,0,0,1,.766.766V23.7a.766.766,0,1,1-1.531,0V9.155H3.031v2.3a.766.766,0,1,1-1.531,0ZM23.7,27.527H6.859a.766.766,0,1,1,0-1.531H23.7a.766.766,0,0,1,0,1.531Zm0,4.593H6.859a.766.766,0,1,1,0-1.531H23.7a.766.766,0,0,1,0,1.531Zm10.717-1.531a3.828,3.828,0,1,0,3.828,3.828A3.829,3.829,0,0,0,34.417,30.589ZM23.7,39.775H2.266A.758.758,0,0,1,1.5,39.01V17.576a.766.766,0,1,1,1.531,0V38.244H23.7a.766.766,0,1,1,0,1.531Zm10.717,0a5.359,5.359,0,1,1,5.359-5.359A5.364,5.364,0,0,1,34.417,39.775Zm4.226.26a.718.718,0,0,1,.536.23l3.8,3.8,1.087-1.087-3.8-3.8a.764.764,0,0,1-.092-.965,6.906,6.906,0,1,0-1.944,1.944.733.733,0,0,1,.429-.122ZM42.975,45.9a.718.718,0,0,1-.536-.23l-3.9-3.9a8.431,8.431,0,1,1,3.246-3.246l3.9,3.9a.786.786,0,0,1,0,1.087L43.511,45.67a.743.743,0,0,1-.536.23Z" transform="translate(-1.5 -1.5)"/>
      </g>
    </g>
  </g>
</svg>
