<svg xmlns="http://www.w3.org/2000/svg" xmlns:xlink="http://www.w3.org/1999/xlink" width="93.934" height="93.934" viewBox="0 0 93.934 93.934">
  <defs>
    <filter id="Trazado_982547" x="0" y="0" width="93.934" height="93.934" filterUnits="userSpaceOnUse">
      <feOffset dy="3" input="SourceAlpha"/>
      <feGaussianBlur stdDeviation="3" result="blur"/>
      <feFlood flood-opacity="0.161"/>
      <feComposite operator="in" in2="blur"/>
      <feComposite in="SourceGraphic"/>
    </filter>
  </defs>
  <g id="Grupo_1207828" data-name="Grupo 1207828" transform="translate(-819 -2789.833)">
    <g id="Grupo_1206462" data-name="Grupo 1206462" transform="translate(0 -5753.2)">
      <g id="Grupo_1185088" data-name="Grupo 1185088" transform="translate(828 8549.033)">
        <g id="Grupo_1181939" data-name="Grupo 1181939">
          <g id="Grupo_1175133" data-name="Grupo 1175133">
            <g id="Grupo_1167337" data-name="Grupo 1167337">
              <g id="Grupo_1166720" data-name="Grupo 1166720">
                <g id="Grupo_1164305" data-name="Grupo 1164305">
                  <g id="Grupo_1163948" data-name="Grupo 1163948">
                    <g id="Grupo_1158168" data-name="Grupo 1158168">
                      <g id="Grupo_1152576" data-name="Grupo 1152576">
                        <g id="Grupo_1148633" data-name="Grupo 1148633">
                          <g id="Grupo_1148525" data-name="Grupo 1148525">
                            <g transform="matrix(1, 0, 0, 1, -9, -6)" filter="url(#Trazado_982547)">
                              <g id="Trazado_982547-2" data-name="Trazado 982547" transform="translate(9 6)" fill="#eaf9f8">
                                <path d="M 37.966796875 74.43359375 C 33.04315185546875 74.43359375 28.26757431030273 73.46962738037109 23.77274131774902 71.56847381591797 C 19.43047523498535 69.73184967041016 15.53040790557861 67.10224914550781 12.18087482452393 63.75271987915039 C 8.831341743469238 60.4031867980957 6.201741218566895 56.50312042236328 4.365118980407715 52.16086196899414 C 2.463963508605957 47.66601943969727 1.499996900558472 42.89044189453125 1.499996900558472 37.966796875 C 1.499996900558472 33.04315185546875 2.463963508605957 28.26757431030273 4.365118980407715 23.77274131774902 C 6.201741218566895 19.43047523498535 8.831341743469238 15.53040790557861 12.18087482452393 12.18087482452393 C 15.53040790557861 8.831341743469238 19.43047523498535 6.201741218566895 23.77274131774902 4.365118980407715 C 28.26757431030273 2.463963508605957 33.04315185546875 1.499996900558472 37.966796875 1.499996900558472 C 42.89044189453125 1.499996900558472 47.66601943969727 2.463963508605957 52.16086196899414 4.365118980407715 C 56.50312042236328 6.201741218566895 60.4031867980957 8.831341743469238 63.75271987915039 12.18087482452393 C 67.10224914550781 15.53040790557861 69.73184967041016 19.43047523498535 71.56847381591797 23.77274131774902 C 73.46962738037109 28.26757431030273 74.43359375 33.04315185546875 74.43359375 37.966796875 C 74.43359375 42.89044189453125 73.46962738037109 47.66601943969727 71.56847381591797 52.16086196899414 C 69.73184967041016 56.50313186645508 67.10224914550781 60.4031867980957 63.75271987915039 63.75271987915039 C 60.4031867980957 67.10224914550781 56.50313186645508 69.73184967041016 52.16086196899414 71.56847381591797 C 47.66601943969727 73.46962738037109 42.89044189453125 74.43359375 37.966796875 74.43359375 Z" stroke="none"/>
                                <path d="M 37.966796875 3 C 33.2449836730957 3 28.66600799560547 3.924095153808594 24.35705947875977 5.746635437011719 C 20.19359588623047 7.507637023925781 16.45379638671875 10.02928161621094 13.24153518676758 13.24153518676758 C 10.02927398681641 16.45379638671875 7.507621765136719 20.19359588623047 5.746635437011719 24.35705947875977 C 3.924095153808594 28.66600799560547 3 33.2449836730957 3 37.966796875 C 3 42.6886100769043 3.924095153808594 47.26758575439453 5.746635437011719 51.57653427124023 C 7.507621765136719 55.73999786376953 10.02927398681641 59.47979736328125 13.24153518676758 62.69205856323242 C 16.45379638671875 65.90431976318359 20.19359588623047 68.42597198486328 24.35705947875977 70.18695831298828 C 28.66600799560547 72.00949859619141 33.2449836730957 72.93359375 37.966796875 72.93359375 C 42.6886100769043 72.93359375 47.26758575439453 72.00949859619141 51.57653427124023 70.18695831298828 C 55.73999786376953 68.42597198486328 59.47979736328125 65.90431976318359 62.69205856323242 62.69205856323242 C 65.90431976318359 59.47979736328125 68.42597198486328 55.73999786376953 70.18695831298828 51.57653427124023 C 72.00949859619141 47.26758575439453 72.93359375 42.6886100769043 72.93359375 37.966796875 C 72.93359375 33.2449836730957 72.00949859619141 28.66600799560547 70.18695831298828 24.35705947875977 C 68.42597198486328 20.19359588623047 65.90431976318359 16.45379638671875 62.69205856323242 13.24153518676758 C 59.47979736328125 10.02928161621094 55.73999786376953 7.507637023925781 51.57653427124023 5.746635437011719 C 47.26758575439453 3.924095153808594 42.6886100769043 3 37.966796875 3 M 37.966796875 0 C 58.93528366088867 0 75.93359375 16.99832153320312 75.93359375 37.966796875 C 75.93359375 58.93528366088867 58.93528366088867 75.93359375 37.966796875 75.93359375 C 16.99831008911133 75.93359375 0 58.93528366088867 0 37.966796875 C 0 16.99832153320312 16.99831008911133 0 37.966796875 0 Z" stroke="none" fill="#1f7069"/>
                              </g>
                            </g>
                          </g>
                        </g>
                      </g>
                    </g>
                  </g>
                </g>
              </g>
            </g>
          </g>
        </g>
      </g>
    </g>
    <g id="discurso_1_" data-name="discurso (1)" transform="translate(842.773 2810.607)">
      <path id="Trazado_1078839" data-name="Trazado 1078839" d="M150.577,435.814h9.551c1.88-.849,1.593-3.866,0-4.821-1.016-2-5.549-2.692-7.582-1.27A10.286,10.286,0,0,0,150.577,435.814Z" transform="translate(-136.934 -390.107)" fill="#de7f9f"/>
      <path id="Trazado_1078840" data-name="Trazado 1078840" d="M256,431.674V436.5h9.551a10.286,10.286,0,0,0-1.967-6.088c-2.065-1.425-6.659-.452-7.55,1.267Z" transform="translate(-232.807 -390.789)" fill="#da507d"/>
      <path id="Trazado_1078841" data-name="Trazado 1078841" d="M262.2,405.235c-2.68-2.371-5.883-1.821-6.2.7v2.092a22.749,22.749,0,0,0,7.584-1.267A9.887,9.887,0,0,0,262.2,405.235Z" transform="translate(-232.808 -367.145)" fill="#cd3a69"/>
      <path id="Trazado_1078842" data-name="Trazado 1078842" d="M118.809,7.5h-4.73a20.3,20.3,0,0,0-3.169.249c-8.615,4.254-14.269,35.227,2.077,35.227H131.18a7.777,7.777,0,0,0,7.777-7.777v-7.55A20.151,20.151,0,0,0,118.809,7.5Z" transform="translate(-93.251 -6.823)" fill="#5a557c"/>
      <path id="Trazado_1078843" data-name="Trazado 1078843" d="M18.78,37.7v-7.55a20.1,20.1,0,0,1,1.149-6.716,2.191,2.191,0,0,1,.5-.071,1.455,1.455,0,0,1,.883.291l.693.521a2.381,2.381,0,0,0,3.761-2.391l-.142-.68a1.462,1.462,0,0,1,.27-1.189c2.369-3.1,1.765-7.1-1.413-9.666A20.158,20.158,0,0,0,7.5,30.148V37.7a7.777,7.777,0,0,0,7.777,7.777H26.558A7.777,7.777,0,0,1,18.78,37.7Z" transform="translate(-6.82 -9.319)" fill="#443d5d"/>
      <path id="Trazado_1078844" data-name="Trazado 1078844" d="M44.775,16.147a3.555,3.555,0,0,0-.655,2.887l.142.679a.289.289,0,0,1-.456.29l-.693-.521a3.576,3.576,0,0,0-2.925-.625c-3.128.691-6.765-.1-8.784-2.348A4.778,4.778,0,0,1,30.093,13.3c0-3.2,3.513-5.8,7.845-5.8a9.918,9.918,0,0,1,4.234.916c3.465,1.646,4.664,5.028,2.6,7.729Z" transform="translate(-27.366 -6.822)" fill="#a0e7e7"/>
      <path id="Trazado_1078845" data-name="Trazado 1078845" d="M173.7,405.236a9.881,9.881,0,0,0-1.381,1.525,22.858,22.858,0,0,0,7.582,1.27v-2.092C179.58,403.415,176.378,402.865,173.7,405.236Z" transform="translate(-156.705 -367.146)" fill="#da507d"/>
      <path id="Trazado_1078846" data-name="Trazado 1078846" d="M268.918,433.515c-.848-1.645-4.4-.965-5.222.743C265.034,436.189,267.923,437.257,268.918,433.515Z" transform="translate(-239.805 -393.384)" fill="#efd15e"/>
      <path id="Trazado_1078847" data-name="Trazado 1078847" d="M256.343,401.616a3.844,3.844,0,0,0,.666,1.594,23,23,0,0,0,5.222-.743,10.5,10.5,0,0,0,.3-1.938C261.087,397.452,256.676,397.719,256.343,401.616Z" transform="translate(-233.118 -362.336)" fill="#e9b746"/>
      <path id="Trazado_1078848" data-name="Trazado 1078848" d="M195.863,434.021c-.674-1.784-4.563-2.388-5.219-.747C191.636,437.024,194.52,435.961,195.863,434.021Z" transform="translate(-173.371 -393.148)" fill="#f4e386"/>
      <path id="Trazado_1078849" data-name="Trazado 1078849" d="M187.315,399.458a10.539,10.539,0,0,0,.3,1.933,23.112,23.112,0,0,0,5.219.747,3.916,3.916,0,0,0,.671-1.593A3.174,3.174,0,0,0,187.315,399.458Z" transform="translate(-170.344 -361.265)" fill="#efd15e"/>
      <path id="Trazado_1078850" data-name="Trazado 1078850" d="M425.466,199.82a4.1,4.1,0,0,1-5.075,3.974c-3.976-1.4-3.37-6.946-.347-7.846a4.1,4.1,0,0,1,5.421,3.872Z" transform="translate(-379.759 -177.991)" fill="#ffcbbe"/>
      <path id="Trazado_1078851" data-name="Trazado 1078851" d="M12.923,195.949c3.243,1.661,3.993,6.533-.347,7.846a4.094,4.094,0,1,1,.347-7.846Z" transform="translate(-6.821 -177.992)" fill="#f2b2a6"/>
      <path id="Trazado_1078852" data-name="Trazado 1078852" d="M127.707,101.931a1.428,1.428,0,0,0-1.076-.642,16.036,16.036,0,0,1-9.843-4.09,1.423,1.423,0,0,0-1.907-.065,23.892,23.892,0,0,1-10.667,5.106c-11.532,5.98-6.056,24.166,12.5,24.166,7.8-1.571,13.5-7.492,13.5-15.78A15.643,15.643,0,0,0,127.707,101.931Z" transform="translate(-89.29 -88.029)" fill="#ffddcf"/>
      <path id="Trazado_1078853" data-name="Trazado 1078853" d="M68.491,163.662a19.224,19.224,0,0,1,1.19-6.795,38.3,38.3,0,0,1-6.772.771,1.419,1.419,0,0,0-1.237.815,15.978,15.978,0,0,0-1.458,6.8c0,9.82,7.955,16.195,17.769,16.195a21.415,21.415,0,0,0,4.2-.415c-7.846-1.654-13.694-8.137-13.694-17.371Z" transform="translate(-54.757 -142.655)" fill="#ffcbbe"/>
      <path id="Trazado_1078854" data-name="Trazado 1078854" d="M309.137,216.534a2.184,2.184,0,1,1-2.673,2.129A2.448,2.448,0,0,1,309.137,216.534Z" transform="translate(-278.698 -196.917)" fill="#eda1ab"/>
      <path id="Trazado_1078855" data-name="Trazado 1078855" d="M234.37,205.9c1.191,0,2.155.125,2.155,1.457a2.169,2.169,0,1,1-4.31,0C232.215,206.026,233.179,205.9,234.37,205.9Z" transform="translate(-211.176 -187.247)" fill="#303646"/>
      <path id="Trazado_1078856" data-name="Trazado 1078856" d="M149.2,216.534a2.184,2.184,0,1,1-2.673,2.129A2.447,2.447,0,0,1,149.2,216.534Z" transform="translate(-133.255 -196.917)" fill="#eda1ab"/>
      <path id="Trazado_1078857" data-name="Trazado 1078857" d="M174.148,194.887a.679.679,0,0,0,.679-.679v-1.092a.679.679,0,1,0-1.359,0v1.092A.679.679,0,0,0,174.148,194.887Z" transform="translate(-157.752 -175.003)"/>
      <path id="Trazado_1078858" data-name="Trazado 1078858" d="M227.549,203.629a2.974,2.974,0,0,0,2.834-3.091c0-2.137-1.986-2.137-2.834-2.137s-2.834,0-2.834,2.137A2.974,2.974,0,0,0,227.549,203.629Zm0-3.869c1.416,0,1.475.238,1.475.778a1.494,1.494,0,1,1-2.951,0C226.074,200,226.134,199.76,227.549,199.76Z" transform="translate(-204.356 -180.426)"/>
      <path id="Trazado_1078859" data-name="Trazado 1078859" d="M324.213,194.887a.679.679,0,0,0,.679-.679v-1.092a.679.679,0,1,0-1.359,0v1.092A.679.679,0,0,0,324.213,194.887Z" transform="translate(-294.222 -175.003)"/>
      <path id="Trazado_1078860" data-name="Trazado 1078860" d="M39.413,5.278a.679.679,0,1,0-.9,1.014,19.5,19.5,0,0,1,6.357,12.049,4.755,4.755,0,0,0-4.13-1.2A15.635,15.635,0,0,0,38.55,12.9a.679.679,0,0,0-.516-.278,16.363,16.363,0,0,1-8.314-2.553,10.489,10.489,0,0,1-2.561-2.28.68.68,0,0,0-1.027-.1,22.184,22.184,0,0,1-8.562,5.1l-.151-.721a2.873,2.873,0,0,1,.53-2.336c1.87-2.45,1.493-5.752-1.418-7.9a19.523,19.523,0,0,1,4.3-.477h4.73a19.391,19.391,0,0,1,10.5,3.073A.679.679,0,1,0,36.8,3.289,20.748,20.748,0,0,0,25.559,0h-4.73a20.8,20.8,0,0,0-5.973.871,10.685,10.685,0,0,0-10.234.961C1.689,4,1.33,7.3,3.2,9.738A20.736,20.736,0,0,0,0,20.828v7.55a8.44,8.44,0,0,0,1.191,4.329.679.679,0,0,0,1.166-.7,7.081,7.081,0,0,1-1-3.632V25.159a4.747,4.747,0,0,0,3.867,1.418,15.837,15.837,0,0,0,5.694,8.9H8.458a7.043,7.043,0,0,1-4.144-1.334.679.679,0,0,0-.795,1.1,8.393,8.393,0,0,0,4.938,1.591h4.471A18.6,18.6,0,0,0,15.9,38.22a10.964,10.964,0,0,0-2.932,7.486.679.679,0,0,0,.679.679h19.1a.679.679,0,0,0,.679-.679,10.965,10.965,0,0,0-2.934-7.489,18.65,18.65,0,0,0,2.971-1.383H37.93a8.466,8.466,0,0,0,8.457-8.457v-7.55A20.851,20.851,0,0,0,39.413,5.278Zm5.614,16.551a3.417,3.417,0,0,1-3.613,3.408,17.674,17.674,0,0,0-.3-6.785A3.417,3.417,0,0,1,45.028,21.829ZM6.712,14.686a15.785,15.785,0,0,0-1.063,2.451,4.759,4.759,0,0,0-4.131,1.207,19.337,19.337,0,0,1,2.646-7.585,10.384,10.384,0,0,0,8.805,1.94,2.9,2.9,0,0,1,2.371.5l.219.165a38.668,38.668,0,0,1-8.269.962.679.679,0,0,0-.578.356ZM10.573,1.359a9.251,9.251,0,0,1,3.943.85c2.018.958,3.223,2.554,3.223,4.269a3.957,3.957,0,0,1-.869,2.434,4.231,4.231,0,0,0-.835,3.117,4.258,4.258,0,0,0-3.359-.658C9.793,12.009,6.4,11.3,4.543,9.233A4.106,4.106,0,0,1,3.407,6.479c0-2.823,3.215-5.119,7.166-5.119ZM1.36,21.829a3.413,3.413,0,0,1,3.908-3.378,17.824,17.824,0,0,0-.3,6.786A3.417,3.417,0,0,1,1.36,21.829Zm5.063,3.846a16.339,16.339,0,0,1,.332-7.528,14.484,14.484,0,0,1,.974-2.47,36.729,36.729,0,0,0,9.527-1.359,23.814,23.814,0,0,0,9.288-5.145c1.206,1.32,4.669,4.384,11.094,4.791A15,15,0,0,1,40.252,22.6c0,8.99-7.187,15.516-17.088,15.516a19,19,0,0,1-9.7-2.542,14.632,14.632,0,0,1-7.037-9.9ZM22.43,39.46a3.415,3.415,0,0,1-2.82,2.493c-.975-.04-1.653-1.184-1.9-3.168A21.6,21.6,0,0,0,22.43,39.46Zm6.247-.678c-.246,1.99-.926,3.137-1.9,3.173-1.116.04-2.48-1.248-2.817-2.5a21.729,21.729,0,0,0,4.722-.676Zm-12.212.843c.569,3.083,2.132,3.647,3.089,3.686a3.993,3.993,0,0,0,2.96-1.388v3.1h-8.17A9.425,9.425,0,0,1,16.465,39.625Zm7.408,5.4v-3.1a4.021,4.021,0,0,0,2.95,1.39c.96-.036,2.529-.594,3.1-3.688a9.424,9.424,0,0,1,2.12,5.4ZM45.028,28.378a7.106,7.106,0,0,1-7.1,7.1H35.468a15.811,15.811,0,0,0,5.687-8.9,4.748,4.748,0,0,0,3.872-1.418Z" transform="translate(0 0)"/>
      <path id="Trazado_1078861" data-name="Trazado 1078861" d="M68.453,46.543h7.5a.679.679,0,1,0,0-1.359h-7.5a.679.679,0,0,0,0,1.359Z" transform="translate(-61.633 -41.09)"/>
      <path id="Trazado_1078862" data-name="Trazado 1078862" d="M68.453,76.664h4.093a.679.679,0,0,0,0-1.359H68.453a.679.679,0,0,0,0,1.359Z" transform="translate(-61.633 -68.482)"/>
    </g>
  </g>
</svg>
