<svg xmlns="http://www.w3.org/2000/svg" xmlns:xlink="http://www.w3.org/1999/xlink" width="93.934" height="93.934" viewBox="0 0 93.934 93.934">
  <defs>
    <filter id="Trazado_982547" x="0" y="0" width="93.934" height="93.934" filterUnits="userSpaceOnUse">
      <feOffset dy="3" input="SourceAlpha"/>
      <feGaussianBlur stdDeviation="3" result="blur"/>
      <feFlood flood-opacity="0.161"/>
      <feComposite operator="in" in2="blur"/>
      <feComposite in="SourceGraphic"/>
    </filter>
  </defs>
  <g id="Grupo_1207673" data-name="Grupo 1207673" transform="translate(-189 -3589.425)">
    <g id="Grupo_1206454" data-name="Grupo 1206454" transform="translate(0 -4953.575)">
      <g id="Grupo_1185087" data-name="Grupo 1185087" transform="translate(0 8196.939)">
        <g id="Grupo_1181939" data-name="Grupo 1181939" transform="translate(0 -388.939)">
          <g id="Grupo_1175133" data-name="Grupo 1175133" transform="translate(-0.033 -1251)">
            <g id="Grupo_1167337" data-name="Grupo 1167337" transform="translate(198.033 1992)">
              <g id="Grupo_1166720" data-name="Grupo 1166720">
                <g id="Grupo_1164305" data-name="Grupo 1164305">
                  <g id="Grupo_1163948" data-name="Grupo 1163948">
                    <g id="Grupo_1158168" data-name="Grupo 1158168">
                      <g id="Grupo_1152576" data-name="Grupo 1152576">
                        <g id="Grupo_1148633" data-name="Grupo 1148633">
                          <g id="Grupo_1148525" data-name="Grupo 1148525">
                            <g transform="matrix(1, 0, 0, 1, -9, -6)" filter="url(#Trazado_982547)">
                              <g id="Trazado_982547-2" data-name="Trazado 982547" transform="translate(9 6)" fill="#eaf9f8">
                                <path d="M 37.966796875 74.43359375 C 33.04315185546875 74.43359375 28.26757431030273 73.46962738037109 23.77274131774902 71.56847381591797 C 19.43047523498535 69.73184967041016 15.53040790557861 67.10224914550781 12.18087482452393 63.75271987915039 C 8.831341743469238 60.4031867980957 6.201741218566895 56.50312042236328 4.365118980407715 52.16086196899414 C 2.463963508605957 47.66601943969727 1.499996900558472 42.89044189453125 1.499996900558472 37.966796875 C 1.499996900558472 33.04315185546875 2.463963508605957 28.26757431030273 4.365118980407715 23.77274131774902 C 6.201741218566895 19.43047523498535 8.831341743469238 15.53040790557861 12.18087482452393 12.18087482452393 C 15.53040790557861 8.831341743469238 19.43047523498535 6.201741218566895 23.77274131774902 4.365118980407715 C 28.26757431030273 2.463963508605957 33.04315185546875 1.499996900558472 37.966796875 1.499996900558472 C 42.89044189453125 1.499996900558472 47.66601943969727 2.463963508605957 52.16086196899414 4.365118980407715 C 56.50312042236328 6.201741218566895 60.4031867980957 8.831341743469238 63.75271987915039 12.18087482452393 C 67.10224914550781 15.53040790557861 69.73184967041016 19.43047523498535 71.56847381591797 23.77274131774902 C 73.46962738037109 28.26757431030273 74.43359375 33.04315185546875 74.43359375 37.966796875 C 74.43359375 42.89044189453125 73.46962738037109 47.66601943969727 71.56847381591797 52.16086196899414 C 69.73184967041016 56.50313186645508 67.10224914550781 60.4031867980957 63.75271987915039 63.75271987915039 C 60.4031867980957 67.10224914550781 56.50313186645508 69.73184967041016 52.16086196899414 71.56847381591797 C 47.66601943969727 73.46962738037109 42.89044189453125 74.43359375 37.966796875 74.43359375 Z" stroke="none"/>
                                <path d="M 37.966796875 3 C 33.2449836730957 3 28.66600799560547 3.924095153808594 24.35705947875977 5.746635437011719 C 20.19359588623047 7.507637023925781 16.45379638671875 10.02928161621094 13.24153518676758 13.24153518676758 C 10.02927398681641 16.45379638671875 7.507621765136719 20.19359588623047 5.746635437011719 24.35705947875977 C 3.924095153808594 28.66600799560547 3 33.2449836730957 3 37.966796875 C 3 42.6886100769043 3.924095153808594 47.26758575439453 5.746635437011719 51.57653427124023 C 7.507621765136719 55.73999786376953 10.02927398681641 59.47979736328125 13.24153518676758 62.69205856323242 C 16.45379638671875 65.90431976318359 20.19359588623047 68.42597198486328 24.35705947875977 70.18695831298828 C 28.66600799560547 72.00949859619141 33.2449836730957 72.93359375 37.966796875 72.93359375 C 42.6886100769043 72.93359375 47.26758575439453 72.00949859619141 51.57653427124023 70.18695831298828 C 55.73999786376953 68.42597198486328 59.47979736328125 65.90431976318359 62.69205856323242 62.69205856323242 C 65.90431976318359 59.47979736328125 68.42597198486328 55.73999786376953 70.18695831298828 51.57653427124023 C 72.00949859619141 47.26758575439453 72.93359375 42.6886100769043 72.93359375 37.966796875 C 72.93359375 33.2449836730957 72.00949859619141 28.66600799560547 70.18695831298828 24.35705947875977 C 68.42597198486328 20.19359588623047 65.90431976318359 16.45379638671875 62.69205856323242 13.24153518676758 C 59.47979736328125 10.02928161621094 55.73999786376953 7.507637023925781 51.57653427124023 5.746635437011719 C 47.26758575439453 3.924095153808594 42.6886100769043 3 37.966796875 3 M 37.966796875 0 C 58.93528366088867 0 75.93359375 16.99832153320312 75.93359375 37.966796875 C 75.93359375 58.93528366088867 58.93528366088867 75.93359375 37.966796875 75.93359375 C 16.99831008911133 75.93359375 0 58.93528366088867 0 37.966796875 C 0 16.99832153320312 16.99831008911133 0 37.966796875 0 Z" stroke="none" fill="#1f7069"/>
                              </g>
                            </g>
                          </g>
                        </g>
                      </g>
                    </g>
                  </g>
                </g>
              </g>
            </g>
          </g>
        </g>
      </g>
    </g>
    <g id="hablando" transform="translate(209.718 3572.128)">
      <g id="Grupo_1207671" data-name="Grupo 1207671" transform="translate(0.769 39.783)">
        <g id="Grupo_1207668" data-name="Grupo 1207668" transform="translate(0 0)">
          <g id="Grupo_1207663" data-name="Grupo 1207663" transform="translate(0 15.091)">
            <g id="Grupo_1207661" data-name="Grupo 1207661" transform="translate(0 4.973)">
              <path id="Trazado_1078253" data-name="Trazado 1078253" d="M7.505,242.2s4.247,22.9,25.48,22.9,25.48-22.9,25.48-22.9Z" transform="translate(-7.505 -242.199)" fill="#fc5a95"/>
              <path id="Trazado_1078254" data-name="Trazado 1078254" d="M261.7,242.194s-4.246,22.9-25.48,22.9q-1.164,0-2.26-.091c19.278-1.552,23.221-22.8,23.221-22.8Z" transform="translate(-210.743 -242.194)" fill="#fb3a82"/>
              <path id="Trazado_1078255" data-name="Trazado 1078255" d="M7.505,242.2s6.746,16.027,25.41,16.027S58.465,242.2,58.465,242.2Z" transform="translate(-7.505 -242.199)" fill="#cf0e50"/>
              <path id="Trazado_1078256" data-name="Trazado 1078256" d="M7.51,242.194a23.732,23.732,0,0,0,2.253,3.888,75.968,75.968,0,0,0,15.813,2.347,7.433,7.433,0,0,1,2.029.373,17.538,17.538,0,0,0,10.769,0,7.45,7.45,0,0,1,2.03-.373,72.1,72.1,0,0,0,10.04-1.1A28.07,28.07,0,0,1,35.717,258.1c16.559-1.488,22.752-15.9,22.752-15.9Z" transform="translate(-7.509 -242.194)" fill="#be0c4a"/>
              <path id="Trazado_1078257" data-name="Trazado 1078257" d="M173.425,351.05a29.556,29.556,0,0,1-21.246.032,19.133,19.133,0,0,1,21.246-.032Z" transform="translate(-137.345 -337.013)" fill="#fc95bb"/>
            </g>
            <path id="Trazado_1078258" data-name="Trazado 1078258" d="M40.283,201.741a74.97,74.97,0,0,0,18.182-3.077,91.25,91.25,0,0,0-15.6-4.776,11.153,11.153,0,0,0-7.65,1.293,4.5,4.5,0,0,1-4.468,0,11.153,11.153,0,0,0-7.65-1.293,91.251,91.251,0,0,0-15.6,4.776,74.969,74.969,0,0,0,18.182,3.077,10.613,10.613,0,0,1,2.889.525,14.373,14.373,0,0,0,8.817,0,10.617,10.617,0,0,1,2.89-.525Z" transform="translate(-7.505 -193.69)" fill="#fc78a8"/>
            <g id="Grupo_1207662" data-name="Grupo 1207662" transform="translate(13.872 0)">
              <path id="Trazado_1078259" data-name="Trazado 1078259" d="M328.435,196.122a7.8,7.8,0,0,1-5.059,2.031l-1.769,1.769a1.135,1.135,0,0,1-1.938-.8v-1.792a7.855,7.855,0,0,1-3.5-3.514,11,11,0,0,1,3.716.076A76.474,76.474,0,0,1,328.435,196.122Z" transform="translate(-298.389 -193.692)" fill="#fc5a95"/>
              <path id="Trazado_1078260" data-name="Trazado 1078260" d="M149.527,194.085l-2.457,3.423a1.189,1.189,0,0,1-1.933,0l-2.338-3.26c.573-.128,1.149-.249,1.724-.359A11.01,11.01,0,0,1,149.527,194.085Z" transform="translate(-142.799 -193.69)" fill="#fc5a95"/>
              <path id="Trazado_1078261" data-name="Trazado 1078261" d="M297.008,198.663c-2.236.654-4.358,1.176-6.356,1.591a80.816,80.816,0,0,0-14.182-4.7,9.635,9.635,0,0,0-3.169-.142,4.2,4.2,0,0,0,.46-.228,11.142,11.142,0,0,1,7.65-1.293A91.2,91.2,0,0,1,297.008,198.663Z" transform="translate(-259.921 -193.69)" fill="#fc5a95"/>
            </g>
          </g>
          <g id="Grupo_1207667" data-name="Grupo 1207667" transform="translate(3.879)">
            <g id="Grupo_1207666" data-name="Grupo 1207666">
              <g id="Grupo_1207665" data-name="Grupo 1207665">
                <g id="Grupo_1207664" data-name="Grupo 1207664">
                  <path id="Trazado_1078262" data-name="Trazado 1078262" d="M70.655,46.514H51.582a6.244,6.244,0,0,0,0,12.488h3.442l2.646,3.689a1.19,1.19,0,0,0,1.934,0L62.249,59h8.406a6.244,6.244,0,0,0,0-12.488Z" transform="translate(-45.338 -46.514)" fill="#23f1a8"/>
                  <path id="Trazado_1078263" data-name="Trazado 1078263" d="M267.243,52.755A6.244,6.244,0,0,0,261,46.511h-3.57a6.244,6.244,0,1,1,0,12.489H261a6.245,6.245,0,0,0,6.244-6.244Z" transform="translate(-235.682 -46.511)" fill="#26d192"/>
                </g>
              </g>
            </g>
          </g>
        </g>
        <g id="Grupo_1207670" data-name="Grupo 1207670" transform="translate(30.833 1.371)">
          <g id="Grupo_1207669" data-name="Grupo 1207669">
            <path id="Trazado_1078264" data-name="Trazado 1078264" d="M308.213,67.711a7.824,7.824,0,1,1,8.026,7.819L314.47,77.3a1.135,1.135,0,0,1-1.937-.8v-1.79A7.822,7.822,0,0,1,308.213,67.711Z" transform="translate(-308.213 -59.887)" fill="#fddd45"/>
            <path id="Trazado_1078265" data-name="Trazado 1078265" d="M361.666,76.307a7.822,7.822,0,0,1-7.619,7.987l-1.769,1.769a1.135,1.135,0,0,1-1.938-.8v-.916l1.681-1.682a7.808,7.808,0,0,0,5.634-13.01,7.848,7.848,0,0,1,4.01,6.654Z" transform="translate(-346.021 -68.652)" fill="#f8c52d"/>
          </g>
        </g>
      </g>
      <g id="Grupo_1207672" data-name="Grupo 1207672" transform="translate(0 39.014)">
        <path id="Trazado_1078266" data-name="Trazado 1078266" d="M52.5,59.9a.774.774,0,0,0-.47-.759c-.039-.016-3.5-1.462-8.055-2.864A8.559,8.559,0,0,0,47.823,50.8a.769.769,0,1,0-1.5-.325,7.029,7.029,0,0,1-6.71,5.551.77.77,0,0,0-.524.225l-1.769,1.769a.366.366,0,0,1-.625-.259v-1.79a.769.769,0,0,0-.424-.687,7.055,7.055,0,0,1,3.159-13.362h.105a7.113,7.113,0,0,1,6.68,5.131.769.769,0,1,0,1.479-.423,8.661,8.661,0,0,0-8.136-6.245,8.544,8.544,0,0,0-4.274,1.065,7.044,7.044,0,0,0-5.313-2.437H23.5a.769.769,0,1,0,0,1.538h6.468a5.5,5.5,0,0,1,4.028,1.769c-.206.169-.407.347-.6.537a8.531,8.531,0,0,0-2.561,6.12,8.651,8.651,0,0,0,.336,2.391,5.5,5.5,0,0,1-1.2.133H21.56a.769.769,0,0,0-.625.321l-2.646,3.689a.421.421,0,0,1-.684,0l-2.646-3.689a.769.769,0,0,0-.625-.321H10.893a5.475,5.475,0,1,1,0-10.95H19.7a.769.769,0,0,0,0-1.538H10.893a7.013,7.013,0,1,0,0,14.026h3.047l1.09,1.52A94.986,94.986,0,0,0,.482,59.135.775.775,0,0,0,.015,60a34.148,34.148,0,0,0,2.377,7.1,29.7,29.7,0,0,0,9.719,12.19.769.769,0,1,0,.875-1.265A28.156,28.156,0,0,1,3.811,66.507q-.228-.5-.428-.983a30.95,30.95,0,0,0,2.55,2.882,28.126,28.126,0,0,0,8.081,5.663,28.82,28.82,0,0,0,12.166,2.575A28.969,28.969,0,0,0,38.367,74.07a28.468,28.468,0,0,0,8.128-5.661,31.355,31.355,0,0,0,2.667-3,33.878,33.878,0,0,1-2.881,5.509,25.015,25.015,0,0,1-7.528,7.613,22.993,22.993,0,0,1-12.5,3.442,23.69,23.69,0,0,1-10.082-2.12.769.769,0,0,0-.649,1.394A25.217,25.217,0,0,0,26.25,83.512a24.5,24.5,0,0,0,13.351-3.7,26.57,26.57,0,0,0,8-8.1A35.81,35.81,0,0,0,52.483,60,.95.95,0,0,0,52.5,59.9ZM21.954,53.04h8.012a7.026,7.026,0,0,0,1.765-.225,8.513,8.513,0,0,0,.862,1.382,12.142,12.142,0,0,0-4.49,1.5,3.727,3.727,0,0,1-3.707,0,12.124,12.124,0,0,0-3.405-1.314ZM16.01,55.927l.345.481a1.959,1.959,0,0,0,3.183,0L20,55.762a10.546,10.546,0,0,1,3.633,1.272,5.265,5.265,0,0,0,5.229,0A10.523,10.523,0,0,1,34,55.644a8.685,8.685,0,0,0,1.151.788v1.331A1.9,1.9,0,0,0,38.4,59.11l1.558-1.558a8.632,8.632,0,0,0,1.844-.317l.024.008c3.022.864,5.715,1.819,7.475,2.48a72.618,72.618,0,0,1-15.786,2.433,11.4,11.4,0,0,0-3.1.562,13.6,13.6,0,0,1-8.342,0,11.4,11.4,0,0,0-3.1-.562A72.61,72.61,0,0,1,3.2,59.724a88.491,88.491,0,0,1,12.815-3.8Zm1.357,17.812a18.365,18.365,0,0,1,17.713-.026,28.153,28.153,0,0,1-8.9,1.393,28.062,28.062,0,0,1-8.812-1.367Zm28-6.382a26.916,26.916,0,0,1-7.68,5.331c-.251.115-.5.225-.759.331a19.9,19.9,0,0,0-21.408.031c-.279-.116-.556-.236-.83-.362A26.579,26.579,0,0,1,7.061,67.36a29.241,29.241,0,0,1-4.811-6.3,74.54,74.54,0,0,0,16.673,2.632,9.855,9.855,0,0,1,2.68.488,15.142,15.142,0,0,0,9.292,0,9.859,9.859,0,0,1,2.68-.488,74.528,74.528,0,0,0,16.656-2.628,29.632,29.632,0,0,1-4.862,6.291Z" transform="translate(0 -39.014)"/>
        <path id="Trazado_1078267" data-name="Trazado 1078267" d="M115.457,86.514a.769.769,0,0,0,0-1.538h-2.231a.769.769,0,0,0,0,1.538Z" transform="translate(-100.926 -80.263)"/>
        <path id="Trazado_1078268" data-name="Trazado 1078268" d="M113.229,116.383h15.822a.769.769,0,1,0,0-1.538H113.229a.769.769,0,1,0,0,1.538Z" transform="translate(-100.929 -107.07)"/>
        <path id="Trazado_1078269" data-name="Trazado 1078269" d="M178.936,84.976H168.814a.769.769,0,0,0,0,1.538h10.122a.769.769,0,0,0,0-1.538Z" transform="translate(-150.814 -80.263)"/>
        <path id="Trazado_1078270" data-name="Trazado 1078270" d="M351.976,112.959a.769.769,0,0,0,.769-.769v-4.954a.769.769,0,1,0-1.538,0v1.558h-1.615v-1.558a.769.769,0,0,0-1.538,0v4.954a.769.769,0,0,0,1.538,0v-1.858h1.615v1.858A.769.769,0,0,0,351.976,112.959Z" transform="translate(-312.366 -99.551)"/>
        <path id="Trazado_1078271" data-name="Trazado 1078271" d="M404.8,130.622a.769.769,0,0,0-.769.769v2.477a.769.769,0,1,0,1.538,0v-2.477A.769.769,0,0,0,404.8,130.622Z" transform="translate(-362.602 -121.229)"/>
        <path id="Trazado_1078272" data-name="Trazado 1078272" d="M405.568,107.236a.769.769,0,0,0-1.538,0v.012a.769.769,0,0,0,1.538,0Z" transform="translate(-362.602 -99.551)"/>
      </g>
    </g>
  </g>
</svg>
