<svg xmlns="http://www.w3.org/2000/svg" xmlns:xlink="http://www.w3.org/1999/xlink" width="93.934" height="93.934" viewBox="0 0 93.934 93.934">
  <defs>
    <filter id="Trazado_982547" x="0" y="0" width="93.934" height="93.934" filterUnits="userSpaceOnUse">
      <feOffset dy="3" input="SourceAlpha"/>
      <feGaussianBlur stdDeviation="3" result="blur"/>
      <feFlood flood-opacity="0.161"/>
      <feComposite operator="in" in2="blur"/>
      <feComposite in="SourceGraphic"/>
    </filter>
  </defs>
  <g id="Grupo_1207678" data-name="Grupo 1207678" transform="translate(-819 -3586.892)">
    <g id="Grupo_1206462" data-name="Grupo 1206462" transform="translate(0 -4956.142)">
      <g id="Grupo_1185088" data-name="Grupo 1185088" transform="translate(828 8549.033)">
        <g id="Grupo_1181939" data-name="Grupo 1181939">
          <g id="Grupo_1175133" data-name="Grupo 1175133">
            <g id="Grupo_1167337" data-name="Grupo 1167337">
              <g id="Grupo_1166720" data-name="Grupo 1166720">
                <g id="Grupo_1164305" data-name="Grupo 1164305">
                  <g id="Grupo_1163948" data-name="Grupo 1163948">
                    <g id="Grupo_1158168" data-name="Grupo 1158168">
                      <g id="Grupo_1152576" data-name="Grupo 1152576">
                        <g id="Grupo_1148633" data-name="Grupo 1148633">
                          <g id="Grupo_1148525" data-name="Grupo 1148525">
                            <g transform="matrix(1, 0, 0, 1, -9, -6)" filter="url(#Trazado_982547)">
                              <g id="Trazado_982547-2" data-name="Trazado 982547" transform="translate(9 6)" fill="#eaf9f8">
                                <path d="M 37.966796875 74.43359375 C 33.04315185546875 74.43359375 28.26757431030273 73.46962738037109 23.77274131774902 71.56847381591797 C 19.43047523498535 69.73184967041016 15.53040790557861 67.10224914550781 12.18087482452393 63.75271987915039 C 8.831341743469238 60.4031867980957 6.201741218566895 56.50312042236328 4.365118980407715 52.16086196899414 C 2.463963508605957 47.66601943969727 1.499996900558472 42.89044189453125 1.499996900558472 37.966796875 C 1.499996900558472 33.04315185546875 2.463963508605957 28.26757431030273 4.365118980407715 23.77274131774902 C 6.201741218566895 19.43047523498535 8.831341743469238 15.53040790557861 12.18087482452393 12.18087482452393 C 15.53040790557861 8.831341743469238 19.43047523498535 6.201741218566895 23.77274131774902 4.365118980407715 C 28.26757431030273 2.463963508605957 33.04315185546875 1.499996900558472 37.966796875 1.499996900558472 C 42.89044189453125 1.499996900558472 47.66601943969727 2.463963508605957 52.16086196899414 4.365118980407715 C 56.50312042236328 6.201741218566895 60.4031867980957 8.831341743469238 63.75271987915039 12.18087482452393 C 67.10224914550781 15.53040790557861 69.73184967041016 19.43047523498535 71.56847381591797 23.77274131774902 C 73.46962738037109 28.26757431030273 74.43359375 33.04315185546875 74.43359375 37.966796875 C 74.43359375 42.89044189453125 73.46962738037109 47.66601943969727 71.56847381591797 52.16086196899414 C 69.73184967041016 56.50313186645508 67.10224914550781 60.4031867980957 63.75271987915039 63.75271987915039 C 60.4031867980957 67.10224914550781 56.50313186645508 69.73184967041016 52.16086196899414 71.56847381591797 C 47.66601943969727 73.46962738037109 42.89044189453125 74.43359375 37.966796875 74.43359375 Z" stroke="none"/>
                                <path d="M 37.966796875 3 C 33.2449836730957 3 28.66600799560547 3.924095153808594 24.35705947875977 5.746635437011719 C 20.19359588623047 7.507637023925781 16.45379638671875 10.02928161621094 13.24153518676758 13.24153518676758 C 10.02927398681641 16.45379638671875 7.507621765136719 20.19359588623047 5.746635437011719 24.35705947875977 C 3.924095153808594 28.66600799560547 3 33.2449836730957 3 37.966796875 C 3 42.6886100769043 3.924095153808594 47.26758575439453 5.746635437011719 51.57653427124023 C 7.507621765136719 55.73999786376953 10.02927398681641 59.47979736328125 13.24153518676758 62.69205856323242 C 16.45379638671875 65.90431976318359 20.19359588623047 68.42597198486328 24.35705947875977 70.18695831298828 C 28.66600799560547 72.00949859619141 33.2449836730957 72.93359375 37.966796875 72.93359375 C 42.6886100769043 72.93359375 47.26758575439453 72.00949859619141 51.57653427124023 70.18695831298828 C 55.73999786376953 68.42597198486328 59.47979736328125 65.90431976318359 62.69205856323242 62.69205856323242 C 65.90431976318359 59.47979736328125 68.42597198486328 55.73999786376953 70.18695831298828 51.57653427124023 C 72.00949859619141 47.26758575439453 72.93359375 42.6886100769043 72.93359375 37.966796875 C 72.93359375 33.2449836730957 72.00949859619141 28.66600799560547 70.18695831298828 24.35705947875977 C 68.42597198486328 20.19359588623047 65.90431976318359 16.45379638671875 62.69205856323242 13.24153518676758 C 59.47979736328125 10.02928161621094 55.73999786376953 7.507637023925781 51.57653427124023 5.746635437011719 C 47.26758575439453 3.924095153808594 42.6886100769043 3 37.966796875 3 M 37.966796875 0 C 58.93528366088867 0 75.93359375 16.99832153320312 75.93359375 37.966796875 C 75.93359375 58.93528366088867 58.93528366088867 75.93359375 37.966796875 75.93359375 C 16.99831008911133 75.93359375 0 58.93528366088867 0 37.966796875 C 0 16.99832153320312 16.99831008911133 0 37.966796875 0 Z" stroke="none" fill="#1f7069"/>
                              </g>
                            </g>
                          </g>
                        </g>
                      </g>
                    </g>
                  </g>
                </g>
              </g>
            </g>
          </g>
        </g>
      </g>
    </g>
    <g id="pronunciacion" transform="translate(840.066 3580.478)">
      <g id="Grupo_1207676" data-name="Grupo 1207676" transform="translate(1.138 27.996)">
        <g id="Grupo_1207675" data-name="Grupo 1207675" transform="translate(0 15.761)">
          <path id="Trazado_1078273" data-name="Trazado 1078273" d="M35.973,204.491l46.994.466a1.822,1.822,0,0,0-.442-.974c-2.867-3.247-12.308-13.5-17.188-13.5a7.989,7.989,0,0,0-6.547,3.177.578.578,0,0,1-.7.221.6.6,0,0,1-.275-.236,6.844,6.844,0,0,0-3.093-2.452c-1.084-.461-2.294.226-3.454.226-4.85,0-11.932,8.851-14.846,12.1a1.822,1.822,0,0,0-.45.976Z" transform="translate(-33.469 -190.482)" fill="#dc4955"/>
          <path id="Trazado_1078274" data-name="Trazado 1078274" d="M11.4,204.957l7.293-.517,6.708-2.584.02-.005a2.056,2.056,0,0,1-1.309-3.294c.165-.207.342-.442.523-.693a20.862,20.862,0,0,1,7.428-6.388c.231-.118.427-.216.573-.283a8.912,8.912,0,0,0-3.445-.709c-4.85,0-14.428,10.251-17.341,13.5A1.821,1.821,0,0,0,11.4,204.957Z" transform="translate(-11.381 -190.482)" fill="#d82f3c"/>
          <path id="Trazado_1078275" data-name="Trazado 1078275" d="M11.477,334.659c4.871,8.385,12.126,12.655,19.9,13.04a6.307,6.307,0,0,0,2.1-.246,8.865,8.865,0,0,1,5.031,0,6.307,6.307,0,0,0,2.1.246c7.774-.387,15.032-4.658,19.9-13.05a1.8,1.8,0,0,0,.228-1.137H11.251a1.8,1.8,0,0,0,.227,1.147Z" transform="translate(-11.234 -319.038)" fill="#d82f3c"/>
          <path id="Trazado_1078276" data-name="Trazado 1078276" d="M11.4,300.425l4.515,1.539a58.957,58.957,0,0,0,40.617,0l4.349-1.539-14.236-2.6a50.353,50.353,0,0,0-14.523-.978,47.139,47.139,0,0,0-6.492.668Z" transform="translate(-11.381 -285.951)" fill="#faf8f8"/>
          <g id="Grupo_1207674" data-name="Grupo 1207674" transform="translate(0.016 10.213)">
            <path id="Trazado_1078277" data-name="Trazado 1078277" d="M60.877,333.377l-4.3,1.714a59.711,59.711,0,0,1-40.884,0l-4.3-1.714.067-.015.622.212a81.961,81.961,0,0,0,48.1,0l.623-.212Z" transform="translate(-11.396 -329.116)" fill="#f0e9e6"/>
            <path id="Trazado_1078278" data-name="Trazado 1078278" d="M60.877,295.666l-.04.016L50.73,294.053a94.673,94.673,0,0,0-19.97-.978c-3.09.174-6.159.5-9.19.975l-10.133,1.632-.041-.016,14.147-3.134a50.4,50.4,0,0,1,21.207,0Z" transform="translate(-11.396 -291.405)" fill="#f0e9e6"/>
          </g>
        </g>
        <path id="Trazado_1078279" data-name="Trazado 1078279" d="M268.16,38.159c0-1.058-.016-2.741.881-3.166a2.651,2.651,0,0,1,1.139-.255h19.228a2.654,2.654,0,0,1,2.656,2.652V47.735a2.638,2.638,0,0,1-.254,1.134c-.426.9-1.959.865-3.02.865l-5.369.181a1.773,1.773,0,0,0-1.039.336l-6.505,4.85a.886.886,0,0,1-1.4-.716l.071-2.711a1.77,1.77,0,0,0-1.771-1.768l-1.955.1a2.654,2.654,0,0,1-2.656-2.652Z" transform="translate(-242.159 -34.737)" fill="#aad8de"/>
        <path id="Trazado_1078280" data-name="Trazado 1078280" d="M286.152,51.138a2.655,2.655,0,0,1-2.4,1.518h-5.712a1.772,1.772,0,0,0-1.038.337l-7.177,5.189a.886.886,0,0,1-1.4-.716V54.425a1.77,1.77,0,0,0-1.771-1.769h-2.125A2.654,2.654,0,0,1,261.866,50V39.658a2.652,2.652,0,0,1,1.518-2.4V50a1.137,1.137,0,0,0,1.138,1.133h2.125a3.292,3.292,0,0,1,3.289,3.287v1.208a.3.3,0,0,0,.482.246l5.692-4.117a3.275,3.275,0,0,1,1.928-.624Z" transform="translate(-236.502 -37.006)" fill="#94ccd4"/>
      </g>
      <g id="Grupo_1207677" data-name="Grupo 1207677" transform="translate(0.001 27.237)">
        <path id="Trazado_1078281" data-name="Trazado 1078281" d="M42.674,44.405h5.711A3.417,3.417,0,0,0,51.8,40.994V30.648a3.417,3.417,0,0,0-3.415-3.411H29.158a3.417,3.417,0,0,0-3.415,3.411v2.838a.759.759,0,1,0,1.518,0V30.648a1.9,1.9,0,0,1,1.9-1.893H48.386a1.9,1.9,0,0,1,1.9,1.893V40.994a1.9,1.9,0,0,1-1.9,1.893H42.674a2.517,2.517,0,0,0-1.484.48l-3,2.169-.035.025-4.142,3a.118.118,0,0,1-.133.01.116.116,0,0,1-.068-.111V45.414a2.531,2.531,0,0,0-2.53-2.527H29.158a1.9,1.9,0,0,1-1.9-1.893V37.071a.759.759,0,1,0-1.518,0v3.923a3.417,3.417,0,0,0,2.312,3.228,7.278,7.278,0,0,0-2.244,2.019,8.952,8.952,0,0,0-7.14-3.357c-2.234,0-5.307,1.726-9.394,5.277a.759.759,0,1,0,1,1.146c4.666-4.054,7.142-4.905,8.4-4.905a7.391,7.391,0,0,1,6.013,2.881,1.343,1.343,0,0,0,2.264-.013,6.231,6.231,0,0,1,2.8-2.206l.024-.01a8.315,8.315,0,0,1,1.941-.551,1.009,1.009,0,0,1,.584.913v3.042a1.636,1.636,0,0,0,.9,1.463,1.7,1.7,0,0,0,1.713-.132l3.724-2.693A82.7,82.7,0,0,1,49.414,57.211l-12.6-2.791a52.6,52.6,0,0,0-6.89-1,52.057,52.057,0,0,0-8.059,0,52.62,52.62,0,0,0-6.917,1.01l-12.6,2.791c1.2-1.34,3.13-3.42,5.3-5.511a.759.759,0,0,0-1.052-1.094C4,53.113,1.752,55.6.641,56.855a2.66,2.66,0,0,0-.3,3.027,27.535,27.535,0,0,0,11.446,11.18.8.8,0,0,0,1.018-.34.759.759,0,0,0-.34-1.018A25.819,25.819,0,0,1,1.958,59.64,61.355,61.355,0,0,0,36.55,63.58a.759.759,0,1,0-.263-1.5A59.6,59.6,0,0,1,3.332,58.554l11.942-2.647a50.441,50.441,0,0,1,21.217,0l11.965,2.651a56.453,56.453,0,0,1-8.737,2.823.759.759,0,0,0,.35,1.477,61.622,61.622,0,0,0,9.768-3.217C45.248,67.225,38.418,71.609,30.546,72a5.631,5.631,0,0,1-1.879-.22,9.745,9.745,0,0,0-5.54,0,5.633,5.633,0,0,1-1.878.22,22.235,22.235,0,0,1-5.324-.917.759.759,0,0,0-.439,1.453,23.765,23.765,0,0,0,5.688.98,7.526,7.526,0,0,0,2.384-.28,8.23,8.23,0,0,1,4.679,0,7.183,7.183,0,0,0,2.384.28C39.2,73.09,46.6,68.252,51.452,59.892a2.664,2.664,0,0,0-.319-3.044A89.488,89.488,0,0,0,39.917,46.162L42.08,44.6a1,1,0,0,1,.594-.193Z" transform="translate(-0.001 -27.237)"/>
        <path id="Trazado_1078282" data-name="Trazado 1078282" d="M438.76,68.845a.759.759,0,1,0,0,1.518h1.384a.759.759,0,0,0,.759-.759V60.5a.759.759,0,0,0-.759-.759h-1.378a.759.759,0,1,0,0,1.518h.619v7.59Z" transform="translate(-393.676 -56.448)"/>
        <path id="Trazado_1078283" data-name="Trazado 1078283" d="M301.533,61.255a.759.759,0,1,0,0-1.518h-1.377a.759.759,0,0,0-.759.759V69.6a.759.759,0,0,0,.759.759h1.384a.759.759,0,0,0,0-1.518h-.625v-7.59Z" transform="translate(-269.098 -56.448)"/>
        <path id="Trazado_1078284" data-name="Trazado 1078284" d="M336.353,83.663a.759.759,0,0,0,.759-.759V77.171a.759.759,0,1,0-1.518,0v.1a3.289,3.289,0,1,0,0,5.539v.1A.759.759,0,0,0,336.353,83.663Zm-2.53-1.854a1.771,1.771,0,1,1,1.771-1.771A1.773,1.773,0,0,1,333.823,81.808Z" transform="translate(-297.084 -71.436)"/>
        <path id="Trazado_1078285" data-name="Trazado 1078285" d="M406.372,62.735a.758.758,0,0,0,.967-.466l.708-2.024a.759.759,0,0,0-1.433-.5l-.708,2.024A.759.759,0,0,0,406.372,62.735Z" transform="translate(-364.791 -55.997)"/>
      </g>
    </g>
  </g>
</svg>
