<svg xmlns="http://www.w3.org/2000/svg" xmlns:xlink="http://www.w3.org/1999/xlink" width="93.934" height="93.934" viewBox="0 0 93.934 93.934">
  <defs>
    <filter id="Trazado_982547" x="0" y="0" width="93.934" height="93.934" filterUnits="userSpaceOnUse">
      <feOffset dy="3" input="SourceAlpha"/>
      <feGaussianBlur stdDeviation="3" result="blur"/>
      <feFlood flood-opacity="0.161"/>
      <feComposite operator="in" in2="blur"/>
      <feComposite in="SourceGraphic"/>
    </filter>
  </defs>
  <g id="Grupo_1207831" data-name="Grupo 1207831" transform="translate(-189 -2930.833)">
    <g id="Grupo_1206469" data-name="Grupo 1206469" transform="translate(0 -5753.2)">
      <g id="Grupo_1185089" data-name="Grupo 1185089" transform="translate(0 8337.973)">
        <g id="Grupo_1181939" data-name="Grupo 1181939" transform="translate(0 -388.939)">
          <g id="Grupo_1175133" data-name="Grupo 1175133" transform="translate(-0.033 -1251)">
            <g id="Grupo_1167337" data-name="Grupo 1167337" transform="translate(198.033 1992)">
              <g id="Grupo_1166720" data-name="Grupo 1166720">
                <g id="Grupo_1164305" data-name="Grupo 1164305">
                  <g id="Grupo_1163948" data-name="Grupo 1163948">
                    <g id="Grupo_1158168" data-name="Grupo 1158168">
                      <g id="Grupo_1152576" data-name="Grupo 1152576">
                        <g id="Grupo_1148633" data-name="Grupo 1148633">
                          <g id="Grupo_1148525" data-name="Grupo 1148525">
                            <g transform="matrix(1, 0, 0, 1, -9, -6)" filter="url(#Trazado_982547)">
                              <g id="Trazado_982547-2" data-name="Trazado 982547" transform="translate(9 6)" fill="#eaf9f8">
                                <path d="M 37.966796875 74.43359375 C 33.04315185546875 74.43359375 28.26757431030273 73.46962738037109 23.77274131774902 71.56847381591797 C 19.43047523498535 69.73184967041016 15.53040790557861 67.10224914550781 12.18087482452393 63.75271987915039 C 8.831341743469238 60.4031867980957 6.201741218566895 56.50312042236328 4.365118980407715 52.16086196899414 C 2.463963508605957 47.66601943969727 1.499996900558472 42.89044189453125 1.499996900558472 37.966796875 C 1.499996900558472 33.04315185546875 2.463963508605957 28.26757431030273 4.365118980407715 23.77274131774902 C 6.201741218566895 19.43047523498535 8.831341743469238 15.53040790557861 12.18087482452393 12.18087482452393 C 15.53040790557861 8.831341743469238 19.43047523498535 6.201741218566895 23.77274131774902 4.365118980407715 C 28.26757431030273 2.463963508605957 33.04315185546875 1.499996900558472 37.966796875 1.499996900558472 C 42.89044189453125 1.499996900558472 47.66601943969727 2.463963508605957 52.16086196899414 4.365118980407715 C 56.50312042236328 6.201741218566895 60.4031867980957 8.831341743469238 63.75271987915039 12.18087482452393 C 67.10224914550781 15.53040790557861 69.73184967041016 19.43047523498535 71.56847381591797 23.77274131774902 C 73.46962738037109 28.26757431030273 74.43359375 33.04315185546875 74.43359375 37.966796875 C 74.43359375 42.89044189453125 73.46962738037109 47.66601943969727 71.56847381591797 52.16086196899414 C 69.73184967041016 56.50313186645508 67.10224914550781 60.4031867980957 63.75271987915039 63.75271987915039 C 60.4031867980957 67.10224914550781 56.50313186645508 69.73184967041016 52.16086196899414 71.56847381591797 C 47.66601943969727 73.46962738037109 42.89044189453125 74.43359375 37.966796875 74.43359375 Z" stroke="none"/>
                                <path d="M 37.966796875 3 C 33.2449836730957 3 28.66600799560547 3.924095153808594 24.35705947875977 5.746635437011719 C 20.19359588623047 7.507637023925781 16.45379638671875 10.02928161621094 13.24153518676758 13.24153518676758 C 10.02927398681641 16.45379638671875 7.507621765136719 20.19359588623047 5.746635437011719 24.35705947875977 C 3.924095153808594 28.66600799560547 3 33.2449836730957 3 37.966796875 C 3 42.6886100769043 3.924095153808594 47.26758575439453 5.746635437011719 51.57653427124023 C 7.507621765136719 55.73999786376953 10.02927398681641 59.47979736328125 13.24153518676758 62.69205856323242 C 16.45379638671875 65.90431976318359 20.19359588623047 68.42597198486328 24.35705947875977 70.18695831298828 C 28.66600799560547 72.00949859619141 33.2449836730957 72.93359375 37.966796875 72.93359375 C 42.6886100769043 72.93359375 47.26758575439453 72.00949859619141 51.57653427124023 70.18695831298828 C 55.73999786376953 68.42597198486328 59.47979736328125 65.90431976318359 62.69205856323242 62.69205856323242 C 65.90431976318359 59.47979736328125 68.42597198486328 55.73999786376953 70.18695831298828 51.57653427124023 C 72.00949859619141 47.26758575439453 72.93359375 42.6886100769043 72.93359375 37.966796875 C 72.93359375 33.2449836730957 72.00949859619141 28.66600799560547 70.18695831298828 24.35705947875977 C 68.42597198486328 20.19359588623047 65.90431976318359 16.45379638671875 62.69205856323242 13.24153518676758 C 59.47979736328125 10.02928161621094 55.73999786376953 7.507637023925781 51.57653427124023 5.746635437011719 C 47.26758575439453 3.924095153808594 42.6886100769043 3 37.966796875 3 M 37.966796875 0 C 58.93528366088867 0 75.93359375 16.99832153320312 75.93359375 37.966796875 C 75.93359375 58.93528366088867 58.93528366088867 75.93359375 37.966796875 75.93359375 C 16.99831008911133 75.93359375 0 58.93528366088867 0 37.966796875 C 0 16.99832153320312 16.99831008911133 0 37.966796875 0 Z" stroke="none" fill="#1f7069"/>
                              </g>
                            </g>
                          </g>
                        </g>
                      </g>
                    </g>
                  </g>
                </g>
              </g>
            </g>
          </g>
        </g>
      </g>
    </g>
    <g id="hablando_2_" data-name="hablando (2)" transform="translate(211.364 2931.406)">
      <g id="Grupo_1207829" data-name="Grupo 1207829" transform="translate(0.722 21.511)">
        <path id="Trazado_1078863" data-name="Trazado 1078863" d="M67.75,28.279H62.443a5.822,5.822,0,1,0,0,11.644,1.131,1.131,0,0,1,.991.586l.672,1.222a1.131,1.131,0,0,0,1.981,0l.672-1.222a1.131,1.131,0,0,1,.991-.586,5.822,5.822,0,1,0,0-11.644Z" transform="translate(-51.901 -28.279)" fill="#50e1cd"/>
        <path id="Trazado_1078864" data-name="Trazado 1078864" d="M284.807,28.279h5.307a5.822,5.822,0,0,1,0,11.644,1.131,1.131,0,0,0-.991.586l-.672,1.222a1.131,1.131,0,0,1-1.981,0l-.672-1.222a1.131,1.131,0,0,0-.991-.586,5.822,5.822,0,1,1,0-11.644Z" transform="translate(-252.896 -28.279)" fill="#50e1cd"/>
        <path id="Trazado_1078865" data-name="Trazado 1078865" d="M299.229,425.833c0-3.585,3.019-6.154,3.019-6.154h7.627s3.019,2.57,3.019,6.154Z" transform="translate(-271.194 -382.066)" fill="#93bbe7"/>
        <path id="Trazado_1078866" data-name="Trazado 1078866" d="M272.918,205.78a1.4,1.4,0,0,1-1.027-2.36,12.393,12.393,0,0,1,8.919-3.91,12.549,12.549,0,0,1,12.549,12.555Z" transform="translate(-246.139 -183.055)" fill="#e8a882"/>
        <path id="Trazado_1078867" data-name="Trazado 1078867" d="M34.593,203.42a12.393,12.393,0,0,0-8.919-3.91,12.549,12.549,0,0,0-12.549,12.555v5.222a5.441,5.441,0,0,0,5.441,5.441h3.1v-2.061l11.9-14.888A1.4,1.4,0,0,0,34.593,203.42Z" transform="translate(-12.584 -183.055)" fill="#6a647f"/>
        <path id="Trazado_1078868" data-name="Trazado 1078868" d="M18.641,211.119c0-5.744,3.864-10.513,8.938-11.444a12.433,12.433,0,0,0-14.452,12.391v5.222a5.441,5.441,0,0,0,5.441,5.441h3.1v-2.061l.648-.811A11.993,11.993,0,0,1,18.641,211.119Z" transform="translate(-12.585 -183.055)" fill="#5c586f"/>
        <path id="Trazado_1078869" data-name="Trazado 1078869" d="M84.241,425.833c0-3.585-3.019-6.154-3.019-6.154H73.595s-3.019,2.57-3.019,6.154Z" transform="translate(-64.514 -382.066)" fill="#fdd89f"/>
        <path id="Trazado_1078870" data-name="Trazado 1078870" d="M62.132,270.915a9.552,9.552,0,1,1-18.571-3.156,4.508,4.508,0,0,1,4.261-3H60.594C62,266.422,62.132,268.57,62.132,270.915Z" transform="translate(-39.613 -242.034)" fill="#da9d81"/>
        <circle id="Elipse_12790" data-name="Elipse 12790" cx="3.25" cy="3.25" r="3.25" transform="translate(41.261 25.795)" fill="#ffcabd"/>
        <path id="Trazado_1078871" data-name="Trazado 1078871" d="M282.794,199.654a12.207,12.207,0,0,0-1.983-.143,12.393,12.393,0,0,0-8.919,3.91,1.4,1.4,0,0,0,1.027,2.36l1.359.418A12.336,12.336,0,0,1,282.794,199.654Z" transform="translate(-246.139 -183.056)" fill="#e3986d"/>
        <path id="Trazado_1078872" data-name="Trazado 1078872" d="M270.168,270.915a9.552,9.552,0,1,0,18.571-3.156,4.508,4.508,0,0,0-4.261-3H271.706C270.3,266.422,270.168,268.57,270.168,270.915Z" transform="translate(-244.926 -242.034)" fill="#ffdcce"/>
        <path id="Trazado_1078873" data-name="Trazado 1078873" d="M13.555,271.158a12.318,12.318,0,0,1,1.149-5.226,4.492,4.492,0,0,0-3.257,2.886c-.017.048-.032.1-.048.146a2.648,2.648,0,0,0-.65-.076,3.25,3.25,0,1,0,0,6.5,2.567,2.567,0,0,0,.752-.1,9.529,9.529,0,0,0,7.849,6.178,11.749,11.749,0,0,1-5.8-10.3Z" transform="translate(-7.5 -243.094)" fill="#c7856a"/>
        <path id="Trazado_1078874" data-name="Trazado 1078874" d="M271.907,270.168a11.326,11.326,0,0,1,1.373-5.409h-1.573c-1.4,1.663-1.538,3.81-1.538,6.155a9.555,9.555,0,0,0,7.738,9.38A11.718,11.718,0,0,1,271.907,270.168Z" transform="translate(-244.926 -242.034)" fill="#ffcabd"/>
        <path id="Trazado_1078875" data-name="Trazado 1078875" d="M59.667,33.92a7.041,7.041,0,0,1,1.638-4.477,5.822,5.822,0,0,0,1.138,11.533,1.131,1.131,0,0,1,.991.586l.672,1.222a1.131,1.131,0,0,0,1.981,0l.513-.933C62.834,40.673,59.667,37.34,59.667,33.92Z" transform="translate(-51.901 -29.331)" fill="#00d1b3"/>
      </g>
      <g id="Grupo_1207830" data-name="Grupo 1207830" transform="translate(0.001 20.791)">
        <path id="Trazado_1078876" data-name="Trazado 1078876" d="M98.752,313.522a.721.721,0,0,0-.721.721v.985a.721.721,0,0,0,1.441,0v-.985A.721.721,0,0,0,98.752,313.522Z" transform="translate(-88.61 -285.391)"/>
        <path id="Trazado_1078877" data-name="Trazado 1078877" d="M205.447,313.522a.721.721,0,0,0-.721.721v.985a.721.721,0,0,0,1.441,0v-.985A.721.721,0,0,0,205.447,313.522Z" transform="translate(-185.052 -285.391)"/>
        <path id="Trazado_1078878" data-name="Trazado 1078878" d="M141.212,323.646a.721.721,0,0,0-1.017.07,1.071,1.071,0,0,1-1.617,0,.721.721,0,0,0-1.087.947,2.512,2.512,0,0,0,3.79,0A.721.721,0,0,0,141.212,323.646Z" transform="translate(-124.119 -294.381)"/>
        <path id="Trazado_1078879" data-name="Trazado 1078879" d="M399.67,313.522a.721.721,0,0,0-.721.721v.985a.721.721,0,0,0,1.441,0v-.985A.721.721,0,0,0,399.67,313.522Z" transform="translate(-360.611 -285.391)"/>
        <path id="Trazado_1078880" data-name="Trazado 1078880" d="M292.975,313.522a.721.721,0,0,0-.721.721v.985a.721.721,0,0,0,1.441,0v-.985A.721.721,0,0,0,292.975,313.522Z" transform="translate(-264.169 -285.391)"/>
        <path id="Trazado_1078881" data-name="Trazado 1078881" d="M335.434,323.646a.721.721,0,0,0-1.017.07,1.071,1.071,0,0,1-1.617,0,.721.721,0,1,0-1.087.947,2.512,2.512,0,0,0,3.79,0A.721.721,0,0,0,335.434,323.646Z" transform="translate(-299.676 -294.381)"/>
        <path id="Trazado_1078882" data-name="Trazado 1078882" d="M137.96,81.291a.729.729,0,1,0,.729.729A.729.729,0,0,0,137.96,81.291Z" transform="translate(-124.043 -75.477)"/>
        <path id="Trazado_1078883" data-name="Trazado 1078883" d="M106.084,81.291a.729.729,0,1,0,.729.729A.729.729,0,0,0,106.084,81.291Z" transform="translate(-95.231 -75.477)"/>
        <path id="Trazado_1078884" data-name="Trazado 1078884" d="M169.836,81.291a.729.729,0,1,0,.729.729A.729.729,0,0,0,169.836,81.291Z" transform="translate(-152.856 -75.477)"/>
        <path id="Trazado_1078885" data-name="Trazado 1078885" d="M60.971,20.791H55.665a6.543,6.543,0,0,0,0,13.085.41.41,0,0,1,.359.212l.672,1.222a1.853,1.853,0,0,0,3.244,0l.672-1.222a.41.41,0,0,1,.359-.212,6.543,6.543,0,0,0,0-13.085Zm0,11.644a1.851,1.851,0,0,0-1.622.959l-.672,1.222a.41.41,0,0,1-.718,0l-.672-1.222a1.851,1.851,0,0,0-1.622-.959,5.1,5.1,0,1,1,0-10.2h5.306a5.1,5.1,0,0,1,0,10.2Z" transform="translate(-44.402 -20.791)"/>
        <path id="Trazado_1078886" data-name="Trazado 1078886" d="M360.312,82.748a.729.729,0,1,0-.729-.729A.729.729,0,0,0,360.312,82.748Z" transform="translate(-325.028 -75.477)"/>
        <path id="Trazado_1078887" data-name="Trazado 1078887" d="M392.188,82.748a.729.729,0,1,0-.729-.729A.729.729,0,0,0,392.188,82.748Z" transform="translate(-353.84 -75.477)"/>
        <path id="Trazado_1078888" data-name="Trazado 1078888" d="M328.437,82.748a.729.729,0,1,0-.729-.729A.729.729,0,0,0,328.437,82.748Z" transform="translate(-296.216 -75.477)"/>
        <path id="Trazado_1078889" data-name="Trazado 1078889" d="M278.017,33.877a.41.41,0,0,1,.359.212l.672,1.222a1.853,1.853,0,0,0,3.244,0l.672-1.222a.41.41,0,0,1,.359-.212,6.543,6.543,0,0,0,0-13.085h-5.306a6.543,6.543,0,1,0,0,13.085Zm0-11.644h5.306a5.1,5.1,0,0,1,0,10.2,1.851,1.851,0,0,0-1.622.959l-.672,1.222a.41.41,0,0,1-.718,0l-.672-1.222a1.851,1.851,0,0,0-1.622-.959,5.1,5.1,0,0,1,0-10.2Z" transform="translate(-245.386 -20.792)"/>
        <path id="Trazado_1078890" data-name="Trazado 1078890" d="M6.7,216.678h.151a7.908,7.908,0,0,0-.791,3.373.721.721,0,0,0,.721.721H20.447a.721.721,0,0,0,.721-.721,9.165,9.165,0,0,0-2.48-5.907,10.262,10.262,0,0,0,5.272-8.979,11.059,11.059,0,0,0-1.1-5.769,2.124,2.124,0,0,0,.4-3.24,13.048,13.048,0,0,0-15.7-2.585.721.721,0,1,0,.684,1.269,11.606,11.606,0,0,1,13.969,2.3.664.664,0,0,1,.127.731.672.672,0,0,1-.629.414H8.922a5.242,5.242,0,0,0-4.77,3.073,4.044,4.044,0,0,0-1.578.248,11.987,11.987,0,0,1,3.4-5.186.721.721,0,1,0-.959-1.076,13.394,13.394,0,0,0-4.28,7.681,3.955,3.955,0,0,0-.2,4.3v3.192A6.168,6.168,0,0,0,6.7,216.678ZM3.687,202.816a10.359,10.359,0,0,0-.272,2.349,10.537,10.537,0,0,0,.354,2.685,2.529,2.529,0,0,1-.082-5.033ZM6.7,215.237a4.725,4.725,0,0,1-4.72-4.72v-1.751a3.988,3.988,0,0,0,2.291.521,10.307,10.307,0,0,0,4.317,4.8,11.325,11.325,0,0,0-.905,1.146Zm12.978,4.094H17.809v-1.5a.721.721,0,0,0-1.441,0v1.5h-5.5v-1.5a.721.721,0,0,0-1.441,0v1.5H7.55a8.515,8.515,0,0,1,2.409-4.587,10.354,10.354,0,0,0,7.353.04A8.44,8.44,0,0,1,19.681,219.33Zm-9.586-6.092h0A8.848,8.848,0,0,1,5.35,202.247a3.786,3.786,0,0,1,3.581-2.516H21.352c1.074,1.471,1.167,3.41,1.167,5.434a8.832,8.832,0,0,1-12.424,8.074Z" transform="translate(-0.001 -175.565)"/>
        <path id="Trazado_1078891" data-name="Trazado 1078891" d="M267.93,214.117a9.166,9.166,0,0,0-2.48,5.907.721.721,0,0,0,.721.721h13.664a.721.721,0,0,0,.721-.721,9.222,9.222,0,0,0-2.529-5.961,10.263,10.263,0,0,0,4.313-4.8A3.972,3.972,0,0,0,285.88,203a13.367,13.367,0,0,0-4.5-7.876.721.721,0,1,0-.935,1.1,11.958,11.958,0,0,1,3.6,5.361,4.033,4.033,0,0,0-1.579-.249,5.241,5.241,0,0,0-4.779-3.073H264.915a.682.682,0,0,1-.5-1.145,11.605,11.605,0,0,1,13.724-2.433.721.721,0,1,0,.654-1.285,13.046,13.046,0,0,0-15.427,2.729,2.125,2.125,0,0,0,.4,3.24,11.058,11.058,0,0,0-1.1,5.768A10.267,10.267,0,0,0,267.93,214.117ZM277.2,219.3v-1.5a.721.721,0,1,0-1.441,0v1.5h-5.5v-1.5a.721.721,0,1,0-1.441,0v1.5h-1.872a8.442,8.442,0,0,1,2.369-4.547,10.351,10.351,0,0,0,7.354-.041,8.455,8.455,0,0,1,2.408,4.588Zm-4.2-5.334a8.829,8.829,0,0,1-8.9-8.832c0-2.024.093-3.963,1.167-5.434,12.993.136,12.9-.353,14.393.547a3.725,3.725,0,0,1,1.65,2.1A8.837,8.837,0,0,1,273,213.969Zm9.851-6.146a10.5,10.5,0,0,0,.354-2.686,10.391,10.391,0,0,0-.272-2.349,2.529,2.529,0,0,1-.082,5.034Z" transform="translate(-237.417 -175.538)"/>
      </g>
    </g>
  </g>
</svg>
