<svg xmlns="http://www.w3.org/2000/svg" xmlns:xlink="http://www.w3.org/1999/xlink" width="93.934" height="93.934" viewBox="0 0 93.934 93.934">
  <defs>
    <filter id="Trazado_982547" x="0" y="0" width="93.934" height="93.934" filterUnits="userSpaceOnUse">
      <feOffset dy="3" input="SourceAlpha"/>
      <feGaussianBlur stdDeviation="3" result="blur"/>
      <feFlood flood-opacity="0.161"/>
      <feComposite operator="in" in2="blur"/>
      <feComposite in="SourceGraphic"/>
    </filter>
  </defs>
  <g id="Grupo_1207836" data-name="Grupo 1207836" transform="translate(-819 -2930.833)">
    <g id="Grupo_1206471" data-name="Grupo 1206471" transform="translate(0 -5753.2)">
      <g id="Grupo_1185090" data-name="Grupo 1185090" transform="translate(828 8690.033)">
        <g id="Grupo_1181939" data-name="Grupo 1181939">
          <g id="Grupo_1175133" data-name="Grupo 1175133">
            <g id="Grupo_1167337" data-name="Grupo 1167337">
              <g id="Grupo_1166720" data-name="Grupo 1166720">
                <g id="Grupo_1164305" data-name="Grupo 1164305">
                  <g id="Grupo_1163948" data-name="Grupo 1163948">
                    <g id="Grupo_1158168" data-name="Grupo 1158168">
                      <g id="Grupo_1152576" data-name="Grupo 1152576">
                        <g id="Grupo_1148633" data-name="Grupo 1148633">
                          <g id="Grupo_1148525" data-name="Grupo 1148525">
                            <g transform="matrix(1, 0, 0, 1, -9, -6)" filter="url(#Trazado_982547)">
                              <g id="Trazado_982547-2" data-name="Trazado 982547" transform="translate(9 6)" fill="#eaf9f8">
                                <path d="M 37.966796875 74.43359375 C 33.04315185546875 74.43359375 28.26757431030273 73.46962738037109 23.77274131774902 71.56847381591797 C 19.43047523498535 69.73184967041016 15.53040790557861 67.10224914550781 12.18087482452393 63.75271987915039 C 8.831341743469238 60.4031867980957 6.201741218566895 56.50312042236328 4.365118980407715 52.16086196899414 C 2.463963508605957 47.66601943969727 1.499996900558472 42.89044189453125 1.499996900558472 37.966796875 C 1.499996900558472 33.04315185546875 2.463963508605957 28.26757431030273 4.365118980407715 23.77274131774902 C 6.201741218566895 19.43047523498535 8.831341743469238 15.53040790557861 12.18087482452393 12.18087482452393 C 15.53040790557861 8.831341743469238 19.43047523498535 6.201741218566895 23.77274131774902 4.365118980407715 C 28.26757431030273 2.463963508605957 33.04315185546875 1.499996900558472 37.966796875 1.499996900558472 C 42.89044189453125 1.499996900558472 47.66601943969727 2.463963508605957 52.16086196899414 4.365118980407715 C 56.50312042236328 6.201741218566895 60.4031867980957 8.831341743469238 63.75271987915039 12.18087482452393 C 67.10224914550781 15.53040790557861 69.73184967041016 19.43047523498535 71.56847381591797 23.77274131774902 C 73.46962738037109 28.26757431030273 74.43359375 33.04315185546875 74.43359375 37.966796875 C 74.43359375 42.89044189453125 73.46962738037109 47.66601943969727 71.56847381591797 52.16086196899414 C 69.73184967041016 56.50313186645508 67.10224914550781 60.4031867980957 63.75271987915039 63.75271987915039 C 60.4031867980957 67.10224914550781 56.50313186645508 69.73184967041016 52.16086196899414 71.56847381591797 C 47.66601943969727 73.46962738037109 42.89044189453125 74.43359375 37.966796875 74.43359375 Z" stroke="none"/>
                                <path d="M 37.966796875 3 C 33.2449836730957 3 28.66600799560547 3.924095153808594 24.35705947875977 5.746635437011719 C 20.19359588623047 7.507637023925781 16.45379638671875 10.02928161621094 13.24153518676758 13.24153518676758 C 10.02927398681641 16.45379638671875 7.507621765136719 20.19359588623047 5.746635437011719 24.35705947875977 C 3.924095153808594 28.66600799560547 3 33.2449836730957 3 37.966796875 C 3 42.6886100769043 3.924095153808594 47.26758575439453 5.746635437011719 51.57653427124023 C 7.507621765136719 55.73999786376953 10.02927398681641 59.47979736328125 13.24153518676758 62.69205856323242 C 16.45379638671875 65.90431976318359 20.19359588623047 68.42597198486328 24.35705947875977 70.18695831298828 C 28.66600799560547 72.00949859619141 33.2449836730957 72.93359375 37.966796875 72.93359375 C 42.6886100769043 72.93359375 47.26758575439453 72.00949859619141 51.57653427124023 70.18695831298828 C 55.73999786376953 68.42597198486328 59.47979736328125 65.90431976318359 62.69205856323242 62.69205856323242 C 65.90431976318359 59.47979736328125 68.42597198486328 55.73999786376953 70.18695831298828 51.57653427124023 C 72.00949859619141 47.26758575439453 72.93359375 42.6886100769043 72.93359375 37.966796875 C 72.93359375 33.2449836730957 72.00949859619141 28.66600799560547 70.18695831298828 24.35705947875977 C 68.42597198486328 20.19359588623047 65.90431976318359 16.45379638671875 62.69205856323242 13.24153518676758 C 59.47979736328125 10.02928161621094 55.73999786376953 7.507637023925781 51.57653427124023 5.746635437011719 C 47.26758575439453 3.924095153808594 42.6886100769043 3 37.966796875 3 M 37.966796875 0 C 58.93528366088867 0 75.93359375 16.99832153320312 75.93359375 37.966796875 C 75.93359375 58.93528366088867 58.93528366088867 75.93359375 37.966796875 75.93359375 C 16.99831008911133 75.93359375 0 58.93528366088867 0 37.966796875 C 0 16.99832153320312 16.99831008911133 0 37.966796875 0 Z" stroke="none" fill="#1f7069"/>
                              </g>
                            </g>
                          </g>
                        </g>
                      </g>
                    </g>
                  </g>
                </g>
              </g>
            </g>
          </g>
        </g>
      </g>
    </g>
    <g id="auto-confianza" transform="translate(839.876 2948.694)">
      <g id="Grupo_1207834" data-name="Grupo 1207834" transform="translate(0.766 0.782)">
        <path id="Trazado_1078892" data-name="Trazado 1078892" d="M95.63,288.913l-.822-.21-.6.782A47.042,47.042,0,0,1,78.8,291.772a47.042,47.042,0,0,1-15.415-2.287l-.521-.691-.9.119h0a6.119,6.119,0,0,1-2.93-7.436l3.649-10.424H94.912l3.649,10.424a6.118,6.118,0,0,1-2.931,7.436Z" transform="translate(-53.473 -244.194)" fill="#7888af"/>
        <path id="Trazado_1078893" data-name="Trazado 1078893" d="M78.8,271.053v20.719a47.042,47.042,0,0,1-15.415-2.287l-.521-.691-.9.119h0a6.119,6.119,0,0,1-2.93-7.436l3.649-10.424Z" transform="translate(-53.473 -244.194)" fill="#5972a5"/>
        <path id="Trazado_1078894" data-name="Trazado 1078894" d="M76.963,232.014H70.824a3.07,3.07,0,0,1,0-6.139h6.139Z" transform="translate(-61.615 -203.621)" fill="#ffbbae"/>
        <path id="Trazado_1078895" data-name="Trazado 1078895" d="M353.872,232.014h6.139a3.07,3.07,0,1,0,0-6.139h-6.139Z" transform="translate(-318.572 -203.621)" fill="#ffcbbe"/>
        <path id="Trazado_1078896" data-name="Trazado 1078896" d="M166.07,365.384v2.308a1.529,1.529,0,0,1-1.529,1.529H160.7l-6.14-.623-.563.057-5.577.566h-3.842a1.529,1.529,0,0,1-1.529-1.529v-2.308a11.506,11.506,0,0,1,11.057-11.5c.15-.006.3-.009.454-.009a11.479,11.479,0,0,1,7.341,2.645q.416.344.8.727A11.475,11.475,0,0,1,166.07,365.384Z" transform="translate(-129.236 -318.573)" fill="#ffcbbe"/>
        <path id="Trazado_1078897" data-name="Trazado 1078897" d="M154,368.736l-5.577.566h-3.842a1.529,1.529,0,0,1-1.529-1.529v-2.308a11.506,11.506,0,0,1,11.057-11.5l.155,4.592A10.164,10.164,0,0,0,154,368.736Z" transform="translate(-129.236 -318.654)" fill="#ffbbae"/>
        <path id="Trazado_1078898" data-name="Trazado 1078898" d="M142.226,127.514a14.58,14.58,0,0,1-14.581,14.581c-.1,0-.2,0-.3,0l-7.028-1.969a14.6,14.6,0,0,1-6.929-9.539l.376-2.482-.685-1.246a14.58,14.58,0,0,1,29.146.658Z" transform="translate(-102.321 -102.19)" fill="#ffddcf"/>
        <path id="Trazado_1078899" data-name="Trazado 1078899" d="M127.212,150.982a14.583,14.583,0,0,1-5.043-28.149C120.131,128.062,116.179,141.956,127.212,150.982Z" transform="translate(-102.187 -111.081)" fill="#ffcbbe"/>
        <path id="Trazado_1078900" data-name="Trazado 1078900" d="M111.7,130.541l-.81,4.294a21.793,21.793,0,0,1-2.9,3.22l-6.957,3.982-.811-.158-.079-.861-.543-.587.172-.336-.056-.344a16.1,16.1,0,0,1,5.655-9.434,1.528,1.528,0,0,1,2.306.468l.527-.032,1.476-.089.234-.014Z" transform="translate(-90.215 -117.496)" fill="#5972a5"/>
        <path id="Trazado_1078901" data-name="Trazado 1078901" d="M109.681,130.664a35.122,35.122,0,0,0-1.69,7.391,21.1,21.1,0,0,1-6.292,4,1.531,1.531,0,0,1-1.476-.172l-.079-.861-.543-.587s0-.005,0-.008a16.094,16.094,0,0,1,5.771-10.106,1.528,1.528,0,0,1,2.306.468l.527-.032Z" transform="translate(-90.215 -117.496)" fill="#3b5a9b"/>
        <path id="Trazado_1078902" data-name="Trazado 1078902" d="M196.831,111.842a16.131,16.131,0,0,0-5.206-2.164,46.638,46.638,0,0,0-6.6-1.061,11.376,11.376,0,0,1-8.066-4.6l-.623-1.4-.707-.657q-.116-.214-.22-.421a1.35,1.35,0,0,1,.564-1.8l.011-.006a15.894,15.894,0,0,1,2.979-1.206l.227-.064.893.025.6-.363a16.147,16.147,0,0,1,16.814,7.892l-.026.948,1.007,1.084a15.7,15.7,0,0,1,.693,2.181A1.528,1.528,0,0,1,196.831,111.842Z" transform="translate(-158.167 -88.665)" fill="#7888af"/>
        <path id="Trazado_1078903" data-name="Trazado 1078903" d="M178.964,104.2a34.3,34.3,0,0,0-2,5.493,15.592,15.592,0,0,1-1.55-2.48,1.35,1.35,0,0,1,.564-1.8l.011-.006A15.907,15.907,0,0,1,178.964,104.2Z" transform="translate(-158.167 -94.349)" fill="#5972a5"/>
        <path id="Trazado_1078904" data-name="Trazado 1078904" d="M199.347,446.133l-1.059,4.24H191.92l-3.508-.74-2.4.74-1.059-4.24a1.529,1.529,0,0,1,1.063-1.841l.751.169.794-.227h10.306A1.528,1.528,0,0,1,199.347,446.133Z" transform="translate(-166.824 -399.725)" fill="#60daa8"/>
        <path id="Trazado_1078905" data-name="Trazado 1078905" d="M191.919,450.372h-5.911l-1.059-4.24a1.528,1.528,0,0,1,1.483-1.9h3.925A9.829,9.829,0,0,0,191.919,450.372Z" transform="translate(-166.824 -399.724)" fill="#00ce8e"/>
        <path id="Trazado_1078906" data-name="Trazado 1078906" d="M392.209,15.331h-1.681v5.243A1.529,1.529,0,0,1,389,22.1h-3.082a1.529,1.529,0,0,1-1.529-1.529V15.331h-1.681a1.529,1.529,0,0,1-1.081-2.61l4.75-4.751a1.529,1.529,0,0,1,2.162,0l4.751,4.751a1.529,1.529,0,0,1-1.081,2.61Z" transform="translate(-343.093 -7.523)" fill="#a4e7ff"/>
        <path id="Trazado_1078907" data-name="Trazado 1078907" d="M9.051,15.331h1.681v5.243A1.529,1.529,0,0,0,12.26,22.1h3.082a1.529,1.529,0,0,0,1.529-1.529V15.331h1.681a1.529,1.529,0,0,0,1.081-2.61L14.883,7.97a1.529,1.529,0,0,0-2.162,0L7.97,12.721a1.529,1.529,0,0,0,1.081,2.61Z" transform="translate(-7.519 -7.523)" fill="#5ad6ff"/>
        <g id="Grupo_1207833" data-name="Grupo 1207833" transform="translate(13.77 25.027)">
          <g id="Grupo_1207832" data-name="Grupo 1207832">
            <path id="Trazado_1078908" data-name="Trazado 1078908" d="M148.859,262.515c0,1.37-1.393,2.48-3.113,2.481s-3.115-1.109-3.115-2.478,1.393-2.48,3.113-2.481S148.858,261.146,148.859,262.515Z" transform="translate(-142.631 -259.328)" fill="#ffa1ac"/>
            <path id="Trazado_1078909" data-name="Trazado 1078909" d="M308.241,262.435c0,1.37,1.4,2.479,3.115,2.478s3.113-1.112,3.113-2.481-1.4-2.479-3.115-2.478S308.24,261.066,308.241,262.435Z" transform="translate(-291.362 -259.253)" fill="#ffa1ac"/>
            <path id="Trazado_1078910" data-name="Trazado 1078910" d="M232.139,255.141c0-1.886-1.368-2.063-3.053-2.062s-3.052.179-3.051,2.065a3.072,3.072,0,1,0,6.1,0Z" transform="translate(-217.534 -253.079)" fill="#495560"/>
          </g>
        </g>
      </g>
      <g id="Grupo_1207835" data-name="Grupo 1207835" transform="translate(0 0.017)">
        <path id="Trazado_1078911" data-name="Trazado 1078911" d="M89.679,110.783a3.84,3.84,0,0,0-1.174-7.352c-.008-.042-.015-.084-.025-.126A16.906,16.906,0,0,0,64.2,92.3a2.084,2.084,0,0,0-1.07,1.358,2.27,2.27,0,0,0-1.724.49,16.988,16.988,0,0,0-2.3,2.272.764.764,0,0,0,1.173.981,15.46,15.46,0,0,1,2.1-2.068.735.735,0,0,1,1.095.136q.233.438.485.851a40.769,40.769,0,0,1-6.929,7.8,15.188,15.188,0,0,1,1.373-3.892.764.764,0,0,0-1.359-.7,16.715,16.715,0,0,0-1.427,3.9,3.821,3.821,0,0,0-3.5,3.813,3.873,3.873,0,0,0,2.328,3.524l-2.864,8.182a6.879,6.879,0,0,0,4.089,8.719,36.051,36.051,0,0,0,4.121,1.251v2.118a2.3,2.3,0,0,0,2.293,2.293H82.036a2.3,2.3,0,0,0,2.293-2.3l-.006-2.114a36.046,36.046,0,0,0,4.128-1.253,6.879,6.879,0,0,0,4.089-8.719Zm.8-3.534a2.313,2.313,0,0,1-2.134,2.3l-1.116,0a15.379,15.379,0,0,0,.111-3.7,2.292,2.292,0,0,0,.922-.907A2.308,2.308,0,0,1,90.475,107.249ZM84.9,98.806c-4.53-1.66-7.888-1.2-11.07-2.258a7.277,7.277,0,0,1-4.323-4.436A15.341,15.341,0,0,1,84.9,98.806Zm-20-5.145A15.229,15.229,0,0,1,68,92.443,8.846,8.846,0,0,0,73.347,98c3.881,1.293,7.472.488,12.725,2.952a15.464,15.464,0,0,1,.921,2.71.763.763,0,0,1-1.169.809,13.653,13.653,0,0,0-2.351-1.262.764.764,0,1,0-.6,1.408c1.972.834,2.056,1.3,2.944,1.475a13.816,13.816,0,1,1-27.582,1.186,2.4,2.4,0,0,0,.261-.087,22.42,22.42,0,0,0,9.042-6.84,11.816,11.816,0,0,0,5.97,2.289,47.625,47.625,0,0,1,6.083.944.764.764,0,0,0,.35-1.488,49.105,49.105,0,0,0-6.28-.977c-4.911-.491-7.61-3.9-9.01-6.668a.585.585,0,0,1,.249-.787Zm19.348,33.71a12.3,12.3,0,0,0-3.61-7.4,15.34,15.34,0,0,0,3.882-3.774A62.01,62.01,0,0,0,87.2,126.5C86.264,126.822,85.278,127.114,84.252,127.37Zm-5.741.777-.915,3.661H66.511l-.915-3.661a.764.764,0,0,1,.742-.95H77.77A.764.764,0,0,1,78.511,128.148Zm-1.723-2.478H67.319l-.743-4.085a15.376,15.376,0,0,0,10.954,0ZM64.868,97.677a14.037,14.037,0,0,0,1.505,1.685,20.869,20.869,0,0,1-8.446,6.41.757.757,0,0,1-.528.024A40.752,40.752,0,0,0,64.868,97.677Zm-11.235,9.572a2.282,2.282,0,0,1,1.7-2.219,2.277,2.277,0,0,0,1.375,2.138,14.843,14.843,0,0,0,.166,2.384l-1.068,0a2.312,2.312,0,0,1-2.176-2.3Zm-.622,12.212,2.933-8.381,1.244,0a15.278,15.278,0,0,0,1.177,3.107,63.7,63.7,0,0,1-2.873,11.731A5.389,5.389,0,0,1,53.011,119.461Zm8.3,11.583v-2.308a10.726,10.726,0,0,1,.533-3.348.764.764,0,1,0-1.453-.476,12.2,12.2,0,0,0-.532,2.46c-1.026-.257-2.012-.549-2.947-.872a62.013,62.013,0,0,0,2.675-10.31,15.4,15.4,0,0,0,3.881,3.778,12.23,12.23,0,0,0-1.312,1.513.764.764,0,0,0,1.234.9,10.71,10.71,0,0,1,1.437-1.6l.06.031.895,4.922a2.292,2.292,0,0,0-1.665,2.78l.822,3.29H62.072a.765.765,0,0,1-.764-.764Zm20.728.764H79.172l.822-3.29a2.293,2.293,0,0,0-1.665-2.78l.895-4.922.059-.031a10.756,10.756,0,0,1,3.509,7.551l.008,2.707A.765.765,0,0,1,82.036,131.808Zm6.579-5.887a63.722,63.722,0,0,1-2.873-11.733,15.332,15.332,0,0,0,1.171-3.106l1.249,0,2.934,8.383A5.389,5.389,0,0,1,88.615,125.921Z" transform="translate(-45.964 -81.16)"/>
        <path id="Trazado_1078912" data-name="Trazado 1078912" d="M387.08,5.44,382.329.689a2.292,2.292,0,0,0-3.243,0l-4.75,4.751a2.293,2.293,0,0,0,1.621,3.915h.917v4.479a2.3,2.3,0,0,0,2.293,2.293h3.082a2.3,2.3,0,0,0,2.293-2.293V9.355h.917A2.293,2.293,0,0,0,387.08,5.44Zm-1.622,2.386h-1.681a.764.764,0,0,0-.764.764v5.243a.765.765,0,0,1-.764.764h-3.082a.765.765,0,0,1-.764-.764V8.591a.764.764,0,0,0-.764-.764h-1.681a.764.764,0,0,1-.54-1.3l4.75-4.751a.764.764,0,0,1,1.081,0L386,6.521a.764.764,0,0,1-.54,1.3Z" transform="translate(-335.576 -0.017)"/>
        <path id="Trazado_1078913" data-name="Trazado 1078913" d="M8.59,16.127a2.3,2.3,0,0,0,2.293-2.293V9.355H11.8a2.293,2.293,0,0,0,1.622-3.915L8.671.689a2.292,2.292,0,0,0-3.243,0L.677,5.44A2.293,2.293,0,0,0,2.3,9.355h.917v4.479a2.3,2.3,0,0,0,2.293,2.293ZM4.744,13.834V8.591a.764.764,0,0,0-.764-.764H2.3a.764.764,0,0,1-.541-1.3L6.509,1.77a.764.764,0,0,1,1.081,0l4.75,4.751a.764.764,0,0,1-.541,1.3H10.118a.764.764,0,0,0-.764.764v5.243a.765.765,0,0,1-.764.764H5.508A.765.765,0,0,1,4.744,13.834Z" transform="translate(0 -0.017)"/>
        <path id="Trazado_1078914" data-name="Trazado 1078914" d="M224.854,245.986a5.652,5.652,0,0,0-2.5-.406,5.528,5.528,0,0,0-2.5.408,2.478,2.478,0,0,0-1.311,2.422,3.833,3.833,0,1,0,7.634,0A2.478,2.478,0,0,0,224.854,245.986Zm-2.5,5.073a2.5,2.5,0,0,1-2.289-2.65c0-.717.228-.932.475-1.058a4.516,4.516,0,0,1,1.813-.243,4.686,4.686,0,0,1,1.813.241c.247.125.476.34.476,1.057A2.5,2.5,0,0,1,222.352,251.059Z" transform="translate(-196.261 -220.553)"/>
        <path id="Trazado_1078915" data-name="Trazado 1078915" d="M314.956,236.957a.764.764,0,0,0-.766.763l0,1.223a.764.764,0,1,0,1.529,0l0-1.223A.764.764,0,0,0,314.956,236.957Z" transform="translate(-282.166 -212.808)"/>
        <path id="Trazado_1078916" data-name="Trazado 1078916" d="M176.69,233.766a2.2,2.2,0,0,0-2.2,2.193.764.764,0,0,0,1.529,0,.669.669,0,0,1,1.338,0,.764.764,0,0,0,1.529,0A2.2,2.2,0,0,0,176.69,233.766Z" transform="translate(-156.704 -209.943)"/>
      </g>
    </g>
  </g>
</svg>
