<svg xmlns="http://www.w3.org/2000/svg" xmlns:xlink="http://www.w3.org/1999/xlink" width="108" height="108" viewBox="0 0 108 108">
  <defs>
    <filter id="Trazado_904820" x="0" y="0" width="108" height="108" filterUnits="userSpaceOnUse">
      <feOffset dy="3" input="SourceAlpha"/>
      <feGaussianBlur stdDeviation="3" result="blur"/>
      <feFlood flood-opacity="0.161"/>
      <feComposite operator="in" in2="blur"/>
      <feComposite in="SourceGraphic"/>
    </filter>
  </defs>
  <g id="Grupo_1207838" data-name="Grupo 1207838" transform="translate(-617 -3586)">
    <g id="Grupo_1207003" data-name="Grupo 1207003" transform="translate(-3 -5949.403)">
      <g id="Grupo_1185091" data-name="Grupo 1185091" transform="translate(419.773 8756.733)">
        <g id="Grupo_1179560" data-name="Grupo 1179560" transform="translate(-0.227 23)">
          <g id="Grupo_1173787" data-name="Grupo 1173787" transform="translate(209.455 761.67)">
            <g id="Grupo_1171910" data-name="Grupo 1171910" transform="translate(0)">
              <g id="Grupo_1167341" data-name="Grupo 1167341">
                <g id="Grupo_1166792" data-name="Grupo 1166792">
                  <g transform="matrix(1, 0, 0, 1, -9, -6)" filter="url(#Trazado_904820)">
                    <g id="Trazado_904820-2" data-name="Trazado 904820" transform="translate(9 6)" fill="#fff9e9">
                      <path d="M 44.99999618530273 88.50003051757812 C 39.12687301635742 88.50003051757812 33.43022155761719 87.35010528564453 28.06829643249512 85.08219909667969 C 22.88852119445801 82.89134216308594 18.23629570007324 79.75461578369141 14.24084663391113 75.75916290283203 C 10.24540901184082 71.76371765136719 7.108683586120605 67.11150360107422 4.917821407318115 61.93172836303711 C 2.649921178817749 56.56978988647461 1.499996185302734 50.87313842773438 1.499996185302734 45.00001525878906 C 1.499996185302734 39.12689208984375 2.649921178817749 33.43024063110352 4.917821407318115 28.06831550598145 C 7.108683586120605 22.88854026794434 10.24540901184082 18.23631477355957 14.24084663391113 14.24086570739746 C 18.23629570007324 10.24541568756104 22.88852119445801 7.10869026184082 28.06829643249512 4.917840480804443 C 33.43022155761719 2.649927854537964 39.12687301635742 1.50000274181366 44.99999618530273 1.50000274181366 C 50.87311935424805 1.50000274181366 56.56977081298828 2.649927854537964 61.93169784545898 4.917840480804443 C 67.11147308349609 7.10869026184082 71.76369476318359 10.24541568756104 75.75914764404297 14.24086570739746 C 79.75458526611328 18.23631477355957 82.89131164550781 22.88854026794434 85.08216857910156 28.06831550598145 C 87.35007476806641 33.43024063110352 88.5 39.12689208984375 88.5 45.00001525878906 C 88.5 50.87313842773438 87.35007476806641 56.56978988647461 85.08216857910156 61.93172836303711 C 82.89131164550781 67.11150360107422 79.75458526611328 71.76371765136719 75.75914764404297 75.75916290283203 C 71.76369476318359 79.75461578369141 67.11147308349609 82.89134216308594 61.93169784545898 85.08219909667969 C 56.56977081298828 87.35010528564453 50.87311935424805 88.50003051757812 44.99999618530273 88.50003051757812 Z" stroke="none"/>
                      <path d="M 44.99999618530273 3 C 39.32870864868164 3 33.82865142822266 4.110061645507812 28.65262603759766 6.299346923828125 C 23.65165710449219 8.414573669433594 19.15968322753906 11.44334411621094 15.301513671875 15.301513671875 C 11.44333648681641 19.15968322753906 8.414566040039062 23.65165710449219 6.299339294433594 28.65262985229492 C 4.110054016113281 33.82867050170898 2.999992370605469 39.32872772216797 2.999992370605469 45.00001525878906 C 2.999992370605469 50.67130279541016 4.110054016113281 56.17136001586914 6.299339294433594 61.34738922119141 C 8.414566040039062 66.34837341308594 11.44333648681641 70.84033203125 15.301513671875 74.69850158691406 C 19.15968322753906 78.55668640136719 23.65165710449219 81.58545684814453 28.65262603759766 83.70068359375 C 33.82865142822266 85.88996887207031 39.32870864868164 87.00003051757812 44.99999618530273 87.00003051757812 C 50.67128372192383 87.00003051757812 56.17134094238281 85.88996887207031 61.34736633300781 83.70068359375 C 66.34834289550781 81.58545684814453 70.84030914306641 78.55668640136719 74.69847869873047 74.69850158691406 C 78.55665588378906 70.84033203125 81.58542633056641 66.34837341308594 83.70065307617188 61.34738922119141 C 85.88993835449219 56.17136001586914 87 50.67130279541016 87 45.00001525878906 C 87 39.32872772216797 85.88993835449219 33.82867050170898 83.70065307617188 28.65262985229492 C 81.58542633056641 23.65165710449219 78.55665588378906 19.15968322753906 74.69847869873047 15.301513671875 C 70.84030914306641 11.44334411621094 66.34834289550781 8.414573669433594 61.34736633300781 6.299346923828125 C 56.17134094238281 4.110061645507812 50.67128372192383 3 44.99999618530273 3 M 44.99999618530273 0 C 69.85281372070312 0 90 20.14718627929688 90 45.00001525878906 C 90 69.85282897949219 69.85281372070312 90.00003051757812 44.99999618530273 90.00003051757812 C 20.14717864990234 90.00003051757812 -7.62939453125e-06 69.85282897949219 -7.62939453125e-06 45.00001525878906 C -7.62939453125e-06 20.14718627929688 20.14717864990234 0 44.99999618530273 0 Z" stroke="none" fill="#8b701c"/>
                    </g>
                  </g>
                </g>
              </g>
            </g>
          </g>
        </g>
      </g>
    </g>
    <g id="lenguaje-corporal" transform="translate(631.04 3577.243)">
      <g id="Grupo_1207837" data-name="Grupo 1207837" transform="translate(19.248 37.838)">
        <circle id="Elipse_12791" data-name="Elipse 12791" cx="6.423" cy="6.423" r="6.423" transform="translate(14.22 0)" fill="#d5a889"/>
        <path id="Trazado_1078917" data-name="Trazado 1078917" d="M115.347,148.945h0l-3.778,14.522a3.026,3.026,0,0,1-3.331,2.238l-.512-.069a3.026,3.026,0,0,1-2.6-3.4l2.294-17.114v-8.934L95.68,124.58A2.533,2.533,0,0,1,95.659,121l.077-.078a2.533,2.533,0,0,1,3.582-.021l7.319,7.234h17.625l7.319-7.234a2.533,2.533,0,0,1,3.582.021l.077.078a2.533,2.533,0,0,1-.021,3.582l-11.742,11.607v8.934l2.294,17.114a3.026,3.026,0,0,1-2.6,3.4l-.511.069a3.026,3.026,0,0,1-3.331-2.238l-3.778-14.522h-.207Z" transform="translate(-94.928 -112.679)" fill="#66d4f1" fill-rule="evenodd"/>
      </g>
      <path id="Trazado_1078918" data-name="Trazado 1078918" d="M39.892,36.48a7.329,7.329,0,1,1-7.329,7.329A7.333,7.333,0,0,1,39.892,36.48Zm0,1.812a5.518,5.518,0,1,0,5.518,5.518A5.52,5.52,0,0,0,39.892,38.291ZM39.77,76.848,36.765,88.4a3.932,3.932,0,0,1-4.328,2.907l-.511-.069a3.932,3.932,0,0,1-3.375-4.42l2.286-17.054v-8.5L19.364,49.931a3.439,3.439,0,0,1-.028-4.863l.077-.078a3.439,3.439,0,0,1,4.863-.028l7.054,6.973H48.211l7.054-6.973a3.439,3.439,0,0,1,4.863.028l.077.078a3.439,3.439,0,0,1-.028,4.863L48.7,61.271v8.5L50.989,86.82a3.932,3.932,0,0,1-3.375,4.42l-.511.069A3.932,3.932,0,0,1,42.775,88.4Zm-.981-3.425a.988.988,0,0,1,1.962,0l3.778,14.522a2.121,2.121,0,0,0,2.334,1.568l.512-.069a2.121,2.121,0,0,0,1.82-2.384L46.9,69.947a.913.913,0,0,1-.008-.12V60.893a.906.906,0,0,1,.269-.644L58.9,48.642a1.627,1.627,0,0,0,.013-2.3l-.077-.078a1.627,1.627,0,0,0-2.3-.013l-7.319,7.234a.905.905,0,0,1-.637.262H30.957a.905.905,0,0,1-.637-.262L23,46.25a1.627,1.627,0,0,0-2.3.013l-.077.078a1.627,1.627,0,0,0,.013,2.3L32.379,60.249a.906.906,0,0,1,.269.644v8.934a.912.912,0,0,1-.008.12L30.346,87.061a2.121,2.121,0,0,0,1.82,2.384l.511.069a2.121,2.121,0,0,0,2.334-1.568Zm19.3-38.313a.906.906,0,0,1,1.812,0v4.409a.906.906,0,1,1-1.812,0ZM52.2,37.173a.906.906,0,0,1,1.569-.906l2.2,3.818a.906.906,0,1,1-1.569.906ZM48.135,41.9a.906.906,0,0,1,.906-1.569l3.818,2.2a.906.906,0,1,1-.906,1.569Zm16.086-5.636a.906.906,0,0,1,1.569.906l-2.2,3.818a.906.906,0,1,1-1.569-.906Zm4.731,4.068a.906.906,0,1,1,.906,1.569l-3.818,2.2a.906.906,0,0,1-.906-1.569Zm2.063,5.888a.906.906,0,0,1,0,1.812H66.606a.906.906,0,1,1,0-1.812Zm-1.157,6.131a.906.906,0,0,1-.906,1.569l-3.818-2.2a.906.906,0,1,1,.906-1.569ZM65.79,57.084a.906.906,0,0,1-1.569.906l-2.2-3.818a.906.906,0,0,1,1.569-.906ZM20.019,35.11a.906.906,0,0,1,1.812,0v4.409a.906.906,0,1,1-1.812,0Zm6.131,1.157a.906.906,0,0,1,1.569.906l-2.2,3.818a.906.906,0,1,1-1.569-.906Zm4.731,4.068a.906.906,0,0,1,.906,1.569l-3.818,2.2a.906.906,0,1,1-.906-1.569ZM14.131,37.173a.906.906,0,0,1,1.569-.906l2.2,3.818a.906.906,0,1,1-1.569.906ZM10.063,41.9a.906.906,0,0,1,.906-1.569l3.818,2.2a.906.906,0,0,1-.906,1.569ZM8.906,48.034a.906.906,0,0,1,0-1.812h4.409a.906.906,0,0,1,0,1.812Zm2.063,5.888a.906.906,0,0,1-.906-1.569l3.818-2.2a.906.906,0,1,1,.906,1.569ZM15.7,57.99a.906.906,0,0,1-1.569-.906l2.2-3.818a.906.906,0,0,1,1.569.906Z" transform="translate(0)" fill-rule="evenodd"/>
    </g>
  </g>
</svg>
