<svg xmlns="http://www.w3.org/2000/svg" xmlns:xlink="http://www.w3.org/1999/xlink" width="177" height="181.839" viewBox="0 0 177 181.839">
  <defs>
    <clipPath id="clip-path">
      <rect id="Rectángulo_417826" data-name="Rectángulo 417826" width="177" height="177" transform="translate(1178 4609)" fill="#fff" stroke="#707070" stroke-width="1" opacity="0.85"/>
    </clipPath>
  </defs>
  <g id="Grupo_1207720" data-name="Grupo 1207720" transform="translate(-1178 -4609)">
    <g id="Enmascarar_grupo_1098868" data-name="Enmascarar grupo 1098868" clip-path="url(#clip-path)">
      <g id="Grupo_1207719" data-name="Grupo 1207719" transform="translate(4746.978 682.819)">
        <g id="Grupo_1207691" data-name="Grupo 1207691" transform="translate(-3549.165 3930.119)">
          <path id="Trazado_1078315" data-name="Trazado 1078315" d="M452.784,1271.28s-8.3-32.923-26.055-43.621c-9.2-5.546-28.138-6.575-36.6-6.575s-27.4,1.03-36.6,6.575c-17.757,10.7-26.055,43.621-26.055,43.621l24.544,11.8,6.047-26.933-5.14,82.282,2.324.379a180.016,180.016,0,0,0,69.329-2.245l2.61-.6-4.986-79.815,7.275,25.643Z" transform="translate(-323.603 -1089.928)" fill="#e63647"/>
          <path id="Trazado_1078316" data-name="Trazado 1078316" d="M445.367,608.008c23.191-.837,48.872,35.26,27.471,74.429s-38.546,26.721-66.915,23.454-48.326-21.949-47.058-56.653c.835-12.785,5.148-28.094,15.885-37.392C393.6,595.52,425.564,591.538,445.367,608.008Z" transform="translate(-348.354 -597.456)" fill="#f69f2b"/>
          <circle id="Elipse_12698" data-name="Elipse 12698" cx="15.406" cy="15.406" r="15.406" transform="translate(104.1 66.081)" fill="#f69f2b"/>
          <circle id="Elipse_12699" data-name="Elipse 12699" cx="15.406" cy="15.406" r="15.406" transform="translate(101.837 88.631) rotate(-9.218)" fill="#f69f2b"/>
          <circle id="Elipse_12700" data-name="Elipse 12700" cx="15.406" cy="15.406" r="15.406" transform="translate(104.1 101.105)" fill="#f69f2b"/>
          <circle id="Elipse_12701" data-name="Elipse 12701" cx="15.406" cy="15.406" r="15.406" transform="translate(104.1 115.999)" fill="#f69f2b"/>
          <circle id="Elipse_12702" data-name="Elipse 12702" cx="12.546" cy="12.546" r="12.546" transform="translate(106.959 135.235)" fill="#f69f2b"/>
          <circle id="Elipse_12703" data-name="Elipse 12703" cx="9.009" cy="9.009" r="9.009" transform="translate(110.496 154.361)" fill="#f69f2b"/>
          <circle id="Elipse_12704" data-name="Elipse 12704" cx="15.406" cy="15.406" r="15.406" transform="translate(2.264 57.419)" fill="#f69f2b"/>
          <circle id="Elipse_12705" data-name="Elipse 12705" cx="15.406" cy="15.406" r="15.406" transform="translate(2.264 77.302)" fill="#f69f2b"/>
          <circle id="Elipse_12706" data-name="Elipse 12706" cx="15.406" cy="15.406" r="15.406" transform="translate(0 95.11) rotate(-9.218)" fill="#f69f2b"/>
          <circle id="Elipse_12707" data-name="Elipse 12707" cx="15.406" cy="15.406" r="15.406" transform="translate(2.264 107.336)" fill="#f69f2b"/>
          <circle id="Elipse_12708" data-name="Elipse 12708" cx="12.546" cy="12.546" r="12.546" transform="translate(5.123 126.573)" fill="#f69f2b"/>
          <circle id="Elipse_12709" data-name="Elipse 12709" cx="9.009" cy="9.009" r="9.009" transform="translate(4.926 154.706) rotate(-45)" fill="#f69f2b"/>
          <path id="Trazado_1078317" data-name="Trazado 1078317" d="M590.4,1123.865h0a20.885,20.885,0,0,1-15.536,0h0v-35.694H590.4Z" transform="translate(-518.968 -984.969)" fill="#f6a576"/>
          <ellipse id="Elipse_12710" data-name="Elipse 12710" cx="10.009" cy="14.159" rx="10.009" ry="14.159" transform="matrix(0.936, -0.353, 0.353, 0.936, 1.276, 73.386)" fill="#facea5"/>
          <ellipse id="Elipse_12711" data-name="Elipse 12711" cx="14.159" cy="10.009" rx="14.159" ry="10.009" transform="translate(101.785 101.155) rotate(-56.022)" fill="#facea5"/>
          <path id="Trazado_1078318" data-name="Trazado 1078318" d="M374.133,975.675a2.438,2.438,0,0,0,1.166-.123c1.31-.495,1.888-2.23,2.076-2.953a12.6,12.6,0,0,0-.633-7.371c-1.591-4.21-4.6-6.666-6.742-6.916a2.437,2.437,0,0,0-1.166.124c-1.31.495-1.888,2.23-2.076,2.953a12.6,12.6,0,0,0,.633,7.371C368.981,972.968,371.986,975.425,374.133,975.675Z" transform="translate(-354.397 -882.403)" fill="#f6a576"/>
          <path id="Trazado_1078319" data-name="Trazado 1078319" d="M830.8,1031.864c2.147.25,5.636-1.45,8.152-5.181a12.6,12.6,0,0,0,2.31-7.029c-.016-.747-.181-2.568-1.342-3.351a2.438,2.438,0,0,0-1.106-.388c-2.147-.25-5.636,1.45-8.151,5.181a12.6,12.6,0,0,0-2.31,7.029c.016.747.181,2.568,1.342,3.351a2.43,2.43,0,0,0,1.106.388Z" transform="translate(-719.15 -927.89)" fill="#f6a576"/>
          <ellipse id="Elipse_12712" data-name="Elipse 12712" cx="43.509" cy="47.967" rx="43.509" ry="47.967" transform="translate(14.625 122.552) rotate(-83.356)" fill="#facea5"/>
          <g id="Grupo_1207688" data-name="Grupo 1207688" transform="translate(19.427 85.803)">
            <path id="Trazado_1078320" data-name="Trazado 1078320" d="M444.719,1044.225c23.911,2.784,45.39-9.366,51-27.812-5.841,20.429-27.5,34.1-51.408,31.318s-41.846-21.067-42.837-42.292C402.7,1024.681,420.808,1041.441,444.719,1044.225Z" transform="translate(-401.474 -1005.44)" fill="#f6a576"/>
          </g>
          <g id="Grupo_1207689" data-name="Grupo 1207689" transform="translate(35.212 71.563)">
            <ellipse id="Elipse_12713" data-name="Elipse 12713" cx="8.262" cy="10.365" rx="8.262" ry="10.365" transform="translate(41.738 21.396) rotate(-83.356)" fill="#fff"/>
            <path id="Trazado_1078321" data-name="Trazado 1078321" d="M710.864,970.884c.528-4.532-3.654-8.743-9.34-9.406a11.487,11.487,0,0,0-8.381,2.136c1.989-2.537,5.717-4.016,9.787-3.542,5.686.662,9.868,4.873,9.34,9.405a7.27,7.27,0,0,1-2.87,4.872A6.876,6.876,0,0,0,710.864,970.884Z" transform="translate(-647.587 -955.303)" fill="#414042"/>
            <ellipse id="Elipse_12714" data-name="Elipse 12714" cx="8.262" cy="10.365" rx="8.262" ry="10.365" transform="translate(0.257 16.568) rotate(-83.356)" fill="#fff"/>
            <path id="Trazado_1078322" data-name="Trazado 1078322" d="M476.572,944.822c.527-4.532,5.565-7.67,11.251-7.007a11.42,11.42,0,0,1,7.779,4.157,11.9,11.9,0,0,0-6.617-2.9c-5.686-.662-10.723,2.475-11.251,7.007a7.227,7.227,0,0,0,1.561,5.248A7.629,7.629,0,0,1,476.572,944.822Z" transform="translate(-476.527 -937.726)" fill="#414042"/>
          </g>
          <circle id="Elipse_12715" data-name="Elipse 12715" cx="6.68" cy="6.68" r="6.68" transform="translate(78.744 85.944) rotate(-45)" fill="#414042"/>
          <path id="Trazado_1078323" data-name="Trazado 1078323" d="M732.524,988.976a2.173,2.173,0,1,0,2.41-1.907A2.173,2.173,0,0,0,732.524,988.976Z" transform="translate(-643.462 -905.118)" fill="#fff"/>
          <circle id="Elipse_12716" data-name="Elipse 12716" cx="6.68" cy="6.68" r="6.68" transform="translate(40.033 74.435)" fill="#414042"/>
          <path id="Trazado_1078324" data-name="Trazado 1078324" d="M535.917,966.083a2.173,2.173,0,1,0,2.41-1.907A2.173,2.173,0,0,0,535.917,966.083Z" transform="translate(-488.204 -887.04)" fill="#fff"/>
          <path id="Trazado_1078325" data-name="Trazado 1078325" d="M603.663,1025.409a5.964,5.964,0,0,1,4.437,1,3.4,3.4,0,0,1,1.312,3.291,4.2,4.2,0,0,1-2.612,2.711,11.449,11.449,0,0,1-4.786.486,7.135,7.135,0,0,0,5.256,1.33,5.758,5.758,0,0,0,2.757-1.269,5.116,5.116,0,0,0,1.708-2.717,4.7,4.7,0,0,0-.442-3.246,5.031,5.031,0,0,0-7.63-1.589Z" transform="translate(-540.411 -934.531)" fill="#f6a576"/>
          <path id="Trazado_1078326" data-name="Trazado 1078326" d="M559.819,1080.69c1.526,15.186,19.393,17.266,24.9,2.9a49.441,49.441,0,0,1-24.9-2.9Z" transform="translate(-507.09 -979.061)" fill="#414042"/>
          <path id="Trazado_1078327" data-name="Trazado 1078327" d="M591.726,1087.8c-5.864,5.816-14.946,4.74-19.06-2.272a52.235,52.235,0,0,0,19.06,2.272Z" transform="translate(-517.235 -982.879)" fill="#fff"/>
          <path id="Trazado_1078328" data-name="Trazado 1078328" d="M718.534,923.342a10.36,10.36,0,0,0-3.645-3.781,12.644,12.644,0,0,0-5.039-1.839,13.255,13.255,0,0,0-2.732-.083,11.743,11.743,0,0,0-2.657.6,9.78,9.78,0,0,0-4.367,2.958c.919-.041,1.708-.249,2.524-.312.406-.037.8-.077,1.186-.131s.782-.031,1.159-.065c.757-.081,1.512-.009,2.248-.032.741.082,1.476.079,2.206.217a30.494,30.494,0,0,1,4.426.951C715.346,922.258,716.861,922.773,718.534,923.342Z" transform="translate(-617.864 -850.278)" fill="#d07235"/>
          <path id="Trazado_1078329" data-name="Trazado 1078329" d="M495.205,897.538c1.759-.169,3.352-.322,4.913-.4a30.507,30.507,0,0,1,4.527.091c.743.034,1.457.2,2.2.3.711.192,1.463.3,2.181.548.36.121.756.179,1.113.33s.738.271,1.124.4c.781.249,1.5.633,2.385.884a9.776,9.776,0,0,0-3.57-3.882,11.743,11.743,0,0,0-2.449-1.192,13.257,13.257,0,0,0-2.678-.547,12.646,12.646,0,0,0-5.327.632A10.359,10.359,0,0,0,495.205,897.538Z" transform="translate(-456.065 -831.639)" fill="#d07235"/>
          <g id="Grupo_1207690" data-name="Grupo 1207690" transform="translate(34.418 89.748)">
            <ellipse id="Elipse_12717" data-name="Elipse 12717" cx="3.725" cy="7.172" rx="3.725" ry="7.172" transform="translate(47.826 12.97) rotate(-83.356)" fill="#fbbb8f"/>
            <ellipse id="Elipse_12718" data-name="Elipse 12718" cx="3.725" cy="7.172" rx="3.725" ry="7.172" transform="translate(0 7.401) rotate(-83.356)" fill="#fbbb8f"/>
          </g>
          <path id="Trazado_1078330" data-name="Trazado 1078330" d="M561.924,743.679c11.072,3.006,5.507,27.505,5.507,27.505l-47.3-4.96s4.471-26.283,21.736-25.794S561.924,743.679,561.924,743.679Z" transform="translate(-475.748 -710.355)" fill="#f69f2b"/>
          <path id="Trazado_1078331" data-name="Trazado 1078331" d="M640.417,747.341s-3.25-2.276-19.892-.268a17.852,17.852,0,0,1,3.711-.926c19.424-2.708,23.075-.145,23.075-.145,12.965,1.279,11.353,29.761,11.353,29.761l-6.858.428C651.949,771.321,652,748.483,640.417,747.341Z" transform="translate(-555.029 -713.895)" fill="#f69f2b"/>
          <path id="Trazado_1078332" data-name="Trazado 1078332" d="M477.776,746.876s3.387-.859,16.463,5.991a15.735,15.735,0,0,0-2.766-1.921c-15.148-8.3-18.955-7.325-18.955-7.325-15.868-3.026-23.3,21.667-23.3,21.667l10.167,1.787C460.793,763.02,467.885,744.2,477.776,746.876Z" transform="translate(-419.753 -712.678)" fill="#f69f2b"/>
          <path id="Trazado_1078333" data-name="Trazado 1078333" d="M800.036,804.49c3.929,7.85,2.393,19.584,2.393,19.584s-3.267-12.2-7.683-15.247S800.036,804.49,800.036,804.49Z" transform="translate(-691.7 -760.948)" fill="#f69f2b"/>
          <path id="Trazado_1078334" data-name="Trazado 1078334" d="M875.616,921.01c-2.5.945-15.03,3.516-15.03,3.516l.008,4.682,16.51-3.027Z" transform="translate(-744.603 -852.963)" fill="#e63647"/>
          <path id="Trazado_1078335" data-name="Trazado 1078335" d="M364.617,864.885l-12.543-5.562-1.794,5.1,13.339,4.594Z" transform="translate(-341.619 -804.25)" fill="#e63647"/>
        </g>
      </g>
    </g>
    <g id="Grupo_1207716" data-name="Grupo 1207716" transform="translate(1278.041 4771.383)">
      <path id="Trazado_1078435" data-name="Trazado 1078435" d="M764.479,1372.378c1.6.629,1.426,2.746,1.376,5.122-.056,2.646-.178,5.54-2.073,5.529C760.186,1383.009,760.368,1370.76,764.479,1372.378Z" transform="translate(-745.981 -1367.733)" fill="#facea5" stroke="#f6a576" stroke-width="1"/>
      <path id="Trazado_1078436" data-name="Trazado 1078436" d="M692.4,1359.742c2.134.688,2.142,3.436,2.337,6.508.217,3.422.376,7.17-2.072,7.3C688.021,1373.806,686.917,1357.973,692.4,1359.742Z" transform="translate(-688.719 -1357.762)" fill="#facea5" stroke="#f6a576" stroke-width="1"/>
      <path id="Trazado_1078437" data-name="Trazado 1078437" d="M744.75,1360.088c2.1.166,2.3,2.937,2.314,6.585.013,3.948.052,9.142-2.333,9.157-2.461.016-3.227-4.7-3.175-8.96C741.6,1363.186,740.33,1359.739,744.75,1360.088Z" transform="translate(-730.337 -1358.125)" fill="#facea5" stroke="#f6a576" stroke-width="1"/>
      <path id="Trazado_1078438" data-name="Trazado 1078438" d="M718.234,1350.956c2.457.448,2.074,3.587,2.088,7.934.015,4.7.063,10.893-2.78,10.911s-3.668-5.685-3.707-10.819C713.8,1354.23,713.606,1350.112,718.234,1350.956Z" transform="translate(-708.544 -1350.845)" fill="#facea5" stroke="#f6a576" stroke-width="1"/>
    </g>
    <g id="Grupo_1207717" data-name="Grupo 1207717" transform="translate(1233 4771.383)">
      <path id="Trazado_1078439" data-name="Trazado 1078439" d="M475.96,1372.378c-1.6.629-1.426,2.746-1.376,5.122.056,2.646.178,5.54,2.073,5.529C480.253,1383.009,480.07,1370.76,475.96,1372.378Z" transform="translate(-474.553 -1367.733)" fill="#facea5" stroke="#f6a576" stroke-width="1"/>
      <path id="Trazado_1078440" data-name="Trazado 1078440" d="M542.479,1359.742c-2.134.688-2.142,3.436-2.337,6.508-.217,3.422-.376,7.17,2.072,7.3C546.86,1373.806,547.965,1357.973,542.479,1359.742Z" transform="translate(-526.259 -1357.762)" fill="#facea5" stroke="#f6a576" stroke-width="1"/>
      <path id="Trazado_1078441" data-name="Trazado 1078441" d="M491.965,1360.088c-2.1.166-2.3,2.937-2.314,6.585-.012,3.948-.052,9.142,2.333,9.157,2.461.016,3.227-4.7,3.175-8.96C495.113,1363.186,496.385,1359.739,491.965,1360.088Z" transform="translate(-486.474 -1358.125)" fill="#facea5" stroke="#f6a576" stroke-width="1"/>
      <path id="Trazado_1078442" data-name="Trazado 1078442" d="M515.229,1350.956c-2.458.448-2.075,3.587-2.088,7.934-.015,4.7-.062,10.893,2.78,10.911s3.668-5.685,3.707-10.819C519.664,1354.23,519.856,1350.112,515.229,1350.956Z" transform="translate(-505.014 -1350.845)" fill="#facea5" stroke="#f6a576" stroke-width="1"/>
    </g>
  </g>
</svg>
