<svg xmlns="http://www.w3.org/2000/svg" xmlns:xlink="http://www.w3.org/1999/xlink" width="110" height="110" viewBox="0 0 110 110">
  <defs>
    <filter id="Trazado_982547" x="0" y="0" width="110" height="110" filterUnits="userSpaceOnUse">
      <feOffset dy="3" input="SourceAlpha"/>
      <feGaussianBlur stdDeviation="3" result="blur"/>
      <feFlood flood-opacity="0.161"/>
      <feComposite operator="in" in2="blur"/>
      <feComposite in="SourceGraphic"/>
    </filter>
    <linearGradient id="linear-gradient" x1="0.146" y1="0.858" x2="0.854" y2="0.15" gradientUnits="objectBoundingBox">
      <stop offset="0" stop-color="#b8f7fe"/>
      <stop offset="1" stop-color="#6ad2cb"/>
    </linearGradient>
    <linearGradient id="linear-gradient-2" x1="0.5" y1="-0.267" x2="0.5" y2="0.733" gradientUnits="objectBoundingBox">
      <stop offset="0" stop-color="#fdd0a6"/>
      <stop offset="1" stop-color="#edba94"/>
    </linearGradient>
    <linearGradient id="linear-gradient-3" x1="0.501" y1="4.36" x2="0.501" y2="5.359" xlink:href="#linear-gradient-2"/>
    <linearGradient id="linear-gradient-4" x1="0.502" y1="-1.055" x2="0.471" y2="-0.161" gradientUnits="objectBoundingBox">
      <stop offset="0" stop-color="#aeea4c"/>
      <stop offset="1" stop-color="#60a71b"/>
    </linearGradient>
    <linearGradient id="linear-gradient-5" x1="0.505" y1="0.832" x2="0.462" y2="1.78" gradientUnits="objectBoundingBox">
      <stop offset="0" stop-color="#f146a4"/>
      <stop offset="1" stop-color="#c8266f"/>
    </linearGradient>
  </defs>
  <g id="Grupo_1207874" data-name="Grupo 1207874" transform="translate(-1113 -4802.236)">
    <g id="Grupo_1206297" data-name="Grupo 1206297" transform="translate(1122 4808.236)">
      <g id="Grupo_1185066" data-name="Grupo 1185066" transform="translate(0 0)">
        <g id="Grupo_1183624" data-name="Grupo 1183624" transform="translate(0 0)">
          <g id="Grupo_1179602" data-name="Grupo 1179602">
            <g id="Grupo_1171898" data-name="Grupo 1171898">
              <g id="Grupo_1164700" data-name="Grupo 1164700">
                <g id="Grupo_1160931" data-name="Grupo 1160931">
                  <g id="Grupo_1160749" data-name="Grupo 1160749">
                    <g id="Grupo_1158891" data-name="Grupo 1158891">
                      <g id="Grupo_1157406" data-name="Grupo 1157406">
                        <g id="Grupo_1155793" data-name="Grupo 1155793">
                          <g id="Grupo_1154704" data-name="Grupo 1154704">
                            <g id="Grupo_1150790" data-name="Grupo 1150790">
                              <g id="Grupo_1154214" data-name="Grupo 1154214">
                                <g id="Grupo_1152583" data-name="Grupo 1152583">
                                  <g id="Grupo_1146973" data-name="Grupo 1146973">
                                    <g id="Grupo_1146954" data-name="Grupo 1146954">
                                      <g transform="matrix(1, 0, 0, 1, -9, -6)" filter="url(#Trazado_982547)">
                                        <g id="Trazado_982547-2" data-name="Trazado 982547" transform="translate(9 6)" fill="#eaf9f8">
                                          <path d="M 45.99999618530273 90.49984741210938 C 39.99187469482422 90.49984741210938 34.16427612304688 89.323486328125 28.67906379699707 87.00343322753906 C 23.38020896911621 84.76221466064453 18.62104988098145 81.55340576171875 14.53375625610352 77.46612548828125 C 10.44647598266602 73.37884521484375 7.237649440765381 68.61968231201172 4.99642276763916 63.32084274291992 C 2.676369428634644 57.83562850952148 1.500009536743164 52.00802993774414 1.500009536743164 45.99992370605469 C 1.500009536743164 39.99181747436523 2.676369428634644 34.16421890258789 4.99642276763916 28.67900276184082 C 7.237649440765381 23.38016319274902 10.44647598266602 18.62100410461426 14.53375625610352 14.53372383117676 C 18.62104988098145 10.44644355773926 23.38020896911621 7.237630367279053 28.67906379699707 4.996417045593262 C 34.16427612304688 2.676363706588745 39.99187469482422 1.500003695487976 45.99999618530273 1.500003695487976 C 52.00811767578125 1.500003695487976 57.83572769165039 2.676363706588745 63.32094192504883 4.996417045593262 C 68.61978149414062 7.237630367279053 73.37895965576172 10.44644355773926 77.46623992919922 14.53372383117676 C 81.55352783203125 18.62100410461426 84.76234436035156 23.38016319274902 87.00357055664062 28.67900276184082 C 89.32362365722656 34.16421890258789 90.49998474121094 39.99181747436523 90.49998474121094 45.99992370605469 C 90.49998474121094 52.00802993774414 89.32362365722656 57.83562850952148 87.00357055664062 63.32084274291992 C 84.76234436035156 68.61968231201172 81.55352783203125 73.37884521484375 77.46623992919922 77.46612548828125 C 73.37895965576172 81.55340576171875 68.61978149414062 84.76221466064453 63.32094192504883 87.00343322753906 C 57.83572769165039 89.323486328125 52.00811767578125 90.49984741210938 45.99999618530273 90.49984741210938 Z" stroke="none"/>
                                          <path d="M 45.99999618530273 2.999992370605469 C 40.19371032714844 2.999992370605469 34.56270980834961 4.136497497558594 29.26338195800781 6.377906799316406 C 24.14334106445312 8.543510437011719 19.54442596435547 11.64437866210938 15.59441375732422 15.59438323974609 C 11.64439392089844 19.54439544677734 8.543525695800781 24.14329528808594 6.377922058105469 29.26333618164062 C 4.136512756347656 34.56265258789062 3.000007629394531 40.19365310668945 3.000007629394531 45.99992370605469 C 3.000007629394531 51.80619430541992 4.136512756347656 57.43719482421875 6.377922058105469 62.73651123046875 C 8.543525695800781 67.85655212402344 11.64439392089844 72.45545196533203 15.59441375732422 76.40546417236328 C 19.54442596435547 80.35546875 24.14334106445312 83.45633697509766 29.26338195800781 85.62194061279297 C 34.56270980834961 87.86334991455078 40.19371032714844 88.99985504150391 45.99999618530273 88.99985504150391 C 51.80628204345703 88.99985504150391 57.43728256225586 87.86334991455078 62.73661041259766 85.62194061279297 C 67.85665130615234 83.45633697509766 72.45556640625 80.35546875 76.40557861328125 76.40546417236328 C 80.35559844970703 72.45545196533203 83.45646667480469 67.85655212402344 85.6220703125 62.73651123046875 C 87.86347961425781 57.43719482421875 88.99998474121094 51.80619430541992 88.99998474121094 45.99992370605469 C 88.99998474121094 40.19365310668945 87.86347961425781 34.56265258789062 85.6220703125 29.26333618164062 C 83.45646667480469 24.14329528808594 80.35559844970703 19.54439544677734 76.40557861328125 15.59438323974609 C 72.45556640625 11.64437866210938 67.85665130615234 8.543510437011719 62.73661041259766 6.377906799316406 C 57.43728256225586 4.136497497558594 51.80628204345703 2.999992370605469 45.99999618530273 2.999992370605469 M 45.99999618530273 -7.62939453125e-06 C 71.40508270263672 -7.62939453125e-06 91.99998474121094 20.59486389160156 91.99998474121094 45.99992370605469 C 91.99998474121094 71.40498352050781 71.40508270263672 91.99985504150391 45.99999618530273 91.99985504150391 C 20.59490966796875 91.99985504150391 7.62939453125e-06 71.40498352050781 7.62939453125e-06 45.99992370605469 C 7.62939453125e-06 20.59486389160156 20.59490966796875 -7.62939453125e-06 45.99999618530273 -7.62939453125e-06 Z" stroke="none" fill="#1f7069"/>
                                        </g>
                                      </g>
                                    </g>
                                  </g>
                                </g>
                              </g>
                            </g>
                          </g>
                        </g>
                      </g>
                    </g>
                  </g>
                </g>
              </g>
            </g>
          </g>
        </g>
      </g>
    </g>
    <g id="workout_14989629" transform="translate(1131.287 4818.383)">
      <circle id="Elipse_12793" data-name="Elipse 12793" cx="36.5" cy="36.5" r="36.5" transform="translate(-0.287 -0.383)"/>
      <g id="Layer_2_00000101063939038819980220000005840595698070977935_" transform="translate(-0.383 -0.383)">
        <g id="Layer_2_copy_5" transform="translate(0 0)">
          <g id="_3">
            <circle id="background" cx="36.5" cy="36.5" r="36.5" transform="translate(0.096 0)" fill="url(#linear-gradient)"/>
            <path id="Trazado_1079159" data-name="Trazado 1079159" d="M157.756,196.977a3.446,3.446,0,0,1-1.958-.653,3.351,3.351,0,0,1-.78-4.881c1.348-2.086,2.739-4.2,4.087-6.229l1.022-1.561.724-1.093c.937-1.419,1.887-2.866,2.852-4.3v-4.81c-.028-1.419-.028-2.838-.014-4.342v-.681l-2.327,2.029-.27,5.591a1.858,1.858,0,0,1-1.49,1.731,2.983,2.983,0,0,1-1.164.227h-.085a1.762,1.762,0,0,1-.383-.043l-.539-.142a2.338,2.338,0,0,1-1.462-2.256c-.071-3.051-.057-5.392.014-7.606A3.007,3.007,0,0,1,157.117,166c2.1-1.731,4.257-3.434,6.428-5.066a5.56,5.56,0,0,1,3.406-1.235,5.291,5.291,0,0,1,2.242.511,4.287,4.287,0,0,1,2.469,3.562,3.416,3.416,0,0,0,.894,1.774l5.917,6.272a3.079,3.079,0,0,1,1.206,2.114,2.284,2.284,0,0,1-.71,1.7,2.447,2.447,0,0,1-1.816.88,3.16,3.16,0,0,1-1.93-.795c-.965-.752-1.93-1.533-2.866-2.3l-.156-.128a6.064,6.064,0,0,0,1.362,3.193l.142.128c.057.057.114.1.156.142a17.8,17.8,0,0,0,1.887,1.533,11.529,11.529,0,0,1,4.81,6.953c.426,1.547.979,3.093,1.5,4.6.284.78.568,1.6.837,2.412a3.283,3.283,0,0,1-1.944,4.4,3.921,3.921,0,0,1-1.149.213,3.36,3.36,0,0,1-3.15-2.412c-.142-.4-.284-.795-.426-1.206-.766-2.128-1.547-4.342-2.157-6.57-.5-1.845-1.859-2.881-3.292-3.973-.426-.326-.866-.667-1.291-1.022a2.032,2.032,0,0,0-.6.44c-1.9,2.966-3.789,5.988-5.619,8.925l-1.632,2.639c-.085.142-.184.3-.27.44-.241.4-.482.795-.766,1.192a3.529,3.529,0,0,1-2.852,1.66Z" transform="translate(-131.969 -136.595)"/>
            <path id="Trazado_1079160" data-name="Trazado 1079160" d="M185.888,195.8c-.78-2.341-1.7-4.654-2.356-7.038a10.968,10.968,0,0,0-4.583-6.641,17.575,17.575,0,0,1-1.972-1.589,1.277,1.277,0,0,0-.142-.128l-.156-.142c-1.589-1.547-1.7-4.91-1.7-4.91,1.391,1.121,2.739,2.214,4.1,3.292.993.795,2.015.993,2.98-.028.866-.922.724-1.944-.482-3.022l-5.931-6.272a3.948,3.948,0,0,1-1.036-2.072,3.684,3.684,0,0,0-2.143-3.122,4.769,4.769,0,0,0-5.08.653q-3.257,2.448-6.414,5.052a2.47,2.47,0,0,0-.922,1.547c-.1,2.526-.071,5.052-.014,7.577A1.784,1.784,0,0,0,161.5,180.8a1.635,1.635,0,0,0,.369.043,2.556,2.556,0,0,0,1.078-.2,1.286,1.286,0,0,0,1.093-1.206l.284-5.832,3.448-3.008c0,2.242-.028,4.257.014,6.272v4.867l.071-.014-.043.057c-1.263,1.845-2.469,3.718-3.7,5.577-1.7,2.6-3.42,5.179-5.108,7.79a2.812,2.812,0,0,0,.624,4.115c1.433.979,2.923.653,4.03-.88.369-.511.681-1.064,1.022-1.6,2.426-3.874,4.825-7.748,7.279-11.593.241-.383,1.121-.851,1.22-.766,1.83,1.646,4.243,2.739,4.995,5.463.71,2.625,1.66,5.179,2.568,7.734a2.746,2.746,0,0,0,3.576,1.859,2.691,2.691,0,0,0,1.575-3.675Z" transform="translate(-135.467 -140.002)" fill="url(#linear-gradient-2)"/>
            <path id="Trazado_1079161" data-name="Trazado 1079161" d="M228.31,99.291a4.955,4.955,0,0,1-4.91-4.9,4.793,4.793,0,0,1,1.4-3.377,5.077,5.077,0,0,1,3.562-1.518,4.889,4.889,0,0,1-.028,9.777Z" transform="translate(-191.256 -76.356)"/>
            <path id="Trazado_1079162" data-name="Trazado 1079162" d="M231.669,102.156A4.328,4.328,0,0,0,231.7,93.5a4.328,4.328,0,1,0-.028,8.656Z" transform="translate(-194.6 -79.788)" fill="url(#linear-gradient-3)"/>
            <path id="Trazado_1079163" data-name="Trazado 1079163" d="M159.4,279.37l.3-.468c1.249-1.916,2.526-3.86,3.76-5.733l1.022-1.561.7-1.064c.937-1.419,1.9-2.895,2.881-4.328V262.2h8.7l.128.383a4.47,4.47,0,0,0,1.036,1.83l.142.142a1.565,1.565,0,0,1,.156.142,17.794,17.794,0,0,0,1.887,1.533,11.529,11.529,0,0,1,4.81,6.953c.426,1.547.979,3.093,1.5,4.6.227.639.468,1.305.7,1.972l.2.582-6.471,1.561-.255-.724c-.752-2.128-1.547-4.328-2.143-6.542-.5-1.845-1.859-2.881-3.306-3.973-.426-.326-.866-.667-1.291-1.022a2.032,2.032,0,0,0-.6.44c-1.9,2.98-3.817,6.031-5.662,9l-1.575,2.568c-.085.142-.184.3-.27.44-.128.213-.255.426-.4.638l-.312.5Z" transform="translate(-136.337 -224.55)"/>
            <path id="Trazado_1079164" data-name="Trazado 1079164" d="M191.422,283.341l-5.364,1.291c-.795-2.242-1.589-4.47-2.214-6.754-.738-2.725-3.15-3.817-4.995-5.463-.113-.1-.979.383-1.22.766-2.455,3.845-4.867,7.719-7.279,11.593-.227.355-.44.724-.667,1.064L165,282.646q2.384-3.661,4.8-7.294c1.235-1.859,2.455-3.732,3.7-5.577.014-.014.028-.043.043-.057l-.071.014V266.2h7.705a5.113,5.113,0,0,0,1.178,2.057l.156.142a1.282,1.282,0,0,1,.142.128,16.377,16.377,0,0,0,1.972,1.589,10.907,10.907,0,0,1,4.569,6.641C189.818,278.985,190.67,281.142,191.422,283.341Z" transform="translate(-141.143 -227.982)" fill="url(#linear-gradient-4)"/>
            <path id="Trazado_1079165" data-name="Trazado 1079165" d="M184.116,175.01c-.7-.568-1.4-1.135-2.114-1.7l-.17-.142a10.622,10.622,0,0,0,.341,1.362l.241.752h-9.082v-1.93c-.028-1.419-.028-2.838-.014-4.342v-.681l-2.327,2.029-.227,4.47h-5.193l-.014-.553c-.043-2.469-.028-4.512.043-6.414a2.974,2.974,0,0,1,1.135-1.958c2.1-1.731,4.257-3.434,6.428-5.066a5.56,5.56,0,0,1,3.406-1.235,5.291,5.291,0,0,1,2.242.511,4.286,4.286,0,0,1,2.469,3.547,3.417,3.417,0,0,0,.894,1.774l5.974,6.329-3.647,3.562Z" transform="translate(-141.598 -136.509)"/>
            <path id="Trazado_1079166" data-name="Trazado 1079166" d="M187.964,177.94c-1.107-.88-2.214-1.788-3.349-2.7a11.471,11.471,0,0,0,.511,2.852h-7.719v-1.362c-.043-2.015-.014-4.03-.014-6.272l-3.448,3.008-.2,4.172h-4.115c-.043-2.128-.043-4.257.043-6.385a2.47,2.47,0,0,1,.922-1.547c2.1-1.731,4.229-3.406,6.414-5.052a4.741,4.741,0,0,1,5.08-.653,3.72,3.72,0,0,1,2.143,3.122,3.948,3.948,0,0,0,1.036,2.072l5.591,5.917Z" transform="translate(-145.092 -139.893)" fill="url(#linear-gradient-5)"/>
          </g>
        </g>
      </g>
    </g>
  </g>
</svg>
