<svg xmlns="http://www.w3.org/2000/svg" xmlns:xlink="http://www.w3.org/1999/xlink" width="103" height="103" viewBox="0 0 103 103">
  <defs>
    <filter id="Trazado_978624" x="0" y="0" width="103" height="103" filterUnits="userSpaceOnUse">
      <feOffset dy="3" input="SourceAlpha"/>
      <feGaussianBlur stdDeviation="3" result="blur"/>
      <feFlood flood-opacity="0.161"/>
      <feComposite operator="in" in2="blur"/>
      <feComposite in="SourceGraphic"/>
    </filter>
  </defs>
  <g id="Grupo_1207503" data-name="Grupo 1207503" transform="translate(-611 -295)">
    <g id="Grupo_1206189" data-name="Grupo 1206189" transform="translate(420)">
      <g id="Grupo_1182731" data-name="Grupo 1182731" transform="translate(0 -18)">
        <g id="Grupo_1179559" data-name="Grupo 1179559" transform="translate(200 319)">
          <g id="Grupo_1144531" data-name="Grupo 1144531">
            <g transform="matrix(1, 0, 0, 1, -9, -6)" filter="url(#Trazado_978624)">
              <g id="Trazado_978624-2" data-name="Trazado 978624" transform="translate(9 6)" fill="#eaf9f8">
                <path d="M 42.5 83.5 C 36.96437835693359 83.5 31.59512901306152 82.41617584228516 26.54141235351562 80.27863311767578 C 21.65934181213379 78.21369171142578 17.27447128295898 75.25723266601562 13.50862312316895 71.49137878417969 C 9.742764472961426 67.72553253173828 6.786305904388428 63.34066009521484 4.721364498138428 58.45858764648438 C 2.583823442459106 53.40486907958984 1.5 48.03562164306641 1.5 42.5 C 1.5 36.96437835693359 2.583823442459106 31.59512901306152 4.721364498138428 26.54141235351562 C 6.786305904388428 21.65934181213379 9.742764472961426 17.27447128295898 13.50862312316895 13.50862312316895 C 17.27447128295898 9.742764472961426 21.65934181213379 6.786305904388428 26.54141235351562 4.721364498138428 C 31.59512901306152 2.583823442459106 36.96437835693359 1.5 42.5 1.5 C 48.03562164306641 1.5 53.40486907958984 2.583823442459106 58.45858764648438 4.721364498138428 C 63.34066009521484 6.786305904388428 67.72553253173828 9.742764472961426 71.49137878417969 13.50862312316895 C 75.25723266601562 17.27447128295898 78.21369171142578 21.65934181213379 80.27863311767578 26.54141235351562 C 82.41617584228516 31.59512901306152 83.5 36.96437835693359 83.5 42.5 C 83.5 48.03562164306641 82.41617584228516 53.40486907958984 80.27863311767578 58.45858764648438 C 78.21369171142578 63.34066009521484 75.25723266601562 67.72553253173828 71.49137878417969 71.49137878417969 C 67.72553253173828 75.25723266601562 63.34066009521484 78.21369171142578 58.45858764648438 80.27863311767578 C 53.40486907958984 82.41617584228516 48.03562164306641 83.5 42.5 83.5 Z" stroke="none"/>
                <path d="M 42.5 3 C 37.16621398925781 3 31.99356079101562 4.043960571289062 27.125732421875 6.102882385253906 C 22.42246627807617 8.092185974121094 18.19785308837891 10.94070434570312 14.56928253173828 14.56928253173828 C 10.94070434570312 18.19785308837891 8.092185974121094 22.42246627807617 6.102882385253906 27.125732421875 C 4.043960571289062 31.99356079101562 3 37.16621398925781 3 42.5 C 3 47.83378601074219 4.043960571289062 53.00643920898438 6.102882385253906 57.87425231933594 C 8.092185974121094 62.57753372192383 10.94070434570312 66.80213165283203 14.56928253173828 70.43071746826172 C 18.19786834716797 74.05929565429688 22.42246627807617 76.90781402587891 27.125732421875 78.89711761474609 C 31.99356079101562 80.95603942871094 37.16621398925781 82 42.5 82 C 47.83378601074219 82 53.00642395019531 80.95603942871094 57.87425231933594 78.89711761474609 C 62.57753372192383 76.90781402587891 66.80213165283203 74.05929565429688 70.43071746826172 70.43071746826172 C 74.05929565429688 66.80213165283203 76.90781402587891 62.57753372192383 78.89711761474609 57.87425231933594 C 80.95603942871094 53.00642395019531 82 47.83378601074219 82 42.5 C 82 37.16621398925781 80.95603942871094 31.99356079101562 78.89711761474609 27.125732421875 C 76.90781402587891 22.42246627807617 74.05929565429688 18.19786834716797 70.43071746826172 14.56928253173828 C 66.80213165283203 10.94070434570312 62.57753372192383 8.092185974121094 57.87425231933594 6.102882385253906 C 53.00643920898438 4.043960571289062 47.83378601074219 3 42.5 3 M 42.5 0 C 65.97209167480469 0 85 19.02789306640625 85 42.5 C 85 65.97209167480469 65.97209167480469 85 42.5 85 C 19.02789306640625 85 0 65.97209167480469 0 42.5 C 0 19.02789306640625 19.02789306640625 0 42.5 0 Z" stroke="none" fill="#1f7069"/>
              </g>
            </g>
          </g>
        </g>
      </g>
    </g>
    <g id="chat_3_" data-name="chat (3)" transform="translate(637.345 318.124)">
      <path id="Trazado_1077830" data-name="Trazado 1077830" d="M269.009,36.137c-6.654,0-12.048,3.517-12.048,10.3a12.05,12.05,0,1,0,24.095,0C281.055,39.654,275.662,36.137,269.009,36.137Zm0,0" transform="translate(-231.489 -32.555)" fill="#fbc4ac"/>
      <path id="Trazado_1077831" data-name="Trazado 1077831" d="M259.344,28.422A12.2,12.2,0,0,1,270.2,16.2q-.587-.059-1.189-.06a12.288,12.288,0,0,0,0,24.571q.6,0,1.189-.06a12.2,12.2,0,0,1-10.858-12.226Zm0,0" transform="translate(-231.492 -14.537)" fill="#e3b098"/>
      <path id="Trazado_1077832" data-name="Trazado 1077832" d="M429.643,171.061h-1.7a.743.743,0,1,1,0-1.487h1.7a.743.743,0,1,1,0,1.487Zm0,0" transform="translate(-384.851 -152.765)" fill="#f98084"/>
      <path id="Trazado_1077833" data-name="Trazado 1077833" d="M300.077,171.061h-1.7a.743.743,0,0,1,0-1.487h1.7a.743.743,0,0,1,0,1.487Zm0,0" transform="translate(-268.129 -152.765)" fill="#f98084"/>
      <path id="Trazado_1077834" data-name="Trazado 1077834" d="M280.479,16.882c-.827-10.072-4.889-8.521-11.47-8.521-4.976,0-7.365-.5-8.383-.815a.872.872,0,0,0-1.039.436,28.223,28.223,0,0,0-2.626,12.665s2.881-5.189,12.047-5.189c4.264,0,3.907,1.424,11.471,1.424Zm0,0" transform="translate(-231.489 -6.761)" fill="#c86d5c"/>
      <path id="Trazado_1077835" data-name="Trazado 1077835" d="M261.965,7.981a.879.879,0,0,1,.064-.1,12.031,12.031,0,0,1-1.4-.332.872.872,0,0,0-1.039.436,28.223,28.223,0,0,0-2.626,12.665,8.73,8.73,0,0,1,2.465-2.508,26.722,26.722,0,0,1,2.539-10.157Zm0,0" transform="translate(-231.489 -6.761)" fill="#ad4f3d"/>
      <path id="Trazado_1077836" data-name="Trazado 1077836" d="M7.59,375.762v7.92a3.872,3.872,0,0,0,3.445,3.849l5.692.633Zm0,0" transform="translate(-6.837 -338.514)" fill="#3a484a"/>
      <path id="Trazado_1077837" data-name="Trazado 1077837" d="M167.435,375.762v7.92a3.873,3.873,0,0,1-3.445,3.849l-5.693.633Zm0,0" transform="translate(-142.606 -338.514)" fill="#3a484a"/>
      <path id="Trazado_1077838" data-name="Trazado 1077838" d="M31.586,291.231h0l-12.305-9.3-11.769,9.3h0c-.006.158-.009.316-.009.475a12.168,12.168,0,0,0,12.047,12.286,12.168,12.168,0,0,0,12.047-12.286c0-.159,0-.317-.009-.475Zm0,0" transform="translate(-6.757 -253.983)" fill="#fbc4ac"/>
      <path id="Trazado_1077839" data-name="Trazado 1077839" d="M9.5,371.813a12.515,12.515,0,0,1-1.992.393h0c-.006.158-.009.316-.009.475a12.168,12.168,0,0,0,12.047,12.286c.344,0,.684-.016,1.02-.045-5.983-.547-10.734-6.146-11.066-13.108Zm0,0" transform="translate(-6.756 -334.956)" fill="#e3b098"/>
      <path id="Trazado_1077840" data-name="Trazado 1077840" d="M50.616,411.546h-1.7a.743.743,0,1,1,0-1.487h1.7a.743.743,0,1,1,0,1.487Zm0,0" transform="translate(-43.396 -369.411)" fill="#f98084"/>
      <path id="Trazado_1077841" data-name="Trazado 1077841" d="M180.183,411.546h-1.7a.743.743,0,1,1,0-1.487h1.7a.743.743,0,1,1,0,1.487Zm0,0" transform="translate(-160.12 -369.411)" fill="#f98084"/>
      <path id="Trazado_1077842" data-name="Trazado 1077842" d="M7.59,268.435h0c6.465-.715,12.037-6.96,12.037-6.96s5.572,6.245,12.037,6.96h0a12.157,12.157,0,0,0-12.039-11.81A12.157,12.157,0,0,0,7.59,268.435Zm0,0" transform="translate(-6.837 -231.187)" fill="#3a484a"/>
      <path id="Trazado_1077843" data-name="Trazado 1077843" d="M20.669,256.671c-.343-.03-.69-.046-1.041-.046A12.157,12.157,0,0,0,7.59,268.435h0a11.25,11.25,0,0,0,1.992-.393,12.31,12.31,0,0,1,11.086-11.372Zm0,0" transform="translate(-6.837 -231.187)" fill="#323e40"/>
      <path id="Trazado_1077844" data-name="Trazado 1077844" d="M27.008,65.3V57.873a4.8,4.8,0,0,0-4.8-4.8H12.3a4.8,4.8,0,0,0-4.8,4.8V64.66a4.8,4.8,0,0,0,4.8,4.8H29.309Zm0,0" transform="translate(-6.757 -47.81)" fill="#58b78c"/>
      <path id="Trazado_1077845" data-name="Trazado 1077845" d="M282.32,310.1v-7.426a4.8,4.8,0,0,1,4.8-4.8h9.9a4.8,4.8,0,0,1,4.8,4.8v6.786a4.8,4.8,0,0,1-4.8,4.8H280.019Zm0,0" transform="translate(-252.261 -268.348)" fill="#f2c42c"/>
      <path id="Trazado_1077846" data-name="Trazado 1077846" d="M436.521,141.2a.743.743,0,0,0,.743-.743v-1.248a.743.743,0,1,0-1.487,0v1.248A.743.743,0,0,0,436.521,141.2Zm0,0" transform="translate(-392.579 -124.743)"/>
      <path id="Trazado_1077847" data-name="Trazado 1077847" d="M306.95,141.2a.743.743,0,0,0,.743-.743v-1.248a.743.743,0,1,0-1.487,0v1.248A.743.743,0,0,0,306.95,141.2Zm0,0" transform="translate(-275.853 -124.743)"/>
      <path id="Trazado_1077848" data-name="Trazado 1077848" d="M362.937,163.925a.743.743,0,0,0-1.049.07.809.809,0,0,1-1.177,0,.744.744,0,1,0-1.12.979,2.3,2.3,0,0,0,3.417,0,.744.744,0,0,0-.07-1.049Zm0,0" transform="translate(-323.78 -147.51)"/>
      <path id="Trazado_1077849" data-name="Trazado 1077849" d="M57.493,381.685a.744.744,0,0,0,.743-.743v-1.249a.743.743,0,1,0-1.487,0v1.249A.743.743,0,0,0,57.493,381.685Zm0,0" transform="translate(-51.124 -341.385)"/>
      <path id="Trazado_1077850" data-name="Trazado 1077850" d="M187.059,381.685a.744.744,0,0,0,.743-.743v-1.249a.743.743,0,1,0-1.487,0v1.249A.744.744,0,0,0,187.059,381.685Zm0,0" transform="translate(-167.847 -341.385)"/>
      <path id="Trazado_1077851" data-name="Trazado 1077851" d="M111.249,404.478a.744.744,0,0,0-1.12.978,2.3,2.3,0,0,0,3.417,0,.743.743,0,0,0-1.119-.978.809.809,0,0,1-1.178,0Zm0,0" transform="translate(-99.047 -364.154)"/>
      <path id="Trazado_1077852" data-name="Trazado 1077852" d="M5.547,63.454H22.552a.751.751,0,0,0,.651-1.1l-2.208-4V51.121a5.553,5.553,0,0,0-5.547-5.547h-9.9A5.553,5.553,0,0,0,0,51.121v6.786a5.554,5.554,0,0,0,5.547,5.547ZM1.487,51.121a4.065,4.065,0,0,1,4.06-4.06h9.9a4.065,4.065,0,0,1,4.06,4.06v7.426a.74.74,0,0,0,.093.36l1.691,3.061H5.547a4.065,4.065,0,0,1-4.06-4.06Zm0,0" transform="translate(0 -41.057)"/>
      <path id="Trazado_1077853" data-name="Trazado 1077853" d="M46.833,95.518H57.2a.743.743,0,1,0,0-1.487H46.833a.743.743,0,1,0,0,1.487Zm0,0" transform="translate(-41.521 -84.71)"/>
      <path id="Trazado_1077854" data-name="Trazado 1077854" d="M46.833,129.749H57.2a.743.743,0,0,0,0-1.487H46.833a.743.743,0,1,0,0,1.487Zm0,0" transform="translate(-41.521 -115.548)"/>
      <path id="Trazado_1077855" data-name="Trazado 1077855" d="M46.833,163.979H53.3a.743.743,0,1,0,0-1.487H46.833a.743.743,0,1,0,0,1.487Zm0,0" transform="translate(-41.521 -146.385)"/>
      <path id="Trazado_1077856" data-name="Trazado 1077856" d="M273.288,308.255h17.005a5.553,5.553,0,0,0,5.547-5.547v-6.786a5.553,5.553,0,0,0-5.547-5.547h-9.9a5.554,5.554,0,0,0-5.547,5.547v7.235l-2.208,4a.751.751,0,0,0,.651,1.1Zm2.951-4.547a.745.745,0,0,0,.093-.36v-7.426a4.065,4.065,0,0,1,4.06-4.06h9.9a4.065,4.065,0,0,1,4.06,4.06v6.786a4.065,4.065,0,0,1-4.06,4.06H274.548Zm0,0" transform="translate(-245.53 -261.591)"/>
      <path id="Trazado_1077857" data-name="Trazado 1077857" d="M342.559,340.323h10.37a.743.743,0,1,0,0-1.487h-10.37a.743.743,0,0,0,0,1.487Zm0,0" transform="translate(-307.932 -305.248)"/>
      <path id="Trazado_1077858" data-name="Trazado 1077858" d="M353.674,373.806a.743.743,0,0,0-.743-.743H342.56a.743.743,0,0,0,0,1.487h10.37A.743.743,0,0,0,353.674,373.806Zm0,0" transform="translate(-307.933 -336.083)"/>
      <path id="Trazado_1077859" data-name="Trazado 1077859" d="M389.146,408.036a.743.743,0,0,0-.743-.743h-6.467a.743.743,0,1,0,0,1.487H388.4A.743.743,0,0,0,389.146,408.036Zm0,0" transform="translate(-343.405 -366.919)"/>
      <path id="Trazado_1077860" data-name="Trazado 1077860" d="M262.251,26.914a12.926,12.926,0,0,0,12.79-13.029,13.25,13.25,0,0,0-.585-3.9c-.366-4.353-1.356-6.863-3.2-8.13-1.744-1.2-4.039-1.126-6.7-1.044-.738.022-1.5.046-2.3.046-4.921,0-7.225-.49-8.161-.782a1.613,1.613,0,0,0-1.923.809,22.568,22.568,0,0,0-1.628,4.375.743.743,0,0,0,1.436.385,21.08,21.08,0,0,1,1.517-4.085.127.127,0,0,1,.155-.064c1.242.387,3.743.849,8.6.849.826,0,1.6-.024,2.35-.046,2.5-.077,4.467-.137,5.811.785S272.542,6,272.9,9.371a30.779,30.779,0,0,1-3.352-.2,23.721,23.721,0,0,1-3.183-.636,13.841,13.841,0,0,0-4.118-.587,21.1,21.1,0,0,0-5.1.593,15.025,15.025,0,0,0-4.07,1.66,12.1,12.1,0,0,0-2.05,1.538l-.026.024a32.643,32.643,0,0,1,.362-3.305.743.743,0,0,0-1.468-.239,35.392,35.392,0,0,0-.444,5.662,12.927,12.927,0,0,0,12.791,13.029Zm0-1.487a11.433,11.433,0,0,1-11.3-11.332c0-.007.016-.024.02-.03a9.058,9.058,0,0,1,2.71-2.47,16.211,16.211,0,0,1,10.086-2.081c1.666.184,3.256.8,4.916,1.042a32.362,32.362,0,0,0,4.354.3l.127,0a11.786,11.786,0,0,1,.393,3.024,11.438,11.438,0,0,1-11.3,11.542Zm0,0" transform="translate(-224.732)"/>
      <path id="Trazado_1077861" data-name="Trazado 1077861" d="M.014,269.6a4.612,4.612,0,0,0,4.106,4.588l5.654.629a12.58,12.58,0,0,0,6.043,0l5.654-.629a4.611,4.611,0,0,0,4.106-4.588v-6.987c0-.321.011-.64,0-.961a13.068,13.068,0,0,0-3.9-8.869,12.637,12.637,0,0,0-19.035,1.443.743.743,0,1,0,1.187.9,11.151,11.151,0,0,1,16.8-1.279,11.569,11.569,0,0,1,3.385,6.963q-.274-.053-.544-.119a18.051,18.051,0,0,1-6.006-2.893l-.006,0A28.362,28.362,0,0,1,14.21,255.1c-.24-.231-.476-.466-.706-.707a1.192,1.192,0,0,0-.477-.376.726.726,0,0,0-.463,0,1.485,1.485,0,0,0-.544.447c-.455.475-.932.929-1.424,1.365A28.265,28.265,0,0,1,8.1,257.807a17.294,17.294,0,0,1-6.533,3,11.617,11.617,0,0,1,.868-3.275.743.743,0,1,0-1.366-.586,13.137,13.137,0,0,0-1.056,4.708c-.012.32-.011.64,0,.961Zm5.473,3.244-1.2-.134A3.126,3.126,0,0,1,1.5,269.6v-1.32a13.16,13.16,0,0,0,1.4,2.133,12.916,12.916,0,0,0,2.407,2.3l.178.131Zm18.6-3.244a3.126,3.126,0,0,1-2.783,3.11l-1.2.134.18-.133a12.9,12.9,0,0,0,2.4-2.3,13.149,13.149,0,0,0,1.4-2.133ZM12.951,255.954a24.366,24.366,0,0,0,8.281,5.584,14.7,14.7,0,0,0,2.865.79c0,.08,0,.159-.007.239a.052.052,0,0,1,0,.008,11.661,11.661,0,0,1-4.1,8.478l-.011.009a11.1,11.1,0,0,1-14.37-.01,11.662,11.662,0,0,1-4.1-8.478.043.043,0,0,1,0-.007c0-.079-.005-.159-.006-.239.068-.011.136-.025.2-.038a15.622,15.622,0,0,0,2.084-.545,20.01,20.01,0,0,0,5.109-2.664l0,0a28.007,28.007,0,0,0,3.9-3.282l.156.156Zm0,0" transform="translate(-0.004 -224.43)"/>
    </g>
  </g>
</svg>
