<svg xmlns="http://www.w3.org/2000/svg" xmlns:xlink="http://www.w3.org/1999/xlink" width="110" height="110" viewBox="0 0 110 110">
  <defs>
    <filter id="Trazado_982547" x="0" y="0" width="110" height="110" filterUnits="userSpaceOnUse">
      <feOffset dy="3" input="SourceAlpha"/>
      <feGaussianBlur stdDeviation="3" result="blur"/>
      <feFlood flood-opacity="0.161"/>
      <feComposite operator="in" in2="blur"/>
      <feComposite in="SourceGraphic"/>
    </filter>
    <linearGradient id="linear-gradient" x1="0.146" y1="0.858" x2="0.854" y2="0.15" gradientUnits="objectBoundingBox">
      <stop offset="0" stop-color="#b8f7fe"/>
      <stop offset="1" stop-color="#6ad2cb"/>
    </linearGradient>
    <linearGradient id="linear-gradient-2" x1="0.466" y1="1.006" x2="0.466" y2="0.006" gradientUnits="objectBoundingBox">
      <stop offset="0" stop-color="#fdd0a6"/>
      <stop offset="1" stop-color="#edba94"/>
    </linearGradient>
    <linearGradient id="linear-gradient-3" x1="0.583" y1="4.213" x2="0.583" y2="3.212" xlink:href="#linear-gradient-2"/>
    <linearGradient id="linear-gradient-4" x1="0.426" y1="0.642" x2="0.543" y2="1.456" gradientUnits="objectBoundingBox">
      <stop offset="0" stop-color="#f146a4"/>
      <stop offset="1" stop-color="#c8266f"/>
    </linearGradient>
    <linearGradient id="linear-gradient-5" x1="0.519" y1="-1.38" x2="0.519" y2="-0.373" gradientUnits="objectBoundingBox">
      <stop offset="0" stop-color="#aeea4c"/>
      <stop offset="1" stop-color="#60a71b"/>
    </linearGradient>
  </defs>
  <g id="Grupo_1207875" data-name="Grupo 1207875" transform="translate(-3062 -4863.852)">
    <g id="Grupo_1207113" data-name="Grupo 1207113" transform="translate(2265 2051.721)">
      <g id="Grupo_1185076" data-name="Grupo 1185076" transform="translate(806 2818.131)">
        <g id="Grupo_1183626" data-name="Grupo 1183626" transform="translate(0 0)">
          <g id="Grupo_1179602" data-name="Grupo 1179602">
            <g id="Grupo_1171898" data-name="Grupo 1171898" transform="translate(0 0)">
              <g id="Grupo_1164700" data-name="Grupo 1164700">
                <g id="Grupo_1160931" data-name="Grupo 1160931">
                  <g id="Grupo_1160749" data-name="Grupo 1160749">
                    <g id="Grupo_1158891" data-name="Grupo 1158891">
                      <g id="Grupo_1157406" data-name="Grupo 1157406">
                        <g id="Grupo_1155793" data-name="Grupo 1155793">
                          <g id="Grupo_1154704" data-name="Grupo 1154704">
                            <g id="Grupo_1150790" data-name="Grupo 1150790">
                              <g id="Grupo_1154214" data-name="Grupo 1154214">
                                <g id="Grupo_1152583" data-name="Grupo 1152583">
                                  <g id="Grupo_1146973" data-name="Grupo 1146973">
                                    <g id="Grupo_1146954" data-name="Grupo 1146954">
                                      <g transform="matrix(1, 0, 0, 1, -9, -6)" filter="url(#Trazado_982547)">
                                        <g id="Trazado_982547-2" data-name="Trazado 982547" transform="translate(9 6)" fill="#eaf9f8">
                                          <path d="M 46.00000381469727 90.49986267089844 C 39.99188232421875 90.49986267089844 34.16428375244141 89.32350158691406 28.67905807495117 87.00344848632812 C 23.38021659851074 84.76223754882812 18.62104415893555 81.55341339111328 14.53376388549805 77.46613311767578 C 10.44647026062012 73.37885284423828 7.237643718719482 68.61968994140625 4.996417045593262 63.32085037231445 C 2.676363706588745 57.83565139770508 1.500003814697266 52.00805282592773 1.500003814697266 45.99993133544922 C 1.500003814697266 39.99182510375977 2.676363706588745 34.16422653198242 4.996417045593262 28.67901039123535 C 7.237643718719482 23.38017082214355 10.44647026062012 18.62101173400879 14.53376388549805 14.53373146057129 C 18.62104415893555 10.44645118713379 23.38021659851074 7.237624645233154 28.67905807495117 4.996411323547363 C 34.16428375244141 2.676357984542847 39.99188232421875 1.499997973442078 46.00000381469727 1.499997973442078 C 52.00812530517578 1.499997973442078 57.83573532104492 2.676357984542847 63.32094955444336 4.996411323547363 C 68.61980438232422 7.237624645233154 73.37896728515625 10.44645118713379 77.46625518798828 14.53373146057129 C 81.55353546142578 18.62101173400879 84.76236724853516 23.38017082214355 87.00359344482422 28.67901039123535 C 89.32364654541016 34.16422653198242 90.5 39.99182510375977 90.5 45.99993133544922 C 90.5 52.00805282592773 89.32364654541016 57.83565139770508 87.00359344482422 63.32085037231445 C 84.76236724853516 68.61968994140625 81.55353546142578 73.37885284423828 77.46625518798828 77.46613311767578 C 73.37896728515625 81.55341339111328 68.61980438232422 84.76223754882812 63.32094955444336 87.00344848632812 C 57.83573532104492 89.32350158691406 52.00812530517578 90.49986267089844 46.00000381469727 90.49986267089844 Z" stroke="none"/>
                                          <path d="M 46.00000381469727 3 C 40.19371795654297 3 34.56270217895508 4.136505126953125 29.26338958740234 6.377914428710938 C 24.14333343505859 8.54351806640625 19.54443359375 11.64438629150391 15.59442138671875 15.59439086914062 C 11.64440155029297 19.54440307617188 8.543533325195312 24.14330291748047 6.3779296875 29.26334381103516 C 4.136505126953125 34.56266021728516 3.000007629394531 40.19366073608398 3.000007629394531 45.99993133544922 C 3.000007629394531 51.80620193481445 4.136505126953125 57.43720245361328 6.3779296875 62.73651885986328 C 8.543533325195312 67.85655975341797 11.64440155029297 72.45545959472656 15.59442138671875 76.40547180175781 C 19.54443359375 80.35547637939453 24.14333343505859 83.45634460449219 29.26338958740234 85.6219482421875 C 34.56270217895508 87.86335754394531 40.19371795654297 88.99986267089844 46.00000381469727 88.99986267089844 C 51.80628967285156 88.99986267089844 57.43730545043945 87.86335754394531 62.73663330078125 85.6219482421875 C 67.85667419433594 83.45634460449219 72.45558929443359 80.35547637939453 76.40560150146484 76.40547180175781 C 80.35560607910156 72.45545959472656 83.45648956298828 67.85655975341797 85.62208557128906 62.73651885986328 C 87.86350250244141 57.43720245361328 89 51.80620193481445 89 45.99993133544922 C 89 40.19366073608398 87.86350250244141 34.56266021728516 85.62208557128906 29.26334381103516 C 83.45648956298828 24.14330291748047 80.35560607910156 19.54440307617188 76.40560150146484 15.59439086914062 C 72.45558929443359 11.64438629150391 67.85667419433594 8.54351806640625 62.73663330078125 6.377914428710938 C 57.43730545043945 4.136505126953125 51.80628967285156 3 46.00000381469727 3 M 46.00000381469727 0 C 71.40510559082031 0 92 20.59487152099609 92 45.99993133544922 C 92 71.40499114990234 71.40510559082031 91.99986267089844 46.00000381469727 91.99986267089844 C 20.59491729736328 91.99986267089844 7.62939453125e-06 71.40499114990234 7.62939453125e-06 45.99993133544922 C 7.62939453125e-06 20.59487152099609 20.59491729736328 0 46.00000381469727 0 Z" stroke="none" fill="#1f7069"/>
                                        </g>
                                      </g>
                                    </g>
                                  </g>
                                </g>
                              </g>
                            </g>
                          </g>
                        </g>
                      </g>
                    </g>
                  </g>
                </g>
              </g>
            </g>
          </g>
        </g>
      </g>
    </g>
    <g id="workout_14989746" transform="translate(3078.902 4877.956)">
      <circle id="Elipse_12794" data-name="Elipse 12794" cx="37.5" cy="37.5" r="37.5" transform="translate(0.098 0.044)"/>
      <g id="Layer_2_00000008149381215838118310000010528321679800094654_" transform="translate(-0.077 -0.13)">
        <g id="Layer_2_copy_5" transform="translate(0)">
          <g id="_41">
            <circle id="background" cx="37.5" cy="37.5" r="37.5" transform="translate(0.175 0.175)" fill="url(#linear-gradient)"/>
            <path id="Trazado_1079167" data-name="Trazado 1079167" d="M187.888,138.48a3.182,3.182,0,0,1-3.177-3.177v-2.324a13.738,13.738,0,0,0-4.6-10.266l-1.53-1.368-1.53,1.368a13.785,13.785,0,0,0-4.6,10.266V135.3a3.177,3.177,0,1,1-6.354,0v-2.647a17.575,17.575,0,0,1,7.133-14.1l.132-.1v-8.633c-1.044-.912-5.118-5.133-7.28-16.62a3.1,3.1,0,1,1,6.089-1.147c.015.059.015.118.029.176a35.969,35.969,0,0,0,3.515,11.3,27.721,27.721,0,0,1,2.78-.132c4.045,0,6.413.853,7.06,2.544l.015.029v.029a39.9,39.9,0,0,0,6.265,12.457,2.918,2.918,0,0,1,.6,2.236,2.882,2.882,0,0,1-1.235,1.986,2.92,2.92,0,0,1-1.662.515,2.884,2.884,0,0,1-1.559-.456,17.593,17.593,0,0,1,3.089,9.913v2.647A3.167,3.167,0,0,1,187.888,138.48Zm-3.942-19.929a16.982,16.982,0,0,1,2.25,1.986l-2.4-3.545.015,1.456Z" transform="translate(-141.461 -76.157)"/>
            <path id="Trazado_1079168" data-name="Trazado 1079168" d="M170.158,96.571a2.51,2.51,0,0,1,2-2.927,2.394,2.394,0,0,1,.456-.044,2.508,2.508,0,0,1,2.486,2.191,37.064,37.064,0,0,0,3.75,11.854s8.472-1.03,9.619,2a40.58,40.58,0,0,0,6.368,12.663,2.334,2.334,0,1,1-3.648,2.912.892.892,0,0,1-.1-.147l-4.427-6.53.029,3.692.368.279a16.949,16.949,0,0,1,6.883,13.634V138.8a2.589,2.589,0,1,1-5.177,0v-2.339a14.371,14.371,0,0,0-4.795-10.707l-1.912-1.706-1.927,1.706a14.333,14.333,0,0,0-4.809,10.707v2.324a2.589,2.589,0,1,1-5.177,0v-2.647a16.949,16.949,0,0,1,6.883-13.634l.368-.279v-9.192C177.453,113.029,172.584,109.455,170.158,96.571Z" transform="translate(-144.954 -79.637)" fill="url(#linear-gradient-2)"/>
            <ellipse id="Elipse_12795" data-name="Elipse 12795" cx="4.898" cy="5.574" rx="4.898" ry="5.574" transform="translate(32.102 16.405)"/>
            <ellipse id="Elipse_12796" data-name="Elipse 12796" cx="4.309" cy="4.986" rx="4.309" ry="4.986" transform="translate(32.69 16.993)" fill="url(#linear-gradient-3)"/>
            <path id="Trazado_1079169" data-name="Trazado 1079169" d="M184.123,126.7l.015,1.044H173.7V119.52c-1.03-.9-5.015-5.03-7.192-16.178l-.1-.515,5.868-1.927.162.588a2.344,2.344,0,0,1,.088.441,36.081,36.081,0,0,0,3.515,11.3,27.625,27.625,0,0,1,2.765-.132c4.045,0,6.413.853,7.06,2.544l.015.029v.029a40.008,40.008,0,0,0,6.221,12.413l.4.485-4.809,3.353Z" transform="translate(-141.784 -85.863)"/>
            <path id="Trazado_1079170" data-name="Trazado 1079170" d="M171,107.574c2.456,12.531,7.207,16.017,7.207,16.017V131.5h9.251l-.015-2.4,4.324,6.383,3.824-2.647a40.157,40.157,0,0,1-6.324-12.619c-1.162-3.045-9.634-2.015-9.634-2.015a37.006,37.006,0,0,1-3.75-11.84,3.245,3.245,0,0,0-.074-.368Z" transform="translate(-145.708 -90.213)" fill="url(#linear-gradient-4)"/>
            <path id="Trazado_1079171" data-name="Trazado 1079171" d="M185.12,293.935v-2.5a13.738,13.738,0,0,0-4.6-10.266l-1.53-1.368-1.53,1.368a13.785,13.785,0,0,0-4.6,10.266v2.5H166.5v-2.824a17.624,17.624,0,0,1,7.133-14.119l.132-.1V275.3h10.428l.015,1.574.132.1a17.617,17.617,0,0,1,7.133,14.1v2.853Z" transform="translate(-141.87 -234.613)"/>
            <path id="Trazado_1079172" data-name="Trazado 1079172" d="M170.6,294.608v2.236h5.177v-1.912a14.372,14.372,0,0,1,4.795-10.707l1.912-1.706,1.912,1.706a14.333,14.333,0,0,1,4.809,10.707v1.912h5.177v-2.236a16.949,16.949,0,0,0-6.883-13.634l-.368-.279-.015-1.294h-9.251v1.294l-.368.279A16.922,16.922,0,0,0,170.6,294.608Z" transform="translate(-145.367 -238.11)" fill="url(#linear-gradient-5)"/>
          </g>
        </g>
      </g>
    </g>
  </g>
</svg>
