<svg xmlns="http://www.w3.org/2000/svg" xmlns:xlink="http://www.w3.org/1999/xlink" width="93.934" height="93.934" viewBox="0 0 93.934 93.934">
  <defs>
    <filter id="Trazado_982547" x="0" y="0" width="93.934" height="93.934" filterUnits="userSpaceOnUse">
      <feOffset dy="3" input="SourceAlpha"/>
      <feGaussianBlur stdDeviation="3" result="blur"/>
      <feFlood flood-opacity="0.161"/>
      <feComposite operator="in" in2="blur"/>
      <feComposite in="SourceGraphic"/>
    </filter>
  </defs>
  <g id="Grupo_1207740" data-name="Grupo 1207740" transform="translate(-609 -6078.091)">
    <g id="Grupo_1185504" data-name="Grupo 1185504" transform="translate(420.598 -3401.478)">
      <g id="Grupo_1183665" data-name="Grupo 1183665" transform="translate(-0.598 8175.569)">
        <g id="Grupo_1181743" data-name="Grupo 1181743" transform="translate(0 569)">
          <g id="Grupo_1175133" data-name="Grupo 1175133" transform="translate(-0.033 -1251)">
            <g id="Grupo_1167337" data-name="Grupo 1167337" transform="translate(198.033 1992)">
              <g id="Grupo_1166720" data-name="Grupo 1166720">
                <g id="Grupo_1164305" data-name="Grupo 1164305">
                  <g id="Grupo_1163948" data-name="Grupo 1163948">
                    <g id="Grupo_1158168" data-name="Grupo 1158168">
                      <g id="Grupo_1152576" data-name="Grupo 1152576">
                        <g id="Grupo_1148633" data-name="Grupo 1148633">
                          <g id="Grupo_1148525" data-name="Grupo 1148525">
                            <g transform="matrix(1, 0, 0, 1, -9, -6)" filter="url(#Trazado_982547)">
                              <g id="Trazado_982547-2" data-name="Trazado 982547" transform="translate(9 6)" fill="#eaf9f8">
                                <path d="M 37.966796875 74.43359375 C 33.04315185546875 74.43359375 28.26757431030273 73.46962738037109 23.77274131774902 71.56847381591797 C 19.43047523498535 69.73184967041016 15.53040790557861 67.10224914550781 12.18087482452393 63.75271987915039 C 8.831341743469238 60.4031867980957 6.201741218566895 56.50312042236328 4.365118980407715 52.16086196899414 C 2.463963508605957 47.66601943969727 1.499996900558472 42.89044189453125 1.499996900558472 37.966796875 C 1.499996900558472 33.04315185546875 2.463963508605957 28.26757431030273 4.365118980407715 23.77274131774902 C 6.201741218566895 19.43047523498535 8.831341743469238 15.53040790557861 12.18087482452393 12.18087482452393 C 15.53040790557861 8.831341743469238 19.43047523498535 6.201741218566895 23.77274131774902 4.365118980407715 C 28.26757431030273 2.463963508605957 33.04315185546875 1.499996900558472 37.966796875 1.499996900558472 C 42.89044189453125 1.499996900558472 47.66601943969727 2.463963508605957 52.16086196899414 4.365118980407715 C 56.50312042236328 6.201741218566895 60.4031867980957 8.831341743469238 63.75271987915039 12.18087482452393 C 67.10224914550781 15.53040790557861 69.73184967041016 19.43047523498535 71.56847381591797 23.77274131774902 C 73.46962738037109 28.26757431030273 74.43359375 33.04315185546875 74.43359375 37.966796875 C 74.43359375 42.89044189453125 73.46962738037109 47.66601943969727 71.56847381591797 52.16086196899414 C 69.73184967041016 56.50313186645508 67.10224914550781 60.4031867980957 63.75271987915039 63.75271987915039 C 60.4031867980957 67.10224914550781 56.50313186645508 69.73184967041016 52.16086196899414 71.56847381591797 C 47.66601943969727 73.46962738037109 42.89044189453125 74.43359375 37.966796875 74.43359375 Z" stroke="none"/>
                                <path d="M 37.966796875 3 C 33.2449836730957 3 28.66600799560547 3.924095153808594 24.35705947875977 5.746635437011719 C 20.19359588623047 7.507637023925781 16.45379638671875 10.02928161621094 13.24153518676758 13.24153518676758 C 10.02927398681641 16.45379638671875 7.507621765136719 20.19359588623047 5.746635437011719 24.35705947875977 C 3.924095153808594 28.66600799560547 3 33.2449836730957 3 37.966796875 C 3 42.6886100769043 3.924095153808594 47.26758575439453 5.746635437011719 51.57653427124023 C 7.507621765136719 55.73999786376953 10.02927398681641 59.47979736328125 13.24153518676758 62.69205856323242 C 16.45379638671875 65.90431976318359 20.19359588623047 68.42597198486328 24.35705947875977 70.18695831298828 C 28.66600799560547 72.00949859619141 33.2449836730957 72.93359375 37.966796875 72.93359375 C 42.6886100769043 72.93359375 47.26758575439453 72.00949859619141 51.57653427124023 70.18695831298828 C 55.73999786376953 68.42597198486328 59.47979736328125 65.90431976318359 62.69205856323242 62.69205856323242 C 65.90431976318359 59.47979736328125 68.42597198486328 55.73999786376953 70.18695831298828 51.57653427124023 C 72.00949859619141 47.26758575439453 72.93359375 42.6886100769043 72.93359375 37.966796875 C 72.93359375 33.2449836730957 72.00949859619141 28.66600799560547 70.18695831298828 24.35705947875977 C 68.42597198486328 20.19359588623047 65.90431976318359 16.45379638671875 62.69205856323242 13.24153518676758 C 59.47979736328125 10.02928161621094 55.73999786376953 7.507637023925781 51.57653427124023 5.746635437011719 C 47.26758575439453 3.924095153808594 42.6886100769043 3 37.966796875 3 M 37.966796875 0 C 58.93528366088867 0 75.93359375 16.99832153320312 75.93359375 37.966796875 C 75.93359375 58.93528366088867 58.93528366088867 75.93359375 37.966796875 75.93359375 C 16.99831008911133 75.93359375 0 58.93528366088867 0 37.966796875 C 0 16.99832153320312 16.99831008911133 0 37.966796875 0 Z" stroke="none" fill="#1f7069"/>
                              </g>
                            </g>
                          </g>
                        </g>
                      </g>
                    </g>
                  </g>
                </g>
              </g>
            </g>
          </g>
        </g>
      </g>
    </g>
    <g id="maestro_2_" data-name="maestro (2)" transform="translate(630.936 6080.31)">
      <g id="Grupo_1207738" data-name="Grupo 1207738" transform="translate(0.733 19.261)">
        <g id="Grupo_1207733" data-name="Grupo 1207733" transform="translate(0.1 3.686)">
          <path id="Trazado_1078491" data-name="Trazado 1078491" d="M282.961,83.912H263.4a2.11,2.11,0,0,1-2.11-2.11V65.835a2.11,2.11,0,0,1,2.11-2.11h19.561a2.11,2.11,0,0,1,2.11,2.11V81.8A2.11,2.11,0,0,1,282.961,83.912Z" transform="translate(-236.576 -63.725)" fill="#d7ddf5"/>
          <path id="Trazado_1078492" data-name="Trazado 1078492" d="M44.37,206.051a3.883,3.883,0,0,0-3.883-3.883H12.408a3.882,3.882,0,0,0-2.44,6.9,3.882,3.882,0,0,0,2.5,6.2,3.893,3.893,0,0,0,3.821,4.568H36.6a3.893,3.893,0,0,0,3.821-4.568,3.882,3.882,0,0,0,2.5-6.2,3.874,3.874,0,0,0,1.443-3.02Z" transform="translate(-8.525 -188.631)" fill="#4a66a0"/>
          <path id="Trazado_1078493" data-name="Trazado 1078493" d="M359.768,212.722l-7.8,22.713,3.255,1.019,6.548-23.1A1.052,1.052,0,0,0,359.768,212.722Z" transform="translate(-318.391 -197.508)" fill="#5972a5"/>
          <g id="Grupo_1207731" data-name="Grupo 1207731" transform="translate(7.041 23.442)">
            <g id="Grupo_1207729" data-name="Grupo 1207729">
              <path id="Trazado_1078494" data-name="Trazado 1078494" d="M196.805,316.039l-.1,5.026h-5.866a4.2,4.2,0,0,1-4.2-4.2V319.1a1.964,1.964,0,0,1-.665,1.475c-3.3-1.372-5.41-5.824-5.981-10.489-.259-2.117-.037-4.823,1.5-6.525a10.88,10.88,0,0,1,10.46,10.873l0,.855a.749.749,0,0,0,.75.753Z" transform="translate(-170.181 -303.55)" fill="#c7aee4"/>
              <path id="Trazado_1078495" data-name="Trazado 1078495" d="M96.328,320.491a1.958,1.958,0,0,1-1.3.493H82.538a1.967,1.967,0,0,1-1.967-1.955l-.03-4.679a10.882,10.882,0,0,1,10.882-10.882c.141,0,.282,0,.421.009a17.66,17.66,0,0,0-.421,6.65C91.993,314.793,94.232,318.746,96.328,320.491Z" transform="translate(-80.54 -303.469)" fill="#b18cd9"/>
            </g>
            <g id="Grupo_1207730" data-name="Grupo 1207730" transform="translate(24.996 11.677)">
              <path id="Trazado_1078496" data-name="Trazado 1078496" d="M340.126,429.056h-.989a2.956,2.956,0,0,1-2.956-2.956v-.257a2.956,2.956,0,0,1,2.956-2.956h.989a2.956,2.956,0,0,1,2.956,2.956v.257A2.956,2.956,0,0,1,340.126,429.056Z" transform="translate(-336.181 -422.888)" fill="#db9e82"/>
            </g>
          </g>
          <g id="Grupo_1207732" data-name="Grupo 1207732" transform="translate(11.405 24.082)">
            <path id="Trazado_1078497" data-name="Trazado 1078497" d="M194.348,317.775l-3.8-1.738a17.768,17.768,0,0,1,.269-6.018h5.825l.419,5.873A1.919,1.919,0,0,1,194.348,317.775Z" transform="translate(-184.03 -310.019)" fill="#b18cd9"/>
            <path id="Trazado_1078498" data-name="Trazado 1078498" d="M131.685,316.037l-3.8,1.737a1.919,1.919,0,0,1-2.713-1.882l.42-5.874h6.361A17.764,17.764,0,0,0,131.685,316.037Z" transform="translate(-125.167 -310.019)" fill="#996acc"/>
            <path id="Trazado_1078499" data-name="Trazado 1078499" d="M189.245,310.019s-3.952,6.018-6.094,6.018c-1.31-2.3-1.28-4.566.269-6.018Z" transform="translate(-176.633 -310.019)" fill="#f3f5fc"/>
            <path id="Trazado_1078500" data-name="Trazado 1078500" d="M135.613,316.037c-2.141,0-6.093-6.018-6.093-6.018h6.361A17.764,17.764,0,0,0,135.613,316.037Z" transform="translate(-129.094 -310.019)" fill="#d7ddf5"/>
          </g>
        </g>
        <g id="Grupo_1207737" data-name="Grupo 1207737" transform="translate(0 0)">
          <g id="Grupo_1207734" data-name="Grupo 1207734">
            <ellipse id="Elipse_12781" data-name="Elipse 12781" cx="3.519" cy="3.112" rx="3.519" ry="3.112" transform="translate(29.007 14.11)" fill="#c8866a"/>
            <ellipse id="Elipse_12782" data-name="Elipse 12782" cx="3.519" cy="3.112" rx="3.519" ry="3.112" transform="translate(0 14.11)" fill="#c8866a"/>
            <path id="Trazado_1078501" data-name="Trazado 1078501" d="M149.105,83.408a12.618,12.618,0,0,1-6.842,10.923c-14.709,1.155-17.12-13.9-10.281-23.6a16.4,16.4,0,0,1,2.557-.2C142.584,70.529,149.105,76.295,149.105,83.408Z" transform="translate(-116.517 -66.178)" fill="#db9e82"/>
            <path id="Trazado_1078502" data-name="Trazado 1078502" d="M65.149,96.163a15.924,15.924,0,0,1-7.724,1.958c-8.044,0-14.565-5.766-14.565-12.88,0-6.342,5.183-11.613,12.008-12.681-4.426,11.491-2.962,22.019,10.281,23.6Z" transform="translate(-39.403 -68.009)" fill="#c8866a"/>
            <path id="Trazado_1078503" data-name="Trazado 1078503" d="M179.884,41.137a11.919,11.919,0,0,1-2.783-.328,9.98,9.98,0,0,0-4.552-5.286,3.881,3.881,0,0,1-6.309,1.589,3.892,3.892,0,0,1-1.371,1.486c-5.844-1.213-6.75-10.822-2.86-12.554q.392-.016.788-.016C172.235,26.029,179.884,32.792,179.884,41.137Z" transform="translate(-144.776 -26.029)" fill="#5972a5"/>
            <path id="Trazado_1078504" data-name="Trazado 1078504" d="M36.247,38.743a3.88,3.88,0,0,1-5.514-1.486,3.882,3.882,0,0,1-6.191-1.287,9.421,9.421,0,0,0-4.67,4.988,10.382,10.382,0,0,1-2.782.324c0-8.111,7.227-14.727,16.3-15.092-2.041,4.165-.741,10.28,2.86,12.554Z" transform="translate(-16.152 -26.173)" fill="#4a66a0"/>
          </g>
          <g id="Grupo_1207736" data-name="Grupo 1207736" transform="translate(7.405 18.765)">
            <g id="Grupo_1207735" data-name="Grupo 1207735">
              <ellipse id="Elipse_12783" data-name="Elipse 12783" cx="2.862" cy="2.279" rx="2.862" ry="2.279" fill="#fff"/>
              <ellipse id="Elipse_12784" data-name="Elipse 12784" cx="2.862" cy="2.279" rx="2.862" ry="2.279" transform="translate(15.512)" fill="#fff"/>
            </g>
          </g>
        </g>
      </g>
      <g id="Grupo_1207739" data-name="Grupo 1207739" transform="translate(0 18.528)">
        <path id="Trazado_1078505" data-name="Trazado 1078505" d="M122.791,199.349a.733.733,0,0,0-.733.733v1.17a.733.733,0,1,0,1.467,0v-1.17A.733.733,0,0,0,122.791,199.349Z" transform="translate(-110.123 -181.669)"/>
        <path id="Trazado_1078506" data-name="Trazado 1078506" d="M247.324,199.349a.733.733,0,0,0-.733.733v1.17a.733.733,0,1,0,1.467,0v-1.17A.733.733,0,0,0,247.324,199.349Z" transform="translate(-222.48 -181.669)"/>
        <path id="Trazado_1078507" data-name="Trazado 1078507" d="M172.333,211.138a.733.733,0,0,0-1.035.071,1.394,1.394,0,0,1-2.1,0,.733.733,0,1,0-1.106.964,2.861,2.861,0,0,0,4.316,0A.733.733,0,0,0,172.333,211.138Z" transform="translate(-151.49 -192.143)"/>
        <path id="Trazado_1078508" data-name="Trazado 1078508" d="M47.219,22.214H45a.733.733,0,1,0,0,1.467h2.219A1.378,1.378,0,0,1,48.6,25.057V41.024A1.378,1.378,0,0,1,47.219,42.4H43.957l.967-3.411a1.785,1.785,0,0,0-3.406-1.066L39.981,42.4h-3.04a4.619,4.619,0,0,0,.021-4.022,3.487,3.487,0,0,0,.55-1.9,3.607,3.607,0,0,0-.942-2.413q-.007-.335-.03-.667h8.106a.733.733,0,1,0,0-1.467H36.365a14.307,14.307,0,0,0-.8-2.829h9.084a.733.733,0,1,0,0-1.467H34.885a15.923,15.923,0,0,0-2.99-3.96h9.682a.733.733,0,1,0,0-1.467H30.169a19.116,19.116,0,0,0-11.413-3.686c-9.713,0-17.635,6.945-17.814,15.543A3.6,3.6,0,0,0,0,36.479a3.5,3.5,0,0,0,.55,1.9,4.615,4.615,0,0,0,.775,5.12,4.571,4.571,0,0,0-.584,2.248,4.65,4.65,0,0,0,3.239,4.406,4.651,4.651,0,0,0,3.441,4.584,11.612,11.612,0,0,0-.281,2.538l0,.391a.733.733,0,0,0,.733.729h0a.733.733,0,0,0,.728-.738l0-.386a10.155,10.155,0,0,1,3.111-7.309l-.207,2.889A2.659,2.659,0,0,0,14.154,55.7a2.66,2.66,0,0,0,1.108-.244l3.495-1.6,3.495,1.6a2.653,2.653,0,0,0,3.75-2.6l-.207-2.889a10.152,10.152,0,0,1,3.111,7.306l0,.855a1.483,1.483,0,0,0,1.483,1.49h2.078a3.805,3.805,0,0,0,.256,3.559H28.53A3.472,3.472,0,0,1,25.062,59.7v-.964a.733.733,0,1,0-1.467,0v3.2a1.236,1.236,0,0,1-1.234,1.234H13.918V58.737a.733.733,0,1,0-1.467,0V63.17H9.873a1.237,1.237,0,0,1-1.234-1.226l-.006-.866A.733.733,0,0,0,7.9,60.35h0a.733.733,0,0,0-.728.738l.006.866a2.707,2.707,0,0,0,2.7,2.683H22.361a2.7,2.7,0,0,0,2.488-1.651,4.925,4.925,0,0,0,3.681,1.651h5.875a3.793,3.793,0,0,0,1.55.33h.733a3.815,3.815,0,0,0,2.715-6.5l4.139-14.6h3.677a2.847,2.847,0,0,0,2.843-2.843V25.057a2.846,2.846,0,0,0-2.843-2.843ZM42.905,38.4a.319.319,0,0,1,.608.19L38.122,57.613a4.086,4.086,0,0,0-1.715-.28ZM18.757,52.314c-.473,0-1.516-.682-3.063-2.483a17.242,17.242,0,0,0,6.126,0C20.273,51.633,19.229,52.314,18.757,52.314Zm0-3.675c-7.627,0-13.832-5.449-13.832-12.147a10.794,10.794,0,0,1,.24-2.255,8.493,8.493,0,0,1,3.676-4.179,4.616,4.616,0,0,0,6.292,1.347,4.617,4.617,0,0,0,7.251,0,4.617,4.617,0,0,0,6.445-1.592,9.161,9.161,0,0,1,3.521,4.417,10.79,10.79,0,0,1,.241,2.261C32.589,43.19,26.383,48.639,18.756,48.639ZM1.97,37.843a2.1,2.1,0,0,1-.5-1.359A2.145,2.145,0,0,1,1.992,35.1a12.433,12.433,0,0,0,1.561-.12,12.124,12.124,0,0,0,.128,3.836,2.882,2.882,0,0,1-1.711-.971Zm31.988-2.881a12.735,12.735,0,0,0,1.562.136,2.15,2.15,0,0,1,.526,1.392,2.539,2.539,0,0,1-2.214,2.325,12.134,12.134,0,0,0,.126-3.852Zm-15.2-14.967c8.727,0,15.879,6.041,16.329,13.616a11.256,11.256,0,0,1-1.474-.2,10.776,10.776,0,0,0-4.746-5.3.733.733,0,0,0-1.052.4A3.149,3.149,0,0,1,22.7,29.807a.733.733,0,0,0-1.148.2,3.149,3.149,0,0,1-5.584,0,.733.733,0,0,0-1.148-.2,3.149,3.149,0,0,1-5.022-1.044.733.733,0,0,0-1.009-.355A10.351,10.351,0,0,0,3.9,33.427a9.073,9.073,0,0,1-1.472.189c.447-7.578,7.6-13.622,16.329-13.622ZM7.833,53.329A3.156,3.156,0,0,1,6.117,52.2,3.1,3.1,0,0,1,5.5,49.723a.733.733,0,0,0-.612-.861,3.166,3.166,0,0,1-2.678-3.114,3.119,3.119,0,0,1,.649-1.914.733.733,0,0,0-.121-1.016,3.143,3.143,0,0,1-1.06-3.274,4.492,4.492,0,0,0,2.4.785,14.1,14.1,0,0,0,7.216,8.045,11.631,11.631,0,0,0-3.459,4.957Zm6.819.789a1.186,1.186,0,0,1-1.677-1.163l.269-3.764.078.026a25.887,25.887,0,0,0,2.393,2.8,10.039,10.039,0,0,0,1.233,1.055Zm9.38-.1a1.177,1.177,0,0,1-1.17.1l-2.3-1.05A10.042,10.042,0,0,0,21.8,52.014a25.892,25.892,0,0,0,2.393-2.8l.078-.026.269,3.764a1.176,1.176,0,0,1-.507,1.059Zm2.189-5.643a14.1,14.1,0,0,0,7.216-8.044,4.492,4.492,0,0,0,2.4-.785A3.14,3.14,0,0,1,35,42.615c-.073.071-.147.138-.225.2a.733.733,0,0,0-.121,1.016,3.119,3.119,0,0,1,.649,1.914,3.166,3.166,0,0,1-2.678,3.114.733.733,0,0,0-.612.862A3.1,3.1,0,0,1,31.4,52.2a3.156,3.156,0,0,1-1.715,1.13,11.636,11.636,0,0,0-3.46-4.958Zm4.152,9.768a.014.014,0,0,1,0-.011l0-.858a11.593,11.593,0,0,0-.281-2.533,4.651,4.651,0,0,0,3.439-4.584,4.65,4.65,0,0,0,3.239-4.406,4.58,4.58,0,0,0-.4-1.88h3.108L34.793,57.513a3.81,3.81,0,0,0-1.189.631H30.384a.014.014,0,0,1-.011,0Zm6.315,5.36h-.733a2.351,2.351,0,0,1,0-4.7h.733a2.351,2.351,0,0,1,0,4.7Z" transform="translate(0 -18.528)"/>
      </g>
    </g>
  </g>
</svg>
