<svg xmlns="http://www.w3.org/2000/svg" xmlns:xlink="http://www.w3.org/1999/xlink" width="110" height="110" viewBox="0 0 110 110">
  <defs>
    <filter id="Trazado_982547" x="0" y="0" width="110" height="110" filterUnits="userSpaceOnUse">
      <feOffset dy="3" input="SourceAlpha"/>
      <feGaussianBlur stdDeviation="3" result="blur"/>
      <feFlood flood-opacity="0.161"/>
      <feComposite operator="in" in2="blur"/>
      <feComposite in="SourceGraphic"/>
    </filter>
    <linearGradient id="linear-gradient" x1="0.146" y1="0.858" x2="0.854" y2="0.15" gradientUnits="objectBoundingBox">
      <stop offset="0" stop-color="#b8f7fe"/>
      <stop offset="1" stop-color="#6ad2cb"/>
    </linearGradient>
    <linearGradient id="linear-gradient-2" x1="0.5" y1="0.698" x2="0.5" y2="-0.302" gradientUnits="objectBoundingBox">
      <stop offset="0" stop-color="#fdd0a6"/>
      <stop offset="1" stop-color="#edba94"/>
    </linearGradient>
    <linearGradient id="linear-gradient-3" x1="0.5" y1="5.075" x2="0.5" y2="4.075" xlink:href="#linear-gradient-2"/>
    <linearGradient id="linear-gradient-4" x1="0.5" y1="0.961" x2="0.5" y2="1.957" gradientUnits="objectBoundingBox">
      <stop offset="0" stop-color="#f146a4"/>
      <stop offset="1" stop-color="#c8266f"/>
    </linearGradient>
    <linearGradient id="linear-gradient-5" x1="0.5" y1="-1.023" x2="0.5" y2="-0.037" gradientUnits="objectBoundingBox">
      <stop offset="0" stop-color="#aeea4c"/>
      <stop offset="1" stop-color="#60a71b"/>
    </linearGradient>
  </defs>
  <g id="Grupo_1207876" data-name="Grupo 1207876" transform="translate(-3377 -4863.852)">
    <g id="Grupo_1207114" data-name="Grupo 1207114" transform="translate(2265 2051.721)">
      <g id="Grupo_1185066" data-name="Grupo 1185066" transform="translate(1121 2818.131)">
        <g id="Grupo_1183624" data-name="Grupo 1183624" transform="translate(0 0)">
          <g id="Grupo_1179602" data-name="Grupo 1179602">
            <g id="Grupo_1171898" data-name="Grupo 1171898" transform="translate(0 0)">
              <g id="Grupo_1164700" data-name="Grupo 1164700">
                <g id="Grupo_1160931" data-name="Grupo 1160931">
                  <g id="Grupo_1160749" data-name="Grupo 1160749">
                    <g id="Grupo_1158891" data-name="Grupo 1158891">
                      <g id="Grupo_1157406" data-name="Grupo 1157406">
                        <g id="Grupo_1155793" data-name="Grupo 1155793">
                          <g id="Grupo_1154704" data-name="Grupo 1154704">
                            <g id="Grupo_1150790" data-name="Grupo 1150790">
                              <g id="Grupo_1154214" data-name="Grupo 1154214">
                                <g id="Grupo_1152583" data-name="Grupo 1152583">
                                  <g id="Grupo_1146973" data-name="Grupo 1146973">
                                    <g id="Grupo_1146954" data-name="Grupo 1146954">
                                      <g transform="matrix(1, 0, 0, 1, -9, -6)" filter="url(#Trazado_982547)">
                                        <g id="Trazado_982547-2" data-name="Trazado 982547" transform="translate(9 6)" fill="#eaf9f8">
                                          <path d="M 46.00000381469727 90.49986267089844 C 39.99188232421875 90.49986267089844 34.16428375244141 89.32350158691406 28.67905807495117 87.00344848632812 C 23.38021659851074 84.76223754882812 18.62104415893555 81.55341339111328 14.53376388549805 77.46613311767578 C 10.44647026062012 73.37885284423828 7.237643718719482 68.61968994140625 4.996417045593262 63.32085037231445 C 2.676363706588745 57.83565139770508 1.500003814697266 52.00805282592773 1.500003814697266 45.99993133544922 C 1.500003814697266 39.99182510375977 2.676363706588745 34.16422653198242 4.996417045593262 28.67901039123535 C 7.237643718719482 23.38017082214355 10.44647026062012 18.62101173400879 14.53376388549805 14.53373146057129 C 18.62104415893555 10.44645118713379 23.38021659851074 7.237624645233154 28.67905807495117 4.996411323547363 C 34.16428375244141 2.676357984542847 39.99188232421875 1.499997973442078 46.00000381469727 1.499997973442078 C 52.00812530517578 1.499997973442078 57.83573532104492 2.676357984542847 63.32094955444336 4.996411323547363 C 68.61980438232422 7.237624645233154 73.37896728515625 10.44645118713379 77.46625518798828 14.53373146057129 C 81.55353546142578 18.62101173400879 84.76236724853516 23.38017082214355 87.00359344482422 28.67901039123535 C 89.32364654541016 34.16422653198242 90.5 39.99182510375977 90.5 45.99993133544922 C 90.5 52.00805282592773 89.32364654541016 57.83565139770508 87.00359344482422 63.32085037231445 C 84.76236724853516 68.61968994140625 81.55353546142578 73.37885284423828 77.46625518798828 77.46613311767578 C 73.37896728515625 81.55341339111328 68.61980438232422 84.76223754882812 63.32094955444336 87.00344848632812 C 57.83573532104492 89.32350158691406 52.00812530517578 90.49986267089844 46.00000381469727 90.49986267089844 Z" stroke="none"/>
                                          <path d="M 46.00000381469727 3 C 40.19371795654297 3 34.56270217895508 4.136505126953125 29.26338958740234 6.377914428710938 C 24.14333343505859 8.54351806640625 19.54443359375 11.64438629150391 15.59442138671875 15.59439086914062 C 11.64440155029297 19.54440307617188 8.543533325195312 24.14330291748047 6.3779296875 29.26334381103516 C 4.136505126953125 34.56266021728516 3.000007629394531 40.19366073608398 3.000007629394531 45.99993133544922 C 3.000007629394531 51.80620193481445 4.136505126953125 57.43720245361328 6.3779296875 62.73651885986328 C 8.543533325195312 67.85655975341797 11.64440155029297 72.45545959472656 15.59442138671875 76.40547180175781 C 19.54443359375 80.35547637939453 24.14333343505859 83.45634460449219 29.26338958740234 85.6219482421875 C 34.56270217895508 87.86335754394531 40.19371795654297 88.99986267089844 46.00000381469727 88.99986267089844 C 51.80628967285156 88.99986267089844 57.43730545043945 87.86335754394531 62.73663330078125 85.6219482421875 C 67.85667419433594 83.45634460449219 72.45558929443359 80.35547637939453 76.40560150146484 76.40547180175781 C 80.35560607910156 72.45545959472656 83.45648956298828 67.85655975341797 85.62208557128906 62.73651885986328 C 87.86350250244141 57.43720245361328 89 51.80620193481445 89 45.99993133544922 C 89 40.19366073608398 87.86350250244141 34.56266021728516 85.62208557128906 29.26334381103516 C 83.45648956298828 24.14330291748047 80.35560607910156 19.54440307617188 76.40560150146484 15.59439086914062 C 72.45558929443359 11.64438629150391 67.85667419433594 8.54351806640625 62.73663330078125 6.377914428710938 C 57.43730545043945 4.136505126953125 51.80628967285156 3 46.00000381469727 3 M 46.00000381469727 0 C 71.40510559082031 0 92 20.59487152099609 92 45.99993133544922 C 92 71.40499114990234 71.40510559082031 91.99986267089844 46.00000381469727 91.99986267089844 C 20.59491729736328 91.99986267089844 7.62939453125e-06 71.40499114990234 7.62939453125e-06 45.99993133544922 C 7.62939453125e-06 20.59487152099609 20.59491729736328 0 46.00000381469727 0 Z" stroke="none" fill="#1f7069"/>
                                        </g>
                                      </g>
                                    </g>
                                  </g>
                                </g>
                              </g>
                            </g>
                          </g>
                        </g>
                      </g>
                    </g>
                  </g>
                </g>
              </g>
            </g>
          </g>
        </g>
      </g>
    </g>
    <g id="workout_14989666" transform="translate(3393.414 4877.414)">
      <circle id="Elipse_12797" data-name="Elipse 12797" cx="37.5" cy="37.5" r="37.5" transform="translate(0.586 0.586)"/>
      <g id="Layer_2_00000145776652655158158570000004890145576631568533_" transform="translate(0.305 0.305)">
        <g id="Layer_2_copy_5">
          <g id="_33">
            <circle id="background" cx="37.5" cy="37.5" r="37.5" transform="translate(0.28 0.281)" fill="url(#linear-gradient)"/>
            <path id="Trazado_1079173" data-name="Trazado 1079173" d="M181.592,204.425a2.847,2.847,0,0,1-2.638-1.793c-1.037-2.623-2.875-8.522-3.453-18.422a1.154,1.154,0,0,0-.222-.519,1.088,1.088,0,0,0-.222.519c-.563,9.9-2.4,15.784-3.453,18.422a2.835,2.835,0,0,1-5.276-2.075c1.2-3.127,3.009-9.678,3.083-20.823a2.524,2.524,0,0,1-4.624.459l-3.142-5.765a3.173,3.173,0,0,1,1.26-4.313c.015-.015.044-.015.059-.03l5.409-2.816a6.9,6.9,0,0,1,3.157-.771h7.455a6.9,6.9,0,0,1,3.157.771l5.409,2.816a3.189,3.189,0,0,1,1.363,4.283c-.015.015-.015.044-.03.059l-3.112,5.78a2.52,2.52,0,0,1-4.624-.459c.074,11.145,1.882,17.7,3.083,20.823a2.821,2.821,0,0,1-1.5,3.6A2.729,2.729,0,0,1,181.592,204.425ZM169.2,177.719a2.168,2.168,0,0,1,.237.534c-.015-1.482-.059-3.038-.119-4.683l-2.1.756Zm12.079-4.15c-.074,1.645-.119,3.2-.133,4.683a2.8,2.8,0,0,1,.237-.534l2-3.394Z" transform="translate(-137.627 -142.098)"/>
            <path id="Trazado_1079174" data-name="Trazado 1079174" d="M190.837,174.112l-5.409-2.8a6.312,6.312,0,0,0-2.89-.711h-7.455a6.132,6.132,0,0,0-2.89.711l-5.409,2.8a2.583,2.583,0,0,0-1.1,3.5c.015.015.015.03.03.044l3.142,5.765a1.925,1.925,0,1,0,3.349-1.9l-2.356-4,3.527-1.275c.815,15.769-1.586,24.483-2.964,28.04a2.244,2.244,0,0,0,4.179,1.63c1.112-2.816,2.86-8.6,3.409-18.229a2.124,2.124,0,0,1,.815-1.349,2.2,2.2,0,0,1,.815,1.349c.548,9.633,2.282,15.413,3.409,18.229a2.236,2.236,0,0,0,4.165-1.63c-1.363-3.557-3.779-12.271-2.964-28.04l3.527,1.275-2.356,4a1.925,1.925,0,1,0,3.349,1.9l3.142-5.765a2.587,2.587,0,0,0-1.037-3.512C190.866,174.127,190.852,174.127,190.837,174.112Z" transform="translate(-141.151 -145.59)" fill="url(#linear-gradient-2)"/>
            <path id="Trazado_1079175" data-name="Trazado 1079175" d="M227.124,100.33a5.377,5.377,0,1,1,5.024-5.365A5.2,5.2,0,0,1,227.124,100.33Z" transform="translate(-189.458 -76.595)"/>
            <ellipse id="Elipse_12798" data-name="Elipse 12798" cx="4.431" cy="4.772" rx="4.431" ry="4.772" transform="translate(33.235 13.598)" fill="url(#linear-gradient-3)"/>
            <path id="Trazado_1079176" data-name="Trazado 1079176" d="M169.594,180.8v-.593c.03-2.119-.015-4.342-.119-6.625l-2.1.756,1.823,3.083-4.4,2.431-2.949-5.409a3.19,3.19,0,0,1,1.26-4.328c.015-.015.03-.015.059-.03l5.409-2.816a6.9,6.9,0,0,1,3.157-.771h7.455a6.9,6.9,0,0,1,3.157.771l5.409,2.816a3.2,3.2,0,0,1,1.363,4.3c-.015.015-.015.044-.03.059l-2.86,5.246-4.476-2.282,1.808-3.068-2.1-.756c-.1,2.282-.148,4.505-.119,6.625v.593Z" transform="translate(-137.797 -142.098)"/>
            <path id="Trazado_1079177" data-name="Trazado 1079177" d="M191.991,177.655l-2.579,4.743L186,180.663l1.853-3.142-3.527-1.275c-.148,2.7-.193,5.172-.163,7.469H173.628c.03-2.3-.015-4.772-.163-7.469l-3.527,1.275,1.867,3.172-3.349,1.838-2.668-4.876a2.587,2.587,0,0,1,1.037-3.512c.015-.015.03-.015.044-.03l5.409-2.8a6.312,6.312,0,0,1,2.89-.711h7.455a6.132,6.132,0,0,1,2.89.711l5.409,2.8a2.6,2.6,0,0,1,1.112,3.5C192.006,177.625,192.006,177.64,191.991,177.655Z" transform="translate(-141.223 -145.59)" fill="url(#linear-gradient-4)"/>
            <path id="Trazado_1079178" data-name="Trazado 1079178" d="M207.9,277.268c-1.186-3.186-2.712-8.877-3.216-17.829a1.154,1.154,0,0,0-.222-.519,1.088,1.088,0,0,0-.222.519c-.5,8.714-1.956,14.317-3.1,17.488l-.193.519L195.5,275.83l.208-.593c1.023-2.846,2.757-9.2,2.875-19.845V254.8h11.708v.593c.133,10.671,1.867,17.029,2.89,19.874l.03.1v.519l-.385.148-4.757,1.778Z" transform="translate(-166.8 -217.311)"/>
            <path id="Trazado_1079179" data-name="Trazado 1079179" d="M217.177,279.152l-4.194,1.571c-1.112-2.994-2.668-8.625-3.186-17.651a2.124,2.124,0,0,0-.815-1.349,2.2,2.2,0,0,0-.815,1.349c-.5,8.7-1.956,14.242-3.053,17.31l-4.313-1.26c1.141-3.172,2.786-9.544,2.9-20.022h10.537C214.375,269.608,216.035,276,217.177,279.152Z" transform="translate(-171.314 -220.974)" fill="url(#linear-gradient-5)"/>
          </g>
        </g>
      </g>
    </g>
  </g>
</svg>
