<svg xmlns="http://www.w3.org/2000/svg" xmlns:xlink="http://www.w3.org/1999/xlink" width="93.934" height="93.934" viewBox="0 0 93.934 93.934">
  <defs>
    <filter id="Trazado_982547" x="0" y="0" width="93.934" height="93.934" filterUnits="userSpaceOnUse">
      <feOffset dy="3" input="SourceAlpha"/>
      <feGaussianBlur stdDeviation="3" result="blur"/>
      <feFlood flood-opacity="0.161"/>
      <feComposite operator="in" in2="blur"/>
      <feComposite in="SourceGraphic"/>
    </filter>
  </defs>
  <g id="Grupo_1207741" data-name="Grupo 1207741" transform="translate(-609 -6207.091)">
    <g id="Grupo_1206678" data-name="Grupo 1206678" transform="translate(420.598 -3272.478)">
      <g id="Grupo_1183665" data-name="Grupo 1183665" transform="translate(-0.598 8175.569)">
        <g id="Grupo_1181743" data-name="Grupo 1181743" transform="translate(0 569)">
          <g id="Grupo_1175133" data-name="Grupo 1175133" transform="translate(-0.033 -1251)">
            <g id="Grupo_1167337" data-name="Grupo 1167337" transform="translate(198.033 1992)">
              <g id="Grupo_1166720" data-name="Grupo 1166720">
                <g id="Grupo_1164305" data-name="Grupo 1164305">
                  <g id="Grupo_1163948" data-name="Grupo 1163948">
                    <g id="Grupo_1158168" data-name="Grupo 1158168">
                      <g id="Grupo_1152576" data-name="Grupo 1152576">
                        <g id="Grupo_1148633" data-name="Grupo 1148633">
                          <g id="Grupo_1148525" data-name="Grupo 1148525">
                            <g transform="matrix(1, 0, 0, 1, -9, -6)" filter="url(#Trazado_982547)">
                              <g id="Trazado_982547-2" data-name="Trazado 982547" transform="translate(9 6)" fill="#eaf9f8">
                                <path d="M 37.966796875 74.43359375 C 33.04315185546875 74.43359375 28.26757431030273 73.46962738037109 23.77274131774902 71.56847381591797 C 19.43047523498535 69.73184967041016 15.53040790557861 67.10224914550781 12.18087482452393 63.75271987915039 C 8.831341743469238 60.4031867980957 6.201741218566895 56.50312042236328 4.365118980407715 52.16086196899414 C 2.463963508605957 47.66601943969727 1.499996900558472 42.89044189453125 1.499996900558472 37.966796875 C 1.499996900558472 33.04315185546875 2.463963508605957 28.26757431030273 4.365118980407715 23.77274131774902 C 6.201741218566895 19.43047523498535 8.831341743469238 15.53040790557861 12.18087482452393 12.18087482452393 C 15.53040790557861 8.831341743469238 19.43047523498535 6.201741218566895 23.77274131774902 4.365118980407715 C 28.26757431030273 2.463963508605957 33.04315185546875 1.499996900558472 37.966796875 1.499996900558472 C 42.89044189453125 1.499996900558472 47.66601943969727 2.463963508605957 52.16086196899414 4.365118980407715 C 56.50312042236328 6.201741218566895 60.4031867980957 8.831341743469238 63.75271987915039 12.18087482452393 C 67.10224914550781 15.53040790557861 69.73184967041016 19.43047523498535 71.56847381591797 23.77274131774902 C 73.46962738037109 28.26757431030273 74.43359375 33.04315185546875 74.43359375 37.966796875 C 74.43359375 42.89044189453125 73.46962738037109 47.66601943969727 71.56847381591797 52.16086196899414 C 69.73184967041016 56.50313186645508 67.10224914550781 60.4031867980957 63.75271987915039 63.75271987915039 C 60.4031867980957 67.10224914550781 56.50313186645508 69.73184967041016 52.16086196899414 71.56847381591797 C 47.66601943969727 73.46962738037109 42.89044189453125 74.43359375 37.966796875 74.43359375 Z" stroke="none"/>
                                <path d="M 37.966796875 3 C 33.2449836730957 3 28.66600799560547 3.924095153808594 24.35705947875977 5.746635437011719 C 20.19359588623047 7.507637023925781 16.45379638671875 10.02928161621094 13.24153518676758 13.24153518676758 C 10.02927398681641 16.45379638671875 7.507621765136719 20.19359588623047 5.746635437011719 24.35705947875977 C 3.924095153808594 28.66600799560547 3 33.2449836730957 3 37.966796875 C 3 42.6886100769043 3.924095153808594 47.26758575439453 5.746635437011719 51.57653427124023 C 7.507621765136719 55.73999786376953 10.02927398681641 59.47979736328125 13.24153518676758 62.69205856323242 C 16.45379638671875 65.90431976318359 20.19359588623047 68.42597198486328 24.35705947875977 70.18695831298828 C 28.66600799560547 72.00949859619141 33.2449836730957 72.93359375 37.966796875 72.93359375 C 42.6886100769043 72.93359375 47.26758575439453 72.00949859619141 51.57653427124023 70.18695831298828 C 55.73999786376953 68.42597198486328 59.47979736328125 65.90431976318359 62.69205856323242 62.69205856323242 C 65.90431976318359 59.47979736328125 68.42597198486328 55.73999786376953 70.18695831298828 51.57653427124023 C 72.00949859619141 47.26758575439453 72.93359375 42.6886100769043 72.93359375 37.966796875 C 72.93359375 33.2449836730957 72.00949859619141 28.66600799560547 70.18695831298828 24.35705947875977 C 68.42597198486328 20.19359588623047 65.90431976318359 16.45379638671875 62.69205856323242 13.24153518676758 C 59.47979736328125 10.02928161621094 55.73999786376953 7.507637023925781 51.57653427124023 5.746635437011719 C 47.26758575439453 3.924095153808594 42.6886100769043 3 37.966796875 3 M 37.966796875 0 C 58.93528366088867 0 75.93359375 16.99832153320312 75.93359375 37.966796875 C 75.93359375 58.93528366088867 58.93528366088867 75.93359375 37.966796875 75.93359375 C 16.99831008911133 75.93359375 0 58.93528366088867 0 37.966796875 C 0 16.99832153320312 16.99831008911133 0 37.966796875 0 Z" stroke="none" fill="#1f7069"/>
                              </g>
                            </g>
                          </g>
                        </g>
                      </g>
                    </g>
                  </g>
                </g>
              </g>
            </g>
          </g>
        </g>
      </g>
    </g>
    <g id="argumento_2_" data-name="argumento (2)" transform="translate(601.409 6225.251)">
      <path id="Trazado_1078509" data-name="Trazado 1078509" d="M84.038,38.3a1.279,1.279,0,0,0,.926-1.882L81.25,29.7c0-.019,0-.037,0-.056,0-.5-.019-3.3-.056-3.785l-.155-1.4C79.653,15.029,71.575,10.077,61.777,10a19.643,19.643,0,0,0-6.765,38.141L53.025,57.5l15.809,2.1,2.306-8.569c.03.038,8.455.745,8.617.745a1.661,1.661,0,0,0,1.718-1.717V38.738Z" transform="translate(-8.991 -8.992)" fill="#ffdaae"/>
      <path id="Trazado_1078510" data-name="Trazado 1078510" d="M280.394,403.326a.992.992,0,0,1-.2-.019,1.017,1.017,0,0,1-.189-.057,1,1,0,0,1-.174-.093,1.026,1.026,0,0,1-.153-.126,1.014,1.014,0,0,1-.3-.713.994.994,0,0,1,.02-.2,1.018,1.018,0,0,1,.057-.188,1,1,0,0,1,.093-.174.978.978,0,0,1,.278-.278,1,1,0,0,1,.174-.093,1.008,1.008,0,0,1,1.224.371,1,1,0,0,1,.092.174,1.019,1.019,0,0,1,.058.188,1.072,1.072,0,0,1,.019.2,1.008,1.008,0,0,1-1.008,1.008Z" transform="translate(-222.471 -360.858)"/>
      <path id="Trazado_1078511" data-name="Trazado 1078511" d="M98.8,130.12l-4.1,1.1,1.123-4.191a9.009,9.009,0,1,1,2.98,3.092Z" transform="translate(-56.311 -102.055)" fill="#ff5a5a"/>
      <path id="Trazado_1078512" data-name="Trazado 1078512" d="M197.51,64.735a9.009,9.009,0,0,0-17.438-3.176c.13-.006.26-.008.392-.008A9.013,9.013,0,0,1,188.9,73.734a8.95,8.95,0,0,0,4.415-1.382l4.1,1.1-1.123-4.191A8.973,8.973,0,0,0,197.51,64.735Z" transform="translate(-133.168 -50.11)" fill="#ff8c5a"/>
      <path id="Trazado_1078513" data-name="Trazado 1078513" d="M124.716,195.647a.992.992,0,0,1-.2-.02,1.014,1.014,0,0,1-.189-.057.994.994,0,0,1-.174-.093.98.98,0,0,1-.278-.278,1,1,0,0,1-.093-.174,1.026,1.026,0,0,1-.057-.189.993.993,0,0,1-.02-.2,1.011,1.011,0,0,1,.02-.2,1.076,1.076,0,0,1,.057-.189,1.031,1.031,0,0,1,.093-.173,1,1,0,0,1,.278-.279,1,1,0,0,1,.174-.093,1,1,0,0,1,1.1.219,1,1,0,0,1,.219.327,1.067,1.067,0,0,1,.057.189,1.009,1.009,0,0,1-.989,1.206Z" transform="translate(-82.486 -174.112)"/>
      <path id="Trazado_1078514" data-name="Trazado 1078514" d="M76.855,26.94l-3.588-6.495c0-.788-.021-3.166-.058-3.656,0-.012,0-.024,0-.036l-.155-1.4c0-.012,0-.023,0-.035A16.6,16.6,0,0,0,66.155,3.908,23.227,23.227,0,0,0,52.795,0h-.163a20.651,20.651,0,0,0-7.775,39.784L43.048,48.3a1.008,1.008,0,0,0,.854,1.209L59.71,51.6a1.007,1.007,0,0,0,1.106-.737l2.083-7.74.5.045c.931.084,2.106.185,2.927.255.709.06,4.258.362,4.444.362a2.735,2.735,0,0,0,2-.834,2.609,2.609,0,0,0,.729-1.91V30.6l1.717-.292a2.287,2.287,0,0,0,1.646-3.365ZM75.1,28.165a.261.261,0,0,1-.2.148l-.017,0-2.563.436a1.008,1.008,0,0,0-.839.994V41.061q0,.021,0,.042a.6.6,0,0,1-.169.454.733.733,0,0,1-.521.213c-.574-.036-7.779-.642-8.444-.726a1.008,1.008,0,0,0-1.168.727L59.1,49.488,45.246,47.651,46.8,40.329l6.962,1.359a1.008,1.008,0,1,0,.386-1.979l-7.855-1.534a18.634,18.634,0,0,1,6.338-36.16h.147C62.821,2.095,69.821,7.3,71.049,15.6l.151,1.359c.02.306.036,1.524.044,2.5H69.083a1.008,1.008,0,0,0,0,2.016h2.448l3.56,6.444A.261.261,0,0,1,75.1,28.165Z"/>
      <path id="Trazado_1078515" data-name="Trazado 1078515" d="M102.654,45.729a10.014,10.014,0,0,0-9.123,5.882,10.015,10.015,0,0,0-7.783,14.613l-1.018,3.8a1.008,1.008,0,0,0,1.234,1.235l3.69-.988a9.981,9.981,0,0,0,4.958,1.315h0a10.029,10.029,0,0,0,9.123-5.883,10,10,0,0,0,3.877-1.255l3.69.988a1.008,1.008,0,0,0,1.234-1.235l-1.018-3.8a10.015,10.015,0,0,0-8.867-14.671ZM94.614,69.567h0a7.969,7.969,0,0,1-4.267-1.235,1.008,1.008,0,0,0-.8-.122l-2.417.647.671-2.5a1.008,1.008,0,0,0-.1-.768,8,8,0,1,1,14.861-4.948h-9a1.008,1.008,0,1,0,0,2.016h8.976c0,.03-.007.061-.012.091s-.01.064-.015.1c-.016.1-.034.2-.053.3l-.016.077q-.034.161-.074.319l-.012.049q-.046.177-.1.352l0,.012A8.014,8.014,0,0,1,94.614,69.567Zm14.854-9.038.671,2.5-2.417-.647a1.007,1.007,0,0,0-.8.122,7.972,7.972,0,0,1-2.488,1.034,10,10,0,0,0,.164-1.194v-.014c.006-.073.01-.147.014-.22,0-.012,0-.024,0-.036,0-.069.006-.138.008-.207,0-.016,0-.033,0-.049q0-.127,0-.255c0-.151,0-.3-.011-.45,0-.013,0-.027,0-.04-.007-.142-.017-.283-.03-.423,0-.02,0-.039-.005-.059q-.02-.2-.048-.407l-.009-.067q-.029-.2-.066-.4l-.013-.065q-.039-.2-.085-.395l-.014-.056q-.049-.2-.1-.4l-.011-.036q-.059-.2-.127-.405l0-.007c-.045-.134-.094-.266-.145-.4l-.016-.041q-.073-.187-.155-.371l-.024-.056q-.08-.179-.167-.354l-.03-.061q-.087-.173-.181-.343l-.033-.059q-.1-.17-.2-.336l-.031-.049q-.106-.17-.218-.336l-.021-.031q-.115-.168-.236-.332l-.01-.014c-.082-.109-.166-.216-.252-.322l-.031-.038q-.124-.151-.255-.3l-.043-.049q-.128-.142-.262-.28l-.049-.051q-.134-.136-.273-.267l-.05-.047q-.141-.131-.288-.258l-.045-.038c-.1-.086-.2-.17-.308-.252l-.029-.022q-.159-.124-.323-.241l-.019-.014q-.165-.118-.336-.229l-.044-.029q-.164-.106-.333-.205l-.057-.034q-.166-.1-.337-.187l-.063-.033q-.171-.089-.345-.172l-.062-.029q-.178-.083-.359-.16l-.052-.021c-.126-.052-.253-.1-.381-.149l-.029-.01q-.195-.07-.393-.133l-.024-.008c-.132-.041-.266-.079-.4-.115l-.051-.014q-.2-.051-.393-.094l-.064-.014q-.2-.041-.394-.075l-.069-.011q-.2-.032-.4-.057l-.028,0a8,8,0,0,1,13.772,8.14A1.007,1.007,0,0,0,109.468,60.53Z" transform="translate(-47.319 -41.119)"/>
    </g>
  </g>
</svg>
