<svg xmlns="http://www.w3.org/2000/svg" xmlns:xlink="http://www.w3.org/1999/xlink" width="93.934" height="93.934" viewBox="0 0 93.934 93.934">
  <defs>
    <filter id="Trazado_982547" x="0" y="0" width="93.934" height="93.934" filterUnits="userSpaceOnUse">
      <feOffset dy="3" input="SourceAlpha"/>
      <feGaussianBlur stdDeviation="3" result="blur"/>
      <feFlood flood-opacity="0.161"/>
      <feComposite operator="in" in2="blur"/>
      <feComposite in="SourceGraphic"/>
    </filter>
  </defs>
  <g id="Grupo_1207744" data-name="Grupo 1207744" transform="translate(-609 -6337.091)">
    <g id="Grupo_1206679" data-name="Grupo 1206679" transform="translate(420.598 -3142.478)">
      <g id="Grupo_1183665" data-name="Grupo 1183665" transform="translate(-0.598 8175.569)">
        <g id="Grupo_1181743" data-name="Grupo 1181743" transform="translate(0 569)">
          <g id="Grupo_1175133" data-name="Grupo 1175133" transform="translate(-0.033 -1251)">
            <g id="Grupo_1167337" data-name="Grupo 1167337" transform="translate(198.033 1992)">
              <g id="Grupo_1166720" data-name="Grupo 1166720">
                <g id="Grupo_1164305" data-name="Grupo 1164305">
                  <g id="Grupo_1163948" data-name="Grupo 1163948">
                    <g id="Grupo_1158168" data-name="Grupo 1158168">
                      <g id="Grupo_1152576" data-name="Grupo 1152576">
                        <g id="Grupo_1148633" data-name="Grupo 1148633">
                          <g id="Grupo_1148525" data-name="Grupo 1148525">
                            <g transform="matrix(1, 0, 0, 1, -9, -6)" filter="url(#Trazado_982547)">
                              <g id="Trazado_982547-2" data-name="Trazado 982547" transform="translate(9 6)" fill="#eaf9f8">
                                <path d="M 37.966796875 74.43359375 C 33.04315185546875 74.43359375 28.26757431030273 73.46962738037109 23.77274131774902 71.56847381591797 C 19.43047523498535 69.73184967041016 15.53040790557861 67.10224914550781 12.18087482452393 63.75271987915039 C 8.831341743469238 60.4031867980957 6.201741218566895 56.50312042236328 4.365118980407715 52.16086196899414 C 2.463963508605957 47.66601943969727 1.499996900558472 42.89044189453125 1.499996900558472 37.966796875 C 1.499996900558472 33.04315185546875 2.463963508605957 28.26757431030273 4.365118980407715 23.77274131774902 C 6.201741218566895 19.43047523498535 8.831341743469238 15.53040790557861 12.18087482452393 12.18087482452393 C 15.53040790557861 8.831341743469238 19.43047523498535 6.201741218566895 23.77274131774902 4.365118980407715 C 28.26757431030273 2.463963508605957 33.04315185546875 1.499996900558472 37.966796875 1.499996900558472 C 42.89044189453125 1.499996900558472 47.66601943969727 2.463963508605957 52.16086196899414 4.365118980407715 C 56.50312042236328 6.201741218566895 60.4031867980957 8.831341743469238 63.75271987915039 12.18087482452393 C 67.10224914550781 15.53040790557861 69.73184967041016 19.43047523498535 71.56847381591797 23.77274131774902 C 73.46962738037109 28.26757431030273 74.43359375 33.04315185546875 74.43359375 37.966796875 C 74.43359375 42.89044189453125 73.46962738037109 47.66601943969727 71.56847381591797 52.16086196899414 C 69.73184967041016 56.50313186645508 67.10224914550781 60.4031867980957 63.75271987915039 63.75271987915039 C 60.4031867980957 67.10224914550781 56.50313186645508 69.73184967041016 52.16086196899414 71.56847381591797 C 47.66601943969727 73.46962738037109 42.89044189453125 74.43359375 37.966796875 74.43359375 Z" stroke="none"/>
                                <path d="M 37.966796875 3 C 33.2449836730957 3 28.66600799560547 3.924095153808594 24.35705947875977 5.746635437011719 C 20.19359588623047 7.507637023925781 16.45379638671875 10.02928161621094 13.24153518676758 13.24153518676758 C 10.02927398681641 16.45379638671875 7.507621765136719 20.19359588623047 5.746635437011719 24.35705947875977 C 3.924095153808594 28.66600799560547 3 33.2449836730957 3 37.966796875 C 3 42.6886100769043 3.924095153808594 47.26758575439453 5.746635437011719 51.57653427124023 C 7.507621765136719 55.73999786376953 10.02927398681641 59.47979736328125 13.24153518676758 62.69205856323242 C 16.45379638671875 65.90431976318359 20.19359588623047 68.42597198486328 24.35705947875977 70.18695831298828 C 28.66600799560547 72.00949859619141 33.2449836730957 72.93359375 37.966796875 72.93359375 C 42.6886100769043 72.93359375 47.26758575439453 72.00949859619141 51.57653427124023 70.18695831298828 C 55.73999786376953 68.42597198486328 59.47979736328125 65.90431976318359 62.69205856323242 62.69205856323242 C 65.90431976318359 59.47979736328125 68.42597198486328 55.73999786376953 70.18695831298828 51.57653427124023 C 72.00949859619141 47.26758575439453 72.93359375 42.6886100769043 72.93359375 37.966796875 C 72.93359375 33.2449836730957 72.00949859619141 28.66600799560547 70.18695831298828 24.35705947875977 C 68.42597198486328 20.19359588623047 65.90431976318359 16.45379638671875 62.69205856323242 13.24153518676758 C 59.47979736328125 10.02928161621094 55.73999786376953 7.507637023925781 51.57653427124023 5.746635437011719 C 47.26758575439453 3.924095153808594 42.6886100769043 3 37.966796875 3 M 37.966796875 0 C 58.93528366088867 0 75.93359375 16.99832153320312 75.93359375 37.966796875 C 75.93359375 58.93528366088867 58.93528366088867 75.93359375 37.966796875 75.93359375 C 16.99831008911133 75.93359375 0 58.93528366088867 0 37.966796875 C 0 16.99832153320312 16.99831008911133 0 37.966796875 0 Z" stroke="none" fill="#1f7069"/>
                              </g>
                            </g>
                          </g>
                        </g>
                      </g>
                    </g>
                  </g>
                </g>
              </g>
            </g>
          </g>
        </g>
      </g>
    </g>
    <g id="charlar" transform="translate(632.823 6357.871)">
      <g id="Grupo_1207742" data-name="Grupo 1207742" transform="translate(0.687 0.725)">
        <path id="Trazado_1078516" data-name="Trazado 1078516" d="M48.6,186.172v1.367a1.356,1.356,0,0,1-1.356,1.356H39.069a1.356,1.356,0,0,1-1.356-1.356v-1.367a5.445,5.445,0,0,1,10.89,0Z" transform="translate(-34.99 -165.072)" fill="#ace094"/>
        <path id="Trazado_1078517" data-name="Trazado 1078517" d="M42.775,185.226a3.975,3.975,0,0,0-1.321,3.2v3.616H39.069a1.356,1.356,0,0,1-1.356-1.356v-1.367a5.447,5.447,0,0,1,3.62-5.132C42.147,184.771,42.775,185.226,42.775,185.226Z" transform="translate(-34.99 -168.219)" fill="#8dd470"/>
        <path id="Trazado_1078518" data-name="Trazado 1078518" d="M24.3,22.433,16.171,24.5l-3.055-.777-5.073-1.29a8.167,8.167,0,0,1,8.107-7.356h.02A8.168,8.168,0,0,1,24.3,22.433Z" transform="translate(-8.002 -14.396)" fill="#687daa"/>
        <path id="Trazado_1078519" data-name="Trazado 1078519" d="M13.116,23.723l-5.073-1.29a8.167,8.167,0,0,1,8.107-7.356,12.193,12.193,0,0,0-3.034,8.646Z" transform="translate(-8.002 -14.396)" fill="#4a66a0"/>
        <path id="Trazado_1078520" data-name="Trazado 1078520" d="M23.929,73.6a8.168,8.168,0,0,1-8.168,8.167c-.128,0-.256,0-.382-.009L14.1,81.062l-1.23.175A8.171,8.171,0,0,1,7.593,73.6a8.028,8.028,0,0,1,.041-.812l.231.521,3.385.215,1.52-1.436a6.713,6.713,0,0,0,1.9-1.226,1.609,1.609,0,0,1,2.18,0,8.032,8.032,0,0,0,4.641,1.921.412.412,0,0,0,.047,0h.009a11.008,11.008,0,0,0,2.34,0,8.027,8.027,0,0,1,.041.812Z" transform="translate(-7.593 -64.75)" fill="#db9e82"/>
        <path id="Trazado_1078521" data-name="Trazado 1078521" d="M15.378,98.368a8.167,8.167,0,0,1-7.785-8.158,8.028,8.028,0,0,1,.041-.812,10.965,10.965,0,0,0,2.342,0l.045,0h.008a9.406,9.406,0,0,0,2.74-.7A14.656,14.656,0,0,0,15.378,98.368Z" transform="translate(-7.593 -81.361)" fill="#c8866a"/>
        <path id="Trazado_1078522" data-name="Trazado 1078522" d="M364.833,419.582v1.367a1.356,1.356,0,0,1-1.356,1.356H355.3a1.356,1.356,0,0,1-1.356-1.356v-1.367a5.445,5.445,0,1,1,10.89,0Z" transform="translate(-322.634 -377.382)" fill="#fd7a6e"/>
        <path id="Trazado_1078523" data-name="Trazado 1078523" d="M357.856,419.831v2.193a1.581,1.581,0,0,0,.556,1.191H355.3a1.356,1.356,0,0,1-1.356-1.356v-1.367a5.446,5.446,0,0,1,4.452-5.354c.438.723.764,1.267.764,1.267A4.166,4.166,0,0,0,357.856,419.831Z" transform="translate(-322.634 -378.292)" fill="#f85647"/>
        <path id="Trazado_1078524" data-name="Trazado 1078524" d="M341.134,255.331l-8.06,2.5-2.847-.885-5.214-1.62a8.169,8.169,0,0,1,7.715-6.836c.115-.005.23-.008.346-.008A8.168,8.168,0,0,1,341.134,255.331Z" transform="translate(-296.319 -226.706)" fill="#687daa"/>
        <path id="Trazado_1078525" data-name="Trazado 1078525" d="M330.227,257.033l-5.214-1.62a8.169,8.169,0,0,1,7.715-6.836A13.681,13.681,0,0,0,330.227,257.033Z" transform="translate(-296.319 -226.788)" fill="#4a66a0"/>
        <path id="Trazado_1078526" data-name="Trazado 1078526" d="M340.159,311.444a8.168,8.168,0,0,1-8.167,8.168c-.077,0-.154,0-.23,0l-1.649-.659-1.016.134h0a8.17,8.17,0,0,1-5.273-7.64,8.079,8.079,0,0,1,.108-1.323l2.4.335,3-1.572a10.379,10.379,0,0,1,2.112.7,1.366,1.366,0,0,0,1.107,0c3.7-1.645,6.123-.618,7.507.541A8.072,8.072,0,0,1,340.159,311.444Z" transform="translate(-295.236 -281.496)" fill="#ffddcf"/>
        <path id="Trazado_1078527" data-name="Trazado 1078527" d="M331.762,319.613a8.168,8.168,0,0,1-7.939-8.165,8.079,8.079,0,0,1,.108-1.323,6.113,6.113,0,0,1,5.4-1.237,15.013,15.013,0,0,0,2.436,10.725Z" transform="translate(-295.236 -281.5)" fill="#ffcbbe"/>
        <path id="Trazado_1078528" data-name="Trazado 1078528" d="M257.976,10.259v6.828a2.712,2.712,0,0,1-2.712,2.712h-9.777a2.708,2.708,0,0,0-1.917.794l-3.7,3.7a1.356,1.356,0,0,1-2.315-.959V21.155A1.355,1.355,0,0,0,236.2,19.8h-.015a2.712,2.712,0,0,1-2.712-2.712V10.259a2.712,2.712,0,0,1,2.712-2.712h19.079a2.712,2.712,0,0,1,2.712,2.712Z" transform="translate(-213.054 -7.547)" fill="#fad989"/>
        <path id="Trazado_1078529" data-name="Trazado 1078529" d="M244.536,19.97a2.709,2.709,0,0,0-.966.622l-3.7,3.7a1.356,1.356,0,0,1-2.315-.959V21.155A1.355,1.355,0,0,0,236.2,19.8h-.015a2.712,2.712,0,0,1-2.712-2.712V10.259a2.712,2.712,0,0,1,2.712-2.712h7.2a2.707,2.707,0,0,0-1.194,2.247v7.489A2.71,2.71,0,0,0,244.536,19.97Z" transform="translate(-213.054 -7.547)" fill="#fdc072"/>
        <path id="Trazado_1078530" data-name="Trazado 1078530" d="M32.1,251.2v6.828a2.712,2.712,0,0,1-2.712,2.712h-.015a1.355,1.355,0,0,0-1.356,1.356v2.177a1.356,1.356,0,0,1-2.315.959l-3.7-3.7a2.709,2.709,0,0,0-1.917-.795H10.3a2.712,2.712,0,0,1-2.712-2.712V251.2a2.712,2.712,0,0,1,2.712-2.712h.011l1.888.918,5-.918H29.384A2.712,2.712,0,0,1,32.1,251.2Z" transform="translate(-7.593 -226.706)" fill="#00c9df"/>
        <path id="Trazado_1078531" data-name="Trazado 1078531" d="M17.251,260.739H10.3a2.712,2.712,0,0,1-2.712-2.712V251.2a2.712,2.712,0,0,1,2.712-2.712h6.9a2.708,2.708,0,0,0-1.389,2.368v7.49A2.709,2.709,0,0,0,17.251,260.739Z" transform="translate(-7.593 -226.706)" fill="#00bad5"/>
        <path id="Trazado_1078532" data-name="Trazado 1078532" d="M335.08,46.559a1.361,1.361,0,0,1-1.361,1.36h-11.7l-.781-1.153.781-1.568h11.7A1.361,1.361,0,0,1,335.08,46.559Z" transform="translate(-292.88 -41.794)" fill="#687daa"/>
        <path id="Trazado_1078533" data-name="Trazado 1078533" d="M269.585,45.2v2.722h-4.63a1.361,1.361,0,1,1,0-2.722Z" transform="translate(-240.451 -41.794)" fill="#4a66a0"/>
        <path id="Trazado_1078534" data-name="Trazado 1078534" d="M104.407,317.617a1.361,1.361,0,0,1-1.361,1.361h-12.2l-.762-1.23.762-1.492h12.2A1.361,1.361,0,0,1,104.407,317.617Z" transform="translate(-82.626 -288.35)" fill="#f3f5fc"/>
        <path id="Trazado_1078535" data-name="Trazado 1078535" d="M39.074,316.258h4.135v2.722H39.074a1.361,1.361,0,1,1,0-2.722Z" transform="translate(-34.99 -288.351)" fill="#e8ecf9"/>
      </g>
      <g id="Grupo_1207743" data-name="Grupo 1207743" transform="translate(0.001 0.047)">
        <path id="Trazado_1078536" data-name="Trazado 1078536" d="M325.111,240.987a8.848,8.848,0,0,0-8.554,11.106.678.678,0,1,0,1.311-.347,7.485,7.485,0,0,1-.192-2.87c1.253-.959,3.381-1.722,6.605-.289a2.046,2.046,0,0,0,1.658,0c3.218-1.431,5.343-.673,6.6.283a7.488,7.488,0,0,1-13.394,5.486.678.678,0,0,0-1.08.819,8.854,8.854,0,0,0,2.85,2.451,6.12,6.12,0,0,0-1.925,4.457v1.367a2.036,2.036,0,0,0,2.034,2.034H329.2a2.036,2.036,0,0,0,2.034-2.034v-1.367a6.118,6.118,0,0,0-1.931-4.464,8.845,8.845,0,0,0-4.192-16.634Zm4.767,21.1v1.367a.679.679,0,0,1-.678.678h-8.178a.679.679,0,0,1-.678-.678v-1.367a4.765,4.765,0,0,1,1.966-3.855,8.9,8.9,0,0,0,5.6,0A4.761,4.761,0,0,1,329.878,262.084Zm-4.489-14.736a.686.686,0,0,1-.557,0c-2.9-1.289-5.093-1.049-6.661-.34a7.491,7.491,0,0,1,13.873,0c-1.567-.707-3.759-.944-6.655.344Z" transform="translate(-287.67 -219.206)"/>
        <path id="Trazado_1078537" data-name="Trazado 1078537" d="M248.444.047H229.365a3.394,3.394,0,0,0-3.39,3.39v6.828a3.4,3.4,0,0,0,3.405,3.39.679.679,0,0,1,.678.678V16.51a2.033,2.033,0,0,0,3.472,1.438l3.7-3.7a2.021,2.021,0,0,1,1.438-.6h9.778a3.394,3.394,0,0,0,3.39-3.39V3.437a3.394,3.394,0,0,0-3.39-3.39Zm2.034,10.218a2.036,2.036,0,0,1-2.034,2.034h-9.778a3.368,3.368,0,0,0-2.4.993l-3.7,3.7a.678.678,0,0,1-1.157-.479V14.332A2.036,2.036,0,0,0,229.38,12.3a2.044,2.044,0,0,1-2.049-2.034V3.437A2.036,2.036,0,0,1,229.365,1.4h19.079a2.036,2.036,0,0,1,2.034,2.034Z" transform="translate(-205.547 -0.047)"/>
        <path id="Trazado_1078538" data-name="Trazado 1078538" d="M22.478,28.677l-7.5,0a6.119,6.119,0,0,0-1.932-4.464A8.845,8.845,0,1,0,.434,19.138a.678.678,0,1,0,1.29-.416,7.526,7.526,0,0,1-.367-2.38,9.495,9.495,0,0,0,6.869-2.16.928.928,0,0,1,1.257,0,9.465,9.465,0,0,0,6.859,2.161,7.489,7.489,0,0,1-13.2,4.927.678.678,0,1,0-1.034.878,8.852,8.852,0,0,0,2.55,2.065,6.121,6.121,0,0,0-1.931,4.531A3.4,3.4,0,0,0,.009,32.067v6.828a3.394,3.394,0,0,0,3.39,3.39h9.778a2.02,2.02,0,0,1,1.438.6l3.7,3.7a2.034,2.034,0,0,0,3.472-1.438V42.963a.679.679,0,0,1,.678-.678,3.4,3.4,0,0,0,3.405-3.39V32.067a3.394,3.394,0,0,0-3.39-3.39ZM10.406,13.187a2.29,2.29,0,0,0-3.1,0,8.264,8.264,0,0,1-5.809,1.8,7.495,7.495,0,0,1,14.711,0,8.073,8.073,0,0,1-5.8-1.8ZM6.06,24.816a8.853,8.853,0,0,0,5.591,0,4.762,4.762,0,0,1,1.972,3.862l-9.534,0A4.763,4.763,0,0,1,6.06,24.816ZM24.512,38.894a2.044,2.044,0,0,1-2.049,2.034,2.036,2.036,0,0,0-2.034,2.034V45.14a.678.678,0,0,1-1.157.479l-3.7-3.7a3.368,3.368,0,0,0-2.4-.993H3.4a2.036,2.036,0,0,1-2.034-2.034V32.067A2.036,2.036,0,0,1,3.4,30.033H22.478a2.036,2.036,0,0,1,2.034,2.034Z" transform="translate(-0.001 -6.896)"/>
        <path id="Trazado_1078539" data-name="Trazado 1078539" d="M258.132,41.774h16.335a2.039,2.039,0,1,0,0-4.078H272.23a.678.678,0,0,0,0,1.356h2.237a.683.683,0,1,1,0,1.366H258.132a.683.683,0,1,1,0-1.366h10.934a.678.678,0,0,0,0-1.356H258.132a2.039,2.039,0,1,0,0,4.078Z" transform="translate(-232.943 -34.293)"/>
        <path id="Trazado_1078540" data-name="Trazado 1078540" d="M48.585,308.753H32.249a2.039,2.039,0,1,0,0,4.079H48.585a2.039,2.039,0,1,0,0-4.079Zm0,2.723H32.249a.683.683,0,1,1,0-1.367H48.585a.683.683,0,1,1,0,1.367Z" transform="translate(-27.479 -280.847)"/>
        <path id="Trazado_1078541" data-name="Trazado 1078541" d="M260.854,97.929H256.77a.678.678,0,1,0,0,1.356h4.084a.678.678,0,1,0,0-1.356Z" transform="translate(-232.942 -89.081)"/>
        <path id="Trazado_1078542" data-name="Trazado 1078542" d="M343.677,97.929h-4.084a.678.678,0,0,0,0,1.356h4.084a.678.678,0,0,0,0-1.356Z" transform="translate(-308.278 -89.081)"/>
        <path id="Trazado_1078543" data-name="Trazado 1078543" d="M426.5,97.929h-4.084a.678.678,0,0,0,0,1.356H426.5a.678.678,0,0,0,0-1.356Z" transform="translate(-383.616 -89.081)"/>
        <path id="Trazado_1078544" data-name="Trazado 1078544" d="M49.946,278.634H30.888a.678.678,0,0,0,0,1.356H49.946a.678.678,0,0,0,0-1.356Z" transform="translate(-27.479 -253.45)"/>
      </g>
    </g>
  </g>
</svg>
