<svg xmlns="http://www.w3.org/2000/svg" xmlns:xlink="http://www.w3.org/1999/xlink" width="113" height="113" viewBox="0 0 113 113">
  <defs>
    <filter id="Trazado_982547" x="0" y="0" width="113" height="113" filterUnits="userSpaceOnUse">
      <feOffset dy="3" input="SourceAlpha"/>
      <feGaussianBlur stdDeviation="3" result="blur"/>
      <feFlood flood-opacity="0.161"/>
      <feComposite operator="in" in2="blur"/>
      <feComposite in="SourceGraphic"/>
    </filter>
  </defs>
  <g id="Grupo_1207745" data-name="Grupo 1207745" transform="translate(-324 -6715.933)">
    <g id="Grupo_1206680" data-name="Grupo 1206680" transform="translate(0.598 -5840.811)">
      <g id="Grupo_1174764" data-name="Grupo 1174764" transform="translate(-0.598 10594.568)">
        <g id="Grupo_1173868" data-name="Grupo 1173868" transform="translate(333 1968.175)">
          <g id="Grupo_1172010" data-name="Grupo 1172010">
            <g id="Grupo_1171046" data-name="Grupo 1171046">
              <g id="Grupo_1148525" data-name="Grupo 1148525">
                <g transform="matrix(1, 0, 0, 1, -9, -6)" filter="url(#Trazado_982547)">
                  <g id="Trazado_982547-2" data-name="Trazado 982547" transform="translate(9 6)" fill="#f4fdfe">
                    <path d="M 47.5 93.5 C 41.28937149047852 93.5 35.26533508300781 92.28397369384766 29.59518623352051 89.88570404052734 C 24.11771965026855 87.56893157958984 19.19813346862793 84.25196075439453 14.97309303283691 80.02691650390625 C 10.74804019927979 75.80186462402344 7.431066513061523 70.88229370117188 5.114293098449707 65.40481567382812 C 2.716026782989502 59.73468017578125 1.5 53.71062850952148 1.5 47.5 C 1.5 41.28937149047852 2.716026782989502 35.26533508300781 5.114293098449707 29.59518623352051 C 7.431066513061523 24.11771965026855 10.74804019927979 19.19813346862793 14.97309303283691 14.97309303283691 C 19.19813346862793 10.74804019927979 24.11771965026855 7.431066513061523 29.59518623352051 5.114293098449707 C 35.26533508300781 2.716026782989502 41.28937149047852 1.5 47.5 1.5 C 53.71062850952148 1.5 59.73468017578125 2.716026782989502 65.40481567382812 5.114293098449707 C 70.88229370117188 7.431066513061523 75.80186462402344 10.74804019927979 80.02691650390625 14.97309303283691 C 84.25196075439453 19.19813346862793 87.56893157958984 24.11771965026855 89.88570404052734 29.59518623352051 C 92.28397369384766 35.26533508300781 93.5 41.28937149047852 93.5 47.5 C 93.5 53.71062850952148 92.28397369384766 59.73468017578125 89.88570404052734 65.40481567382812 C 87.56893157958984 70.88229370117188 84.25196075439453 75.80186462402344 80.02691650390625 80.02691650390625 C 75.80186462402344 84.25196075439453 70.88229370117188 87.56893157958984 65.40481567382812 89.88570404052734 C 59.73468017578125 92.28397369384766 53.71062850952148 93.5 47.5 93.5 Z" stroke="none"/>
                    <path d="M 47.5 3 C 41.49121475219727 3 35.66376876831055 4.176155090332031 30.17950439453125 6.495796203613281 C 24.88084411621094 8.736953735351562 20.12152099609375 11.94598388671875 16.03375244140625 16.03375244140625 C 11.94598388671875 20.12152099609375 8.736953735351562 24.88084411621094 6.495796203613281 30.17950439453125 C 4.176155090332031 35.66376876831055 3 41.49121475219727 3 47.5 C 3 53.50878524780273 4.176155090332031 59.33623123168945 6.495796203613281 64.82049560546875 C 8.736953735351562 70.11915588378906 11.94598388671875 74.87847900390625 16.03375244140625 78.96624755859375 C 20.12152099609375 83.05401611328125 24.88084411621094 86.26304626464844 30.17950439453125 88.50419616699219 C 35.66376876831055 90.82384490966797 41.49121475219727 92 47.5 92 C 53.50878524780273 92 59.33623123168945 90.82384490966797 64.82049560546875 88.50419616699219 C 70.11915588378906 86.26304626464844 74.87847900390625 83.05401611328125 78.96624755859375 78.96624755859375 C 83.05401611328125 74.87847900390625 86.26304626464844 70.11915588378906 88.50419616699219 64.82049560546875 C 90.82384490966797 59.33623123168945 92 53.50878524780273 92 47.5 C 92 41.49121475219727 90.82384490966797 35.66376876831055 88.50419616699219 30.17950439453125 C 86.26304626464844 24.88084411621094 83.05401611328125 20.12152099609375 78.96624755859375 16.03375244140625 C 74.87847900390625 11.94598388671875 70.11915588378906 8.736953735351562 64.82049560546875 6.495796203613281 C 59.33623123168945 4.176155090332031 53.50878524780273 3 47.5 3 M 47.5 0 C 73.7335205078125 0 95 21.2664794921875 95 47.5 C 95 73.7335205078125 73.7335205078125 95 47.5 95 C 21.2664794921875 95 0 73.7335205078125 0 47.5 C 0 21.2664794921875 21.2664794921875 0 47.5 0 Z" stroke="none" fill="#56838a"/>
                  </g>
                </g>
              </g>
            </g>
          </g>
        </g>
      </g>
    </g>
    <g id="auditivo" transform="translate(326.943 6736.301)">
      <g id="Grupo_1207727" data-name="Grupo 1207727" transform="translate(29.027 0.971)">
        <path id="Trazado_1078484" data-name="Trazado 1078484" d="M64.6,12.687S59.417,7.5,50.08,7.5,35.556,15.8,35.556,29.286C35.556,50.4,47.1,52.869,55.395,67.9a7.486,7.486,0,0,0,6.537,3.921h.45a7.41,7.41,0,0,0,7.41-7.41V24.687a16.473,16.473,0,0,0-5.187-12Z" transform="translate(-35.556 -7.5)" fill="#ffe09c"/>
        <g id="Grupo_1207726" data-name="Grupo 1207726" transform="translate(13.487 19.711)">
          <path id="Trazado_1078485" data-name="Trazado 1078485" d="M140.05,167.231a9.781,9.781,0,0,0,3.452,10.034l7.432,5.839a2.075,2.075,0,0,0,3.357-1.631V159.806h-4.407a10.028,10.028,0,0,0-9.833,7.425Z" transform="translate(-139.766 -159.806)" fill="#ffd18d"/>
        </g>
        <path id="Trazado_1078486" data-name="Trazado 1078486" d="M222,267.412a2.075,2.075,0,0,1-2.075-2.075v-7.262a2.075,2.075,0,0,1,4.15,0v7.262A2.075,2.075,0,0,1,222,267.412Z" transform="translate(-196.067 -223.84)" fill="#fbbd80"/>
        <path id="Trazado_1078487" data-name="Trazado 1078487" d="M61.931,69.1a4.389,4.389,0,0,1-3.812-2.313,70.553,70.553,0,0,0-9.335-12.683c-5.652-6.491-10.116-11.617-10.116-24.426,0-4.594.775-15.555,7.954-18.111a3.707,3.707,0,0,0,2.42-3.512v-.1c-8.676.6-13.487,8.754-13.487,21.727C35.556,50.794,47.1,53.265,55.4,68.3a7.486,7.486,0,0,0,6.537,3.921h.45A7.394,7.394,0,0,0,68.41,69.1Z" transform="translate(-35.556 -7.896)" fill="#ffd18d"/>
      </g>
      <g id="Grupo_1207728" data-name="Grupo 1207728" transform="translate(28.057 0)">
        <path id="Trazado_1078488" data-name="Trazado 1078488" d="M63.263,49.8a.971.971,0,0,0-.971.971v7.114a6.446,6.446,0,0,1-6.439,6.439H55.4A6.531,6.531,0,0,1,49.716,60.9a67.867,67.867,0,0,0-9.073-12.309C34.931,42.034,30,36.37,30,22.757c0-6.49,1.246-11.822,3.6-15.419a11.286,11.286,0,0,1,9.951-5.4,20.749,20.749,0,0,1,13.839,4.9.971.971,0,0,0,1.371-1.374C58.539,5.248,53.18,0,43.552,0A13.288,13.288,0,0,0,31.976,6.274c-2.564,3.914-3.919,9.613-3.919,16.482,0,6.55,1.067,11.761,3.357,16.4,2.048,4.148,4.825,7.336,7.765,10.712A66.292,66.292,0,0,1,48.017,61.84,8.472,8.472,0,0,0,55.4,66.262h.45a8.39,8.39,0,0,0,8.38-8.38V50.767A.971.971,0,0,0,63.263,49.8Z" transform="translate(-28.057 0)"/>
        <path id="Trazado_1078489" data-name="Trazado 1078489" d="M91.8,60.688a.97.97,0,0,0,1.091-.833c.057-.426,1.346-10.478-2.723-15.178-1.967-2.272-4.9-4.595-11.726-4.595a8.418,8.418,0,0,0-6.73,3.243c-2.374,2.931-3.577,7.751-3.577,14.326,0,5.705.894,10.177,2.812,14.073,1.761,3.576,4.205,6.382,7.038,9.634,1.071,1.23,2.178,2.5,3.3,3.88a.971.971,0,1,0,1.5-1.227c-1.145-1.4-2.262-2.686-3.346-3.931-2.741-3.146-5.108-5.864-6.757-9.213-1.782-3.619-2.613-7.818-2.613-13.215,0-10.078,2.971-15.628,8.366-15.628,6.03,0,8.493,1.886,10.258,3.924,1.82,2.1,2.363,5.689,2.463,8.659H87.18A10.744,10.744,0,0,0,80.542,73.8l7.432,5.839A3.045,3.045,0,0,0,92.9,77.243V70.1a3.045,3.045,0,1,0-6.091,0v3.112a.971.971,0,0,0,1.941,0V70.1a1.1,1.1,0,1,1,2.208,0v7.143a1.1,1.1,0,0,1-1.786.868l-7.432-5.839A8.8,8.8,0,0,1,87.18,56.547h3.994c-.041,1.77-.2,3.016-.206,3.051A.971.971,0,0,0,91.8,60.688Z" transform="translate(-62.95 -34.895)"/>
        <path id="Trazado_1078490" data-name="Trazado 1078490" d="M246.6,152.588h-6.225a.97.97,0,0,0-.909.63l-2.12,5.653L233,144.97a.971.971,0,0,0-1.847-.017l-3.342,10.027-2.107-4.915a.971.971,0,0,0-1.76-.052l-1.807,3.613H213.4a.971.971,0,1,0,0,1.941h9.337a.97.97,0,0,0,.868-.537l1.139-2.278,2.288,5.338a.971.971,0,0,0,1.813-.075l3.2-9.6,4.29,13.73a.971.971,0,0,0,.9.681h.027a.971.971,0,0,0,.909-.63l2.876-7.67H246.6a.971.971,0,1,0,0-1.941Z" transform="translate(-188.567 -125.615)"/>
      </g>
    </g>
  </g>
</svg>
