<svg xmlns="http://www.w3.org/2000/svg" xmlns:xlink="http://www.w3.org/1999/xlink" width="113" height="113" viewBox="0 0 113 113">
  <defs>
    <filter id="Trazado_982547" x="0" y="0" width="113" height="113" filterUnits="userSpaceOnUse">
      <feOffset dy="3" input="SourceAlpha"/>
      <feGaussianBlur stdDeviation="3" result="blur"/>
      <feFlood flood-opacity="0.161"/>
      <feComposite operator="in" in2="blur"/>
      <feComposite in="SourceGraphic"/>
    </filter>
  </defs>
  <g id="Grupo_1207749" data-name="Grupo 1207749" transform="translate(-743.5 -6715.933)">
    <g id="Grupo_1207748" data-name="Grupo 1207748">
      <g id="Grupo_1206681" data-name="Grupo 1206681" transform="translate(0.598 -5840.811)">
        <g id="Grupo_1174763" data-name="Grupo 1174763" transform="translate(-0.598 10594.568)">
          <g id="Grupo_1173869" data-name="Grupo 1173869" transform="translate(752.5 1968.175)">
            <g id="Grupo_1172010" data-name="Grupo 1172010">
              <g id="Grupo_1171046" data-name="Grupo 1171046">
                <g id="Grupo_1148525" data-name="Grupo 1148525">
                  <g transform="matrix(1, 0, 0, 1, -9, -6)" filter="url(#Trazado_982547)">
                    <g id="Trazado_982547-2" data-name="Trazado 982547" transform="translate(9 6)" fill="#f4fdfe">
                      <path d="M 47.5 93.5 C 41.28937149047852 93.5 35.26533508300781 92.28397369384766 29.59518623352051 89.88570404052734 C 24.11771965026855 87.56893157958984 19.19813346862793 84.25196075439453 14.97309303283691 80.02691650390625 C 10.74804019927979 75.80186462402344 7.431066513061523 70.88229370117188 5.114293098449707 65.40481567382812 C 2.716026782989502 59.73468017578125 1.5 53.71062850952148 1.5 47.5 C 1.5 41.28937149047852 2.716026782989502 35.26533508300781 5.114293098449707 29.59518623352051 C 7.431066513061523 24.11771965026855 10.74804019927979 19.19813346862793 14.97309303283691 14.97309303283691 C 19.19813346862793 10.74804019927979 24.11771965026855 7.431066513061523 29.59518623352051 5.114293098449707 C 35.26533508300781 2.716026782989502 41.28937149047852 1.5 47.5 1.5 C 53.71062850952148 1.5 59.73468017578125 2.716026782989502 65.40481567382812 5.114293098449707 C 70.88229370117188 7.431066513061523 75.80186462402344 10.74804019927979 80.02691650390625 14.97309303283691 C 84.25196075439453 19.19813346862793 87.56893157958984 24.11771965026855 89.88570404052734 29.59518623352051 C 92.28397369384766 35.26533508300781 93.5 41.28937149047852 93.5 47.5 C 93.5 53.71062850952148 92.28397369384766 59.73468017578125 89.88570404052734 65.40481567382812 C 87.56893157958984 70.88229370117188 84.25196075439453 75.80186462402344 80.02691650390625 80.02691650390625 C 75.80186462402344 84.25196075439453 70.88229370117188 87.56893157958984 65.40481567382812 89.88570404052734 C 59.73468017578125 92.28397369384766 53.71062850952148 93.5 47.5 93.5 Z" stroke="none"/>
                      <path d="M 47.5 3 C 41.49121475219727 3 35.66376876831055 4.176155090332031 30.17950439453125 6.495796203613281 C 24.88084411621094 8.736953735351562 20.12152099609375 11.94598388671875 16.03375244140625 16.03375244140625 C 11.94598388671875 20.12152099609375 8.736953735351562 24.88084411621094 6.495796203613281 30.17950439453125 C 4.176155090332031 35.66376876831055 3 41.49121475219727 3 47.5 C 3 53.50878524780273 4.176155090332031 59.33623123168945 6.495796203613281 64.82049560546875 C 8.736953735351562 70.11915588378906 11.94598388671875 74.87847900390625 16.03375244140625 78.96624755859375 C 20.12152099609375 83.05401611328125 24.88084411621094 86.26304626464844 30.17950439453125 88.50419616699219 C 35.66376876831055 90.82384490966797 41.49121475219727 92 47.5 92 C 53.50878524780273 92 59.33623123168945 90.82384490966797 64.82049560546875 88.50419616699219 C 70.11915588378906 86.26304626464844 74.87847900390625 83.05401611328125 78.96624755859375 78.96624755859375 C 83.05401611328125 74.87847900390625 86.26304626464844 70.11915588378906 88.50419616699219 64.82049560546875 C 90.82384490966797 59.33623123168945 92 53.50878524780273 92 47.5 C 92 41.49121475219727 90.82384490966797 35.66376876831055 88.50419616699219 30.17950439453125 C 86.26304626464844 24.88084411621094 83.05401611328125 20.12152099609375 78.96624755859375 16.03375244140625 C 74.87847900390625 11.94598388671875 70.11915588378906 8.736953735351562 64.82049560546875 6.495796203613281 C 59.33623123168945 4.176155090332031 53.50878524780273 3 47.5 3 M 47.5 0 C 73.7335205078125 0 95 21.2664794921875 95 47.5 C 95 73.7335205078125 73.7335205078125 95 47.5 95 C 21.2664794921875 95 0 73.7335205078125 0 47.5 C 0 21.2664794921875 21.2664794921875 0 47.5 0 Z" stroke="none" fill="#56838a"/>
                    </g>
                  </g>
                </g>
              </g>
            </g>
          </g>
        </g>
      </g>
    </g>
    <g id="XMLID_74_" transform="translate(766.101 6718.161)">
      <g id="XMLID_1598_" transform="translate(1.324 36.9)">
        <path id="XMLID_1440_" d="M220.178,147.476h-8.933a15.832,15.832,0,1,0,0,31.664h3.945l4.988,4.987V179.14a15.832,15.832,0,0,0,0-31.664Z" transform="translate(-170.861 -147.476)" fill="#ffcd69"/>
        <path id="XMLID_1378_" d="M25.832,205.185h8.933a15.832,15.832,0,1,1,0,31.664H30.82l-4.987,4.987v-4.987a15.832,15.832,0,1,1,0-31.664Z" transform="translate(-10 -197.543)" fill="#fff"/>
        <g id="XMLID_1550_" transform="translate(7.057 20.85)">
          <circle id="XMLID_1518_" cx="2.648" cy="2.648" r="2.648" fill="#33d6f5"/>
          <circle id="XMLID_1514_" cx="2.648" cy="2.648" r="2.648" transform="translate(10.593)" fill="#33d6f5"/>
          <circle id="XMLID_1510_" cx="2.648" cy="2.648" r="2.648" transform="translate(21.187)" fill="#33d6f5"/>
        </g>
      </g>
      <g id="XMLID_838_" transform="translate(0 20.024)">
        <path id="XMLID_905_" d="M50.641,137.476H41.708A17.136,17.136,0,0,0,27.4,145.167q-.649-.049-1.31-.05H17.156a17.045,17.045,0,0,0-6.773,1.389,1.324,1.324,0,0,0,1.046,2.433,14.41,14.41,0,0,1,5.727-1.174h8.933a14.508,14.508,0,0,1,0,29.016H22.144a1.325,1.325,0,0,0-.936.388L18.481,179.9v-1.791a1.324,1.324,0,0,0-1.324-1.324A14.517,14.517,0,0,1,3.835,156.516a1.324,1.324,0,0,0-2.43-1.052A17.166,17.166,0,0,0,15.832,179.38v3.714a1.324,1.324,0,0,0,2.26.936l4.6-4.6h3.4a17.154,17.154,0,0,0,14.3-7.694c.438.033.878.052,1.316.052h3.4l4.6,4.6a1.324,1.324,0,0,0,2.26-.936v-3.714a17.157,17.157,0,0,0-1.324-34.262Zm0,31.664a1.324,1.324,0,0,0-1.324,1.324v1.791l-2.727-2.727a1.325,1.325,0,0,0-.936-.388H41.81a17.154,17.154,0,0,0-11.494-23.5,14.392,14.392,0,0,1,11.392-5.521h8.933a14.508,14.508,0,0,1,0,29.016Z" transform="translate(0 -121.923)"/>
        <path id="XMLID_906_" d="M304.775,64.484a1.324,1.324,0,1,0,1.873,1.873,5.217,5.217,0,0,1,7.37,0,1.324,1.324,0,1,0,1.873-1.873A7.869,7.869,0,0,0,304.775,64.484Z" transform="translate(-264.081 -56.603)"/>
        <path id="XMLID_907_" d="M275.927,25.845a10.856,10.856,0,0,1,15.352,0,1.324,1.324,0,0,0,1.873-1.873,13.519,13.519,0,0,0-19.1,0,1.324,1.324,0,0,0,1.873,1.873Z" transform="translate(-237.428 -20.024)"/>
        <path id="XMLID_908_" d="M119.361,122.194a1.324,1.324,0,1,0,1.873,1.873,5.217,5.217,0,0,1,7.37,0,1.324,1.324,0,1,0,1.873-1.873A7.869,7.869,0,0,0,119.361,122.194Z" transform="translate(-103.219 -106.671)"/>
        <path id="XMLID_909_" d="M90.513,83.554a10.868,10.868,0,0,1,15.352,0,1.324,1.324,0,0,0,1.873-1.873,13.519,13.519,0,0,0-19.1,0,1.324,1.324,0,0,0,1.873,1.873Z" transform="translate(-76.566 -70.091)"/>
        <path id="XMLID_912_" d="M57.266,302.88a3.973,3.973,0,1,0-3.973-3.972A3.977,3.977,0,0,0,57.266,302.88Zm0-5.3a1.324,1.324,0,1,1-1.324,1.324A1.326,1.326,0,0,1,57.266,297.583Z" transform="translate(-46.236 -258.532)"/>
        <path id="XMLID_915_" d="M137.266,302.88a3.973,3.973,0,1,0-3.973-3.972A3.977,3.977,0,0,0,137.266,302.88Zm0-5.3a1.324,1.324,0,1,1-1.324,1.324A1.326,1.326,0,0,1,137.266,297.583Z" transform="translate(-115.643 -258.532)"/>
        <path id="XMLID_918_" d="M221.238,298.908a3.973,3.973,0,1,0-3.973,3.972A3.977,3.977,0,0,0,221.238,298.908Zm-5.3,0a1.324,1.324,0,1,1,1.324,1.324A1.326,1.326,0,0,1,215.941,298.908Z" transform="translate(-185.049 -258.532)"/>
        <path id="XMLID_919_" d="M36.444,232.754a1.327,1.327,0,1,0-.936-.389A1.333,1.333,0,0,0,36.444,232.754Z" transform="translate(-30.47 -202.287)"/>
      </g>
    </g>
  </g>
</svg>
