<svg xmlns="http://www.w3.org/2000/svg" xmlns:xlink="http://www.w3.org/1999/xlink" width="113" height="113" viewBox="0 0 113 113">
  <defs>
    <filter id="Trazado_982547" x="0" y="0" width="113" height="113" filterUnits="userSpaceOnUse">
      <feOffset dy="3" input="SourceAlpha"/>
      <feGaussianBlur stdDeviation="3" result="blur"/>
      <feFlood flood-opacity="0.161"/>
      <feComposite operator="in" in2="blur"/>
      <feComposite in="SourceGraphic"/>
    </filter>
  </defs>
  <g id="Grupo_1207757" data-name="Grupo 1207757" transform="translate(-1164 -6715.933)">
    <g id="Grupo_1206682" data-name="Grupo 1206682" transform="translate(0.598 -5840.811)">
      <g id="Grupo_1173870" data-name="Grupo 1173870" transform="translate(1172.402 12562.744)">
        <g id="Grupo_1172010" data-name="Grupo 1172010">
          <g id="Grupo_1171046" data-name="Grupo 1171046">
            <g id="Grupo_1148525" data-name="Grupo 1148525">
              <g transform="matrix(1, 0, 0, 1, -9, -6)" filter="url(#Trazado_982547)">
                <g id="Trazado_982547-2" data-name="Trazado 982547" transform="translate(9 6)" fill="#f4fdfe">
                  <path d="M 47.5 93.5 C 41.28937149047852 93.5 35.26533508300781 92.28397369384766 29.59518623352051 89.88570404052734 C 24.11771965026855 87.56893157958984 19.19813346862793 84.25196075439453 14.97309303283691 80.02691650390625 C 10.74804019927979 75.80186462402344 7.431066513061523 70.88229370117188 5.114293098449707 65.40481567382812 C 2.716026782989502 59.73468017578125 1.5 53.71062850952148 1.5 47.5 C 1.5 41.28937149047852 2.716026782989502 35.26533508300781 5.114293098449707 29.59518623352051 C 7.431066513061523 24.11771965026855 10.74804019927979 19.19813346862793 14.97309303283691 14.97309303283691 C 19.19813346862793 10.74804019927979 24.11771965026855 7.431066513061523 29.59518623352051 5.114293098449707 C 35.26533508300781 2.716026782989502 41.28937149047852 1.5 47.5 1.5 C 53.71062850952148 1.5 59.73468017578125 2.716026782989502 65.40481567382812 5.114293098449707 C 70.88229370117188 7.431066513061523 75.80186462402344 10.74804019927979 80.02691650390625 14.97309303283691 C 84.25196075439453 19.19813346862793 87.56893157958984 24.11771965026855 89.88570404052734 29.59518623352051 C 92.28397369384766 35.26533508300781 93.5 41.28937149047852 93.5 47.5 C 93.5 53.71062850952148 92.28397369384766 59.73468017578125 89.88570404052734 65.40481567382812 C 87.56893157958984 70.88229370117188 84.25196075439453 75.80186462402344 80.02691650390625 80.02691650390625 C 75.80186462402344 84.25196075439453 70.88229370117188 87.56893157958984 65.40481567382812 89.88570404052734 C 59.73468017578125 92.28397369384766 53.71062850952148 93.5 47.5 93.5 Z" stroke="none"/>
                  <path d="M 47.5 3 C 41.49121475219727 3 35.66376876831055 4.176155090332031 30.17950439453125 6.495796203613281 C 24.88084411621094 8.736953735351562 20.12152099609375 11.94598388671875 16.03375244140625 16.03375244140625 C 11.94598388671875 20.12152099609375 8.736953735351562 24.88084411621094 6.495796203613281 30.17950439453125 C 4.176155090332031 35.66376876831055 3 41.49121475219727 3 47.5 C 3 53.50878524780273 4.176155090332031 59.33623123168945 6.495796203613281 64.82049560546875 C 8.736953735351562 70.11915588378906 11.94598388671875 74.87847900390625 16.03375244140625 78.96624755859375 C 20.12152099609375 83.05401611328125 24.88084411621094 86.26304626464844 30.17950439453125 88.50419616699219 C 35.66376876831055 90.82384490966797 41.49121475219727 92 47.5 92 C 53.50878524780273 92 59.33623123168945 90.82384490966797 64.82049560546875 88.50419616699219 C 70.11915588378906 86.26304626464844 74.87847900390625 83.05401611328125 78.96624755859375 78.96624755859375 C 83.05401611328125 74.87847900390625 86.26304626464844 70.11915588378906 88.50419616699219 64.82049560546875 C 90.82384490966797 59.33623123168945 92 53.50878524780273 92 47.5 C 92 41.49121475219727 90.82384490966797 35.66376876831055 88.50419616699219 30.17950439453125 C 86.26304626464844 24.88084411621094 83.05401611328125 20.12152099609375 78.96624755859375 16.03375244140625 C 74.87847900390625 11.94598388671875 70.11915588378906 8.736953735351562 64.82049560546875 6.495796203613281 C 59.33623123168945 4.176155090332031 53.50878524780273 3 47.5 3 M 47.5 0 C 73.7335205078125 0 95 21.2664794921875 95 47.5 C 95 73.7335205078125 73.7335205078125 95 47.5 95 C 21.2664794921875 95 0 73.7335205078125 0 47.5 C 0 21.2664794921875 21.2664794921875 0 47.5 0 Z" stroke="none" fill="#56838a"/>
                </g>
              </g>
            </g>
          </g>
        </g>
      </g>
    </g>
    <g id="hablando_1_" data-name="hablando (1)" transform="translate(1185.999 6721.847)">
      <g id="Grupo_1207755" data-name="Grupo 1207755" transform="translate(16.86 19.034)">
        <g id="Grupo_1207754" data-name="Grupo 1207754" transform="translate(0 0)">
          <g id="Grupo_1207753" data-name="Grupo 1207753">
            <g id="Grupo_1207751" data-name="Grupo 1207751">
              <g id="Grupo_1207750" data-name="Grupo 1207750">
                <path id="Trazado_1078545" data-name="Trazado 1078545" d="M150.311,73.3l.521,4.685h23.725l-1.849-9.447a10.654,10.654,0,0,1,3.075-9.726,19.03,19.03,0,0,0,5.912-13.83c.305-11.442-8.165-19.056-19.608-19.361-10.514-.28-18.065,3.832-20.466,13.91a6.288,6.288,0,0,0,.006,2.91l.177.744a2.943,2.943,0,0,1-.595,2.556l-4.827,6.014a1.486,1.486,0,0,0,.739,2.376l3.561,1.012a.829.829,0,0,1,.344,1.4l-1.2,1.136a.608.608,0,0,0,.079.945l1.542,1.267a.879.879,0,0,1,.114,1.244c-.171.205-1.469,1.394-1.469,1.394a.613.613,0,0,0,.115,1.061l1.672.836L140.1,67.975a2.871,2.871,0,0,0,3.033,3.827l4.622-.538A2.3,2.3,0,0,1,150.311,73.3Z" transform="translate(-136.041 -25.604)" fill="#ffe6cf"/>
              </g>
            </g>
            <g id="Grupo_1207752" data-name="Grupo 1207752" transform="translate(21.849 0)">
              <path id="Trazado_1078546" data-name="Trazado 1078546" d="M316.542,25.619a33.2,33.2,0,0,0-4.2.141c10.361,1.127,17.791,8.49,17.505,19.219a19.031,19.031,0,0,1-5.912,13.83,10.653,10.653,0,0,0-3.075,9.726l1.849,9.447h6.3l-1.849-9.447a10.654,10.654,0,0,1,3.075-9.726,19.03,19.03,0,0,0,5.912-13.83C336.455,33.537,327.984,25.924,316.542,25.619Z" transform="translate(-312.345 -25.605)" fill="#efd0b6"/>
            </g>
          </g>
          <path id="Trazado_1078547" data-name="Trazado 1078547" d="M236.057,434.892a2.168,2.168,0,0,0,2.165-2.277l-.178-3.521a1.6,1.6,0,0,0-1.708-1.483l-24.68,1.743a4.461,4.461,0,0,0-3.31,1.849l-2.136,2.917a.485.485,0,0,0,.392.772h29.455Z" transform="translate(-197.432 -377.788)" fill="#a26bf9"/>
        </g>
      </g>
      <g id="Grupo_1207756" data-name="Grupo 1207756" transform="translate(0.001 18.105)">
        <path id="Trazado_1078548" data-name="Trazado 1078548" d="M6.831,217.062a.929.929,0,0,0-1.314-1.314,18.883,18.883,0,0,0,0,26.674.929.929,0,0,0,1.314-1.314A17.022,17.022,0,0,1,6.831,217.062Z" transform="translate(-0.001 -191.016)"/>
        <path id="Trazado_1078549" data-name="Trazado 1078549" d="M44.483,255.5a11.637,11.637,0,0,1,3.426-8.285.929.929,0,1,0-1.314-1.314,13.591,13.591,0,0,0,0,19.2.929.929,0,1,0,1.314-1.314A11.638,11.638,0,0,1,44.483,255.5Z" transform="translate(-37.342 -217.435)"/>
        <path id="Trazado_1078550" data-name="Trazado 1078550" d="M88.994,276.058a.93.93,0,0,0-1.314,0,8.3,8.3,0,0,0,0,11.725.929.929,0,0,0,1.314-1.314,6.439,6.439,0,0,1,0-9.1A.93.93,0,0,0,88.994,276.058Z" transform="translate(-74.69 -243.852)"/>
        <path id="Trazado_1078551" data-name="Trazado 1078551" d="M169.854,52.908a19.94,19.94,0,0,0,6.2-14.475,20.411,20.411,0,0,0-1.435-8.285.929.929,0,1,0-1.722.7,18.568,18.568,0,0,1,1.3,7.535,18.171,18.171,0,0,1-5.627,13.185,11.537,11.537,0,0,0-3.343,10.574l1.16,5.923L150.5,69.188a.929.929,0,0,0,.131,1.854l17.81-1.258a.671.671,0,0,1,.715.613l.177,3.51a1.239,1.239,0,0,1-1.237,1.3H139.514l1.624-2.218a3.522,3.522,0,0,1,2.62-1.463l3.116-.22a.929.929,0,0,0-.131-1.854l-1.752.124-.329-2.954a3.23,3.23,0,0,0-3.584-2.852l-4.622.538a1.942,1.942,0,0,1-2.067-2.542l1.751-3.5a.929.929,0,0,0-.416-1.247l-1.288-.644c.494-.456,1.115-1.038,1.268-1.22a1.809,1.809,0,0,0-.238-2.557l-1.3-1.073.932-.884a1.758,1.758,0,0,0-.729-2.967L130.8,46.663a.556.556,0,0,1-.277-.89l.009-.011,4.823-6.009a3.892,3.892,0,0,0,.778-3.358l-.177-.744a5.381,5.381,0,0,1-.006-2.48c2.154-9.044,8.725-13.482,19.537-13.2,6.7.179,12.416,2.989,15.694,7.709a.929.929,0,1,0,1.527-1.06c-3.619-5.212-9.877-8.313-17.171-8.507-5.607-.149-10.251.933-13.8,3.218-3.82,2.457-6.374,6.295-7.592,11.405a7.25,7.25,0,0,0,.006,3.34l.177.744a2.024,2.024,0,0,1-.407,1.749l-.009.011-4.823,6.009a2.416,2.416,0,0,0,1.207,3.857l3.391.963-1.07,1.015a1.537,1.537,0,0,0,.156,2.36L134.243,54c-.183.188-.793.759-1.318,1.24a1.542,1.542,0,0,0,.314,2.616l.822.411L132.7,60.989a.942.942,0,0,0-.043.1,3.8,3.8,0,0,0,4.014,5.066l4.622-.538a1.371,1.371,0,0,1,1.522,1.211l.323,2.9a5.366,5.366,0,0,0-3.5,2.169L137.5,74.817a1.415,1.415,0,0,0,1.141,2.251h29.454a3.1,3.1,0,0,0,3.094-3.254l-.178-3.521v-.019a2.532,2.532,0,0,0-2.7-2.344l-.057,0-1.2-6.148A9.687,9.687,0,0,1,169.854,52.908Z" transform="translate(-112.609 -18.105)"/>
      </g>
    </g>
  </g>
</svg>
