<svg xmlns="http://www.w3.org/2000/svg" xmlns:xlink="http://www.w3.org/1999/xlink" width="400" height="583" viewBox="0 0 400 583">
  <defs>
    <clipPath id="clip-path">
      <rect id="Rectángulo_417825" data-name="Rectángulo 417825" width="400" height="583" transform="translate(180 801)" fill="#fff" stroke="#707070" stroke-width="1" opacity="0.92"/>
    </clipPath>
    <clipPath id="clip-path-2">
      <rect id="Rectángulo_415760" data-name="Rectángulo 415760" width="505.26" height="505.26" fill="none"/>
    </clipPath>
    <clipPath id="clip-path-3">
      <rect id="Rectángulo_415754" data-name="Rectángulo 415754" width="387.154" height="327.878" fill="#c2efec"/>
    </clipPath>
    <clipPath id="clip-path-4">
      <rect id="Rectángulo_415755" data-name="Rectángulo 415755" width="172.893" height="94.163" fill="none"/>
    </clipPath>
    <clipPath id="clip-path-5">
      <rect id="Rectángulo_415757" data-name="Rectángulo 415757" width="172.49" height="155.565" fill="none"/>
    </clipPath>
    <clipPath id="clip-path-7">
      <rect id="Rectángulo_415758" data-name="Rectángulo 415758" width="132.912" height="86.602" fill="none"/>
    </clipPath>
    <clipPath id="clip-path-8">
      <rect id="Rectángulo_415759" data-name="Rectángulo 415759" width="122.235" height="87.678" fill="none"/>
    </clipPath>
    <clipPath id="clip-path-11">
      <rect id="Rectángulo_415762" data-name="Rectángulo 415762" width="0.054" height="0.064" fill="none"/>
    </clipPath>
    <clipPath id="clip-path-12">
      <rect id="Rectángulo_415763" data-name="Rectángulo 415763" width="6.208" height="8.318" fill="none"/>
    </clipPath>
    <clipPath id="clip-path-13">
      <rect id="Rectángulo_415764" data-name="Rectángulo 415764" width="8.023" height="6.643" fill="none"/>
    </clipPath>
    <clipPath id="clip-path-14">
      <rect id="Rectángulo_415778" data-name="Rectángulo 415778" width="44.313" height="14.606" fill="none"/>
    </clipPath>
    <clipPath id="clip-path-15">
      <rect id="Rectángulo_415765" data-name="Rectángulo 415765" width="0.704" height="0.705" fill="none"/>
    </clipPath>
    <clipPath id="clip-path-18">
      <rect id="Rectángulo_415768" data-name="Rectángulo 415768" width="0.705" height="0.705" fill="none"/>
    </clipPath>
    <clipPath id="clip-path-19">
      <rect id="Rectángulo_415769" data-name="Rectángulo 415769" width="0.705" height="0.704" fill="none"/>
    </clipPath>
    <clipPath id="clip-path-26">
      <rect id="Rectángulo_415776" data-name="Rectángulo 415776" width="0.704" height="0.704" fill="none"/>
    </clipPath>
    <clipPath id="clip-path-28">
      <rect id="Rectángulo_415779" data-name="Rectángulo 415779" width="73.277" height="33.563" fill="none"/>
    </clipPath>
    <clipPath id="clip-path-29">
      <rect id="Rectángulo_415780" data-name="Rectángulo 415780" width="6.653" height="8.014" fill="none"/>
    </clipPath>
    <clipPath id="clip-path-30">
      <rect id="Rectángulo_415781" data-name="Rectángulo 415781" width="7.679" height="7.061" fill="none"/>
    </clipPath>
    <clipPath id="clip-path-31">
      <rect id="Rectángulo_415782" data-name="Rectángulo 415782" width="106.686" height="73.328" fill="none"/>
    </clipPath>
    <clipPath id="clip-path-32">
      <rect id="Rectángulo_415783" data-name="Rectángulo 415783" width="129.094" height="92.384" fill="none"/>
    </clipPath>
    <clipPath id="clip-path-34">
      <rect id="Rectángulo_415785" data-name="Rectángulo 415785" width="7.05" height="7.692" fill="none"/>
    </clipPath>
    <clipPath id="clip-path-35">
      <rect id="Rectángulo_415786" data-name="Rectángulo 415786" width="7.329" height="7.432" fill="none"/>
    </clipPath>
    <clipPath id="clip-path-36">
      <rect id="Rectángulo_415787" data-name="Rectángulo 415787" width="75.236" height="28.52" fill="none"/>
    </clipPath>
    <clipPath id="clip-path-37">
      <rect id="Rectángulo_415800" data-name="Rectángulo 415800" width="44.764" height="44.766" fill="none"/>
    </clipPath>
    <clipPath id="clip-path-38">
      <rect id="Rectángulo_415801" data-name="Rectángulo 415801" width="46.615" height="46.618" fill="none"/>
    </clipPath>
    <clipPath id="clip-path-39">
      <rect id="Rectángulo_415802" data-name="Rectángulo 415802" width="46.609" height="46.613" fill="none"/>
    </clipPath>
    <clipPath id="clip-path-40">
      <rect id="Rectángulo_415797" data-name="Rectángulo 415797" width="28.048" height="19.737" fill="none"/>
    </clipPath>
    <clipPath id="clip-path-41">
      <rect id="Rectángulo_415798" data-name="Rectángulo 415798" width="54.074" height="30.6" fill="none"/>
    </clipPath>
    <clipPath id="clip-path-42">
      <rect id="Rectángulo_415799" data-name="Rectángulo 415799" width="17.409" height="102.084" fill="none"/>
    </clipPath>
  </defs>
  <g id="Enmascarar_grupo_1098867" data-name="Enmascarar grupo 1098867" transform="translate(-180 -801)" clip-path="url(#clip-path)">
    <g id="Grupo_1207655" data-name="Grupo 1207655">
      <g id="Grupo_1207654" data-name="Grupo 1207654" transform="translate(3610.466 -2326.246)">
        <g id="Grupo_1180330" data-name="Grupo 1180330" transform="translate(-3483.299 3084.461)" clip-path="url(#clip-path-2)">
          <g id="Grupo_1180314" data-name="Grupo 1180314" transform="translate(57.031 77.854)" style="mix-blend-mode: multiply;isolation: isolate">
            <g id="Grupo_1180313" data-name="Grupo 1180313">
              <g id="Grupo_1180312" data-name="Grupo 1180312" clip-path="url(#clip-path-3)">
                <path id="Trazado_1043113" data-name="Trazado 1043113" d="M100.847,101.557c-49.667,41.279-60.713,143.97-17.58,192.98a95.805,95.805,0,0,0,34.313,24.713c13.475,5.734,23.59,2.525,37.732,2.37,20.169-.221,26.2,20.183,35.816,33.818,12.568,17.82,31.022,31.944,51.139,40.17,106.35,43.489,219.184-73.666,198.949-178.74-7.3-37.893-26.294-63.577-61.73-80-30.465-14.119-64.538-18.054-98-20.867-14.885-1.251-31.6-2.761-44.4-11.228-5.423-3.586-9.069-8.97-14.283-12.255-5.469-3.446-13.837-6.615-19.946-9.049A93.221,93.221,0,0,0,171.442,77.1,104.935,104.935,0,0,0,111.5,93.713a111.561,111.561,0,0,0-10.657,7.845" transform="translate(-56.437 -77.044)" fill="#c2efec"/>
              </g>
            </g>
          </g>
          <path id="Trazado_1043114" data-name="Trazado 1043114" d="M348.886,215.228A93.927,93.927,0,1,1,254.959,121.3a93.927,93.927,0,0,1,93.927,93.927" transform="translate(1.694 1.275)" fill="#fdda5f"/>
          <path id="Trazado_1043115" data-name="Trazado 1043115" d="M341.641,214.825a86.539,86.539,0,0,1-59.446,82.294,86.782,86.782,0,0,1-56.18-.605,84.029,84.029,0,0,1-15.1-7.041c-.376-.223-.751-.448-1.121-.677q-1.781-1.1-3.507-2.28c-.4-.269-.789-.544-1.176-.818q-1.2-.849-2.375-1.737c-.235-.179-.476-.364-.711-.549-.285-.218-.571-.436-.851-.666-.414-.325-.83-.662-1.233-1-.353-.291-.705-.583-1.047-.874-.863-.734-1.709-1.478-2.537-2.246-.409-.381-.817-.761-1.222-1.148-.324-.308-.649-.621-.968-.941-.409-.4-.812-.806-1.211-1.216-.3-.3-.6-.616-.89-.925q-1.79-1.89-3.467-3.886c-.191-.23-.387-.46-.572-.689a86.8,86.8,0,0,1-12.109-19.476c-.017-.033-.028-.067-.045-.1q-1.167-2.6-2.162-5.282c-.118-.3-.229-.61-.336-.919-.128-.353-.252-.705-.375-1.058q-.546-1.6-1.031-3.209c-.044-.152-.095-.308-.14-.465-.062-.207-.117-.409-.179-.611q-.252-.89-.487-1.781c-.1-.381-.2-.768-.292-1.149-.106-.419-.207-.84-.3-1.265-.016-.062-.033-.123-.044-.185-.168-.74-.33-1.478-.482-2.224-.095-.476-.185-.952-.274-1.428q-.706-3.78-1.07-7.679c-.006-.084-.017-.163-.022-.247-.062-.672-.118-1.356-.163-2.033q-.194-2.924-.2-5.887c0-1.9.079-3.764.19-5.624q.185-2.907.566-5.753c.062-.465.123-.93.191-1.388q.487-3.327,1.232-6.576a83.959,83.959,0,0,1,6.145-17.716,86.561,86.561,0,0,1,14.708-21.756c.006-.005.006-.005.006-.011.852-.924,1.725-1.831,2.621-2.711q1.344-1.343,2.745-2.61l.941-.84c.314-.28.634-.555.953-.829a86.047,86.047,0,0,1,10.371-7.639l.143-.09c.872-.545,1.75-1.078,2.642-1.593a.292.292,0,0,0,.073-.044q.882-.5,1.782-.991c.313-.168.621-.337.935-.5q1.874-1,3.809-1.894c.645-.3,1.294-.593,1.949-.879.325-.139.65-.28.98-.419.359-.158.717-.308,1.081-.449,0-.005,0-.005.006-.005a.005.005,0,0,0,.005-.006c.314-.128.628-.252.947-.375a85.4,85.4,0,0,1,18.793-5.008,84.518,84.518,0,0,1,12.849-.952A85.665,85.665,0,0,1,286,133.9q2.831,1.085,5.556,2.352h.006c.42.2.835.392,1.249.594a85.639,85.639,0,0,1,7.7,4.244l0,0c.454.28.907.56,1.355.851.084.051.163.107.247.158.174.106.348.218.515.336.885.583,1.764,1.182,2.627,1.81.4.285.806.577,1.2.868.414.308.829.615,1.238.93.307.235.615.471.919.716.38.292.75.588,1.12.891.46.375.919.75,1.367,1.137.123.1.241.2.358.308.376.319.751.644,1.121.98.2.168.392.342.582.52.42.376.835.762,1.25,1.149.576.543,1.148,1.1,1.708,1.663.286.28.566.566.846.851q.832.849,1.647,1.731t1.6,1.776a86.457,86.457,0,0,1,10.363,14.659q.588,1.05,1.154,2.117t1.091,2.151c.3.61.588,1.221.874,1.837.112.229.213.465.314.694.285.621.554,1.249.823,1.877.319.745.623,1.5.919,2.258.118.3.235.6.348.907s.229.616.342.924.218.616.33.925c.185.526.365,1.053.538,1.585.134.4.269.806.392,1.221.2.628.387,1.26.572,1.893.2.7.4,1.407.582,2.123.062.253.129.5.191.757.168.65.319,1.311.47,1.972.073.313.14.626.207.946.011.051.023.1.034.152.128.605.247,1.21.364,1.815.1.533.2,1.07.286,1.6.078.449.151.9.218,1.35q.083.512.151,1.025l.1.711c.039.331.084.656.123.986a87.813,87.813,0,0,1,.639,10.575" transform="translate(1.771 1.347)" fill="#4887fc"/>
          <g id="Grupo_1180317" data-name="Grupo 1180317" transform="translate(170.302 207.939)" opacity="0.4" style="mix-blend-mode: multiply;isolation: isolate">
            <g id="Grupo_1180316" data-name="Grupo 1180316">
              <g id="Grupo_1180315" data-name="Grupo 1180315" clip-path="url(#clip-path-4)">
                <path id="Trazado_1043116" data-name="Trazado 1043116" d="M319.414,270.969a86.671,86.671,0,0,1-140.659-16.028,83.872,83.872,0,0,1-8.064-20.592,87.044,87.044,0,0,1-2.162-12.5q5.534,3.265,11.583,7.059c85.475,53.691,143.265-1.871,160.986-23.129a86.452,86.452,0,0,1-21.684,65.194" transform="translate(-168.529 -205.775)" fill="#4887fc"/>
              </g>
            </g>
          </g>
          <g id="Grupo_1180323" data-name="Grupo 1180323" transform="translate(170.283 135.255)" opacity="0.7">
            <g id="Grupo_1180322" data-name="Grupo 1180322">
              <g id="Grupo_1180321" data-name="Grupo 1180321" clip-path="url(#clip-path-5)">
                <g id="Grupo_1180320" data-name="Grupo 1180320" style="mix-blend-mode: multiply;isolation: isolate">
                  <g id="Grupo_1180319" data-name="Grupo 1180319">
                    <g id="Grupo_1180318" data-name="Grupo 1180318" clip-path="url(#clip-path-5)">
                      <path id="Trazado_1043117" data-name="Trazado 1043117" d="M340.218,203.114c-.033-.235-.068-.47-.1-.711q-.067-.512-.152-1.025c-.067-.449-.139-.9-.218-1.35-.09-.533-.185-1.07-.286-1.6-.117-.61-.234-1.211-.364-1.815l-.033-.152c-.068-.319-.134-.633-.207-.947-.152-.661-.3-1.322-.471-1.971-.062-.258-.123-.509-.19-.756-.185-.717-.381-1.423-.583-2.123-.185-.633-.375-1.265-.571-1.893-.123-.414-.258-.818-.392-1.222-.168-.532-.353-1.058-.538-1.585-.112-.308-.218-.616-.331-.925s-.229-.616-.341-.924-.23-.605-.348-.907c-.3-.757-.6-1.513-.919-2.257-.264-.633-.538-1.255-.824-1.877-.1-.229-.2-.465-.313-.694-.28-.616-.571-1.227-.874-1.837q-.529-1.084-1.092-2.151c-.375-.711-.756-1.417-1.154-2.117a86.4,86.4,0,0,0-10.362-14.659c-.521-.6-1.059-1.193-1.6-1.775s-1.092-1.165-1.646-1.731c-.28-.286-.561-.571-.846-.851q-.841-.849-1.709-1.664c-.414-.386-.829-.773-1.249-1.148-.19-.179-.386-.353-.582-.52-.37-.336-.746-.661-1.121-.98-.117-.107-.235-.207-.359-.308-.448-.387-.907-.762-1.366-1.137-.37-.3-.74-.6-1.121-.891-.3-.247-.61-.481-.919-.716-.409-.314-.824-.622-1.238-.93-.4-.292-.8-.583-1.2-.869a2.381,2.381,0,0,1-1.988.841.315.315,0,0,0-.23.128c-.162.163-.33.454-.5.65-.179-.308-.33-.554-.527-.884-1.047,1.064-2.732.873-4.155.924-.107.381-.174.61-.253.885-.851-.42-1.54-.756-2.3-1.121.5-.19.879-.33,1.243-.465-.531-1.355-1.747-1.025-3.1-.985.348.28.527.425.711.577l-.448.386a10.573,10.573,0,0,1,.823,1.126,8.131,8.131,0,0,0-2.577.414c-.033-.778-.061-1.4-.084-1.842-2.364-1.2-5.836-.605-7.17-1.126-1.019-.4-2.01-.431-2.9-1.187-.247-.213-1.143.571-1.769-.006-.046-.039-.588.229-.919.308a23.569,23.569,0,0,1-3.81.846c-1.406.1-2.66.958-3.881.958-.313,0-1.216.935-.515,1.3-1.546,2.509-4.587,3.417-7.976,4.246.89.476-1.282.862-.056,1.439a8.326,8.326,0,0,0-.751,2.028c.152,1.339,3.7.9,5.668.128.438.9.83,1.7,1.2,2.471-.354.291-.583.476-1,.817-.342-.784-.645-1.484-.941-2.156-.751.409-2.112.907-2.264,1.238-.173.37.348,1.7.6,2.817-1.276.3-2.4.571-3.814.907a10.91,10.91,0,0,1-3.938,2.56c-.52,1.244-1.877,1.233-2.784,1.832-.319-.286-.527-.465-.818-.729-.2.628-.375,1.187-.566,1.821-.348-.281-.56-.454-.817-.667-.689.313-1.372.633-1.989.919.963.9,1.927,1.793,2.683,2.5-.117,1.423-.022,3.366-.28,3.6-.544.5-6.022-1.473-8.509.52.874,2.106.046,4.011-1.215,5.8a11.821,11.821,0,0,0,.71,2.688c.83.526,3.557,3.064.98,4.554a10.027,10.027,0,0,0-3.624,4.24c.235.3.729.789.706.919-.169,1.047-8.094,7.937-9.887,12.647.852,3.4,1.9,6.907-.425,9.83.079.526.129,1.081.174,1.625a8.383,8.383,0,0,0,.476,2.621c.857,1.736,3.333,4.134,4.375,6.425.112.241.313.661.549.767,2.6,1.193,4.963,6.469,7.927,3.943a3.006,3.006,0,0,1,3.45-.448c2.923,2.089,4.476-2.56,9.819-1.467.633,1.025,1.148,1.842,1.7,2.738l3.562.017a12.145,12.145,0,0,1,1.4,2.454c.454,4.564,3.042,13.454,5.018,18.959a.43.43,0,0,1,.028.068,2.119,2.119,0,0,1-.236,1.591c-3.276,3.927-.291,8.839,1.389,11.9.811,1.467.353,4.566,1.686,5.8,1.356,1.26,1.815,3.058,3.125,4.324.141.14-.247.577-.4.919a12.583,12.583,0,0,0,1.832,1.7c1.311.566,4.923-.324,5.276-.342a7.66,7.66,0,0,0,2.52-.549,24.189,24.189,0,0,0,5.215-4.251c.924-1.02,2.19-2.24,2.19-3.769,1.1-.46,2.022-.852,2.98-1.255-.118-1.663.61-3.478-.42-5.142.9-.964,2.689-1.037,2.969-2.526a.643.643,0,0,1,.443-.381c2.168-.039,2.952-1.8,4.223-2.605.118-2.139.7-4.868.3-5.948-.184-.488-1.36-1.02-1.142-2.033.084-.409-.348-.874-.342-1.323.011-.487.532-1.153.353-1.445a2.378,2.378,0,0,1,.146-3.108c.8-.969.392-2.6,1.478-3.31a9.014,9.014,0,0,0,2.156-2.15c1.115-1.462,2.106-3.137,3.473-4.123,4.47-3.243,8.615-14.485,7.584-15.3-.3-.241-10.312,4.9-9.427-.28,4.218-1.815,8.61-3.048,12.015-6.515h1.82c.527-.4.191-1.708,1.334-1.428,2.223-1.821,4.452-6.083,4.375-7.214-.062-.83-5.54-2.068-4.733-4.935,3.327.969,10.038.521,10.983.628,1.02.118,4.571,4.738,6.24,7.45.381-.212.868-.515,1.306-.778-.039-.33-.084-.656-.123-.986M295,167.3c.016.577.033,1.02.05,1.635-.9-.005-1.663-.005-2.986-.011,1.255-.694,2.028-1.12,2.936-1.624m-4.3-20.176c.011.387.028.74.045,1.339-.577-.174-1.036-.3-1.529-.449-.269.213-.605.482-1.053.835-.258-.588-.5-1.137-.767-1.73,1.019,0,2.128,0,3.3.005m-3.1,21.481c.89,0,1.674.006,2.6.006-.286.28-.425.42-.656.639.723.5,1.457,1.007,2.213,1.54a6.615,6.615,0,0,1,1.053-1.037c1.328-.71,3.859.942,5.8,2.017.342.19.661.359.958.5.778.365,1.064,1.193.677,2.275-.941-.09-1.9-.022-2.856-.051a6.474,6.474,0,0,1-3.607-.991c-.806-.538-2.224-.235-3.277-.308-.465.448-.84.8-1.265,1.216a4.586,4.586,0,0,1-4.352-1.586c.935-1.456,1.854-2.879,2.716-4.218m-17.308-11.432c1.1-.509,2.112-.98,3.143-1.456-.313-.432-.5-.683-.762-1.048.689-.61,1.367-1.21,2.207-1.943-.409-.258-.789-.493-1.271-.789.016-.354.039-.824.073-1.44,1.193-.857,2.509-1.787,4.19-2.958h2.145c-1.473.914-3.641,1.894-3.82,2.4-.292.846,3.674,2.835,3.679,2.885a41.28,41.28,0,0,0-4.195,5.556c-1.233.034-1.938-1.165-3.238-.246-.465.33-1.782,1.215-2.733.084l.582-1.048m-19.351,23.985c.907-1,1.859-2.055,2.857-3.148-.039-.057-.236-.37-.4-.634.931-2.245,3.372-2.637,4.644-4.279a11.506,11.506,0,0,1-.784-.891s6.284-1.579,7.438-1.507c.811.051,1.579,3.876,4.43,3.815.9.969,1.809,2.028,2.722,3.053-.141.134-.449.443-.874.868-1.042.006-3.646-.174-3.764.022a30.387,30.387,0,0,0,3.938,2.722c-.106-2.022,1.972-2.571,2.2-4.274-.169-.258-.364-.577-.824-1.3a12.262,12.262,0,0,0,1.921.689c.314-.191-6.637-6.588-5.825-7.064.263-.157,3.322,3.412,5.522,3.5.336.011,1.132.812,1.115,1.126-.152,2.442,2.447,4.4,3.607,7.035.307-.006.818-.006,1.434-.006.089-.6.185-1.2.28-1.842l1.573.846c-.958-1.641-1.585-2.717-2.307-3.955.941-.324,1.921-.666,3.113-1.08-.005,1.5-.005,2.66-.011,3.8a4.847,4.847,0,0,1,3.059,2.9c.868-1.008,1.954.824,2.661-.079,1.092-1.4,1.809.55,2.806.185a11.26,11.26,0,0,1,2.139-.487c.33-.051.672-.106,1.025-.179.359,2.4.23,6.7-.756,7.326-.829.526-3.265.6-5.96.263a24.524,24.524,0,0,1-5.64-1.344c-1.473-.571-3.1-1.328-5.22-.784-.242.857-.549,1.954-.93,3.3-1.837-1.215-4.363-1.075-5.691-3.377-.947,0-1.893.005-2.727.011-.79-.824-1.468-1.529-1.966-2.05.174-1.361.8-3.568.521-3.994a3.59,3.59,0,0,0-2.067-.555c-4.111,1.894-8.34-.47-13.454,3.383a5.4,5.4,0,0,0-3.333-.639c.936-1.842,2.3-1.2,3.535-1.377m43.286,53.71c1.244,1.484-.062,2.414-.353,3.523-.666.006-1.524.158-1.72.006-.5-.392.947-2.4,2.073-3.529M306.039,216.5s-2.476-3.126-3.551-4.207c-1.333-1.333-1.367-4.514-3.585-4.923.667-4.3-2.369-5.606-3.091-8.743-.319-1.383-2.3-3.966-2.163-4.582.264-1.176,5.075,4.939,5.618,5.309a3.715,3.715,0,0,1,.935,2.706,2.958,2.958,0,0,0,1,2.61c1.7,1.293,4.431,5.192,4.291,7.5a24.25,24.25,0,0,0,.544,4.329m.123-46.636c2.862-2.812,3.551-3,6.094-1.5a32.151,32.151,0,0,0-3.636,1.9s1.753.784,1.759,1.02c.011.9.745.8,1.181,1.07,2.174,1.366.762,4.923,3.636,5.8.027.723.062,1.445.095,2.24a5.512,5.512,0,0,1-5.137-1.6c.062-.985.128-2.15.213-3.54-1.484-1.388-3.356-2.884-4.207-5.388m12.093,29.384a7.52,7.52,0,0,1-2.179-.011c-.409-.28.241-2.716-1.311-3.238a6.785,6.785,0,0,1-.438,1.182c-.027,0-.4-.23-.4-.3.313-2.392-3.317-3.439-2.716-6.246a1.792,1.792,0,0,1,2.6,1.16c1.054,2.593,5.988,3.461,7.405,3.372.515-.033-2.4,3.086-2.963,4.077" transform="translate(-167.851 -133.758)" fill="#4887fc"/>
                      <path id="Trazado_1043118" data-name="Trazado 1043118" d="M197.272,150.8c.5-.2,1.176-.3,1.378-.538.258-.308.19-.852-.039-1.468-.319.275-.639.55-.953.83l-.941.84c-.93.852-1.848,1.72-2.745,2.61s-1.764,1.787-2.621,2.711c0,.005,0,.005-.005.011.022,0,.044-.006.067-.006.163.779.319,1.484.521,2.42.52.168,1.3.42,2.089.678l1.143-.991c.134.151.263.3.683.773.258-1.664.432-2.7.616-3.759.313.14.582.264.9.414a21.314,21.314,0,0,0,2.572-2.3c-.936-.778-1.782-1.484-2.667-2.223m15.263,90.219c-.655-.023-1.215-.045-1.618-.062-1.306-1.188-2.656-2.823-3.406-3.137-1.691-.7-4.789-1.081-6.979-2.823-1.221-.969-3.024-1-4.106-2.425a4.081,4.081,0,0,0,.448-.841c.09-3.209-4.536-5.73-7.729-7.276-.806-.386-1.109-2.319-2.122-2.694-1.216-.454-1.216-2.414-2.336-3.215a3.191,3.191,0,0,0-2.7.544c-.768-1.02-1.731-.482-2.577-.756-.112-.37-.224-.729-.37-1.2-.628-.011-1.283-.022-1.9-.038-.129-.471-.229-.83-.359-1.3-1.271.75-2.481,1.473-3.568,2.117-.408,1.02-.784,1.954-1.154,2.885-.773-.566-1.344-1.059-1.937-1.412-.83-.5-.986,1.159-1.592,1.143a.4.4,0,0,0-.022-.034c.044.678.1,1.361.163,2.033.006.084.017.163.022.247.163.112.325.207.487.3.023-.062.045-.128.068-.2.308-.919.61-2.313.868-2.161a8.51,8.51,0,0,1,1.339,3.478c.027.448-.062.8-.354.947.64.683.415,1.619.471,2.542-.806.634-1.165,1.922-1.809,2.779.089.476.179.952.274,1.428.152.745.314,1.484.482,2.224.011.062.028.123.045.184.1.426.2.846.3,1.266.1.381.19.768.291,1.148q.235.891.487,1.782c.062.2.118.4.18.61.044.158.095.314.139.465q.488,1.614,1.031,3.209c.123.354.247.706.375,1.059.107.308.219.616.337.919q.991,2.689,2.163,5.282a.736.736,0,0,0,.038.095l.006.006c.056.062.117.123.174.179a18.361,18.361,0,0,0,3.775,3.064,7.766,7.766,0,0,1,3.826,4.828,78.9,78.9,0,0,0,3.948,10.513c.022.057.051.107.073.163.1.229.213.471.314.729.005.005.005.016.011.022.185.223.37.448.56.666,1.115,1.334,2.275,2.627,3.467,3.887.291.308.588.621.89.925.4.408.8.818,1.211,1.216.319.318.644.633.969.941.4.386.811.767,1.221,1.148.829.767,1.674,1.513,2.537,2.246.342.291.694.582,1.048.873.4.336.818.673,1.232,1,.28.229.566.449.851.667.235.185.477.37.711.549q1.176.89,2.376,1.736a3.156,3.156,0,0,1,.274-1.108c-.694-.23-1.328-.449-1.977-.678-.308-.106-.616-.218-.942-.33-.073-.168-.157-.364-.229-.544-.039-.1-.079-.185-.112-.263.359-.062.55-.095.8-.14-.65-.8-.7-1.434-.123-1.877.051-.039-.112-.235-.212-.425-.533-.117-1.07-.235-1.658-.37-.028-.274-.044-.443-.062-.621.364.19.672.353.863.448,1.344-.139.358-1.137.207-1.842,1.921.157,3.383-.526,2.846-1.883-.2-.515-1.669-.767-1.473-1.652l2.156.185c.067-1.1,1.254-1.7.185-3.333,2.055.168.33-2.139,1.663-2.359-.465-1.366-1.467-3.489-1.277-3.965.168-.425,2.392-1.635,3.837-1.837a1.73,1.73,0,0,0,1.759-1.775c.2-2.465-.992-7.013-.98-8.586a14.266,14.266,0,0,1,2.649-5.574,2.042,2.042,0,0,0,.471-1.12c.185-1.406-.661-3.266-1.233-4.811m-1.512,47.7a11.028,11.028,0,0,1-1.232-.14c.369.23.739.454,1.114.678h.006a1.364,1.364,0,0,0,.465-.336,1.17,1.17,0,0,0,.134-.185c-.163,0-.324-.006-.487-.017" transform="translate(-168.51 -133.691)" fill="#4887fc"/>
                      <path id="Trazado_1043119" data-name="Trazado 1043119" d="M232.9,135.877c-.784-.93-4.017.33-4.173.112-.057-.073-1.344-2.117-2.772-2.123a10.535,10.535,0,0,0-2.93.179l-.057.017a4.789,4.789,0,0,0-.947.375.005.005,0,0,1-.005.006c-.006,0-.006,0-.006.005a4.818,4.818,0,0,0-.656.426c-.139.005-.285.011-.424.022-.331.139-.656.28-.98.42q-.984.427-1.949.879-1.924.9-3.809,1.893l-.937.5q-.9.488-1.782.991a.289.289,0,0,1-.072.045q-2.757,1.6-5.382,3.377a.677.677,0,0,1,.447.213c.207.252.7.969.431,1.316-.554.717.085,1.216-.605,1.815-.906.784-.627,1.709-.824,2.084s-.66,1.037-1.086,1.687c.812-.074,1.372-.123,2.341-.207-.98.571-1.568.918-2.207,1.3-.3.88-.627,1.838-.912,2.722.818,1.687.4,4.106,1.675,5.758,1.657-1.019,2.515,1.479,3.422.539,1.036-1.07,2.459-5.54,4.749-6.291,3.685-1.2,2.145-2.526,6.246-3.809a10.99,10.99,0,0,0,5.013-3.154c.677-.779.224-1.171.247-1.714a2.634,2.634,0,0,1,.442-1.288,10.354,10.354,0,0,1,2.095-2.163c.235-.2.241-.688.349-1.019.318-.1.632-.191,1.231-.365-.386-.577-1.074-1.344-1.046-1.562.055-.487,3.415-2.055,4.873-2.991" transform="translate(-168.141 -133.848)" fill="#4887fc"/>
                      <path id="Trazado_1043120" data-name="Trazado 1043120" d="M303.469,265.952c-.3-.8.529-1.779-.359-2.584-.205-.186.1-.972.4-1.35,1.382-1.738.866-5.279,1.743-6.143,1.349-1.33,6.1-4.809,6.952-4.994.558-.121,1.462,3.3,1.415,4.019-.031.482-1.518,1.742-1.688,2.776-.372,2.267-3.132,6.5-4.45,7.735a13.69,13.69,0,0,1-2.647,1.108l-1.366-.566" transform="translate(-167.095 -132.617)" fill="#4887fc"/>
                      <path id="Trazado_1043121" data-name="Trazado 1043121" d="M256.694,162.119c-.542-.4-1.1.814-1.959.328-1.178-.669-4.738.8-4.74.78a18.562,18.562,0,0,1,1.535-3.405c.061-.1-.322-.376-.575-.653.629-.11,1.191-.209,2.125-.371l-2.288-1.473c-.126,1.011-.239,1.97-.337,2.833a5.34,5.34,0,0,1-4.277,1.018c.714-3.372,1.295-3.974,3.786-4.322.095-.731.2-1.475.318-2.357-.257-.349-.625-.85-1.065-1.449,1.324-.336,2.792-1.005,3.364-.236.555.748,1.782.894,2,1.918-.234.307-.5.655-.867,1.141,1.207,1.276,2.456,2.6,3.823,4.051-.229.588-.549,1.415-.848,2.2" transform="translate(-167.693 -133.652)" fill="#4887fc"/>
                      <path id="Trazado_1043122" data-name="Trazado 1043122" d="M269.96,135.245l2.177,0c1.133-1.071,3.865-.989,6.5.165-.737.692-.749.707-3.427.515.968.516,1.782.964,2.582,1.41-1.5.675-1.545.627-3.171-.847-.825.52-1.624,1.769-1.836,1.863a11.745,11.745,0,0,1-2.363-.738c0-.125.01-.378.018-.633-1.908-.707-1.911-.822-.479-1.732" transform="translate(-167.453 -133.841)" fill="#4887fc"/>
                      <path id="Trazado_1043123" data-name="Trazado 1043123" d="M302.1,142.866a6.789,6.789,0,0,1-.756-.095,20.723,20.723,0,0,1-3.053-.919,5.675,5.675,0,0,0,.857-.9c.454.28.907.56,1.355.851.084.051.163.107.247.158.174.117.348.229.521.347.28.18.554.37.829.555" transform="translate(-167.145 -133.773)" fill="#4887fc"/>
                      <path id="Trazado_1043124" data-name="Trazado 1043124" d="M230.471,150.882c-.111.457-.225.937-.328,1.381-1.054.643-2.1,1.292-3.176,1.969-1.05-.2-2.036-.324-3.069-.477-.032-.244-.07-.524-.11-.842-.284.214-.508.386-.753.572-.153-.523-.3-1.043-.465-1.625.412-.332.783-.629,1.134-.906,1,.643,2.313-.484,3.163-.158.556-.441.956-.729,1.273-.953l2.331,1.038" transform="translate(-167.941 -133.68)" fill="#4887fc"/>
                      <path id="Trazado_1043125" data-name="Trazado 1043125" d="M175.072,205.159c-1.266,1.417-1.311,1.428-2.924,1.317.135-.258.241-.454.42-.79-1.12-.509-2.358-2.582-3.507-3.008.062-.465.123-.93.191-1.388.425-.011.84-.022,1.221-.034,1.557,1.334,3.075,2.622,4.6,3.9" transform="translate(-168.504 -133.139)" fill="#4887fc"/>
                      <path id="Trazado_1043126" data-name="Trazado 1043126" d="M176.136,206.969c-.226-.566-.387-.97-.593-1.493l2.948-.033c.484.68,1.426,1.26,1.019,2.828-1.318-.955-1.938-.41-1.938-.41a4.873,4.873,0,0,0-2.269-.015c-.176.062-.48.72-.62.334a4.231,4.231,0,0,1-.03-.778l1.484-.433" transform="translate(-168.445 -133.095)" fill="#4887fc"/>
                      <path id="Trazado_1043127" data-name="Trazado 1043127" d="M291.541,136.766c-.229.106-.476.213-.734.33-.5-.145-1.1-.313-1.978-.56.521-.129,1-.253,1.456-.365h.006c.42.2.835.392,1.249.594" transform="translate(-167.244 -133.824)" fill="#4887fc"/>
                      <path id="Trazado_1043128" data-name="Trazado 1043128" d="M298.508,144.794l-2.226-.009c0-.446.006-.821.009-1.374.971.388,1.689.677,2.409.97l-.192.413" transform="translate(-167.166 -133.747)" fill="#4887fc"/>
                      <path id="Trazado_1043129" data-name="Trazado 1043129" d="M214.354,285.771c-.483.453-.482.453-2.457.311.478-.459.479-.459,2.457-.311" transform="translate(-168.053 -132.251)" fill="#4887fc"/>
                      <path id="Trazado_1043130" data-name="Trazado 1043130" d="M262.656,177.313a13.565,13.565,0,0,1,.448-4.786,10.242,10.242,0,0,1,1.3-.853,1.445,1.445,0,0,1-.327,2.242c1.394,1.1-.169,3.677-.807,3.733-.1.009-.412-.224-.617-.336" transform="translate(-167.52 -133.45)" fill="#4887fc"/>
                      <path id="Trazado_1043131" data-name="Trazado 1043131" d="M280.017,181.95c1.238.162,2.656-.744,3.668.776-1.632.537-1.637.534-3.668-.776" transform="translate(-167.337 -133.343)" fill="#4887fc"/>
                      <path id="Trazado_1043132" data-name="Trazado 1043132" d="M290.281,182.84c.694-.935,1.443-1.3,2.444-.755.645,1.593-1.349.858-1.494,1.816l-.951-1.061" transform="translate(-167.229 -133.343)" fill="#4887fc"/>
                    </g>
                  </g>
                </g>
              </g>
            </g>
          </g>
          <g id="Grupo_1180326" data-name="Grupo 1180326" transform="translate(172.266 129.509)" opacity="0.45" style="mix-blend-mode: screen;isolation: isolate">
            <g id="Grupo_1180325" data-name="Grupo 1180325">
              <g id="Grupo_1180324" data-name="Grupo 1180324" clip-path="url(#clip-path-7)">
                <path id="Trazado_1043133" data-name="Trazado 1043133" d="M303.384,151.408a52.988,52.988,0,0,1-4.145,20.512q-.571,1.378-1.221,2.722a58.774,58.774,0,0,1-3.78,6.677c-.247.381-.5.757-.762,1.126-.4.583-.813,1.165-1.233,1.737-1.154,1.562-2.392,3.08-3.7,4.547-12.978,14.559-33.344,24.405-56.584,25.85-1.954.123-3.937.185-5.932.185-21.8,0-41.5-7.388-55.558-19.28a83.908,83.908,0,0,1,6.145-17.716,86.561,86.561,0,0,1,14.708-21.756c.006-.005.006-.005.006-.011.852-.924,1.725-1.831,2.621-2.711q1.345-1.344,2.745-2.61l.941-.84c.314-.28.634-.555.953-.829a86.044,86.044,0,0,1,10.371-7.639l.143-.09c.872-.545,1.75-1.079,2.642-1.593a.326.326,0,0,0,.073-.044q.882-.5,1.782-.991c.313-.169.621-.337.935-.5q1.874-1,3.809-1.894c.645-.3,1.294-.593,1.949-.879.325-.139.65-.28.98-.42.359-.157.718-.307,1.081-.448,0-.006,0-.006.006-.006a0,0,0,0,0,.005-.005,4.751,4.751,0,0,1,.947-.375,85.4,85.4,0,0,1,18.793-5.008,84.518,84.518,0,0,1,12.849-.952,85.666,85.666,0,0,1,31.02,5.741q2.831,1.084,5.556,2.352h.006c.42.2.835.392,1.249.594a85.653,85.653,0,0,1,7.7,4.244l0,0c.454.28.907.56,1.355.851.084.051.163.107.247.158.174.106.348.218.515.336a.018.018,0,0,1,.006.011c.027.152.051.308.073.46.128.762.235,1.535.331,2.307a52.879,52.879,0,0,1,.364,6.2" transform="translate(-170.472 -128.162)" fill="#4887fc"/>
              </g>
            </g>
          </g>
          <g id="Grupo_1180329" data-name="Grupo 1180329" transform="translate(177.619 114.903)" style="mix-blend-mode: multiply;isolation: isolate">
            <g id="Grupo_1180328" data-name="Grupo 1180328">
              <g id="Grupo_1180327" data-name="Grupo 1180327" clip-path="url(#clip-path-8)">
                <path id="Trazado_1043134" data-name="Trazado 1043134" d="M298,178.063s-8.742-.461-23.459-11.082a38.636,38.636,0,0,0,1.277-15.827c-3.07-23.949-27.886-40.5-55.428-36.972s-47.381,25.808-44.311,49.757,27.886,40.5,55.428,36.973a54.354,54.354,0,0,0,32.6-16.116c8.43,1.188,20.316.589,33.891-6.733" transform="translate(-175.77 -113.708)" fill="#fdda5f"/>
              </g>
            </g>
          </g>
          <path id="Trazado_1043135" data-name="Trazado 1043135" d="M299.076,172.873s-8.613-1.569-21.86-13.975a38.616,38.616,0,0,0,3.279-15.536c0-24.145-22.51-43.719-50.277-43.719s-50.278,19.574-50.278,43.719,22.51,43.72,50.278,43.72A54.354,54.354,0,0,0,264.6,175.243c8.211,2.25,20.075,3.168,34.472-2.37" transform="translate(1.893 1.047)" fill="#fff"/>
          <path id="Trazado_1043136" data-name="Trazado 1043136" d="M225.652,99.82c-.048.587-.112,1.181-.2,1.777-2.315,15.262-18.413,25.485-35.966,22.826a34.649,34.649,0,0,1-4.155-.884c7.668-13.085,22.689-22.36,40.323-23.718" transform="translate(1.95 1.049)" fill="#050012"/>
        </g>
        <text id="hello" transform="translate(-3277.036 3239.289)" fill="#212429" font-size="22" font-family="SegoeUI-Bold, Segoe UI" font-weight="700"><tspan x="0" y="0">hello</tspan></text>
        <g id="Grupo_1180332" data-name="Grupo 1180332" transform="translate(-3483.299 3084.461)" clip-path="url(#clip-path-2)">
          <path id="Trazado_1043137" data-name="Trazado 1043137" d="M133.152,105.646s6.8-1.24,17.272-11.042a30.519,30.519,0,0,1-2.59-12.276c0-19.078,17.785-34.544,39.726-34.544s39.726,15.466,39.726,34.544-17.786,34.545-39.726,34.545a42.948,42.948,0,0,1-27.17-9.354c-6.488,1.777-15.862,2.5-27.238-1.873" transform="translate(1.401 0.502)" fill="#917aeb"/>
        </g>
        <text id="ni_hao" data-name="ni hao" transform="translate(-3329.737 3172.066)" fill="#212429" font-size="22" font-family="SegoeUI-Bold, Segoe UI" font-weight="700"><tspan x="0" y="0">ni hao</tspan></text>
        <g id="Grupo_1180400" data-name="Grupo 1180400" transform="translate(-3483.299 3084.461)" clip-path="url(#clip-path-2)">
          <path id="Trazado_1043138" data-name="Trazado 1043138" d="M318.519,120.031a16,16,0,0,0-12.278,6.339c-1.925,2.484-3.154,6.464-1.182,8.9a12.394,12.394,0,0,0-7.789,6.721,14.986,14.986,0,0,0-.633,10.978,3.269,3.269,0,0,0,1.217,1.857,1.159,1.159,0,0,0,1.72-.675c-2.257-.657-6.661.662-8.5,2.273a9.062,9.062,0,0,0-2.905,6.817c.022,1.631.6,3.418,1.919,4.115a9.257,9.257,0,0,0,1.4,9.738,6.989,6.989,0,0,0,8.745,1.289c.029.337.658,6.48,5.8,9.025,4.484,2.219,10.438.729,13.9-3.878.584,1.307,4.528,9.753,14.091,12.607a23.008,23.008,0,0,0,22.7-6.051c.411,4.138,2.111,8.057,5.793,8.671s7.6-1.823,9.075-5.647c3.2,5,9.678,5.58,12.858,2.656,2.7-2.485,3.154-7.621.143-11.47,3.292-1.761,6.677-3.255,6.695-7.336a11.385,11.385,0,0,0-5.469-9.871,9.983,9.983,0,0,0,3.8-9.165,9.279,9.279,0,0,0-5.91-7.641,15.657,15.657,0,0,0,2.026-12.746c-.78-2.787-2.565-3.828-8.164-9.179-8.272-7.9-7.29-7.949-10.176-10.091a36.953,36.953,0,0,0-17.841-6.65c-15.723-1.989-27.825,6.1-31.045,8.411" transform="translate(3.032 1.17)" fill="#992b1e"/>
          <g id="Grupo_1180336" data-name="Grupo 1180336" transform="translate(309.526 100.803)" style="mix-blend-mode: screen;isolation: isolate">
            <g id="Grupo_1180335" data-name="Grupo 1180335">
              <g id="Grupo_1180334" data-name="Grupo 1180334" clip-path="url(#clip-path-11)">
                <path id="Trazado_1043139" data-name="Trazado 1043139" d="M306.314,99.819c.017-.024.025-.039.042-.064-.049.024-.067.048-.042.064" transform="translate(-306.303 -99.755)" fill="#050012"/>
              </g>
            </g>
          </g>
          <path id="Trazado_1043140" data-name="Trazado 1043140" d="M311.031,145.819a18.71,18.71,0,0,0-.086-9.616c-1.1-3.833-3.524-7.095-8.884-1.983-9.529,9.09-.471,21.163,7.414,17.905Z" transform="translate(3.135 1.383)" fill="#f29e79"/>
          <g id="Grupo_1180339" data-name="Grupo 1180339" transform="translate(306.072 138.967)" style="mix-blend-mode: multiply;isolation: isolate">
            <g id="Grupo_1180338" data-name="Grupo 1180338">
              <g id="Grupo_1180337" data-name="Grupo 1180337" clip-path="url(#clip-path-12)">
                <path id="Trazado_1043141" data-name="Trazado 1043141" d="M303.326,137.691a4.672,4.672,0,0,1,4.594,1.272,4.423,4.423,0,0,1,.893,4.56,4.619,4.619,0,0,1-1.7,2.226.635.635,0,0,1-.86-.224.644.644,0,0,1,.224-.861,3.387,3.387,0,0,0,1.233-3.625.456.456,0,0,1-.216.038,3.819,3.819,0,0,0-.559-.018c-.089,0-.177.01-.266.019l-.061.008c-.04.006-.082.013-.122.021a4.329,4.329,0,0,0-.514.135c-.085.028-.167.062-.251.093.129-.049-.032.015-.047.022-.04.018-.08.038-.12.058a4.274,4.274,0,0,0-.46.27c-.037.024-.074.05-.11.076l-.081.063c-.055.045-.11.091-.163.138a3.9,3.9,0,0,0-.369.384c-.027.032-.054.065-.079.1-.008.01-.018.023-.03.041-.057.08-.108.163-.159.247a.628.628,0,1,1-1.1-.615,4.809,4.809,0,0,1,3.975-2.308,3.409,3.409,0,0,0-3.317-.91.629.629,0,0,1-.339-1.21" transform="translate(-302.885 -137.521)" fill="#e66239"/>
              </g>
            </g>
          </g>
          <path id="Trazado_1043142" data-name="Trazado 1043142" d="M362.391,173.614c-13.343,8.417-27.234,4.821-35.177,2.768-4.437-1.152-18.17-4.7-21.738-14.4-.255-.7-.4-1.28-.568-1.908a22.751,22.751,0,0,1-.687-4.855,34.669,34.669,0,0,1,.384-6.077,57.253,57.253,0,0,1,1.878-8.353c.116-.4.231-.791.354-1.177.648-2.07,1.354-4.008,2.09-5.805.86-2.115,1.763-4.049,2.649-5.8a61.63,61.63,0,0,1,7.123-11.072,41.409,41.409,0,0,1,5.262-5.446,22.132,22.132,0,0,1,2.8-2.028,34.357,34.357,0,0,1,12.17-4.2,17.022,17.022,0,0,1,4.442-.238c23.014,1.013,33.021,11.879,35.793,25.632a46.362,46.362,0,0,1,.821,10.359c0,.136-.012.323-.017.564-.2,4.093-1.915,22.174-17.571,32.04" transform="translate(3.201 1.103)" fill="#f29e79"/>
          <path id="Trazado_1043143" data-name="Trazado 1043143" d="M350.859,107.107a71.839,71.839,0,0,1-6.053,7.1c-.271.285-.543.57-.838.837a69.308,69.308,0,0,1-7.027,6.183,73.638,73.638,0,0,1-29.715,13.8,29.577,29.577,0,0,1,2.781-15.784,27.422,27.422,0,0,1,2.19-3.7,29.991,29.991,0,0,1,7.422-7.478,27.947,27.947,0,0,1,29.258-2.052c.773.39,1.442.773,1.983,1.1" transform="translate(3.231 1.081)" fill="#992b1e"/>
          <path id="Trazado_1043144" data-name="Trazado 1043144" d="M385.077,140.944c0,.216-.012.439-.03.649a24.581,24.581,0,0,1-3.545,12.589c-2.488,3.9-4.133,5.733-8.753,6.134-12.935-7.455-22.441-20.357-26.406-34.724a56.476,56.476,0,0,1-1.817-10c-.045-.47-.079-.946-.112-1.421a54.507,54.507,0,0,1,.07-7.769c1.34-.191,2.685-.34,4-.43,8.95-.682,17.288.8,24.177,6.891a36.316,36.316,0,0,1,7.718,9.677,37.01,37.01,0,0,1,4.7,18.4" transform="translate(3.622 1.112)" fill="#992b1e"/>
          <path id="Trazado_1043145" data-name="Trazado 1043145" d="M333.633,137.244c-.434,1.34.175,2.726-.206,4.056a1.431,1.431,0,0,1-1.277,1.179,2.579,2.579,0,0,0-1.645.446,2.223,2.223,0,0,0-.192,2.758c.772,1.215,2.412,1.406,3.715,1.522a.384.384,0,0,0,.056-.765c-1.134-.1-2.853-.231-3.293-1.513a1.475,1.475,0,0,1,.114-1.308c.335-.453.964-.339,1.457-.394a2.274,2.274,0,0,0,1.869-2.009c.245-1.231-.267-2.506.125-3.716.153-.468-.569-.727-.722-.257" transform="translate(3.471 1.44)" fill="#dd541d"/>
          <path id="Trazado_1043146" data-name="Trazado 1043146" d="M328.268,138.016c-.477.249-1.5-2.744-4.487-3.69-2.745-.869-5.048.654-5.238.225-.25-.566,3.274-4.324,6.6-3.14s3.707,6.3,3.122,6.6" transform="translate(3.351 1.379)" fill="#050012"/>
          <path id="Trazado_1043147" data-name="Trazado 1043147" d="M355.466,145.674c-.476.249-1.5-2.745-4.487-3.691-2.746-.869-5.048.654-5.238.225-.251-.566,3.273-4.323,6.6-3.14s3.707,6.3,3.121,6.606" transform="translate(3.637 1.46)" fill="#050012"/>
          <path id="Trazado_1043148" data-name="Trazado 1043148" d="M351.7,155.274c-.3.185-.6.364-.893.531-23.268,13.632-33.623-7.09-33.623-7.09.477.1.984.192,1.549.29Z" transform="translate(3.337 1.564)" fill="#e66239"/>
          <path id="Trazado_1043149" data-name="Trazado 1043149" d="M351.7,155.274c-.3.185-.6.364-.893.531-.029,0-.054.01-.083.01-25.206,2.754-33.54-7.1-33.54-7.1.477.1.984.192,1.549.29Z" transform="translate(3.337 1.564)" fill="#fff7e6"/>
          <path id="Trazado_1043150" data-name="Trazado 1043150" d="M364.525,165.313a18.7,18.7,0,0,1,5.2-8.087c2.973-2.656,6.765-4.12,8.57,3.065,3.208,12.772-10.9,18.149-15.826,11.185Z" transform="translate(3.813 1.63)" fill="#f29e79"/>
          <g id="Grupo_1180342" data-name="Grupo 1180342" transform="translate(371.255 162.692)" style="mix-blend-mode: multiply;isolation: isolate">
            <g id="Grupo_1180341" data-name="Grupo 1180341">
              <g id="Grupo_1180340" data-name="Grupo 1180340" clip-path="url(#clip-path-13)">
                <path id="Trazado_1043151" data-name="Trazado 1043151" d="M375.251,162.513a4.671,4.671,0,0,0-4.564-1.375,4.421,4.421,0,0,0-3.189,3.38,4.623,4.623,0,0,0,.251,2.79.634.634,0,0,0,.847.269.641.641,0,0,0,.27-.847,3.39,3.39,0,0,1,.891-3.724.444.444,0,0,0,.164.148,4.047,4.047,0,0,1,.482.283c.073.051.144.1.214.159.018.015.037.031.047.038.03.027.062.055.091.083a4.164,4.164,0,0,1,.363.39c.057.069.109.141.163.212-.084-.11.019.029.028.044.024.036.047.075.071.113a4.125,4.125,0,0,1,.246.473c.018.04.035.082.053.122,0,.012.033.1.034.1.022.069.045.136.064.205a3.825,3.825,0,0,1,.107.52c.006.042.01.084.015.125l0,.052c.005.1.005.2,0,.293a.629.629,0,0,0,1.256.065,4.811,4.811,0,0,0-2.131-4.073,3.408,3.408,0,0,1,3.29,1,.629.629,0,0,0,.933-.842" transform="translate(-367.39 -160.999)" fill="#e66239"/>
              </g>
            </g>
          </g>
          <g id="Grupo_1180384" data-name="Grupo 1180384" transform="translate(315.341 137.589)" opacity="0.38">
            <g id="Grupo_1180383" data-name="Grupo 1180383">
              <g id="Grupo_1180382" data-name="Grupo 1180382" clip-path="url(#clip-path-14)">
                <g id="Grupo_1180345" data-name="Grupo 1180345" style="mix-blend-mode: multiply;isolation: isolate">
                  <g id="Grupo_1180344" data-name="Grupo 1180344">
                    <g id="Grupo_1180343" data-name="Grupo 1180343" clip-path="url(#clip-path-15)">
                      <path id="Trazado_1043152" data-name="Trazado 1043152" d="M312.757,136.572a.353.353,0,1,1-.285-.408.352.352,0,0,1,.285.408" transform="translate(-312.058 -136.158)" fill="#dd541d"/>
                    </g>
                  </g>
                </g>
                <g id="Grupo_1180348" data-name="Grupo 1180348" transform="translate(22.987 5.503)" style="mix-blend-mode: multiply;isolation: isolate">
                  <g id="Grupo_1180347" data-name="Grupo 1180347">
                    <g id="Grupo_1180346" data-name="Grupo 1180346" clip-path="url(#clip-path-15)">
                      <path id="Trazado_1043153" data-name="Trazado 1043153" d="M335.505,142.018a.353.353,0,1,1-.285-.408.352.352,0,0,1,.285.408" transform="translate(-334.806 -141.604)" fill="#dd541d"/>
                    </g>
                  </g>
                </g>
                <g id="Grupo_1180351" data-name="Grupo 1180351" transform="translate(11.813 6.893)" style="mix-blend-mode: multiply;isolation: isolate">
                  <g id="Grupo_1180350" data-name="Grupo 1180350">
                    <g id="Grupo_1180349" data-name="Grupo 1180349" clip-path="url(#clip-path-15)">
                      <path id="Trazado_1043154" data-name="Trazado 1043154" d="M324.447,143.393a.353.353,0,1,1-.285-.408.352.352,0,0,1,.285.408" transform="translate(-323.748 -142.979)" fill="#dd541d"/>
                    </g>
                  </g>
                </g>
                <g id="Grupo_1180354" data-name="Grupo 1180354" transform="translate(7.868 5.077)" style="mix-blend-mode: multiply;isolation: isolate">
                  <g id="Grupo_1180353" data-name="Grupo 1180353">
                    <g id="Grupo_1180352" data-name="Grupo 1180352" clip-path="url(#clip-path-18)">
                      <path id="Trazado_1043155" data-name="Trazado 1043155" d="M320.544,141.6a.353.353,0,1,1-.285-.408.352.352,0,0,1,.285.408" transform="translate(-319.844 -141.182)" fill="#dd541d"/>
                    </g>
                  </g>
                </g>
                <g id="Grupo_1180357" data-name="Grupo 1180357" transform="translate(11.962 3.843)" style="mix-blend-mode: multiply;isolation: isolate">
                  <g id="Grupo_1180356" data-name="Grupo 1180356">
                    <g id="Grupo_1180355" data-name="Grupo 1180355" clip-path="url(#clip-path-19)">
                      <path id="Trazado_1043156" data-name="Trazado 1043156" d="M324.594,140.375a.353.353,0,1,1-.285-.408.352.352,0,0,1,.285.408" transform="translate(-323.895 -139.961)" fill="#dd541d"/>
                    </g>
                  </g>
                </g>
                <g id="Grupo_1180360" data-name="Grupo 1180360" transform="translate(4.124 2.716)" style="mix-blend-mode: multiply;isolation: isolate">
                  <g id="Grupo_1180359" data-name="Grupo 1180359">
                    <g id="Grupo_1180358" data-name="Grupo 1180358" clip-path="url(#clip-path-19)">
                      <path id="Trazado_1043157" data-name="Trazado 1043157" d="M316.839,139.26a.353.353,0,1,1-.286-.409.353.353,0,0,1,.286.409" transform="translate(-316.139 -138.846)" fill="#dd541d"/>
                    </g>
                  </g>
                </g>
                <g id="Grupo_1180363" data-name="Grupo 1180363" transform="translate(26.851 8.809)" style="mix-blend-mode: multiply;isolation: isolate">
                  <g id="Grupo_1180362" data-name="Grupo 1180362">
                    <g id="Grupo_1180361" data-name="Grupo 1180361" clip-path="url(#clip-path-18)">
                      <path id="Trazado_1043158" data-name="Trazado 1043158" d="M339.329,145.289a.353.353,0,1,1-.287-.408.354.354,0,0,1,.287.408" transform="translate(-338.629 -144.875)" fill="#dd541d"/>
                    </g>
                  </g>
                </g>
                <g id="Grupo_1180366" data-name="Grupo 1180366" transform="translate(43.608 13.902)" style="mix-blend-mode: multiply;isolation: isolate">
                  <g id="Grupo_1180365" data-name="Grupo 1180365">
                    <g id="Grupo_1180364" data-name="Grupo 1180364" clip-path="url(#clip-path-19)">
                      <path id="Trazado_1043159" data-name="Trazado 1043159" d="M355.911,150.329a.353.353,0,1,1-.285-.409.352.352,0,0,1,.285.409" transform="translate(-355.212 -149.915)" fill="#dd541d"/>
                    </g>
                  </g>
                </g>
                <g id="Grupo_1180369" data-name="Grupo 1180369" transform="translate(42.719 9.787)" style="mix-blend-mode: multiply;isolation: isolate">
                  <g id="Grupo_1180368" data-name="Grupo 1180368">
                    <g id="Grupo_1180367" data-name="Grupo 1180367" clip-path="url(#clip-path-18)">
                      <path id="Trazado_1043160" data-name="Trazado 1043160" d="M355.032,146.257a.353.353,0,1,1-.285-.409.352.352,0,0,1,.285.409" transform="translate(-354.332 -145.843)" fill="#dd541d"/>
                    </g>
                  </g>
                </g>
                <g id="Grupo_1180372" data-name="Grupo 1180372" transform="translate(26.899 5.458)" style="mix-blend-mode: multiply;isolation: isolate">
                  <g id="Grupo_1180371" data-name="Grupo 1180371">
                    <g id="Grupo_1180370" data-name="Grupo 1180370" clip-path="url(#clip-path-18)">
                      <path id="Trazado_1043161" data-name="Trazado 1043161" d="M339.376,141.973a.352.352,0,1,1-.285-.408.352.352,0,0,1,.285.408" transform="translate(-338.677 -141.559)" fill="#dd541d"/>
                    </g>
                  </g>
                </g>
                <g id="Grupo_1180375" data-name="Grupo 1180375" transform="translate(38.686 13.375)" style="mix-blend-mode: multiply;isolation: isolate">
                  <g id="Grupo_1180374" data-name="Grupo 1180374">
                    <g id="Grupo_1180373" data-name="Grupo 1180373" clip-path="url(#clip-path-18)">
                      <path id="Trazado_1043162" data-name="Trazado 1043162" d="M351.04,149.808a.353.353,0,1,1-.285-.408.352.352,0,0,1,.285.408" transform="translate(-350.341 -149.394)" fill="#dd541d"/>
                    </g>
                  </g>
                </g>
                <g id="Grupo_1180378" data-name="Grupo 1180378" transform="translate(30.813 10.663)" style="mix-blend-mode: multiply;isolation: isolate">
                  <g id="Grupo_1180377" data-name="Grupo 1180377">
                    <g id="Grupo_1180376" data-name="Grupo 1180376" clip-path="url(#clip-path-26)">
                      <path id="Trazado_1043163" data-name="Trazado 1043163" d="M343.249,147.123a.353.353,0,1,1-.285-.408.352.352,0,0,1,.285.408" transform="translate(-342.55 -146.71)" fill="#dd541d"/>
                    </g>
                  </g>
                </g>
                <g id="Grupo_1180381" data-name="Grupo 1180381" transform="translate(15.679 2.278)" style="mix-blend-mode: multiply;isolation: isolate">
                  <g id="Grupo_1180380" data-name="Grupo 1180380">
                    <g id="Grupo_1180379" data-name="Grupo 1180379" clip-path="url(#clip-path-15)">
                      <path id="Trazado_1043164" data-name="Trazado 1043164" d="M328.273,138.826a.353.353,0,1,1-.285-.408.352.352,0,0,1,.285.408" transform="translate(-327.574 -138.412)" fill="#dd541d"/>
                    </g>
                  </g>
                </g>
              </g>
            </g>
          </g>
          <g id="Grupo_1180387" data-name="Grupo 1180387" transform="translate(315.427 109.141)" style="mix-blend-mode: screen;isolation: isolate">
            <g id="Grupo_1180386" data-name="Grupo 1180386">
              <g id="Grupo_1180385" data-name="Grupo 1180385" clip-path="url(#clip-path-28)">
                <path id="Trazado_1043165" data-name="Trazado 1043165" d="M343.915,114.99a69.2,69.2,0,0,1-7.028,6.182c-.257-.212-.509-.412-.766-.625a19.408,19.408,0,0,1-2.284-2.273,26.812,26.812,0,0,1-12.21.811,25.686,25.686,0,0,1-2.52-.547,24.583,24.583,0,0,1-6.964-3.056,29.993,29.993,0,0,1,7.422-7.478,13.542,13.542,0,0,0,2.03,1.511,16.845,16.845,0,0,0,12.471,1.708,14.3,14.3,0,0,0,4.9-2.22,12.046,12.046,0,0,0,2.635,4.087,13.523,13.523,0,0,0,2.312,1.9" transform="translate(-312.143 -108.006)" fill="#992b1e"/>
                <path id="Trazado_1043166" data-name="Trazado 1043166" d="M385.075,140.854c0,.216-.012.439-.03.649-.651-.592-1.276-1.225-1.885-1.881l-.006-.012a31.883,31.883,0,0,1-4.97-7.244,13.059,13.059,0,0,1-11.65.71c-3.709-1.611-7.129-4.871-7.528-8.525a22.253,22.253,0,0,1-12.665.951,56.483,56.483,0,0,1-1.817-10,14.145,14.145,0,0,0,3.283,1.317,14.688,14.688,0,0,0,10.484-1.323,11.589,11.589,0,0,0,1.69-1.118,13.608,13.608,0,0,0,1.132,2l.005.012a16.468,16.468,0,0,0,9.426,6.458,17.314,17.314,0,0,0,9.832-.4,37.01,37.01,0,0,1,4.7,18.4" transform="translate(-311.802 -107.939)" fill="#992b1e"/>
              </g>
            </g>
          </g>
          <path id="Trazado_1043167" data-name="Trazado 1043167" d="M320.034,145.91a11.557,11.557,0,1,1,13.254-8.876,11.3,11.3,0,0,1-13.254,8.876m4.564-20.516a9.489,9.489,0,1,0,6.667,11.188,9.229,9.229,0,0,0-6.667-11.188" transform="translate(3.277 1.294)" fill="#917aeb"/>
          <path id="Trazado_1043168" data-name="Trazado 1043168" d="M347.713,154.6a11.557,11.557,0,1,1,13.256-8.876,11.3,11.3,0,0,1-13.256,8.876m4.566-20.516a9.489,9.489,0,1,0,6.668,11.188,9.229,9.229,0,0,0-6.668-11.188" transform="translate(3.568 1.386)" fill="#917aeb"/>
          <path id="Trazado_1043169" data-name="Trazado 1043169" d="M340.23,143.1a1.033,1.033,0,0,1-.663-.476,6.63,6.63,0,0,0-7.7-2.675,1.036,1.036,0,0,1-.728-1.94,8.672,8.672,0,0,1,10.2,3.545,1.036,1.036,0,0,1-1.111,1.546" transform="translate(3.477 1.446)" fill="#917aeb"/>
          <path id="Trazado_1043170" data-name="Trazado 1043170" d="M375.448,155.42a1.031,1.031,0,0,1-.7-.554,12.51,12.51,0,0,0-15.6-6.189,1.036,1.036,0,1,1-.724-1.94,14.58,14.58,0,0,1,18.181,7.215,1.035,1.035,0,0,1-1.153,1.468" transform="translate(3.764 1.533)" fill="#917aeb"/>
          <path id="Trazado_1043171" data-name="Trazado 1043171" d="M175.829,210.312a18.7,18.7,0,0,1,1.266-9.533c1.559-3.669,4.366-6.609,9.059-.877,8.341,10.191-2.13,21.061-9.557,16.859Z" transform="translate(1.848 2.068)" fill="#f29e79"/>
          <g id="Grupo_1180390" data-name="Grupo 1180390" transform="translate(179.981 204.963)" style="mix-blend-mode: multiply;isolation: isolate">
            <g id="Grupo_1180389" data-name="Grupo 1180389">
              <g id="Grupo_1180388" data-name="Grupo 1180388" clip-path="url(#clip-path-29)">
                <path id="Trazado_1043172" data-name="Trazado 1043172" d="M184.389,203.182a4.67,4.67,0,0,0-4.715.7,4.424,4.424,0,0,0-1.446,4.417,4.611,4.611,0,0,0,1.415,2.417.634.634,0,0,0,.881-.116.642.642,0,0,0-.117-.881,3.387,3.387,0,0,1-.778-3.749.445.445,0,0,0,.21.064,3.974,3.974,0,0,1,.557.05c.087.014.174.032.261.053l.06.014c.039.012.079.023.118.036a4.342,4.342,0,0,1,.494.2c.081.038.159.082.238.123-.122-.065.029.018.044.027.037.024.075.048.112.073a4.379,4.379,0,0,1,.423.323l.1.089.072.072c.05.053.1.1.145.159a3.827,3.827,0,0,1,.319.425c.023.035.044.071.067.107l.025.044c.045.087.087.176.126.265a.628.628,0,1,0,1.163-.476,4.81,4.81,0,0,0-3.662-2.779,3.409,3.409,0,0,1,3.4-.5.629.629,0,0,0,.486-1.159" transform="translate(-178.107 -202.83)" fill="#e66239"/>
              </g>
            </g>
          </g>
          <path id="Trazado_1043173" data-name="Trazado 1043173" d="M122.121,231.634c12.209,9.991,26.436,8.128,34.572,7.064,4.545-.6,18.61-2.437,23.342-11.625.337-.659.555-1.222.8-1.824a22.751,22.751,0,0,0,1.278-4.733,34.594,34.594,0,0,0,.364-6.079,57.194,57.194,0,0,0-.838-8.52c-.067-.407-.132-.813-.206-1.212-.389-2.134-.853-4.144-1.361-6.018-.594-2.2-1.253-4.235-1.917-6.078a61.64,61.64,0,0,0-5.712-11.862,41.5,41.5,0,0,0-4.552-6.05,22.238,22.238,0,0,0-2.525-2.357,34.377,34.377,0,0,0-11.562-5.664,17.05,17.05,0,0,0-4.38-.782c-22.965-1.82-34.229,7.736-38.669,21.045a46.466,46.466,0,0,0-2.085,10.18c-.015.134-.028.322-.053.562-.306,4.086-.822,22.241,13.506,33.954" transform="translate(1.142 1.742)" fill="#f29e79"/>
          <path id="Trazado_1043174" data-name="Trazado 1043174" d="M148.6,179.107a53.484,53.484,0,0,1-32.978,27.959c-1.157,2.4-3.815,5.921-4.972,8.317a53.105,53.105,0,0,1-5.3-15.536c-2.331-15.612,7.023-32.219,21.582-38.319s32.957-1.118,42.45,11.494c6.061,8.053,10.732,17.123,10.757,27.2-4.849-3.887-10.505-6.614-15.763-9.927s-13.147-5.557-15.777-11.189" transform="translate(1.105 1.671)" fill="#050012"/>
          <path id="Trazado_1043175" data-name="Trazado 1043175" d="M154.354,199.02c.267,1.383-.508,2.684-.293,4.051a1.428,1.428,0,0,0,1.123,1.327,2.58,2.58,0,0,1,1.578.645,2.223,2.223,0,0,1-.148,2.76c-.917,1.111-2.567,1.1-3.874,1.054a.383.383,0,0,1,.038-.765c1.138.038,2.861.119,3.455-1.1a1.47,1.47,0,0,0,.046-1.312c-.277-.491-.915-.455-1.4-.57a2.275,2.275,0,0,1-1.609-2.223c-.092-1.252.573-2.455.331-3.7-.093-.484.655-.652.748-.167" transform="translate(1.603 2.09)" fill="#dd541d"/>
          <path id="Trazado_1043176" data-name="Trazado 1043176" d="M159.635,200.448c.442.305,1.825-2.539,4.906-3.112,2.83-.526,4.928,1.268,5.17.866.318-.531-2.717-4.693-6.167-3.927s-4.451,5.8-3.909,6.173" transform="translate(1.678 2.042)" fill="#050012"/>
          <path id="Trazado_1043177" data-name="Trazado 1043177" d="M131.7,204.709c.442.3,1.825-2.539,4.906-3.112,2.83-.526,4.928,1.268,5.17.866.318-.531-2.717-4.693-6.167-3.927s-4.451,5.8-3.909,6.173" transform="translate(1.384 2.087)" fill="#050012"/>
          <path id="Trazado_1043178" data-name="Trazado 1043178" d="M138,216.066a9.1,9.1,0,0,0,5.319,6.024c.145.074.288.139.438.2a20.742,20.742,0,0,0,3.4,1.135,21.268,21.268,0,0,0,6.749.471c.157-.012.312-.029.469-.041,3.723-.4,7.411-1.768,9.637-4.421.113-.131.22-.262.324-.405a8.769,8.769,0,0,0,1.439-2.91,5.34,5.34,0,0,0-.449-4.376c-1.3-1.967-3.111-1.464-4.867-.636-.141.067-.284.133-.424.206-.494.247-.975.5-1.441.724a19.666,19.666,0,0,1-4.755,1.56c-.154.03-.308.054-.469.079a19.691,19.691,0,0,1-7.838-.252c-.152-.039-.3-.074-.457-.119-.091-.018-.184-.047-.277-.072-1.651-.467-4.429-1.7-6.006-.5a2.41,2.41,0,0,0-.93,1.647,4.453,4.453,0,0,0,.133,1.685" transform="translate(1.45 2.212)" fill="#fff"/>
          <path id="Trazado_1043179" data-name="Trazado 1043179" d="M153.747,223.86c.157-.011.312-.029.469-.04-.081-1.922-.366-7.2-.535-10.259-.154.03-.309.055-.47.079.215,3.847.465,8.532.536,10.22" transform="translate(1.612 2.246)" fill="#dd541d"/>
          <path id="Trazado_1043180" data-name="Trazado 1043180" d="M143.263,222.059c.145.073.288.139.437.2l1.779-8.866c-.152-.04-.3-.074-.456-.12Z" transform="translate(1.507 2.243)" fill="#dd541d"/>
          <path id="Trazado_1043181" data-name="Trazado 1043181" d="M159.807,211.3l3.976,8.122c.113-.132.22-.263.324-.405l-3.876-7.921c-.141.066-.284.132-.424.205" transform="translate(1.681 2.22)" fill="#dd541d"/>
          <path id="Trazado_1043182" data-name="Trazado 1043182" d="M120.372,223.1a18.7,18.7,0,0,0-4.173-8.664c-2.624-3-6.209-4.919-8.881,1.989-4.751,12.283,8.586,19.349,14.333,13.044Z" transform="translate(1.119 2.226)" fill="#f29e79"/>
          <g id="Grupo_1180393" data-name="Grupo 1180393" transform="translate(110.918 220.169)" style="mix-blend-mode: multiply;isolation: isolate">
            <g id="Grupo_1180392" data-name="Grupo 1180392">
              <g id="Grupo_1180391" data-name="Grupo 1180391" clip-path="url(#clip-path-30)">
                <path id="Trazado_1043183" data-name="Trazado 1043183" d="M109.976,218.992a4.669,4.669,0,0,1,4.7-.805,4.423,4.423,0,0,1,2.75,3.746,4.609,4.609,0,0,1-.591,2.738.634.634,0,0,1-.873.164.643.643,0,0,1-.164-.874,3.389,3.389,0,0,0-.427-3.8.461.461,0,0,1-.18.126,3.907,3.907,0,0,0-.513.221c-.079.041-.157.085-.232.131l-.053.032c-.033.023-.067.047-.1.072a4,4,0,0,0-.408.342c-.065.062-.124.126-.187.19.1-.1-.022.028-.033.041-.029.033-.057.068-.084.1a4.177,4.177,0,0,0-.3.44q-.035.058-.067.115c-.006.011-.045.091-.046.091-.03.065-.062.129-.088.2a3.893,3.893,0,0,0-.171.5c-.011.04-.02.082-.03.122,0,.012-.006.029-.009.051-.017.1-.029.194-.038.291a.629.629,0,0,1-1.254-.09,4.809,4.809,0,0,1,2.615-3.781,3.408,3.408,0,0,0-3.388.589.629.629,0,0,1-.823-.95" transform="translate(-109.763 -217.878)" fill="#e66239"/>
              </g>
            </g>
          </g>
          <path id="Trazado_1043184" data-name="Trazado 1043184" d="M204.386,174.254q-4.857,2.256-10.133,4.529l-.475.2c-6.753,2.881-14,5.75-21.749,8.518l-.441.155c-6.036,2.149-12.366,4.232-18.995,6.2-.14.043-.281.086-.43.129q-5.073,1.507-10.369,2.918-4.1,1.093-8.13,2.069c-.15.034-.3.077-.444.107q-10.376,2.512-20.129,4.291c-.158.033-.314.06-.472.085-8.6,1.587-16.8,2.789-24.53,3.7-.174.017-.349.042-.522.06l0,0c-5.172.6-10.138,1.07-14.863,1.435l44.935-64.081,0,0,1.571-2.247,0,0L122.248,138a9.534,9.534,0,0,1,2.318-2.339c.169-.118.341-.232.517-.343a9.816,9.816,0,0,1,1.74-.855c.144-.056.29-.1.436-.15a9.247,9.247,0,0,1,1.485-.349,4.282,4.282,0,0,1,.464-.061,8.973,8.973,0,0,1,1.914-.012c.2.013.409.04.616.075a9.592,9.592,0,0,1,3.274,1.14l5.119,2.887,0,0,2.814,1.585.008.009Z" transform="translate(0.765 1.407)" fill="#fdda5f"/>
          <g id="Grupo_1180396" data-name="Grupo 1180396" transform="translate(88.332 135.301)" style="mix-blend-mode: multiply;isolation: isolate">
            <g id="Grupo_1180395" data-name="Grupo 1180395">
              <g id="Grupo_1180394" data-name="Grupo 1180394" clip-path="url(#clip-path-31)">
                <path id="Trazado_1043185" data-name="Trazado 1043185" d="M193.55,178.74l-.475.2-53.641-40.989,2.814,1.585.009.009Z" transform="translate(-86.865 -133.85)" fill="#fdda5f"/>
                <path id="Trazado_1043186" data-name="Trazado 1043186" d="M131.13,133.967,171.42,187.5c-.15.052-.29.1-.44.155l-40.466-53.767c.2.013.409.04.616.075" transform="translate(-86.959 -133.893)" fill="#fdda5f"/>
                <path id="Trazado_1043187" data-name="Trazado 1043187" d="M128.625,133.9,152.01,193.86c-.141.044-.282.087-.431.129l-23.417-60.025a4.267,4.267,0,0,1,.463-.061" transform="translate(-86.983 -133.893)" fill="#fdda5f"/>
                <path id="Trazado_1043188" data-name="Trazado 1043188" d="M126.7,134.309l6.4,64.663c-.15.034-.3.077-.443.107l-6.4-64.621c.146-.056.29-.1.436-.15" transform="translate(-87.003 -133.889)" fill="#fdda5f"/>
                <path id="Trazado_1043189" data-name="Trazado 1043189" d="M124.668,135.3,112.676,203.36c-.157.034-.314.06-.472.085l11.947-67.8c.168-.118.341-.232.516-.343" transform="translate(-87.151 -133.878)" fill="#fdda5f"/>
                <path id="Trazado_1043190" data-name="Trazado 1043190" d="M119.055,142.24,87.934,207.074c-.174.017-.349.042-.522.06l30.068-62.642,0,0Z" transform="translate(-87.412 -133.805)" fill="#fdda5f"/>
              </g>
            </g>
          </g>
          <g id="Grupo_1180399" data-name="Grupo 1180399" transform="translate(309.089 209.671)" style="mix-blend-mode: color-burn;isolation: isolate">
            <g id="Grupo_1180398" data-name="Grupo 1180398">
              <g id="Grupo_1180397" data-name="Grupo 1180397" clip-path="url(#clip-path-32)">
                <path id="Trazado_1043191" data-name="Trazado 1043191" d="M305.871,273.55s9.211-.277,24.952-11.1a40.633,40.633,0,0,1-.966-16.684c3.8-25.13,30.312-41.956,59.21-37.583s49.244,28.29,45.441,53.418S404.2,303.555,375.3,299.182a57.212,57.212,0,0,1-33.922-17.737c-8.9,1.049-21.393.134-35.5-7.9" transform="translate(-305.871 -207.489)" fill="#fdda5f"/>
              </g>
            </g>
          </g>
          <path id="Trazado_1043192" data-name="Trazado 1043192" d="M306.492,271.814s9.065-1.651,23.009-14.71a40.646,40.646,0,0,1-3.452-16.352c0-25.416,23.694-46.019,52.922-46.019s52.921,20.6,52.921,46.019-23.694,46.019-52.921,46.019a57.213,57.213,0,0,1-36.195-12.463c-8.643,2.369-21.131,3.335-36.285-2.494" transform="translate(3.225 2.048)" fill="#f46968"/>
          <path id="Trazado_1043193" data-name="Trazado 1043193" d="M309.406,268.773q-1.877-.6-3.813-1.345a20.032,20.032,0,0,0,3.82-1.3" transform="translate(3.215 2.799)" fill="none" stroke="#fff" stroke-miterlimit="10" stroke-width="1"/>
          <path id="Trazado_1043194" data-name="Trazado 1043194" d="M315.063,263.219A72.559,72.559,0,0,0,323,257.6" transform="translate(3.315 2.709)" fill="none" stroke="#fff" stroke-miterlimit="10" stroke-width="1" stroke-dasharray="6.423 6.423"/>
          <path id="Trazado_1043195" data-name="Trazado 1043195" d="M325.391,255.6q1.46-1.264,3-2.706-.811-1.852-1.441-3.776" transform="translate(3.423 2.62)" fill="none" stroke="#fff" stroke-miterlimit="10" stroke-width="1"/>
          <path id="Trazado_1043196" data-name="Trazado 1043196" d="M325.227,241.9a40.253,40.253,0,0,1-.28-4.744c0-25.415,23.694-46.018,52.921-46.018s52.922,20.6,52.922,46.018-23.694,46.019-52.922,46.019a58.333,58.333,0,0,1-29.58-7.867" transform="translate(3.419 2.01)" fill="none" stroke="#fff" stroke-miterlimit="10" stroke-width="1" stroke-dasharray="7.948 7.948"/>
          <path id="Trazado_1043197" data-name="Trazado 1043197" d="M344.77,272.313q-1.67-1.16-3.229-2.43c-1.235.338-2.548.648-3.935.913" transform="translate(3.552 2.838)" fill="none" stroke="#fff" stroke-miterlimit="10" stroke-width="1"/>
          <path id="Trazado_1043198" data-name="Trazado 1043198" d="M328.277,271.734a58.654,58.654,0,0,1-14.321-1.7" transform="translate(3.303 2.84)" fill="none" stroke="#fff" stroke-miterlimit="10" stroke-width="1" stroke-dasharray="9.534 9.534"/>
        </g>
        <text id="namaste" transform="translate(-3140.441 3334.073)" fill="#212429" font-size="22" font-family="SegoeUI-Bold, Segoe UI" font-weight="700"><tspan x="0" y="0">namaste</tspan></text>
        <g id="Grupo_1180411" data-name="Grupo 1180411" transform="translate(-3483.299 3084.461)" clip-path="url(#clip-path-2)">
          <path id="Trazado_1043199" data-name="Trazado 1043199" d="M293.451,287.824a18.7,18.7,0,0,1,2.356-9.324c1.97-3.465,5.1-6.062,9.1.173,7.113,11.082-4.541,20.675-11.434,15.646Z" transform="translate(3.087 2.891)" fill="#c86858"/>
          <g id="Grupo_1180404" data-name="Grupo 1180404" transform="translate(299.141 284.104)" style="mix-blend-mode: multiply;isolation: isolate">
            <g id="Grupo_1180403" data-name="Grupo 1180403">
              <g id="Grupo_1180402" data-name="Grupo 1180402" clip-path="url(#clip-path-34)">
                <path id="Trazado_1043200" data-name="Trazado 1043200" d="M302.766,281.728a4.673,4.673,0,0,0-4.765.151,4.423,4.423,0,0,0-1.944,4.221,4.611,4.611,0,0,0,1.127,2.565.634.634,0,0,0,.888-.015.641.641,0,0,0-.014-.888,3.389,3.389,0,0,1-.343-3.814.456.456,0,0,0,.2.088,3.916,3.916,0,0,1,.548.114c.085.024.169.052.253.082l.058.021.113.049a4.121,4.121,0,0,1,.469.255c.075.046.148.1.22.149-.114-.078.028.022.041.033q.053.041.1.085a4.273,4.273,0,0,1,.384.37c.029.032.06.066.089.1.008.009.062.08.064.08.042.057.085.114.125.174a3.969,3.969,0,0,1,.268.459c.018.037.036.076.054.114.005.011.011.027.019.047.035.091.067.184.1.278a.629.629,0,0,0,1.211-.34,4.811,4.811,0,0,0-3.318-3.182,3.406,3.406,0,0,1,3.437-.1.629.629,0,0,0,.616-1.1" transform="translate(-296.026 -281.147)" fill="#992b1e"/>
              </g>
            </g>
          </g>
          <path id="Trazado_1043201" data-name="Trazado 1043201" d="M237.676,302.786c10.976,11.33,25.325,11.118,33.528,11,4.584-.071,18.767-.279,24.525-8.86.411-.615.691-1.15,1-1.72a22.752,22.752,0,0,0,1.815-4.554,34.7,34.7,0,0,0,1.062-6,57.107,57.107,0,0,0,.148-8.559c-.018-.412-.037-.824-.065-1.228-.14-2.163-.37-4.214-.66-6.135-.335-2.257-.756-4.35-1.2-6.258a61.714,61.714,0,0,0-4.307-12.441,41.389,41.389,0,0,0-3.827-6.535,22.114,22.114,0,0,0-2.236-2.63,34.367,34.367,0,0,0-10.833-6.958,17,17,0,0,0-4.26-1.281c-22.6-4.452-34.892,3.743-40.835,16.451a46.447,46.447,0,0,0-3.244,9.873c-.03.132-.065.316-.116.552-.774,4.024-3.377,22,9.506,35.283" transform="translate(2.393 2.518)" fill="#c86858"/>
          <path id="Trazado_1043202" data-name="Trazado 1043202" d="M273.417,274.139c.106,1.4-.815,2.608-.757,3.99a1.428,1.428,0,0,0,.962,1.448,2.58,2.58,0,0,1,1.494.822,2.222,2.222,0,0,1-.465,2.723c-1.038,1-2.676.8-3.969.6a.383.383,0,0,1,.126-.756c1.126.169,2.827.448,3.558-.693a1.473,1.473,0,0,0,.2-1.3c-.219-.519-.857-.557-1.322-.727a2.274,2.274,0,0,1-1.342-2.393c.053-1.255.852-2.373.756-3.641a.383.383,0,0,1,.762-.079" transform="translate(2.845 2.88)" fill="#992b1e"/>
          <path id="Trazado_1043203" data-name="Trazado 1043203" d="M278.494,276.162c.4.354,2.106-2.313,5.231-2.526,2.873-.2,4.75,1.827,5.035,1.455.378-.49-2.157-4.975-5.673-4.611s-5.09,5.248-4.594,5.682" transform="translate(2.929 2.844)" fill="#050012"/>
          <path id="Trazado_1043204" data-name="Trazado 1043204" d="M250.256,277.178c.4.354,2.106-2.313,5.233-2.526,2.872-.2,4.749,1.827,5.034,1.455.378-.49-2.159-4.974-5.673-4.611s-5.09,5.248-4.594,5.682" transform="translate(2.632 2.855)" fill="#050012"/>
          <path id="Trazado_1043205" data-name="Trazado 1043205" d="M257.406,288.313s11.779,9.254,23.136,0" transform="translate(2.708 3.032)" fill="none" stroke="#992b1e" stroke-miterlimit="10" stroke-width="1"/>
          <path id="Trazado_1043206" data-name="Trazado 1043206" d="M236.045,240.032a28.067,28.067,0,0,1,3.819-2.9c2.689-1.714,5.816-3.146,21.095-4.74a333.516,333.516,0,0,1,38.473-1.79c.173.442.356.948.521,1.529A16.368,16.368,0,0,1,300,242.317a13.473,13.473,0,0,1-1.276,2.7,16.956,16.956,0,0,1-7.041,6.171c-.561.276-1.14.534-1.7.773a36.51,36.51,0,0,1-7.838,2.128,13.867,13.867,0,0,1-2.377.154,24.75,24.75,0,0,1-6.261-.9,4.523,4.523,0,0,1-1.633-.93c-3.048,9.03-16.2,11.446-21.48,2.977,1.193,8.518-7.775,15.845-15.886,12.978a28.392,28.392,0,0,1,1.91,20.643c-.286.051-.573.1-.832.141-2.6.342-4.074-.147-5.471-2.691a32.459,32.459,0,0,1-1.868-3.879l-.01-.009c-.172-.368-.315-.728-.45-1.1a.013.013,0,0,0,0-.019,42.091,42.091,0,0,1-2.227-20.8,36.308,36.308,0,0,1,4.68-13.507,30.134,30.134,0,0,1,3.524-4.825,26.517,26.517,0,0,1,2.282-2.291" transform="translate(2.369 2.425)" fill="#050012"/>
          <path id="Trazado_1043207" data-name="Trazado 1043207" d="M236.889,294.136a18.7,18.7,0,0,0-3.148-9.088c-2.262-3.283-5.6-5.6-9.051.954-6.135,11.652,6.3,20.208,12.736,14.606Z" transform="translate(2.347 2.964)" fill="#c86858"/>
          <g id="Grupo_1180407" data-name="Grupo 1180407" transform="translate(229.143 291.106)" style="mix-blend-mode: multiply;isolation: isolate">
            <g id="Grupo_1180406" data-name="Grupo 1180406">
              <g id="Grupo_1180405" data-name="Grupo 1180405" clip-path="url(#clip-path-35)">
                <path id="Trazado_1043208" data-name="Trazado 1043208" d="M227.024,288.865a4.67,4.67,0,0,1,4.76-.259,4.421,4.421,0,0,1,2.3,4.038,4.608,4.608,0,0,1-.9,2.652.634.634,0,0,1-.886.062.641.641,0,0,1-.062-.886,3.39,3.39,0,0,0,.013-3.829.457.457,0,0,1-.194.1,3.967,3.967,0,0,0-.536.162c-.083.031-.164.066-.245.1l-.057.026-.108.059a4.431,4.431,0,0,0-.445.294c-.071.054-.138.111-.207.167.107-.087-.026.025-.038.036-.032.03-.064.062-.1.094a4.252,4.252,0,0,0-.351.4c-.027.035-.054.071-.08.107-.007.01-.056.085-.057.085-.037.061-.075.121-.11.184a4.01,4.01,0,0,0-.227.481c-.015.039-.029.079-.043.118,0,.012-.009.028-.015.05-.028.094-.051.188-.072.284a.628.628,0,0,1-1.235-.233,4.806,4.806,0,0,1,3.033-3.455,3.407,3.407,0,0,0-3.434.2.629.629,0,0,1-.707-1.039" transform="translate(-226.757 -288.076)" fill="#992b1e"/>
              </g>
            </g>
          </g>
          <path id="Trazado_1043209" data-name="Trazado 1043209" d="M275.874,247.666a6.531,6.531,0,0,0,.18,1.611,9.9,9.9,0,0,0,3.183,4.9,24.514,24.514,0,0,0,4.834,3.258,20.216,20.216,0,0,0,9.7,2.342,20.2,20.2,0,0,0-.66,4.627,14.648,14.648,0,0,0,.706,5.7,11.155,11.155,0,0,0,4.456,5.135,7.614,7.614,0,0,0,.688.388,10.68,10.68,0,0,0,3.7,1.165c-.368-.321-.736-.643-1.113-.965.019-.077.038-.164.059-.25,1.106-5.077,3.011-16.743-1.474-26.956a26.26,26.26,0,0,0-1.429-2.831c-.167-.3-.345-.576-.514-.846a16.722,16.722,0,0,0-4.178-4.675,9.72,9.72,0,0,0-2.418-1.306,12.487,12.487,0,0,0-11.709,1.77,8.4,8.4,0,0,0-.794.673,14.747,14.747,0,0,0-1.236,1.3,8.127,8.127,0,0,0-1.989,4.967" transform="translate(2.902 2.505)" fill="#050012"/>
          <g id="Grupo_1180410" data-name="Grupo 1180410" transform="translate(227.928 234.56)" style="mix-blend-mode: screen;isolation: isolate">
            <g id="Grupo_1180409" data-name="Grupo 1180409">
              <g id="Grupo_1180408" data-name="Grupo 1180408" clip-path="url(#clip-path-36)">
                <path id="Trazado_1043210" data-name="Trazado 1043210" d="M236.04,240.016a14.332,14.332,0,0,0,7.327,3.711.014.014,0,0,0,.019,0,13.978,13.978,0,0,0,2.705.2,14.245,14.245,0,0,0,9.56-4.142v-.018a13.593,13.593,0,0,0,1.421-1.668,11.247,11.247,0,0,0,1.2,1.437l.019.018a11.6,11.6,0,0,0,15.228,1.368,11.438,11.438,0,0,0,3.174-3.358,12.448,12.448,0,0,0,3.729,3.225,13.474,13.474,0,0,0,11.124,1.121,12.286,12.286,0,0,0,3-1.588,13.647,13.647,0,0,0,5.4-8.2A16.367,16.367,0,0,1,300,242.3a13.476,13.476,0,0,1-1.276,2.7c.179.266.359.55.52.835a29.96,29.96,0,0,1,1.428,2.831,20.232,20.232,0,0,1-8.99,2.506,20.8,20.8,0,0,1-2.287-.033l-.009-.009a21.646,21.646,0,0,1-10.333-3.474,17.359,17.359,0,0,1-2.476,1.683c-6.419,3.654-15.106,3.369-20.919-1.224-1.164,3.432-4.833,5.835-8.4,6.569a10.686,10.686,0,0,1-9.886-3.276,31.6,31.6,0,0,1-5.878,5.9h-.019a23.859,23.859,0,0,1-5.924,3.333,36.309,36.309,0,0,1,4.68-13.507,14.158,14.158,0,0,0,3.524-4.825,26.524,26.524,0,0,1,2.282-2.291" transform="translate(-225.555 -232.119)" fill="#050012"/>
              </g>
            </g>
          </g>
        </g>
        <text id="A" transform="translate(-3429.684 3218.374)" fill="#4887fc" font-size="51" font-family="SegoeUI, Segoe UI"><tspan x="0" y="0">A</tspan></text>
        <path id="Trazado_1078109" data-name="Trazado 1078109" d="M97.439,116.6v24.026H92.084v-3.1a9.9,9.9,0,0,1-7.963,3.42c-7.019,0-12.148-4.86-12.148-12.328s5.129-12.283,12.148-12.283a9.987,9.987,0,0,1,7.693,3.194V116.6ZM91.9,128.618c0-4.59-3.059-7.514-7.153-7.514-4.049,0-7.109,2.924-7.109,7.514s3.06,7.514,7.109,7.514C88.846,136.132,91.9,133.207,91.9,128.618Z" transform="translate(-3463.052 3085.684)" fill="#4887fc"/>
        <text id="b" transform="translate(-3085.599 3251.087)" fill="#917aeb" font-size="43" font-family="SegoeUI, Segoe UI"><tspan x="0" y="0">b</tspan></text>
        <text id="b-2" data-name="b" transform="translate(-3060.536 3253.232)" fill="#917aeb" font-size="37" font-family="Montserrat-SemiBold, Montserrat" font-weight="600"><tspan x="0" y="0">b</tspan></text>
        <rect id="Rectángulo_415789" data-name="Rectángulo 415789" width="19.304" height="19.304" transform="translate(-3412.252 3380.854) rotate(-62.143)" fill="#fdda5f"/>
        <rect id="Rectángulo_415790" data-name="Rectángulo 415790" width="19.304" height="19.304" transform="translate(-3053.385 3302.632) rotate(-62.141)" fill="#90d4b9"/>
        <rect id="Rectángulo_415791" data-name="Rectángulo 415791" width="7.158" height="7.158" transform="matrix(0.975, -0.224, 0.224, 0.975, -3322.387, 3391.795)" fill="#917aeb"/>
        <rect id="Rectángulo_415792" data-name="Rectángulo 415792" width="7.159" height="7.158" transform="matrix(0.975, -0.224, 0.224, 0.975, -3088.865, 3186.129)" fill="#917aeb"/>
        <rect id="Rectángulo_415793" data-name="Rectángulo 415793" width="7.158" height="7.158" transform="matrix(0.975, -0.224, 0.224, 0.975, -3072.824, 3391.025)" fill="#4887fc"/>
        <rect id="Rectángulo_415794" data-name="Rectángulo 415794" width="7.159" height="7.158" transform="matrix(0.975, -0.224, 0.224, 0.975, -3351.991, 3341.766)" fill="#f46968"/>
        <rect id="Rectángulo_415795" data-name="Rectángulo 415795" width="7.159" height="7.158" transform="matrix(0.975, -0.224, 0.224, 0.975, -3126.59, 3387.587)" fill="#fdda5f"/>
        <rect id="Rectángulo_415796" data-name="Rectángulo 415796" width="7.158" height="7.158" transform="matrix(0.975, -0.224, 0.224, 0.975, -3320.735, 3210.568)" fill="#4887fc"/>
        <path id="Trazado_1043234" data-name="Trazado 1043234" d="M297.831,439.744c0-.012,0-.023-.005-.036a.288.288,0,0,0,.009.077l0-.04" transform="translate(-3480.166 3089.086)" fill="#e66239"/>
        <path id="Trazado_1043235" data-name="Trazado 1043235" d="M296.259,436.9c.051.049.074.058,0,0" transform="translate(-3480.182 3089.057)" fill="#e66239"/>
        <path id="Trazado_1043250" data-name="Trazado 1043250" d="M259.551,369.834c-18.1,0-35.987-10.54-44.635-26.452a37.983,37.983,0,0,1-12.14-1.118,66.163,66.163,0,0,1-42.042-97.543l.874.506a65.155,65.155,0,0,0,41.4,96.053,37.552,37.552,0,0,0,11.394,1.13q-.4-.776-.766-1.567c-2.421-5.2-3.251-9.664-2.537-13.637.79-4.406,4.245-9.155,9.318-9.71a9.2,9.2,0,0,1,7.43,2.78,11.652,11.652,0,0,1,3.559,8.988c-.437,5.624-4.894,10.841-11.093,12.982A22.371,22.371,0,0,1,216,343.258c9.248,16.656,28.857,27.2,47.871,25.357l.1,1.007c-1.469.141-2.946.212-4.418.212m-38.233-51.377a7.379,7.379,0,0,0-.79.043c-4.58.5-7.709,4.848-8.434,8.884-.675,3.762.128,8.025,2.459,13.032q.446.956.934,1.889a21.631,21.631,0,0,0,4.5-1.015c4.846-1.674,9.947-6.066,10.415-12.106A10.62,10.62,0,0,0,227.145,321a8.4,8.4,0,0,0-5.827-2.544" transform="translate(-3481.7 3087.035)" fill="#4887fc"/>
        <g id="Grupo_1180424" data-name="Grupo 1180424" transform="translate(-3376.504 3399.472)" style="mix-blend-mode: multiply;isolation: isolate">
          <g id="Grupo_1180423" data-name="Grupo 1180423">
            <g id="Grupo_1180422" data-name="Grupo 1180422" clip-path="url(#clip-path-37)">
              <path id="Trazado_1043251" data-name="Trazado 1043251" d="M148.415,324.807a22.387,22.387,0,1,1-2.16-3.724,22.065,22.065,0,0,1,2.16,3.724" transform="translate(-105.683 -311.732)" fill="#ffedd7"/>
            </g>
          </g>
        </g>
        <path id="Trazado_1043252" data-name="Trazado 1043252" d="M143.2,318.036a22.386,22.386,0,1,1-2.159-3.724,22.355,22.355,0,0,1,2.159,3.724" transform="translate(-3482.242 3087.668)" fill="#f46968"/>
        <path id="Trazado_1043253" data-name="Trazado 1043253" d="M141.045,314.312,101.1,332.588a22.376,22.376,0,0,1,39.945-18.275" transform="translate(-3482.242 3087.668)" fill="#050012"/>
        <path id="Trazado_1043254" data-name="Trazado 1043254" d="M145.155,326.637a22.389,22.389,0,0,1-37.372,17.1Z" transform="translate(-3482.165 3087.896)" fill="#fdda5f"/>
        <g id="Grupo_1180427" data-name="Grupo 1180427" transform="translate(-3219.863 3139.052)" style="mix-blend-mode: multiply;isolation: isolate">
          <g id="Grupo_1180426" data-name="Grupo 1180426">
            <g id="Grupo_1180425" data-name="Grupo 1180425" clip-path="url(#clip-path-38)">
              <path id="Trazado_1043255" data-name="Trazado 1043255" d="M305.466,86.412a23.3,23.3,0,1,1-42.929-18.148,23.034,23.034,0,0,1,2.135-3.941,23.3,23.3,0,0,1,40.794,22.089" transform="translate(-260.694 -54.023)" fill="#ffedd7"/>
            </g>
          </g>
        </g>
        <path id="Trazado_1043256" data-name="Trazado 1043256" d="M306.36,79.042a23.226,23.226,0,0,1-27.118,11.965,23.813,23.813,0,0,1-4.188-1.62A23.306,23.306,0,0,1,286.893,45.3,23.316,23.316,0,0,1,306.36,79.042" transform="translate(-3480.54 3084.937)" fill="#fff"/>
        <path id="Trazado_1043257" data-name="Trazado 1043257" d="M306.156,78.97A23.339,23.339,0,0,1,281.7,91.524l19.868-39.482c.41.315.8.642,1.178.978a23.315,23.315,0,0,1,3.41,25.95" transform="translate(-3480.335 3085.008)" fill="#f46968"/>
        <path id="Trazado_1043258" data-name="Trazado 1043258" d="M267.662,83.53A23.315,23.315,0,0,1,286.9,45.3Z" transform="translate(-3480.54 3084.936)" fill="#4887fc"/>
        <g id="Grupo_1180430" data-name="Grupo 1180430" transform="translate(-3174.839 3395.646)" style="mix-blend-mode: multiply;isolation: isolate">
          <g id="Grupo_1180429" data-name="Grupo 1180429">
            <g id="Grupo_1180428" data-name="Grupo 1180428" clip-path="url(#clip-path-39)">
              <path id="Trazado_1043259" data-name="Trazado 1043259" d="M351.573,334.879a23.313,23.313,0,1,1,.267-4.475,23.278,23.278,0,0,1-.267,4.475" transform="translate(-305.248 -307.946)" fill="#ffedd7"/>
            </g>
          </g>
        </g>
        <path id="Trazado_1043260" data-name="Trazado 1043260" d="M338.189,342.946a22.508,22.508,0,0,1-3.514,1.778,21.378,21.378,0,0,1-3.757,1.147c-.737.158-1.462.284-2.2.368a22.846,22.846,0,0,1-8.04-.442h-.011a23.347,23.347,0,0,1-13.522-8.965,21.936,21.936,0,0,1-2.052-3.389c-.263-.525-.515-1.073-.737-1.631-.263-.663-.505-1.336-.7-2.01a24.354,24.354,0,0,1-.758-3.409,23.332,23.332,0,0,1,4.072-16.774,22.87,22.87,0,0,1,5.725-5.661c.347-.243.694-.474,1.063-.7a22.679,22.679,0,0,1,7.261-2.926,23.311,23.311,0,0,1,24.424,9.945,24.3,24.3,0,0,1,1.262,2.179,20,20,0,0,1,.884,1.936,24.831,24.831,0,0,1,.884,2.62,24.2,24.2,0,0,1,.6,2.936,23.324,23.324,0,0,1-10.88,22.993" transform="translate(-3480.115 3087.614)" fill="#4887fc"/>
        <path id="Trazado_1043261" data-name="Trazado 1043261" d="M328.672,346.2a22.871,22.871,0,0,1-8.04-.442h-.01l-6.041-15.964-2.609-6.893-5.052-13.322a22.875,22.875,0,0,1,5.725-5.662l6.209,16.375,2.61,6.893Z" transform="translate(-3480.07 3087.657)" fill="#fdda5f"/>
        <path id="Trazado_1043262" data-name="Trazado 1043262" d="M348.468,316.907l-26.961,10.208-6.882,2.61-9.534,3.61c-.263-.526-.515-1.074-.737-1.631-.263-.664-.505-1.338-.7-2.01a24.418,24.418,0,0,1-.758-3.409l9.123-3.452,6.883-2.61,26.539-10.05a24.69,24.69,0,0,1,1.263,2.179,20.259,20.259,0,0,1,.883,1.936,24.889,24.889,0,0,1,.884,2.619" transform="translate(-3480.112 3087.723)" fill="#fdda5f"/>
        <path id="Trazado_1043263" data-name="Trazado 1043263" d="M272.519,351.508a.513.513,0,0,1-.038-.09l-4.639-14.584a.505.505,0,0,1,.963-.305l4.639,14.583a.505.505,0,0,1-.925.4" transform="translate(-3480.481 3087.997)" fill="#4887fc"/>
        <path id="Trazado_1043264" data-name="Trazado 1043264" d="M279.305,352.81a.5.5,0,0,1,0-.3l4.608-15.781a.505.505,0,0,1,.97.283l-4.609,15.781a.505.505,0,0,1-.965.015" transform="translate(-3480.361 3087.999)" fill="#4887fc"/>
        <path id="Trazado_1043265" data-name="Trazado 1043265" d="M285.658,357.277a.5.5,0,0,1,.123-.516l10.229-10.122a.506.506,0,0,1,.711.719l-10.229,10.122a.506.506,0,0,1-.714,0,.477.477,0,0,1-.12-.2" transform="translate(-3480.294 3088.105)" fill="#4887fc"/>
      </g>
      <g id="Grupo_1207653" data-name="Grupo 1207653" transform="translate(2686 -2719.821)">
        <path id="Trazado_1078208" data-name="Trazado 1078208" d="M250.611,463.765l-23.083,4.9-7.34,83.359,81.262.524,2.1-84.932L282.7,464.581Z" transform="translate(-2534.185 3545.188)" fill="#f46968"/>
        <path id="Trazado_1078209" data-name="Trazado 1078209" d="M207.191,406.359c1.343-4.892.651-17.866,2-22.772l13.727-.365-1.278,17.962Z" transform="translate(-2537.143 3526.856)" fill="#f29e79"/>
        <path id="Trazado_1078210" data-name="Trazado 1078210" d="M234.868,375.673a71.1,71.1,0,0,0-6.908,13.411c1.385,4.179-2.513,9.218-6.705,10.549a17.577,17.577,0,0,1-12.135-.619c-.308-.9-1.813-1.706-2.2-2.58a107.949,107.949,0,0,1-7.431-22.467c.068-.112,1.663-2.66,4.338-2.552a4.519,4.519,0,0,1,2.5.926q.494,1.149.978,2.374c.324.814.641,1.644.929,2.464a31.759,31.759,0,0,1-.457-5.173,4.217,4.217,0,0,1,6.906-1.64c.7,3.173,1.259,4.117,1.223,3.937-.859-4.273-.631-8.694,2.339-11.959a2.762,2.762,0,0,1,3.453-.645c1.035.645,1.008,1.76.982,2.782-.162,5.119.819,9.715,2.1,14.687a12.217,12.217,0,0,1,8.426-6.088,1.681,1.681,0,0,1,1.666,2.594" transform="translate(-2538.896 3521.875)" fill="#f29e79"/>
        <path id="Trazado_1078211" data-name="Trazado 1078211" d="M206.743,382.957c-.737,0-1.7-.416-2.725-1.991a34.859,34.859,0,0,1-4.25-9.286.461.461,0,0,1,.885-.257,33.939,33.939,0,0,0,4.137,9.041c.435.67,1.3,1.769,2.2,1.541.724-.178,1.086-1.611,1.261-2.3a9.389,9.389,0,0,0,.192-3.467,14.514,14.514,0,0,1-.894-3.286.46.46,0,0,1,.88-.244,13.415,13.415,0,0,1,.911,3.295l.011.025a8.625,8.625,0,0,0,1.083,1.989,4.327,4.327,0,0,0,1.721,1.606,2.577,2.577,0,0,0,2.146.145,3.024,3.024,0,0,0,1.39-1.877,7.928,7.928,0,0,0-.362-5.751.46.46,0,0,1,.85-.355,8.828,8.828,0,0,1,.376,6.428,3.838,3.838,0,0,1-1.878,2.4,3.47,3.47,0,0,1-2.893-.145,5.175,5.175,0,0,1-2.086-1.9c-.1-.134-.192-.264-.276-.393a9.81,9.81,0,0,1-.276,1.755c-.234.929-.67,2.66-1.935,2.968a1.992,1.992,0,0,1-.47.058" transform="translate(-2538.837 3524.096)" fill="#e66239"/>
        <path id="Trazado_1078212" data-name="Trazado 1078212" d="M215.5,384.712h-.015a.461.461,0,0,1-.446-.475,5.466,5.466,0,0,1,4.343-5.023l1.329-3.63a.46.46,0,1,1,.864.317l-1.423,3.885a.458.458,0,0,1-.376.3,4.5,4.5,0,0,0-3.818,4.182.46.46,0,0,1-.46.445" transform="translate(-2535.357 3525.049)" fill="#e66239"/>
        <path id="Trazado_1078213" data-name="Trazado 1078213" d="M243.159,497.036c-24.063-25.25-50.512-71.163-35.225-94.528l17.848-8.03s-2.526,53.213,48.672,81.708Z" transform="translate(-2538.002 3529.418)" fill="#f46968"/>
        <path id="Trazado_1078214" data-name="Trazado 1078214" d="M272.007,446.744l.373,7.767.878,18.066-24.224,2.836s-.446-2.4-1.063-5.755c-1.385-7.572-3.62-20-3.466-20.756Z" transform="translate(-2528.652 3541.313)" fill="#f29e79"/>
        <path id="Trazado_1078215" data-name="Trazado 1078215" d="M272.007,446.744l.373,7.767c-6.969,13.854-17.886,15.563-24.41,15.147-1.385-7.572-3.62-20-3.466-20.756Z" transform="translate(-2528.652 3541.313)" fill="#e66239"/>
        <path id="Trazado_1078216" data-name="Trazado 1078216" d="M307.41,467.969c25.624-15.9,27.357-46.123,27.481-50.048,6.041-38.042-41.213-70.814-81.672-49.239-13.587,7.246-22.943,24.966-23.712,39.953-.048.921-2.081,3.192-2.622,4.185a42.634,42.634,0,0,0-2.631,5.859,45.959,45.959,0,0,0-2.589,12.11c-.883,11.4,1.441,23.389,10.525,31.005,10.553,8.847,23.879,12.488,37.592,13.609,12.616,1.03,26.836-.2,37.628-7.436" transform="translate(-2533.888 3521.983)" fill="#f29e79"/>
        <path id="Trazado_1078217" data-name="Trazado 1078217" d="M231.852,398.318s8.853-9.983,17.24-1.26c0,0-7.686-17.235-17.24,1.26" transform="translate(-2531.53 3528.344)" fill="#fdda5f"/>
        <path id="Trazado_1078218" data-name="Trazado 1078218" d="M267.4,399.47s12.734-3.99,15.424,7.809c0,0,2.3-18.731-15.424-7.809" transform="translate(-2523.44 3529.776)" fill="#fdda5f"/>
        <g id="Grupo_1207650" data-name="Grupo 1207650" transform="translate(-2259.162 3950.17)" opacity="0.39" style="mix-blend-mode: multiply;isolation: isolate">
          <g id="Grupo_1180414" data-name="Grupo 1180414">
            <g id="Grupo_1180413" data-name="Grupo 1180413" clip-path="url(#clip-path-40)">
              <path id="Trazado_1043223" data-name="Trazado 1043223" d="M264.856,425.75c0,5.451,6.279,9.869,14.024,9.869S292.9,431.2,292.9,425.75s-6.279-9.869-14.024-9.869-14.024,4.418-14.024,9.869" transform="translate(-264.856 -415.881)" fill="#f29e79"/>
            </g>
          </g>
        </g>
        <path id="Trazado_1078219" data-name="Trazado 1078219" d="M254.774,399.929c-1.233,1.668-1.029,3.888-2.183,5.566a2.1,2.1,0,0,1-2.334,1.05,3.791,3.791,0,0,0-2.5-.145,3.271,3.271,0,0,0-1.557,3.758c.511,2.057,2.71,3.089,4.476,3.861a.565.565,0,0,0,.435-1.042c-1.536-.67-3.874-1.656-3.892-3.65a2.167,2.167,0,0,1,.771-1.771c.68-.476,1.5-.023,2.217.13a3.349,3.349,0,0,0,3.548-1.931c.916-1.606.8-3.624,1.91-5.129.431-.583-.455-1.282-.888-.7" transform="translate(-2528.288 3530.608)" fill="#e66239"/>
        <path id="Trazado_1078220" data-name="Trazado 1078220" d="M235.763,400.319c-.426,2.693.615,5.135,2.325,5.454s3.443-1.606,3.869-4.3-.614-5.134-2.325-5.453-3.443,1.6-3.869,4.3" transform="translate(-2530.662 3529.761)" fill="#050012"/>
        <path id="Trazado_1078221" data-name="Trazado 1078221" d="M268.914,406.706c-.426,2.693.615,5.135,2.325,5.454s3.443-1.606,3.869-4.3-.614-5.134-2.325-5.453-3.443,1.6-3.869,4.3" transform="translate(-2523.116 3531.215)" fill="#050012"/>
        <path id="Trazado_1078222" data-name="Trazado 1078222" d="M266.858,428.04a13.966,13.966,0,0,1-.113,1.474,14.724,14.724,0,0,1-6.488,9.975,9.747,9.747,0,0,1-7.305,1.462A17.692,17.692,0,0,1,243.479,436a15.251,15.251,0,0,1-2.658-3.7,15.888,15.888,0,0,1-1.712-6.853,17,17,0,0,1,1.133-6.323,6.4,6.4,0,0,1,2.495-3.024,7.012,7.012,0,0,1,7.167-.137,8.669,8.669,0,0,0,6.689.919,6.308,6.308,0,0,1,4.863.554,10.042,10.042,0,0,1,3.716,3.893,13.586,13.586,0,0,1,1.688,6.714" transform="translate(-2529.879 3534.099)" fill="#992b1e"/>
        <path id="Trazado_1078223" data-name="Trazado 1078223" d="M266.048,426a13.967,13.967,0,0,1-.113,1.474,14.724,14.724,0,0,1-6.488,9.976,9.748,9.748,0,0,1-7.305,1.462,17.692,17.692,0,0,1-9.473-4.951c1.764-5.718,7.886-9.926,15.179-9.926a17.673,17.673,0,0,1,8.2,1.966" transform="translate(-2529.068 3536.144)" fill="#f46968"/>
        <path id="Trazado_1078224" data-name="Trazado 1078224" d="M264.5,421.327c-17.043,3.6-21.5-3.187-22.434-5.227a7.009,7.009,0,0,1,7.167-.139,8.663,8.663,0,0,0,6.689.919,6.308,6.308,0,0,1,4.862.554,10.058,10.058,0,0,1,3.716,3.893" transform="translate(-2529.206 3534.099)" fill="#feffff"/>
        <path id="Trazado_1078225" data-name="Trazado 1078225" d="M226.908,395.253a19.431,19.431,0,0,0,2.357,8.367,92.046,92.046,0,0,1,17.606-19.511c-.5,6.6.444,17.334,7.583,19.772-2.007-4.809-2.061-12.4,1.629-16.5,3.435,8.957,8.108,18.047,15.664,24.552-1.348-6.169.9-15.757,4.081-21.347,3.313,4.536,3.187,12.587,6.681,17.684,11.219,14.237,10.707,16.62,15.906-2.154,2.508,16.387-1.091,22.088,10.358,35.9,3.6,6.584-5.55,24.822,8.294,17.281,23-15.83,21.677-61.908,11.532-75.354-14.928-23.453-56.9-29.761-78.574-28.928.333,2.97,5.26,9.9,8.6,11.337-4.872-5.184-21.133-4.642-24.238,3.518.438,1.905,5.757,1.67,5.864,3.128-.529,1.493-7.86,3.392-7.817,8.991.119-.14.187-.2.2-.194a8.469,8.469,0,0,1-.9,1.552,26.4,26.4,0,0,0-2.711,4.006,16.591,16.591,0,0,0-1.532,3.418,14.012,14.012,0,0,0-.589,4.478" transform="translate(-2532.657 3520.421)" fill="#fdda5f"/>
        <g id="Grupo_1207651" data-name="Grupo 1207651" transform="translate(-2251.104 3924.665)" style="mix-blend-mode: screen;isolation: isolate">
          <g id="Grupo_1180417" data-name="Grupo 1180417">
            <g id="Grupo_1180416" data-name="Grupo 1180416" clip-path="url(#clip-path-41)">
              <path id="Trazado_1043231" data-name="Trazado 1043231" d="M271.42,397.488a10.543,10.543,0,0,0,.956,1.644c11.219,14.235,10.707,16.619,15.906-2.156,1.2,5.239,1,11.192,1.522,16.862a12.866,12.866,0,0,0,9.8,8.31,13.49,13.49,0,0,0,12.875-5.28,20.209,20.209,0,0,0,10.007,8.836,50.807,50.807,0,0,0,3-14.047,5.413,5.413,0,0,1-2.451-.741,30.684,30.684,0,0,1-13.414-13.292,9.944,9.944,0,0,1-3.016,6.505,8.506,8.506,0,0,1-6.236,2.249,11.418,11.418,0,0,1-7.515-3.96,33.552,33.552,0,0,1-4.714-7.313,8.225,8.225,0,0,1-7.96,5.885,14.2,14.2,0,0,1-8.768-3.5" transform="translate(-271.42 -395.104)" fill="#fdda5f"/>
            </g>
          </g>
        </g>
        <path id="Trazado_1078226" data-name="Trazado 1078226" d="M289.233,441.963a28.837,28.837,0,0,1,7.744-12.639c4.491-4.195,10.284-6.58,13.311,4.429,5.381,19.57-16.169,28.338-24,17.777Z" transform="translate(-2519.141 3536.549)" fill="#f29e79"/>
        <path id="Trazado_1078227" data-name="Trazado 1078227" d="M304.586,435.52a7.439,7.439,0,0,0-7.314-2.033,7.056,7.056,0,0,0-4.973,5.482,7.4,7.4,0,0,0,.5,4.478,1.222,1.222,0,0,0,1.645.482,1.236,1.236,0,0,0,.482-1.644,4.771,4.771,0,0,1-.176-3.184,5.2,5.2,0,0,1,1.208-2.151c.047.034.074.086.129.112a6.1,6.1,0,0,1,.753.419c.114.075.226.155.335.237l.016.013-.032-.031c.053.058.129.108.187.161a6.636,6.636,0,0,1,.572.588c.069.081.229.22.258.32-.093-.129-.114-.157-.061-.084l.07.1c.038.058.076.114.112.173a6.419,6.419,0,0,1,.4.721c.029.061.058.124.085.187l.048.114c.034.085.021.05-.039-.1a1.2,1.2,0,0,1,.13.389,5.9,5.9,0,0,1,.184.8c.005.036.011.075.016.114l.006.044c0,.028.005.059.011.086l-.006-.037c.01.15.013.3.013.452a1.212,1.212,0,1,0,2.422.07,7.7,7.7,0,0,0-3.046-6.084,4.93,4.93,0,0,1,4.306,1.47c1.063,1.144,2.825-.519,1.763-1.664" transform="translate(-2517.804 3538.237)" fill="#e66239"/>
        <path id="Trazado_1078228" data-name="Trazado 1078228" d="M297.832,439.752c0-.015,0-.028-.006-.044a.351.351,0,0,0,.011.093l0-.049" transform="translate(-2516.515 3539.712)" fill="#e66239"/>
        <path id="Trazado_1078229" data-name="Trazado 1078229" d="M296.259,436.9c.061.059.09.07,0,0" transform="translate(-2516.871 3539.072)" fill="#e66239"/>
        <path id="Trazado_1078230" data-name="Trazado 1078230" d="M277.06,464.581c-.573,6.28-7.785,11.064-16.42,10.782-8.528-.279-15.349-5.4-15.669-11.6q3.213.149,6.456.272,13.043.5,25.634.544" transform="translate(-2528.544 3545.188)" fill="#f29e79"/>
        <path id="Trazado_1078231" data-name="Trazado 1078231" d="M268.253,492.007c27.385,22.745,79.092,28.714,79.092,28.714.938-7.508,8.656-15.879,3.755-24.4-3.613-.9-6.422-1.757-8-2.259-7.848-2.5-18.292-6.728-49.459-25.568-2.052-1.24-3.728-2.271-4.817-2.944l-20.571,26.457" transform="translate(-2523.245 3545.594)" fill="#f46968"/>
        <path id="Trazado_1078232" data-name="Trazado 1078232" d="M319.525,379.4s-5.006,5.406-10.414,1.2c0,0,3.4-5.608,10.414-1.2" transform="translate(-2513.946 3525.601)" fill="#fdda5f"/>
        <path id="Trazado_1078233" data-name="Trazado 1078233" d="M313.41,372.389s2.121,7.057-4.245,9.584c0,0-3.107-5.777,4.245-9.584" transform="translate(-2514.082 3524.391)" fill="#fdda5f"/>
        <path id="Trazado_1078234" data-name="Trazado 1078234" d="M169.388,446.339l24.619,97.979,143.408,13.544,26.619-99.029s-50.151-32.956-96.709-7.124l-9.748-.76s-23.408-25.83-88.189-4.611" transform="translate(-2545.747 3539.317)" fill="#fff"/>
        <path id="Trazado_1078235" data-name="Trazado 1078235" d="M169.388,446.339l24.619,97.979,143.408,13.544,26.619-99.029s-50.151-32.956-96.709-7.124l-9.748-.76S234.17,425.12,169.388,446.339Z" transform="translate(-2545.747 3539.317)" fill="none" stroke="#050012" stroke-miterlimit="10" stroke-width="0.5"/>
        <path id="Trazado_1078236" data-name="Trazado 1078236" d="M159.754,452.143l28.815,98.065,164.391,13.959L382.844,465.2S325.181,432.1,272,457.8l-11.174-.787s-26.979-25.9-101.071-4.867" transform="translate(-2547.939 3540.668)" fill="#fff"/>
        <path id="Trazado_1078237" data-name="Trazado 1078237" d="M159.754,452.143l28.815,98.065,164.391,13.959L382.844,465.2S325.181,432.1,272,457.8l-11.174-.787S233.846,431.108,159.754,452.143Z" transform="translate(-2547.939 3540.668)" fill="none" stroke="#050012" stroke-miterlimit="10" stroke-width="0.5"/>
        <path id="Trazado_1078238" data-name="Trazado 1078238" d="M384.088,471.066l-26.743,98.607-85.329-7.13-14.3-1.2-77.281-6.462q-11.544-47.143-23.1-94.311c10.341-5.265,39.54-18.365,74.37-10.165a100.759,100.759,0,0,1,29.023,11.9c.3.177.6.366.894.543H276.4c41.468-23.367,107.689,8.213,107.689,8.213" transform="translate(-2548.49 3541.548)" fill="#4887fc"/>
        <g id="Grupo_1207652" data-name="Grupo 1207652" transform="translate(-2290.847 4003.859)" style="mix-blend-mode: multiply;isolation: isolate">
          <g id="Grupo_1180420" data-name="Grupo 1180420">
            <g id="Grupo_1180419" data-name="Grupo 1180419" clip-path="url(#clip-path-42)">
              <path id="Trazado_1043245" data-name="Trazado 1043245" d="M256.454,460.157l-3.036,99.69-.05,1.852-14.322-.44.076-2.608,3.01-99.035c.3.176.605.365.895.541Z" transform="translate(-239.046 -459.616)" fill="#4887fc"/>
            </g>
          </g>
        </g>
        <path id="Trazado_1078239" data-name="Trazado 1078239" d="M333.425,513.791c-3.729-4.288-10.765-10.349-14.5-14.65l8.221-13,12.751,6.9Z" transform="translate(-2511.713 3550.28)" fill="#f29e79"/>
        <path id="Trazado_1078240" data-name="Trazado 1078240" d="M335.205,487.036a79.231,79.231,0,0,1-8.215-14.747,1.89,1.89,0,0,0-3.462-.061,13.649,13.649,0,0,0,.425,11.62c-5.43-1.9-10.334-3.848-15.025-7.172-.931-.659-1.956-1.384-3.205-.825a3.089,3.089,0,0,0-1.541,3.623c1.618,6.553,8.435,9.659,14.748,11.246-4.3-1.586-10.673-3.135-14.968-4.723a3.869,3.869,0,0,0-2.417-.334,2.578,2.578,0,0,0-1.433,3.112,6.574,6.574,0,0,0,2.163,3.036,35.18,35.18,0,0,0,15.89,8.3c-3.9-1.911-11.795-3.375-16.1-3.969-2.6-.358-6.256.37-5.89,3.256a3.4,3.4,0,0,0,2.04,2.593A122.093,122.093,0,0,0,328.94,511.2c1.051.168,2.753-.726,3.785-.462,4.018-2.88,6.77-6.164,8.146-10.9s-.9-11.493-5.665-12.8" transform="translate(-2516.896 3546.863)" fill="#f29e79"/>
        <path id="Trazado_1078241" data-name="Trazado 1078241" d="M306.45,484.769a.649.649,0,0,1-.023-.624.661.661,0,0,1,.88-.295,52.2,52.2,0,0,0,9.357,3.58.653.653,0,1,1-.349,1.259,53.873,53.873,0,0,1-9.594-3.668.667.667,0,0,1-.271-.253" transform="translate(-2514.573 3549.744)" fill="#e66239"/>
        <path id="Trazado_1078242" data-name="Trazado 1078242" d="M305.915,492.8a.644.644,0,0,1-.044-.572.653.653,0,0,1,.849-.367c2.918,1.145,5.9,2.151,8.863,2.986a.653.653,0,1,1-.357,1.257c-3.005-.847-6.029-1.866-8.987-3.028a.653.653,0,0,1-.324-.275" transform="translate(-2514.694 3551.573)" fill="#e66239"/>
      </g>
    </g>
  </g>
</svg>
