<svg xmlns="http://www.w3.org/2000/svg" xmlns:xlink="http://www.w3.org/1999/xlink" width="108" height="108" viewBox="0 0 108 108">
  <defs>
    <filter id="Trazado_904820" x="0" y="0" width="108" height="108" filterUnits="userSpaceOnUse">
      <feOffset dy="3" input="SourceAlpha"/>
      <feGaussianBlur stdDeviation="3" result="blur"/>
      <feFlood flood-opacity="0.161"/>
      <feComposite operator="in" in2="blur"/>
      <feComposite in="SourceGraphic"/>
    </filter>
  </defs>
  <g id="Grupo_1207774" data-name="Grupo 1207774" transform="translate(-617 -790.302)">
    <g id="Grupo_1206630" data-name="Grupo 1206630" transform="translate(-3 -8745.102)">
      <g id="Grupo_1185091" data-name="Grupo 1185091" transform="translate(419.773 8756.733)">
        <g id="Grupo_1179560" data-name="Grupo 1179560" transform="translate(-0.227 23)">
          <g id="Grupo_1173787" data-name="Grupo 1173787" transform="translate(209.455 761.67)">
            <g id="Grupo_1171910" data-name="Grupo 1171910" transform="translate(0)">
              <g id="Grupo_1167341" data-name="Grupo 1167341">
                <g id="Grupo_1166792" data-name="Grupo 1166792">
                  <g transform="matrix(1, 0, 0, 1, -9, -6)" filter="url(#Trazado_904820)">
                    <g id="Trazado_904820-2" data-name="Trazado 904820" transform="translate(9 6)" fill="#f5fcec">
                      <path d="M 44.99999618530273 88.50003051757812 C 39.12687301635742 88.50003051757812 33.43022155761719 87.35010528564453 28.06829643249512 85.08219909667969 C 22.88852119445801 82.89134216308594 18.23629570007324 79.75461578369141 14.24084663391113 75.75916290283203 C 10.24540901184082 71.76371765136719 7.108683586120605 67.11150360107422 4.917821407318115 61.93172836303711 C 2.649921178817749 56.56978988647461 1.499996185302734 50.87313842773438 1.499996185302734 45.00001525878906 C 1.499996185302734 39.12689208984375 2.649921178817749 33.43024063110352 4.917821407318115 28.06831550598145 C 7.108683586120605 22.88854026794434 10.24540901184082 18.23631477355957 14.24084663391113 14.24086570739746 C 18.23629570007324 10.24541568756104 22.88852119445801 7.10869026184082 28.06829643249512 4.917840480804443 C 33.43022155761719 2.649927854537964 39.12687301635742 1.50000274181366 44.99999618530273 1.50000274181366 C 50.87311935424805 1.50000274181366 56.56977081298828 2.649927854537964 61.93169784545898 4.917840480804443 C 67.11147308349609 7.10869026184082 71.76369476318359 10.24541568756104 75.75914764404297 14.24086570739746 C 79.75458526611328 18.23631477355957 82.89131164550781 22.88854026794434 85.08216857910156 28.06831550598145 C 87.35007476806641 33.43024063110352 88.5 39.12689208984375 88.5 45.00001525878906 C 88.5 50.87313842773438 87.35007476806641 56.56978988647461 85.08216857910156 61.93172836303711 C 82.89131164550781 67.11150360107422 79.75458526611328 71.76371765136719 75.75914764404297 75.75916290283203 C 71.76369476318359 79.75461578369141 67.11147308349609 82.89134216308594 61.93169784545898 85.08219909667969 C 56.56977081298828 87.35010528564453 50.87311935424805 88.50003051757812 44.99999618530273 88.50003051757812 Z" stroke="none"/>
                      <path d="M 44.99999618530273 3 C 39.32870864868164 3 33.82865142822266 4.110061645507812 28.65262603759766 6.299346923828125 C 23.65165710449219 8.414573669433594 19.15968322753906 11.44334411621094 15.301513671875 15.301513671875 C 11.44333648681641 19.15968322753906 8.414566040039062 23.65165710449219 6.299339294433594 28.65262985229492 C 4.110054016113281 33.82867050170898 2.999992370605469 39.32872772216797 2.999992370605469 45.00001525878906 C 2.999992370605469 50.67130279541016 4.110054016113281 56.17136001586914 6.299339294433594 61.34738922119141 C 8.414566040039062 66.34837341308594 11.44333648681641 70.84033203125 15.301513671875 74.69850158691406 C 19.15968322753906 78.55668640136719 23.65165710449219 81.58545684814453 28.65262603759766 83.70068359375 C 33.82865142822266 85.88996887207031 39.32870864868164 87.00003051757812 44.99999618530273 87.00003051757812 C 50.67128372192383 87.00003051757812 56.17134094238281 85.88996887207031 61.34736633300781 83.70068359375 C 66.34834289550781 81.58545684814453 70.84030914306641 78.55668640136719 74.69847869873047 74.69850158691406 C 78.55665588378906 70.84033203125 81.58542633056641 66.34837341308594 83.70065307617188 61.34738922119141 C 85.88993835449219 56.17136001586914 87 50.67130279541016 87 45.00001525878906 C 87 39.32872772216797 85.88993835449219 33.82867050170898 83.70065307617188 28.65262985229492 C 81.58542633056641 23.65165710449219 78.55665588378906 19.15968322753906 74.69847869873047 15.301513671875 C 70.84030914306641 11.44334411621094 66.34834289550781 8.414573669433594 61.34736633300781 6.299346923828125 C 56.17134094238281 4.110061645507812 50.67128372192383 3 44.99999618530273 3 M 44.99999618530273 0 C 69.85281372070312 0 90 20.14718627929688 90 45.00001525878906 C 90 69.85282897949219 69.85281372070312 90.00003051757812 44.99999618530273 90.00003051757812 C 20.14717864990234 90.00003051757812 -7.62939453125e-06 69.85282897949219 -7.62939453125e-06 45.00001525878906 C -7.62939453125e-06 20.14718627929688 20.14717864990234 0 44.99999618530273 0 Z" stroke="none" fill="#5a812d"/>
                    </g>
                  </g>
                </g>
              </g>
            </g>
          </g>
        </g>
      </g>
    </g>
    <g id="terapia-del-lenguaje_2_" data-name="terapia-del-lenguaje (2)" transform="translate(639.94 794.96)">
      <g id="Grupo_1207772" data-name="Grupo 1207772" transform="translate(1.157 1.157)">
        <g id="Grupo_1207770" data-name="Grupo 1207770" transform="translate(0 24.091)">
          <g id="Grupo_1207764" data-name="Grupo 1207764" transform="translate(8.371 36.614)">
            <path id="Trazado_1078566" data-name="Trazado 1078566" d="M141.707,414.866a15.939,15.939,0,0,0-11.937-11.429l-10.1,1.763v13.831h18.851a3.3,3.3,0,0,0,3.185-4.164Z" transform="translate(-110.735 -403.051)" fill="#ff8e9e"/>
            <path id="Trazado_1078567" data-name="Trazado 1078567" d="M77.3,400.937a15.966,15.966,0,0,0-15.428,11.818,3.3,3.3,0,0,0,3.186,4.162h5.634a17.117,17.117,0,0,1,10.1-15.594A15.974,15.974,0,0,0,77.3,400.937Z" transform="translate(-61.755 -400.937)" fill="#ea5b70"/>
          </g>
          <g id="Grupo_1207768" data-name="Grupo 1207768">
            <path id="Trazado_1078568" data-name="Trazado 1078568" d="M133.026,388.26l-5.383,2.885a11.162,11.162,0,0,0,5.383,5.8,11.146,11.146,0,0,0,5.374-5.8Z" transform="translate(-109.105 -353.602)" fill="#c8866a"/>
            <g id="Grupo_1207766" data-name="Grupo 1207766" transform="translate(0 0.262)">
              <g id="Grupo_1207765" data-name="Grupo 1207765" transform="translate(0 14.13)">
                <circle id="Elipse_12785" data-name="Elipse 12785" cx="4.762" cy="4.762" r="4.762" fill="#c8866a"/>
                <circle id="Elipse_12786" data-name="Elipse 12786" cx="4.762" cy="4.762" r="4.762" transform="translate(38.308)" fill="#c8866a"/>
              </g>
              <path id="Trazado_1078569" data-name="Trazado 1078569" d="M60.692,165.334H57.033a7.919,7.919,0,0,0-6.231,3.032l-12.439,15.86L50.8,200.086a7.918,7.918,0,0,0,6.231,3.031h3.659a19.157,19.157,0,0,0,0-37.783Z" transform="translate(-33.601 -165.334)" fill="#db9e82"/>
            </g>
            <g id="Grupo_1207767" data-name="Grupo 1207767" transform="translate(4.762)">
              <path id="Trazado_1078570" data-name="Trazado 1078570" d="M99.172,171.585l-.491.979A19.165,19.165,0,0,1,111.7,163.9a19.308,19.308,0,0,0-5.3-.143,19.251,19.251,0,0,0-7.226,7.829Z" transform="translate(-89.374 -163.637)" fill="#c8866a"/>
              <path id="Trazado_1078571" data-name="Trazado 1078571" d="M44.712,250.278a19.106,19.106,0,0,1,1.259-6.841l-7.424,4.185a19.166,19.166,0,0,0,22.144,21.548A19.159,19.159,0,0,1,44.712,250.278Z" transform="translate(-38.363 -231.124)" fill="#c8866a"/>
              <path id="Trazado_1078572" data-name="Trazado 1078572" d="M42.537,255.722l0-.008Z" transform="translate(-41.893 -241.507)" fill="#4c5699"/>
            </g>
          </g>
          <g id="Grupo_1207769" data-name="Grupo 1207769" transform="translate(8.767 20.024)">
            <ellipse id="Elipse_12787" data-name="Elipse 12787" cx="4.083" cy="3.252" rx="4.083" ry="3.252" transform="translate(0 1.837)" fill="#fff"/>
            <ellipse id="Elipse_12788" data-name="Elipse 12788" cx="4.083" cy="3.252" rx="4.083" ry="3.252" transform="translate(22.132 1.837)" fill="#fff"/>
            <ellipse id="Elipse_12789" data-name="Elipse 12789" cx="2.314" cy="2.59" rx="2.314" ry="2.59" transform="translate(12.835)" fill="#495560"/>
          </g>
        </g>
        <g id="Grupo_1207771" data-name="Grupo 1207771" transform="translate(38.883)">
          <path id="Trazado_1078573" data-name="Trazado 1078573" d="M343.933,7.5l-6.946,1.508V36.025h5.985c11.68.442,19.861-6.793,19.861-14.253,0-6.813-7.121-14.272-18.9-14.272Z" transform="translate(-325.031 -7.5)" fill="#efedff"/>
          <path id="Trazado_1078574" data-name="Trazado 1078574" d="M271.731,21.554A19.535,19.535,0,0,1,278.4,7.5c-10.661,0-18.9,6.57-18.9,14.272,0,5.7,4.431,10.622,10.835,12.908a6.978,6.978,0,0,1-.147,2.973,1.781,1.781,0,0,0,2.388,2.085,11.6,11.6,0,0,0,4.865-3.712,19.536,19.536,0,0,1-5.711-14.471Z" transform="translate(-259.5 -7.5)" fill="#d4d4ff"/>
        </g>
        <path id="Trazado_1078575" data-name="Trazado 1078575" d="M115.16,149.594l-5.681-1.752h-4.892l-10.517,7.877v4.9l2.5-.939a22.94,22.94,0,0,1,16.11,0l.855.428a6.409,6.409,0,0,1,2.846,2.9l.024.048a5.889,5.889,0,0,0,4.062,3.066l3.13.652A13.152,13.152,0,0,0,115.16,149.594Z" transform="translate(-80.713 -126.188)" fill="#676fb2"/>
        <path id="Trazado_1078576" data-name="Trazado 1078576" d="M41.237,145.3l-14.564,6.811c-3.422,1.6-2.5,7.315,1.273,7.03l.1-.024a19.031,19.031,0,0,0-1.184,4.463h1.2a6.807,6.807,0,0,0,6.228-4.185l1.729-3.484A19.907,19.907,0,0,1,43.7,147.2a19.241,19.241,0,0,1,6.98-2.556A13.171,13.171,0,0,0,41.237,145.3Z" transform="translate(-21.919 -122.993)" fill="#4c5699"/>
      </g>
      <g id="Grupo_1207773" data-name="Grupo 1207773" transform="translate(0 0)">
        <path id="Trazado_1078577" data-name="Trazado 1078577" d="M88.862,281.2a1.157,1.157,0,0,0-1.157,1.157v1.892a1.157,1.157,0,1,0,2.314,0v-1.892A1.157,1.157,0,0,0,88.862,281.2Z" transform="translate(-74.172 -237.809)"/>
        <path id="Trazado_1078578" data-name="Trazado 1078578" d="M143.472,285.914a3.758,3.758,0,1,0,3.472,3.747A3.621,3.621,0,0,0,143.472,285.914Zm0,5.18a1.465,1.465,0,1,1,1.157-1.433A1.319,1.319,0,0,1,143.472,291.094Z" transform="translate(-118.399 -241.799)"/>
        <path id="Trazado_1078579" data-name="Trazado 1078579" d="M223.452,281.2a1.157,1.157,0,0,0-1.157,1.157v1.892a1.157,1.157,0,1,0,2.314,0v-1.892A1.157,1.157,0,0,0,223.452,281.2Z" transform="translate(-187.996 -237.809)"/>
        <path id="Trazado_1078580" data-name="Trazado 1078580" d="M45.947,154.219a14.311,14.311,0,0,0-10-15.285l-5.681-1.752a14.282,14.282,0,0,0-10.278.712L5.421,144.7c-3.971,1.857-3.534,7.943.274,9.072l-.058.193a5.917,5.917,0,0,0,.011,11.821,20.436,20.436,0,0,0,11.016,12.6,17.156,17.156,0,0,0-4.191,3.315,1.157,1.157,0,1,0,1.7,1.568,14.838,14.838,0,0,1,4.917-3.514,12.65,12.65,0,0,0,5.439,5.332,1.157,1.157,0,0,0,1.091,0,12.628,12.628,0,0,0,5.429-5.33,14.857,14.857,0,0,1,8.331,9.7,2.142,2.142,0,0,1-2.068,2.7H12.831a2.141,2.141,0,0,1-2.069-2.7,14.93,14.93,0,0,1,1-2.659,1.157,1.157,0,0,0-2.079-1.017,17.238,17.238,0,0,0-1.155,3.072,4.457,4.457,0,0,0,4.3,5.621H37.316a4.458,4.458,0,0,0,4.3-5.624,17.173,17.173,0,0,0-8.155-10.474A20.3,20.3,0,0,0,44.5,165.79a5.916,5.916,0,0,0,1.442-11.571ZM6.4,146.8l14.564-6.811a11.974,11.974,0,0,1,8.616-.6l5.681,1.752A11.958,11.958,0,0,1,43.5,154.912c-.064.325-.142.648-.233.967l-2.118-.441a4.7,4.7,0,0,1-3.286-2.5,7.536,7.536,0,0,0-3.363-3.416c-4.988-2.494-12.01-2.681-17.889-.476l-4.68,1.755a1.156,1.156,0,0,0,.3,2.233,5.51,5.51,0,0,1-4.749,3.023,20.716,20.716,0,0,1,.923-3.012,1.158,1.158,0,0,0-1.384-1.413h0c-2.382.1-2.875-3.777-.617-4.833ZM2.314,159.879a3.613,3.613,0,0,1,2.749-3.5,20.817,20.817,0,0,0,.005,7.01,3.612,3.612,0,0,1-2.754-3.505Zm22.763,22.857a10.733,10.733,0,0,1-3.144-2.781,20.9,20.9,0,0,0,3.139.235,20.329,20.329,0,0,0,3.15-.247A10.69,10.69,0,0,1,25.077,182.736ZM38.644,171.7a17.989,17.989,0,0,1-13.571,6.174,17.762,17.762,0,0,1-14.893-7.909A18.013,18.013,0,0,1,7.137,158.38a7.824,7.824,0,0,0,7.18-4.335l1.029-2.051,2.079-.78c6.033-2.262,12.4-1.44,16.041.379a5.259,5.259,0,0,1,2.356,2.436,6.991,6.991,0,0,0,4.857,3.674l2.311.481A18.019,18.019,0,0,1,38.644,171.7Zm7.972-9.122a3.573,3.573,0,0,1-1.538.805,20.374,20.374,0,0,0,.151-6.032c.1-.278.185-.56.266-.844a3.6,3.6,0,0,1,1.121,6.071Z" transform="translate(0 -115.476)"/>
        <path id="Trazado_1078581" data-name="Trazado 1078581" d="M286.679,4.858a1.157,1.157,0,0,0-1.485,1.775,11.79,11.79,0,0,1,4.609,8.8c0,6.2-6.919,13.54-18.66,13.1a1.161,1.161,0,0,0-.962.453,10.455,10.455,0,0,1-4.379,3.343.622.622,0,0,1-.837-.714,8.137,8.137,0,0,0,.169-3.464,1.156,1.156,0,0,0-.752-.9c-6.115-2.183-10.067-6.822-10.067-11.818,0-7.231,7.96-13.114,17.745-13.114a21.97,21.97,0,0,1,9.486,2,1.157,1.157,0,1,0,.991-2.091A24.263,24.263,0,0,0,272.06,0a23.275,23.275,0,0,0-14.154,4.487C254.1,7.411,252,11.3,252,15.429c0,6.384,4.892,11.374,10.922,13.743a5.906,5.906,0,0,1-.195,1.84,2.942,2.942,0,0,0,3.939,3.456,12.75,12.75,0,0,0,4.974-3.613c12.734.218,20.477-8,20.477-15.426a14.081,14.081,0,0,0-5.438-10.57Z" transform="translate(-213.117 0)"/>
        <path id="Trazado_1078582" data-name="Trazado 1078582" d="M300.953,44.706a1.438,1.438,0,0,0-2.66,0l-4.657,12.227a1.157,1.157,0,0,0,2.163.824l.873-2.293h5.869l.864,2.29a1.157,1.157,0,1,0,2.165-.817C300.791,44.277,300.963,44.732,300.953,44.706Zm-3.4,8.445,2.066-5.425,2.047,5.425Z" transform="translate(-248.264 -37.055)"/>
        <path id="Trazado_1078583" data-name="Trazado 1078583" d="M393.267,58.5a1.158,1.158,0,0,0,1.082-.746l.873-2.293h5.869l.864,2.29a1.157,1.157,0,1,0,2.165-.817L399.5,44.7a1.438,1.438,0,0,0-2.66,0l-4.657,12.227a1.158,1.158,0,0,0,1.081,1.57Zm4.9-10.779,2.047,5.425H396.1Z" transform="translate(-331.608 -37.054)"/>
        <path id="Trazado_1078584" data-name="Trazado 1078584" d="M372.22,74.052a1.157,1.157,0,0,0,0-2.314h-1.534a1.157,1.157,0,1,0,0,2.314Z" transform="translate(-312.512 -60.669)"/>
      </g>
    </g>
  </g>
</svg>
