<svg xmlns="http://www.w3.org/2000/svg" xmlns:xlink="http://www.w3.org/1999/xlink" width="108" height="108" viewBox="0 0 108 108">
  <defs>
    <filter id="Trazado_904820" x="0" y="0" width="108" height="108" filterUnits="userSpaceOnUse">
      <feOffset dy="3" input="SourceAlpha"/>
      <feGaussianBlur stdDeviation="3" result="blur"/>
      <feFlood flood-opacity="0.161"/>
      <feComposite operator="in" in2="blur"/>
      <feComposite in="SourceGraphic"/>
    </filter>
  </defs>
  <g id="Grupo_1207660" data-name="Grupo 1207660" transform="translate(9 6)">
    <g id="Grupo_1206676" data-name="Grupo 1206676">
      <g id="Grupo_1182739" data-name="Grupo 1182739">
        <g id="Grupo_1179560" data-name="Grupo 1179560">
          <g id="Grupo_1173787" data-name="Grupo 1173787" transform="translate(0)">
            <g id="Grupo_1171910" data-name="Grupo 1171910">
              <g id="Grupo_1167341" data-name="Grupo 1167341">
                <g id="Grupo_1166792" data-name="Grupo 1166792">
                  <g transform="matrix(1, 0, 0, 1, -9, -6)" filter="url(#Trazado_904820)">
                    <g id="Trazado_904820-2" data-name="Trazado 904820" transform="translate(9 6)" fill="#f9ecff">
                      <path d="M 44.99999618530273 88.50003051757812 C 39.12687301635742 88.50003051757812 33.43022155761719 87.35010528564453 28.06829643249512 85.08219909667969 C 22.88852119445801 82.89134216308594 18.23629570007324 79.75461578369141 14.24084663391113 75.75916290283203 C 10.24540901184082 71.76371765136719 7.108683586120605 67.11150360107422 4.917821407318115 61.93172836303711 C 2.649921178817749 56.56978988647461 1.499996185302734 50.87313842773438 1.499996185302734 45.00001525878906 C 1.499996185302734 39.12689208984375 2.649921178817749 33.43024063110352 4.917821407318115 28.06831550598145 C 7.108683586120605 22.88854026794434 10.24540901184082 18.23631477355957 14.24084663391113 14.24086570739746 C 18.23629570007324 10.24541568756104 22.88852119445801 7.10869026184082 28.06829643249512 4.917840480804443 C 33.43022155761719 2.649927854537964 39.12687301635742 1.50000274181366 44.99999618530273 1.50000274181366 C 50.87311935424805 1.50000274181366 56.56977081298828 2.649927854537964 61.93169784545898 4.917840480804443 C 67.11147308349609 7.10869026184082 71.76369476318359 10.24541568756104 75.75914764404297 14.24086570739746 C 79.75458526611328 18.23631477355957 82.89131164550781 22.88854026794434 85.08216857910156 28.06831550598145 C 87.35007476806641 33.43024063110352 88.5 39.12689208984375 88.5 45.00001525878906 C 88.5 50.87313842773438 87.35007476806641 56.56978988647461 85.08216857910156 61.93172836303711 C 82.89131164550781 67.11150360107422 79.75458526611328 71.76371765136719 75.75914764404297 75.75916290283203 C 71.76369476318359 79.75461578369141 67.11147308349609 82.89134216308594 61.93169784545898 85.08219909667969 C 56.56977081298828 87.35010528564453 50.87311935424805 88.50003051757812 44.99999618530273 88.50003051757812 Z" stroke="none"/>
                      <path d="M 44.99999618530273 3 C 39.32870864868164 3 33.82865142822266 4.110061645507812 28.65262603759766 6.299346923828125 C 23.65165710449219 8.414573669433594 19.15968322753906 11.44334411621094 15.301513671875 15.301513671875 C 11.44333648681641 19.15968322753906 8.414566040039062 23.65165710449219 6.299339294433594 28.65262985229492 C 4.110054016113281 33.82867050170898 2.999992370605469 39.32872772216797 2.999992370605469 45.00001525878906 C 2.999992370605469 50.67130279541016 4.110054016113281 56.17136001586914 6.299339294433594 61.34738922119141 C 8.414566040039062 66.34837341308594 11.44333648681641 70.84033203125 15.301513671875 74.69850158691406 C 19.15968322753906 78.55668640136719 23.65165710449219 81.58545684814453 28.65262603759766 83.70068359375 C 33.82865142822266 85.88996887207031 39.32870864868164 87.00003051757812 44.99999618530273 87.00003051757812 C 50.67128372192383 87.00003051757812 56.17134094238281 85.88996887207031 61.34736633300781 83.70068359375 C 66.34834289550781 81.58545684814453 70.84030914306641 78.55668640136719 74.69847869873047 74.69850158691406 C 78.55665588378906 70.84033203125 81.58542633056641 66.34837341308594 83.70065307617188 61.34738922119141 C 85.88993835449219 56.17136001586914 87 50.67130279541016 87 45.00001525878906 C 87 39.32872772216797 85.88993835449219 33.82867050170898 83.70065307617188 28.65262985229492 C 81.58542633056641 23.65165710449219 78.55665588378906 19.15968322753906 74.69847869873047 15.301513671875 C 70.84030914306641 11.44334411621094 66.34834289550781 8.414573669433594 61.34736633300781 6.299346923828125 C 56.17134094238281 4.110061645507812 50.67128372192383 3 44.99999618530273 3 M 44.99999618530273 0 C 69.85281372070312 0 90 20.14718627929688 90 45.00001525878906 C 90 69.85282897949219 69.85281372070312 90.00003051757812 44.99999618530273 90.00003051757812 C 20.14717864990234 90.00003051757812 -7.62939453125e-06 69.85282897949219 -7.62939453125e-06 45.00001525878906 C -7.62939453125e-06 20.14718627929688 20.14717864990234 0 44.99999618530273 0 Z" stroke="none" fill="#cf50ff"/>
                    </g>
                  </g>
                </g>
              </g>
            </g>
          </g>
        </g>
      </g>
    </g>
    <g id="terapia-musical" transform="translate(18.077 18.077)">
      <g id="Grupo_1207656" data-name="Grupo 1207656" transform="translate(1.049 1.056)">
        <path id="Trazado_1078243" data-name="Trazado 1078243" d="M17.417,60.772a10.326,10.326,0,0,0,8.944-2.761c5.116-4.615,1.78-7.743,10.59-15.929,4.013-3.733,6.8-6.935,7.107-12.107C44.9,15.923,33.388,6.361,19.9,11.4a16.212,16.212,0,0,0-7.233,5.152c-3.9,5.041-3.262,10.557.051,16.91a17.047,17.047,0,0,1,2.114,11.323,18.147,18.147,0,0,1-1.744,4.955c-1.822,3.9-.334,9.979,4.329,11.028Z" transform="translate(-9.984 -10.04)" fill="#ffdcd5" fill-rule="evenodd"/>
      </g>
      <g id="Grupo_1207657" data-name="Grupo 1207657" transform="translate(37.708 35.199)">
        <path id="Trazado_1078244" data-name="Trazado 1078244" d="M358.548,352.278a14.647,14.647,0,0,1,9.49-4.037v-9.522a14.647,14.647,0,0,1-9.49-4.037v17.6Z" transform="translate(-358.548 -334.682)" fill="#c1b0b5" fill-rule="evenodd"/>
      </g>
      <g id="Grupo_1207658" data-name="Grupo 1207658" transform="translate(47.198 39.236)">
        <path id="Trazado_1078245" data-name="Trazado 1078245" d="M449.612,382.588a4.761,4.761,0,0,0,0-9.522h-.835v9.522Z" transform="translate(-448.777 -373.066)" fill="#dad0d3" fill-rule="evenodd"/>
      </g>
      <g id="Grupo_1207659" data-name="Grupo 1207659">
        <path id="Trazado_1078246" data-name="Trazado 1078246" d="M34.072,12.591a1.052,1.052,0,0,0-.722,1.3,20.961,20.961,0,0,1,.73,7.036c-.271,4.562-2.494,7.418-6.773,11.4-5.169,4.8-6.346,8.036-7.292,10.632a11.122,11.122,0,0,1-3.287,5.287,9.332,9.332,0,0,1-8.008,2.515,5.142,5.142,0,0,1-3.477-2.9,8.108,8.108,0,0,1-.13-6.657l.035-.075a18.734,18.734,0,0,0,1.8-5.168A17.987,17.987,0,0,0,4.724,23.995c-3.44-6.6-3.487-11.465-.151-15.781A15.184,15.184,0,0,1,11.341,3.4C17.959.93,24.35,2,28.876,6.33a1.052,1.052,0,0,0,1.455-1.519,17.229,17.229,0,0,0-8.775-4.5A20.31,20.31,0,0,0,10.6,1.434a17.279,17.279,0,0,0-7.7,5.494c-3.852,4.984-3.868,10.716-.05,18.04a16.089,16.089,0,0,1,2.006,10.68,17.082,17.082,0,0,1-1.621,4.591l-.035.076a10.175,10.175,0,0,0,.147,8.474,7.224,7.224,0,0,0,4.9,4.025,9.258,9.258,0,0,0,2.032.222,11.89,11.89,0,0,0,7.847-3.228,13.15,13.15,0,0,0,3.854-6.129c.914-2.509,1.949-5.352,6.747-9.812,3.869-3.6,7.1-7.046,7.441-12.815a23.056,23.056,0,0,0-.808-7.74A1.052,1.052,0,0,0,34.072,12.591Z" transform="translate(-0.007 0)"/>
        <path id="Trazado_1078247" data-name="Trazado 1078247" d="M64.884,395.62a1.052,1.052,0,0,0-1.4.508c-1.16,2.483-.487,4.024.017,4.721a3.994,3.994,0,0,0,3.324,1.526,5.636,5.636,0,0,0,.67-.04,7.738,7.738,0,0,0,6.049-5,1.052,1.052,0,0,0-1.947-.8,5.643,5.643,0,0,1-4.352,3.708,2.148,2.148,0,0,1-2.039-.63,2.652,2.652,0,0,1,.184-2.6A1.052,1.052,0,0,0,64.884,395.62Z" transform="translate(-56.237 -353.923)"/>
        <path id="Trazado_1078248" data-name="Trazado 1078248" d="M66.219,86a1.052,1.052,0,0,0,1.418,1.554c7.237-6.6,10.45-11.224,10.742-15.446a16.2,16.2,0,0,0-.605-5.94,11.7,11.7,0,0,0-8.809-8.07,13.134,13.134,0,0,0-12.4,3.5c-1.862,2-3.424,5.277-2.223,8.454a7.574,7.574,0,0,0,7.549,4.868,2.075,2.075,0,0,1,2.525,1.34c.539,1.683-.481,4.291-3.118,5.742a1.052,1.052,0,1,0,1.014,1.843c3.723-2.048,4.895-5.767,4.108-8.226a4.165,4.165,0,0,0-4.773-2.788A5.469,5.469,0,0,1,56.309,69.3c-.861-2.278.363-4.737,1.8-6.279A11.151,11.151,0,0,1,68.5,60.146a9.566,9.566,0,0,1,7.266,6.642,14.125,14.125,0,0,1,.516,5.171C76.032,75.545,72.929,79.874,66.219,86Z" transform="translate(-48.249 -51.677)"/>
        <path id="Trazado_1078249" data-name="Trazado 1078249" d="M359.923,328.718h-.835c-3.969,0-7.21-2.362-8.79-3.77a1.052,1.052,0,0,0-1.752.785v17.6a1.052,1.052,0,0,0,1.752.785c1.579-1.408,4.821-3.77,8.79-3.77h.835a5.813,5.813,0,0,0,0-11.626Zm-9.272-.811a15.329,15.329,0,0,0,7.386,2.868v7.512a15.329,15.329,0,0,0-7.386,2.868Zm9.489,10.326v-7.405a3.709,3.709,0,0,1,0,7.405Z" transform="translate(-311.891 -290.535)"/>
        <path id="Trazado_1078250" data-name="Trazado 1078250" d="M255.362,347.823a1.052,1.052,0,0,0-1.488-1.487,10.332,10.332,0,0,0,0,14.59,1.052,1.052,0,0,0,1.487-1.487A8.226,8.226,0,0,1,255.362,347.823Z" transform="translate(-224.476 -309.636)"/>
        <path id="Trazado_1078251" data-name="Trazado 1078251" d="M293.756,375.86a1.052,1.052,0,1,0-1.487-1.487,6.156,6.156,0,0,0,0,8.7,1.052,1.052,0,1,0,1.487-1.487A4.05,4.05,0,0,1,293.756,375.86Z" transform="translate(-259.923 -334.724)"/>
        <path id="Trazado_1078252" data-name="Trazado 1078252" d="M299.534,80.138a1.052,1.052,0,1,0,0-1.49,1.045,1.045,0,0,0,0,1.49Z" transform="translate(-267.754 -70.1)"/>
      </g>
    </g>
  </g>
</svg>
